<svg fill="none" xmlns="http://www.w3.org/2000/svg" viewBox="0 0 540 540"><path fill="#E5E5E5" d="M0 0h540v540H0z"/><path fill="#fff" d="M-930-2167H670v4422H-930z"/><g stroke="#263238" stroke-linecap="round" stroke-linejoin="round"><path d="M347.868 105.127a9.764 9.764 0 0 1-3.823 1.879c-3.834.854-14.04.422-15.768 5.109a10.137 10.137 0 0 1-6.383 5.961s-8.089.432-8.521 2.16c-.432 1.728-3.402 4.688-3.402 4.688H449.28s4.687-7.236-2.981-14.04c-6.707-5.962-18.965 3.067-20.52-4.32m-1.263-10.844c-1.556-5.605-4.828-13.165-11.47-15.973-11.081-4.687-20.444 1.707-23.004 8.09-2.56 6.382-4.255 10.648-14.04 5.108s-18.36-5.109-21.298 2.16a33.248 33.248 0 0 1-3.164 6.005M111.293 179.388h48.374s2.829-4.32-1.804-8.5c-4.633-4.179-13.662 3.608-12.366-5.151 0 0-1.08-10.8-7.733-13.651a10.787 10.787 0 0 0-5.475-.937c-1.876.17-3.674.828-5.217 1.909m-3.218 3.92c-1.544 3.866-2.581 6.48-8.499 3.089-5.919-3.391-11.081-3.089-12.885 1.296-1.803 4.385-4.125 6.696-6.48 7.203-2.354.508-8.5.26-9.536 3.1a6.17 6.17 0 0 1-3.867 3.607s-4.892.249-5.151 1.285a9.96 9.96 0 0 1-2.063 2.83h28.307M353.43 179.388h22.842s2.829-4.32-1.804-8.5c-4.633-4.179-13.651 3.608-12.366-5.151 0 0-1.026-10.8-7.733-13.651-6.706-2.852-12.355 1.08-13.91 4.892-1.555 3.812-2.57 6.48-8.5 3.089-5.929-3.391-11.08-3.089-12.873 1.296-1.793 4.385-4.126 6.696-6.48 7.203-2.354.508-8.5.26-9.526 3.1a6.183 6.183 0 0 1-3.866 3.607s-4.892.249-5.152 1.285a9.958 9.958 0 0 1-2.062 2.83h53.805"/></g><g fill="#000"><g opacity=".1"><path opacity=".1" d="M25.088 250.744c4.255.842 13.706-1.437 13.706-1.437s-3.392-5.778-3.65-6.113c-3.036-3.909-11.2-9.72-16.395-7.776a6.57 6.57 0 0 0-3.391 9.148c1.695 3.521 6.112 5.454 9.73 6.178Z"/><path opacity=".1" d="M34.366 277.56c4.147-.292 12.085-4.59 12.722-4.936a116.424 116.424 0 0 0 8.24 13.101c1.75 2.441 3.597 4.849 5.476 7.236-1.026-.961-1.944-1.815-2.084-1.923-3.953-2.959-13.349-6.361-17.863-3.164a6.566 6.566 0 0 0-.854 9.72c2.57 2.938 7.334 3.64 11.016 3.38 3.683-.259 10.584-3.801 12.377-4.752.735.908 1.447 1.826 2.16 2.733 3.521 4.32 7.053 8.64 10.39 13.025 1.177 1.533 2.268 3.088 3.38 4.633-.907-.853-1.674-1.566-1.803-1.663-3.964-2.97-13.35-6.372-17.864-3.165a6.557 6.557 0 0 0-2.6 4.669 6.544 6.544 0 0 0 1.747 5.051c2.57 2.949 7.333 3.64 11.016 3.381 3.683-.26 9.915-3.456 12.053-4.58 1.08 1.62 2.16 3.24 3.154 4.86.648 1.08 1.339 2.16 1.922 3.316l1.793 3.38c1.08 2.16 2.16 4.45 3.143 6.61a243.474 243.474 0 0 1 1.965 4.396c-1.155-1.545-3.467-4.515-3.693-4.742-3.456-3.52-12.226-8.305-17.183-5.832a6.57 6.57 0 0 0-3.266 4.221 6.555 6.555 0 0 0 .955 5.251c2.095 3.305 6.696 4.709 10.378 5.011 4.05.335 12.237-2.559 13.252-2.927a209.342 209.342 0 0 1 2.96 6.988 188.193 188.193 0 0 1 1.91 4.763l3.37-.735a5690.95 5690.95 0 0 1-2.257-5.313 374.669 374.669 0 0 0-3.477-7.679 69.389 69.389 0 0 0 6.642-5.098c3.423 2.398 11.286 4.32 12.301 4.612a313.556 313.556 0 0 1-1.383 7.452c-.248 1.253-.496 2.43-.745 3.607l3.564-.777c.141-.735.27-1.458.4-2.225.475-2.625.918-5.4 1.35-8.327 1.08 0 9.72-.14 13.446-1.858 3.348-1.566 7.171-4.482 7.992-8.305a6.56 6.56 0 0 0-5.465-8.078c-5.497-.605-12.064 6.923-14.04 11.437-.119.27-1.08 3.305-1.663 5.227.162-1.188.345-2.333.497-3.553.334-2.408.594-4.817.885-7.42.097-1.252.195-2.527.292-3.812.097-1.285.097-2.624.151-3.953 0-3.089 0-6.21-.194-9.353 2.16.281 9.622 1.188 13.176.152 3.553-1.037 7.776-3.348 9.158-6.999a6.541 6.541 0 0 0-1.772-7.507 6.54 6.54 0 0 0-2.397-1.306c-5.4-1.436-12.96 5.012-15.66 9.17-.162.259-1.749 3.456-2.592 5.227-.108-1.89-.216-3.769-.389-5.681-.507-5.508-1.188-11.07-1.836-16.621-.205-1.707-.388-3.402-.572-5.098.745.108 9.655 1.383 13.64.216 3.543-1.08 7.766-3.348 9.159-6.998a6.566 6.566 0 0 0 .506-2.683 6.566 6.566 0 0 0-2.289-4.824 6.54 6.54 0 0 0-2.397-1.306c-5.4-1.436-12.96 5.022-15.649 9.169-.205.313-2.484 4.925-3.002 6.124-.411-3.748-.789-7.474-1.005-11.167a115.384 115.384 0 0 1 0-14.969c.346.054 9.634 1.425 13.716.227 3.543-1.08 7.776-3.338 9.159-6.999a6.569 6.569 0 0 0-.121-5.335 6.557 6.557 0 0 0-4.048-3.478c-5.4-1.425-12.96 5.022-15.66 9.18-.205.324-2.657 5.271-3.035 6.21v-.885a84.171 84.171 0 0 1 2.711-14.753c.702-2.678 1.533-5.195 2.387-7.625 1.706.432 9.514 2.322 13.305 1.653 3.791-.67 8.089-2.474 9.871-5.951a6.555 6.555 0 0 0-3.186-9.213c-5.162-2.019-13.446 3.564-16.567 7.398-.162.206-1.652 2.517-2.721 4.212.41-1.08.799-2.224 1.209-3.24 1.523-3.898 3.154-7.376 4.623-10.454.853-1.739 1.652-3.24 2.419-4.741 1.89-.443 9.504-2.344 12.506-4.644 3.003-2.301 6.037-5.919 6.016-9.828a6.568 6.568 0 0 0-2.039-4.937 6.559 6.559 0 0 0-5.035-1.781c-5.508.594-10.293 9.353-11.286 14.202-.087.411-.691 7.117-.594 7.096h.108a185.79 185.79 0 0 0-2.419 4.503c-1.534 3.046-3.24 6.48-4.86 10.379a115.89 115.89 0 0 0-4.569 12.679 84.973 84.973 0 0 0-3.067 14.883 1.118 1.118 0 0 0 0 .183c-.324-1.587-1.361-6.004-1.48-6.339-1.663-4.655-7.614-12.669-13.154-12.496a6.55 6.55 0 0 0-4.726 2.465 6.554 6.554 0 0 0-1.333 5.16c.519 3.866 4.104 7.074 7.323 8.899 3.628 2.041 12.625 2.83 13.338 2.895a116.537 116.537 0 0 0-.357 15.476c.119 3.002.324 6.026.573 9.061-.314-1.371-.616-2.592-.67-2.754-1.663-4.655-7.625-12.668-13.154-12.495a6.536 6.536 0 0 0-4.737 2.457 6.537 6.537 0 0 0-1.333 5.167c.518 3.878 4.104 7.085 7.322 8.9 3.219 1.814 10.919 2.678 12.96 2.872.108 1.156.195 2.322.314 3.478.529 5.573 1.08 11.124 1.468 16.6.141 1.922.195 3.823.27 5.724-.291-1.21-.54-2.225-.594-2.376-1.663-4.666-7.56-12.68-13.154-12.507a6.552 6.552 0 0 0-5.954 4.908 6.558 6.558 0 0 0-.116 2.728c.519 3.877 4.115 7.085 7.323 8.899 3.207 1.814 10.173 2.592 12.582 2.83v5.788c-.087 1.296-.076 2.538-.227 3.834-.151 1.296-.248 2.549-.367 3.802-.335 2.419-.648 4.903-1.08 7.247-.249 1.631-.519 3.186-.789 4.752-.108-1.923-.41-5.681-.464-5.983a25.466 25.466 0 0 0-6.016-11.362 7.085 7.085 0 0 0-.399-1.393 6.55 6.55 0 0 0-3.672-3.874 6.53 6.53 0 0 0-5.335.148c-4.925 2.527-6.243 12.431-5.4 17.28 0 .281.918 3.348 1.49 5.27-.508-1.08-.994-2.16-1.534-3.24-1.08-2.16-2.16-4.32-3.358-6.674l-1.858-3.337c-.605-1.08-1.372-2.247-2.063-3.381-1.652-2.603-3.456-5.162-5.324-7.689 1.922-.929 8.64-4.32 11.08-7.15 2.441-2.83 4.634-7.074 3.78-10.886a6.568 6.568 0 0 0-8.348-5.022c-5.249 1.76-8.046 11.35-7.992 16.286 0 .313.443 3.856.713 5.8a107.162 107.162 0 0 0-3.456-4.536c-3.456-4.32-7.096-8.576-10.703-12.842-1.08-1.306-2.16-2.624-3.24-3.931.68-.324 8.813-4.179 11.491-7.355 2.387-2.818 4.634-7.074 3.78-10.886a6.548 6.548 0 0 0-8.348-5.044c-5.249 1.75-8.046 11.34-7.992 16.287 0 .367.648 5.465.864 6.75-2.398-2.884-4.774-5.789-6.988-8.748a116.384 116.384 0 0 1-8.25-12.485c.312-.151 8.812-4.136 11.555-7.387 2.387-2.819 4.644-7.074 3.78-10.887a6.544 6.544 0 0 0-8.337-5.043c-5.26 1.749-8.057 11.34-8.003 16.286 0 .389.702 5.875.896 6.858-.14-.259-.324-.497-.464-.756a85.6 85.6 0 0 1-5.875-13.802 77.935 77.935 0 0 1-2.16-7.679c1.663-.572 9.212-3.305 12.01-5.962 2.796-2.656 5.4-6.48 4.946-10.4a6.547 6.547 0 0 0-7.733-5.94c-5.4 1.166-9.245 10.39-9.72 15.314 0 .27 0 3.014.065 5.022-.27-1.134-.562-2.3-.8-3.391-.885-4.093-1.447-7.895-1.911-11.264a177.077 177.077 0 0 1-.594-5.292c1.328-1.415 6.62-7.204 7.862-10.8 1.242-3.597 1.771-8.273-.4-11.513a6.56 6.56 0 0 0-4.425-2.994 6.561 6.561 0 0 0-5.186 1.288c-4.256 3.531-3.413 13.489-1.577 18.079.151.399 3.348 6.318 3.413 6.242l.086-.086c.119 1.577.27 3.24.464 5.097.4 3.381.875 7.204 1.674 11.34a116.982 116.982 0 0 0 3.24 13.198 85.104 85.104 0 0 0 5.649 14.094s.065.108.086.162c-1.08-1.156-4.439-4.266-4.72-4.471-3.963-2.97-13.348-6.372-17.863-3.165a6.557 6.557 0 0 0-2.6 4.67 6.54 6.54 0 0 0 1.747 5.05c2.376 2.96 7.139 3.651 10.822 3.424Z"/><path opacity=".1" d="M121.587 231.887c.097 0 .356-6.685.324-7.107-.378-4.935-4.007-14.234-9.386-15.53a6.57 6.57 0 0 0-5.22 1.123 6.562 6.562 0 0 0-2.653 4.633c-.518 3.878 2.095 7.917 4.709 10.52 3.078 3.056 12.226 6.361 12.226 6.361Z"/></g><g opacity=".1"><path opacity=".1" d="M506.584 343.753c-3.65.13-11.199-3.024-11.199-3.024s3.585-4.32 3.855-4.59c3.035-2.84 10.584-6.534 14.656-4.32a5.55 5.55 0 0 1 1.686 1.561 5.54 5.54 0 0 1 .874 4.409 5.517 5.517 0 0 1-.962 2.087c-1.89 2.743-5.81 3.758-8.91 3.877Z"/><path opacity=".1" d="M495.298 364.77c-3.412-.788-9.428-5.4-9.914-5.8a96.467 96.467 0 0 1-8.64 9.785c-1.782 1.804-3.629 3.553-5.508 5.292.972-.669 1.847-1.253 1.987-1.317 3.683-1.944 11.934-3.51 15.261-.249a5.519 5.519 0 0 1-.584 8.187c-2.527 2.106-6.577 2.041-9.601 1.339-3.024-.702-8.294-4.569-9.655-5.605-.734.658-1.447 1.328-2.16 1.976-3.499 3.154-7.009 6.275-10.368 9.45-1.177 1.08-2.3 2.257-3.424 3.391.864-.583 1.599-1.08 1.718-1.145 3.682-1.933 11.944-3.499 15.271-.237a5.507 5.507 0 0 1-.583 8.175c-2.528 2.16-6.578 2.052-9.612 1.35-3.035-.702-7.776-4.201-9.407-5.4-1.08 1.199-2.236 2.409-3.24 3.618-.691.843-1.404 1.61-2.041 2.506l-1.944 2.57c-1.167 1.674-2.387 3.402-3.489 5.066-.777 1.155-1.49 2.268-2.225 3.391 1.167-1.134 3.489-3.24 3.705-3.445 3.348-2.474 11.264-5.271 15.055-2.56a5.523 5.523 0 0 1 2.15 3.947 5.548 5.548 0 0 1-.295 2.278 5.54 5.54 0 0 1-1.196 1.961c-2.16 2.463-6.199 3.024-9.299 2.776-3.402-.259-9.817-3.758-10.616-4.201a228.68 228.68 0 0 0-3.392 5.4 310.521 310.521 0 0 0-2.224 3.704l-2.7-1.08c.81-1.317 1.674-2.678 2.581-4.115a275.922 275.922 0 0 1 3.92-5.918 57.916 57.916 0 0 1-4.838-5.119c-3.165 1.533-9.958 2.16-10.8 2.16 0 2.16.075 4.32.162 6.372 0 1.08.086 2.095.129 3.099l-2.851-1.08v-9.007c-.885-.151-8.1-1.415-10.929-3.337-2.571-1.75-5.4-4.687-5.53-7.97a5.502 5.502 0 0 1 5.616-5.984c4.644.238 9.094 7.366 10.174 11.384.064.237.464 2.883.691 4.568 0-1.015 0-1.987.054-3.024 0-2.041.151-4.082.248-6.275.097-1.08.184-2.16.27-3.24.087-1.08.27-2.16.411-3.305.356-2.57.853-5.151 1.404-7.743-1.793 0-8.154-.292-10.973-1.631-2.819-1.339-6.005-3.812-6.675-7.042a5.526 5.526 0 0 1 .817-4.414 5.517 5.517 0 0 1 3.827-2.346c4.634-.476 10.109 5.896 11.783 9.72.108.237 1.005 3.11 1.458 4.687.346-1.555.681-3.111 1.08-4.666 1.156-4.514 2.463-9.039 3.748-13.565.399-1.393.767-2.775 1.155-4.158-.637 0-8.208-.14-11.361-1.641-2.808-1.339-6.016-3.823-6.675-7.042a5.504 5.504 0 0 1 .809-4.42 5.489 5.489 0 0 1 3.835-2.341c4.634-.475 10.109 5.897 11.783 9.72.119.281 1.404 4.418 1.674 5.476.843-3.046 1.653-6.102 2.322-9.137a96.363 96.363 0 0 0 1.998-12.431c-.302 0-8.197-.108-11.426-1.652-2.808-1.328-6.016-3.812-6.685-7.031a5.508 5.508 0 0 1 .812-4.421 5.507 5.507 0 0 1 3.832-2.35c4.644-.476 10.108 5.907 11.782 9.72.141.302 1.512 4.752 1.707 5.572 0-.248.065-.496.086-.734.28-4.209.183-8.434-.291-12.625-.227-2.311-.573-4.515-.962-6.653-1.468.13-8.208.659-11.275-.4-3.067-1.058-6.393-3.132-7.409-6.264a5.52 5.52 0 0 1 3.878-7.236c4.546-.982 10.692 4.752 12.776 8.36.108.194 1.08 2.311 1.696 3.866-.184-.961-.368-1.955-.562-2.873-.745-3.445-1.642-6.555-2.452-9.299-.475-1.555-.939-2.959-1.382-4.32-1.512-.626-7.56-3.24-9.72-5.529-2.16-2.29-4.234-5.724-3.694-8.964a5.51 5.51 0 0 1 6.772-4.644c4.493 1.231 7.301 9.147 7.495 13.305 0 .368-.378 6.005-.453 5.973h-.098c.454 1.253.929 2.592 1.415 4.071.875 2.733 1.836 5.832 2.657 9.267a98.95 98.95 0 0 1 2.16 11.232c.566 4.233.758 8.509.572 12.776a.636.636 0 0 0 0 .151c.476-1.285 1.934-4.816 2.074-5.076 1.998-3.639 8.014-9.514 12.593-8.64a5.53 5.53 0 0 1 3.607 2.678 5.507 5.507 0 0 1 .421 4.472c-.95 3.154-4.32 5.4-7.268 6.48-3.294 1.22-10.876.67-11.47.626a98.66 98.66 0 0 1-1.965 12.874c-.497 2.484-1.08 4.968-1.685 7.452.443-1.08.853-2.063.929-2.16 2.008-3.65 8.024-9.515 12.592-8.64a5.5 5.5 0 0 1 3.612 2.675 5.51 5.51 0 0 1 .417 4.475c-.951 3.142-4.32 5.335-7.269 6.415-2.948 1.08-9.428.767-11.145.648-.238.95-.475 1.911-.724 2.851-1.188 4.558-2.387 9.104-3.434 13.597a126.76 126.76 0 0 0-.983 4.731c.4-.972.734-1.782.799-1.901 2.009-3.651 8.025-9.515 12.604-8.64a5.515 5.515 0 0 1 4.293 4.868 5.515 5.515 0 0 1-.265 2.281c-.95 3.143-4.32 5.336-7.279 6.416-2.959 1.08-8.791.788-10.8.669-.27 1.62-.54 3.24-.734 4.828-.098 1.08-.27 2.16-.324 3.24l-.195 3.24c-.054 2.052-.119 4.158-.119 6.156v4.05c.346-1.577 1.08-4.655 1.188-4.903a21.397 21.397 0 0 1 6.48-8.64 6.13 6.13 0 0 1 .519-1.08 5.516 5.516 0 0 1 7.981-1.89c3.758 2.764 3.532 11.167 2.16 15.12-.076.226-1.199 2.667-1.933 4.19.572-.832 1.08-1.642 1.706-2.495a232.545 232.545 0 0 1 3.683-5.097l1.987-2.528c.648-.853 1.437-1.684 2.16-2.538a121.979 121.979 0 0 1 5.454-5.68c-1.479-1.026-6.642-4.742-8.251-7.409-1.609-2.668-2.916-6.48-1.685-9.558a5.501 5.501 0 0 1 7.56-3.078c4.126 2.16 5.173 10.497 4.471 14.601 0 .249-.885 3.143-1.371 4.709 1.145-1.08 2.279-2.214 3.477-3.294 3.456-3.132 7.042-6.188 10.606-9.245l3.24-2.84c-.529-.356-6.772-4.644-8.575-7.636-1.609-2.656-2.905-6.48-1.685-9.547a5.517 5.517 0 0 1 5.342-3.624 5.517 5.517 0 0 1 2.218.535c4.126 2.16 5.173 10.498 4.471 14.602 0 .313-1.263 4.46-1.62 5.497 2.387-2.073 4.741-4.179 6.977-6.339a96.034 96.034 0 0 0 8.662-9.364c-.249-.173-6.772-4.612-8.64-7.679-1.61-2.667-2.916-6.48-1.696-9.558a5.518 5.518 0 0 1 3.123-3.232 5.538 5.538 0 0 1 4.491.154c4.126 2.16 5.173 10.498 4.471 14.602-.054.324-1.361 4.784-1.652 5.573.151-.184.324-.368.475-.562a71.258 71.258 0 0 0 6.728-10.681 86.809 86.809 0 0 0 2.862-6.081c-1.306-.702-7.214-3.985-9.18-6.555-1.965-2.571-3.607-6.145-2.732-9.31a5.516 5.516 0 0 1 2.741-3.565 5.5 5.5 0 0 1 4.484-.334c4.32 1.696 6.297 9.861 6.048 14.04 0 .227-.41 2.506-.713 4.158.368-.896.767-1.825 1.08-2.7 1.275-3.24 2.247-6.372 3.089-9.115.465-1.555.853-2.981 1.199-4.32-.918-1.361-4.547-6.869-5.098-10.001-.55-3.132-.367-7.117 1.869-9.514a5.515 5.515 0 0 1 8.208-.141c3.078 3.51 1.08 11.664-1.08 15.228-.184.313-3.629 4.806-3.672 4.741l-.065-.086a96.778 96.778 0 0 1-1.08 4.169 96.644 96.644 0 0 1-2.84 9.169 97.798 97.798 0 0 1-4.428 10.541 71.304 71.304 0 0 1-6.578 10.962.917.917 0 0 1-.097.119c1.08-.8 4.266-2.949 4.525-3.089 3.683-1.933 11.945-3.51 15.272-.249a5.519 5.519 0 0 1-.584 8.187c-2.527 2.106-6.588 2.052-9.612 1.339Z"/><path opacity=".1" d="M428.911 315.219c-.087 0 .594-5.605.68-5.961.972-4.039 5.227-11.286 9.871-11.643a5.518 5.518 0 0 1 4.186 1.629 5.517 5.517 0 0 1 1.582 4.203c-.076 3.24-2.787 6.297-5.314 8.111-2.97 2.128-11.005 3.651-11.005 3.661Z"/></g></g><path d="m225.342 36.029 13.5 128.293" stroke="#263238" stroke-linecap="round" stroke-linejoin="round"/><path d="M265.831 63.288 255.765 65.6l-9.212 18.22-14.591-4.169-.41 3.974 18.144 7.528 6.491-9.007v15.714l19.483.842 3.985-17.809 7.117 6.286v16.545h4.191l2.516-20.736-11.102-18.014-16.546-1.685Z" fill="#fff" stroke="#263238" stroke-linecap="round" stroke-linejoin="round"/><path d="m256.186 82.145-.151-8.867" stroke="#263238" stroke-linecap="round" stroke-linejoin="round"/><path d="m265.68 69.12 2.732 5.13s7.56 2.398 8.899 2.732c1.339.335 5.476-1.026 8.889-1.706 3.413-.68 14.375 4.784 14.375 4.784l9.579.346-5.13-6.156-18.479-2.743-9.579 3.089-6.48-1.718 1.382-2.678-3.078-4.795-3.11 3.715Z" fill="#000" stroke="#263238" stroke-linecap="round" stroke-linejoin="round"/><path d="M266.663 61.82a2.16 2.16 0 0 0-2.516 1.684c-.411 2.095-.832 7.333-.832 7.333l5.022-1.469 5.875 2.517s1.879-5.454.832-7.333c-1.048-1.88-5.865-4.407-8.381-2.733Z" fill="#fff" stroke="#263238" stroke-linecap="round" stroke-linejoin="round"/><path d="M265.615 58.892s.626 5.865.842 7.96c.216 2.095 1.469 5.238 2.301 4.611.831-.626 3.769-6.48 3.769-6.48l1.469-3.974-8.381-2.117ZM265.68 50.328s-1.836-.162-1.836 2.84c0 3.003 1.328 3.165 1.328 3.165l.508-6.005ZM277.959 52.834a1.634 1.634 0 0 1 1.509 1.292c.049.233.047.474-.007.706-.335 1.836-3.5 4.32-3.5 4.32l1.998-6.318Z" fill="#fff" stroke="#263238" stroke-linecap="round" stroke-linejoin="round"/><path d="M271.9 44.28s-3.348-.843-5.238 3.143c-1.89 3.985-1.468 8.802-1.08 11.523.389 2.722 2.938 3.975 5.454 3.975 2.517 0 6.275-5.227 7.118-9.213.842-3.985.237-9.428-6.254-9.428ZM227.912 77.328l.832 6.285 3.769.422-.626-7.128-3.975.42ZM231.962 77.23l1.523-.204.302 3.348-1.523.205-.302-3.348ZM286.772 103.723l-2.29 3.586.594 3.596 1.998-.194 3.402-1.199.486-5.789h-4.19Z" fill="#fff" stroke="#263238" stroke-linecap="round" stroke-linejoin="round"/><path d="m256.187 97.859-1.48 6.458-16.395 21.579 10.995 30.985 2.797-.605-2.397-29.581 13.391-14.191 1.599 1.004.043 15.833 15.347 25.941 3.197-.81-7.193-24.98.399-26.579-.82-4.212-19.483-.842Z" fill="#263238" stroke="#263238" stroke-linecap="round" stroke-linejoin="round"/><path d="m249.307 156.881-2.397 3.391s-3.802 1.804-4.396 2.797c-.594.994 3.24.8 3.24.8l4.396-.4 4.601-2.992-2.603-4.201-2.841.605Z" fill="#fff" stroke="#263238" stroke-linecap="round" stroke-linejoin="round"/><path d="M225.914 40.597s-2.009 4.58-10.303 7.722c-8.294 3.143-20.304 4.86-23.447 11.437-3.143 6.578-3.143 6.016-3.715 9.72a10.035 10.035 0 0 1-2.862 5.714s2.862.291 4.32-1.707c1.458-1.998 2.009-7.722 4.32-8.586 2.311-.864 6.512-2.257 6.512-2.257s-3.996 3.434-4.32 5.152c-.324 1.717-.572 5.724-1.144 8.294a6.835 6.835 0 0 1-1.955 3.694s3.715 0 4.86-2.57c1.145-2.571 0-6.006 3.715-8.587 3.715-2.581 7.722-1.425 14.04-1.145 6.318.281 12.301-3.423 12.301-3.423l-2.322-23.458Z" fill="#000" stroke="#263238" stroke-linecap="round" stroke-linejoin="round"/><path d="m280.087 155.282-2.754 9.148 6.836-.27-.885-9.688-3.197.81Z" fill="#fff" stroke="#263238" stroke-linecap="round" stroke-linejoin="round"/><path d="M269.611 52.304c-.119.54-.497.918-.864.843-.368-.076-.562-.583-.443-1.08.119-.497.497-.918.864-.843.367.076.551.54.443 1.08ZM274.612 53.47c-.119.54-.497.919-.864.843-.368-.075-.562-.583-.443-1.08.119-.496.497-.918.864-.842.367.076.551.53.443 1.08Z" fill="#263238"/><path d="m271.285 52.996-1.328 4.006h2.17M268.293 58.169s1.167 1.998 4.169.831M268.121 49.496a2.159 2.159 0 0 1 2.667.497M273.294 50.663a2.367 2.367 0 0 1 3.326 1.177" stroke="#263238" stroke-linecap="round" stroke-linejoin="round"/><path d="m264.957 49 11.998-1.48s-.496 1.998.173 2.495c.67.497.832 2.84.832 2.84l-.497 2.668 2.668-4.666s.831-3.672.162-4.838a2.935 2.935 0 0 0-1.998-1.34 6.83 6.83 0 0 0-6.675-2.99c-4.665.496-6.663 2.829-6.663 4.665V49Z" fill="#263238" stroke="#263238" stroke-linecap="round" stroke-linejoin="round"/><g stroke="#39515E"><path d="m256.1 502.416 21.168-121.467-79.898-73.322 28.998-98.798-31.04.691-13.111 11.729-27.399-.669-3.705 13.359-7.517-.939-2.592 4.687-12.819 25.596-6.664 25.563-24.84 31.05-2.721 73.267-40.047 57.802-12.593 51.451H256.1Z" fill="gray" stroke-linecap="round" stroke-linejoin="round"/><path d="M436.384 502.416 409.87 444.28l43.2 28.782V427l-25.391-30.078 3.759-33.837-38.556-73.321-1.923-25.38-13.154-12.226-67.522 4.882-4.817-23.706-43.2-24.44-25.92 62.758-23.878 10.563 16.826 23.069-2.722 18.284 5.627 28.231-93.96 20.682s-.939 45.123-.939 48.881c0 3.758-18.803 25.38-18.803 25.38l-.875 55.674h318.762Z" fill="#ABABAB" stroke-linecap="round" stroke-linejoin="round"/><path d="m488.71 502.416-11.221-4.914-14.105-30.078-16.923-12.215-7.517-17.863-7.517-14.105-40.176-19.623 6.232 98.798h91.227ZM68.201 502.297h50.231l.907-29.235-4.698-16.913v-45.123l-11.275-1.879-9.406 10.336-15.034 8.467-32.584 74.466h21.86v-.119Z" fill="#CCC" stroke-linecap="round" stroke-linejoin="round"/><path d="m85.579 453.352 1.101-4.687M68.202 502.416l6.696-26.449 6.318-4.018 3.693-15.746M57.358 502.697l10.638-30.175M103.517 421.632l-1.037 4.903M105.926 410.163l-1.966 9.363" stroke-miterlimit="10"/><path d="m118.432 502.297.908-29.235-4.698-16.913v-45.122l-9.396 60.156-8.468 2.818-2.818 16.924-1.75 11.372h26.222ZM279.299 468.958a61.488 61.488 0 0 0 15.541-4.234 25.304 25.304 0 0 0 10.152-7.56c.313-.421.605-.864.886-1.307l-7.42-33.48-14.634-12.765-2.441-10.952-14.04-10.951-4.86 17.043-7.916 10.951-.605 40.165 7.56 14.45c5.95-.05 11.889-.504 17.777-1.36v0Z" fill="#fff" stroke-linecap="round" stroke-linejoin="round"/><path d="m279.298 468.958-1.49-12.507 4.396-11.847v-7.02l-.886-10.973M288.208 430.942l2.333 13.219 4.385.875-.875 10.972 1.75 5.714M286.588 421.783l.778 4.407M272.105 393.692l3.51 35.986" stroke-miterlimit="10"/><path d="M229.229 468.061a199.744 199.744 0 0 0 30.51 2.268c2.052 0 4.061-.054 6.038-.129l-.216-11.297-3.651-4.86v-34.69l6.091-6.091-.615-25.542-7.301 13.392-9.72 8.511-6.091 17.647-9.72 11.567-2.441 12.171-11.556 9.72-4.612 4.914c4.356.929 8.784 1.735 13.284 2.419Z" fill="#CCC" stroke-linecap="round" stroke-linejoin="round"/><path d="m405.108 502.416 51.03-.097-66.075-39.593-15.973-38.545-13.165-1.879-11.275-15.034-5.649 5.638 3.759 32.897-14.094 23.5v15.045l-6.578 16.913 31.796 1.155h46.224Z" fill="#fff" stroke-linecap="round" stroke-linejoin="round"/><path d="m379.512 502.351-2.408-13.446 3.79-7.938-1.036-15.519 3.11 3.11 21.038 33.793h-24.494Z" fill="#CCC" stroke-linecap="round" stroke-linejoin="round"/><path d="m379.857 465.448 14.839 7.247 5.854 7.236 16.902 8.629 11.729 7.247 7.203 6.609-32.378-.065-24.149-36.903Z" fill="#fff" stroke-linecap="round" stroke-linejoin="round"/><path d="M333.665 469.303v15.045l-7.084 17.766 26.838.345-5.66-32.216 11.286-10.336-15.044-47.001 3.758 32.897-14.094 23.5Z" fill="#CCC" stroke-linecap="round" stroke-linejoin="round"/><path d="m360.925 422.302 9.925 20.984 4.385.443 3.51 10.53M367.588 485.784l1.512 4.903M361.637 447.671l3.067 11.858 5.271 8.77-6.145 5.27 2.656 8.629" stroke-miterlimit="10"/><path d="m236.239 206.55-22.032 24.095-.756-44.172 21.934-26.633.854 46.71ZM220.946 303.016l22.529-19.883a23.718 23.718 0 0 1 5.346-3.499 40.214 40.214 0 0 1 7.56-2.7 69.451 69.451 0 0 1 10.152-1.685c4.308-.397 8.634-.556 12.96-.475a209.669 209.669 0 0 1 31.212 2.754 207.284 207.284 0 0 1 25.39 5.864c7.496 2.236 14.04 4.633 19.689 6.847 5.648 2.214 10.314 4.245 14.094 5.735l-29.236 18.954c-3.575-1.404-8.013-3.315-13.338-5.4a253.151 253.151 0 0 0-18.63-6.48 193.401 193.401 0 0 0-24.019-5.497 197.791 197.791 0 0 0-29.549-2.549c-4.102-.07-8.205.088-12.29.475a65.54 65.54 0 0 0-9.601 1.61 37.485 37.485 0 0 0-7.204 2.57 22.557 22.557 0 0 0-5.065 3.359v0ZM292.68 465.599l-25.423 9.72a33.819 33.819 0 0 0 6.35-3.154 21.214 21.214 0 0 0 4.73-4.114 16.094 16.094 0 0 0 2.938-5.13c.673-1.999.988-4.102.929-6.21a18.259 18.259 0 0 0-3.24-10.293 30.64 30.64 0 0 0-10.044-8.586 98.927 98.927 0 0 0-17.777-7.56c-7.344-2.473-16.2-4.914-26.622-7.452a266.33 266.33 0 0 1-41.558-13.349 142.948 142.948 0 0 1-33.923-19.72 85.636 85.636 0 0 1-22.972-27.432 80.533 80.533 0 0 1-8.64-36.537 96.001 96.001 0 0 1 1.08-15.401 86.76 86.76 0 0 1 3.456-14.428 82.726 82.726 0 0 1 5.8-13.338 83.638 83.638 0 0 1 8.089-12.129l17.507-21.956a86.415 86.415 0 0 0-14.667 26.935 90.849 90.849 0 0 0-3.693 15.26 100.786 100.786 0 0 0-1.08 16.308 85.55 85.55 0 0 0 9.234 38.718 91.04 91.04 0 0 0 24.343 29.096c10.238 8.24 22.41 15.12 35.942 20.876a282.394 282.394 0 0 0 43.978 14.191c11.07 2.7 20.39 5.303 28.156 7.927a103.895 103.895 0 0 1 18.802 8.09c4.839 2.818 8.306 5.799 10.595 9.082a19.266 19.266 0 0 1 3.467 10.898 18.67 18.67 0 0 1-.972 6.577 17.006 17.006 0 0 1-3.089 5.4 22.338 22.338 0 0 1-5 4.32 35.683 35.683 0 0 1-6.696 3.391v0Z" fill="#CCC" stroke-linecap="round" stroke-linejoin="round"/><path d="M167.497 374.846c10.238 8.241 22.41 15.121 35.942 20.877a282.394 282.394 0 0 0 43.978 14.191c11.07 2.7 20.39 5.303 28.156 7.927a103.895 103.895 0 0 1 18.802 8.09c4.839 2.818 8.306 5.799 10.595 9.082a19.266 19.266 0 0 1 3.467 10.898 17.524 17.524 0 0 1-3.478 11.275 25.313 25.313 0 0 1-10.152 7.56 61.505 61.505 0 0 1-15.508 4.233 133.204 133.204 0 0 1-19.559 1.372 199.744 199.744 0 0 1-30.51-2.268 241.482 241.482 0 0 1-28.739-6.167c-9.18-2.559-17.917-5.519-26.06-8.64-8.144-3.121-15.704-6.48-22.518-9.72L138.11 502.2h248.065a92.609 92.609 0 0 0 17.831-29.43 95.365 95.365 0 0 0 5.811-36.104c-.368-13.144-2.366-24.84-6.286-35.327a79.336 79.336 0 0 0-17.82-27.994c-8.068-8.273-18.36-15.562-31.169-22.064-12.809-6.502-28.231-12.258-46.44-17.453-11.721-3.413-21.971-6.689-30.747-9.828a176.312 176.312 0 0 1-21.881-9.266c-5.832-3.057-10.206-6.092-13.122-9.202-2.916-3.11-4.407-6.275-4.471-9.601a16.639 16.639 0 0 1 1.706-7.862 17.806 17.806 0 0 1 6.48-6.891 37.5 37.5 0 0 1 12.809-4.806 96.84 96.84 0 0 1 20.703-1.609 209.657 209.657 0 0 1 31.212 2.754 207.257 207.257 0 0 1 25.391 5.864c7.495 2.236 14.04 4.634 19.689 6.848 5.648 2.214 10.314 4.244 14.094 5.734l16.07-72.36c-5.054-2.16-10.487-4.32-16.438-6.372-5.95-2.052-12.43-3.974-19.548-5.713-7.117-1.739-14.893-3.24-23.446-4.547-8.554-1.307-17.918-2.235-28.178-2.84l-.939-42.79-62.046-1.501.853 46.71a163.166 163.166 0 0 0-43.74 12.431 109.852 109.852 0 0 0-32.324 21.859 87.946 87.946 0 0 0-19.829 29.83 94.417 94.417 0 0 0-6.48 36.363 85.55 85.55 0 0 0 9.234 38.718 91.037 91.037 0 0 0 24.343 29.095v0Z" fill="#fff" stroke-linecap="round" stroke-linejoin="round"/><path d="m138.11 502.2 13.802-58.676-17.679 11.059-11.254 47.617h15.131Z" fill="#CCC" stroke-linecap="round" stroke-linejoin="round"/></g><g fill="#263238"><path d="M436.483 488.041a4.317 4.317 0 0 0-3.143.616l4.838 2.905a2.701 2.701 0 0 0-1.695-3.521ZM437.843 449.809s.648-2.722.67-2.894c.216-2.042-.573-6.124-2.679-7.064a2.725 2.725 0 0 0-3.65 1.772c-.508 1.544.259 3.391 1.134 4.654 1.037 1.491 4.525 3.521 4.525 3.532ZM469.865 466.42c1.318-1.588 2.905-5.4 1.663-7.366a2.7 2.7 0 0 0-1.887-1.173 2.712 2.712 0 0 0-2.13.633 5.663 5.663 0 0 0-1.62 4.514c0 1.804 1.825 5.4 1.836 5.4.01 0 2.073-1.868 2.138-2.008Z"/><path d="M425.369 481.431a17.264 17.264 0 0 0 4.947 2.16c-.141.8-.281 1.599-.454 2.366 0 .194-.097.388-.14.594l1.015.604c.065-.313.129-.637.205-.95a56.19 56.19 0 0 0 .616-3.845 17.706 17.706 0 0 0 5.4 1.08 5.71 5.71 0 0 0 4.32-2.16 2.746 2.746 0 0 0-.189-3.219 2.75 2.75 0 0 0-.891-.712c-2.085-.983-5.692 1.08-7.107 2.581a66.704 66.704 0 0 0-1.447 1.955c.097-.788.195-1.566.27-2.365.205-2.29.346-4.623.486-6.945 0-.702.097-1.414.151-2.16.303.108 3.845 1.296 5.573 1.08 1.523-.162 3.435-.788 4.32-2.16a2.733 2.733 0 0 0-1.08-3.92c-2.084-.983-5.692 1.08-7.106 2.581a92.716 92.716 0 0 0-1.685 2.279c.108-1.555.238-3.11.421-4.644a50.018 50.018 0 0 1 1.08-6.124c.141 0 3.845 1.307 5.605 1.08 1.534-.162 3.435-.788 4.32-2.16a2.733 2.733 0 0 0-1.08-3.92c-2.084-.994-5.691 1.08-7.095 2.581-.119.119-1.491 1.966-1.717 2.311 0-.118.054-.237.086-.356a35.431 35.431 0 0 1 2.214-5.832c.486-1.08 1.015-2.02 1.544-2.948.67.302 3.726 1.663 5.325 1.674 1.598.01 3.499-.4 4.493-1.696a2.74 2.74 0 0 0-.616-4.018c-1.955-1.209-5.767.454-7.333 1.793-.087.076-.875.907-1.437 1.523.249-.421.497-.853.746-1.253.918-1.479 1.846-2.775 2.678-3.931a72.61 72.61 0 0 1 1.339-1.76 18.102 18.102 0 0 0 5.476-.962c1.361-.702 2.916-1.976 3.24-3.574a2.741 2.741 0 0 0-.482-2.145 2.737 2.737 0 0 0-1.905-1.095c-2.301-.162-4.914 3.067-5.692 4.968-.064.172-.821 2.862-.777 2.862h.054c-.422.507-.864 1.08-1.329 1.663-.864 1.134-1.825 2.419-2.775 3.888a50.848 50.848 0 0 0-2.841 4.881 35.41 35.41 0 0 0-2.376 5.865v.075c0-.68-.097-2.559-.118-2.71-.335-2.031-2.16-5.757-4.45-6.102a2.728 2.728 0 0 0-2.125.654 2.732 2.732 0 0 0-.942 2.013c-.076 1.631 1.155 3.24 2.333 4.201 1.339 1.08 4.957 2.16 5.248 2.16a48.964 48.964 0 0 0-1.306 6.308 71.113 71.113 0 0 0-.443 3.758c0-.583-.065-1.08-.076-1.177-.335-2.031-2.16-5.767-4.449-6.102a2.726 2.726 0 0 0-2.125.65 2.714 2.714 0 0 0-.932 2.017c-.075 1.62 1.156 3.24 2.333 4.191a18.154 18.154 0 0 0 5.087 2.16c0 .475-.097.961-.13 1.447-.205 2.322-.389 4.633-.648 6.901a53.238 53.238 0 0 1-.324 2.365v-1.015c-.335-2.03-2.16-5.756-4.449-6.102a2.726 2.726 0 0 0-2.806 1.56 2.717 2.717 0 0 0-.251 1.108c-.205 1.555 1.026 3.143 2.203 4.125ZM485.687 462.294c-1.825-1.415-5.789-.162-7.484 1.004-.152.098-2.268 1.934-2.225 1.955-.627.184-1.296.4-2.031.648-1.339.475-2.851 1.015-4.449 1.717a45.642 45.642 0 0 0-5.065 2.506 35.65 35.65 0 0 0-5.217 3.575l-.054.054c.357-.573 1.329-2.16 1.383-2.322.842-1.879 1.371-6.005-.346-7.56a2.726 2.726 0 0 0-2.129-.627 2.724 2.724 0 0 0-1.889 1.167c-.961 1.307-.81 3.305-.378 4.784.508 1.663 2.97 4.493 3.176 4.72a45.08 45.08 0 0 0-4.569 4.536 78.758 78.758 0 0 0-2.451 2.883c.302-.496.561-.95.594-1.015.842-1.879 1.371-6.005-.346-7.56a2.724 2.724 0 0 0-4.018.54c-.961 1.307-.81 3.316-.367 4.785a17.989 17.989 0 0 0 3.057 4.59l-.908 1.08c-1.447 1.836-2.883 3.661-4.32 5.4-.507.615-1.08 1.209-1.566 1.792l.508-.885c.842-1.869 1.372-5.994-.346-7.56a2.714 2.714 0 0 0-3.197-.245 2.717 2.717 0 0 0-.82.785c-.961 1.307-.81 3.305-.367 4.784a17.096 17.096 0 0 0 2.937 4.655l-1.08 1.166.951.573a38.373 38.373 0 0 0 1.933-2.16 17.887 17.887 0 0 0 3.909 3.845 5.702 5.702 0 0 0 4.774.54 2.727 2.727 0 0 0 1.629-2.763 2.705 2.705 0 0 0-.344-1.082c-1.199-1.977-5.4-2.236-7.344-1.761-.129 0-1.523.53-2.289.821.507-.605 1.026-1.199 1.522-1.825 1.437-1.793 2.841-3.661 4.245-5.519l1.296-1.685c.194.249 2.505 3.24 4.039 3.996a5.694 5.694 0 0 0 4.763.54 2.71 2.71 0 0 0 1.501-1.635c.121-.363.165-.747.128-1.128a2.737 2.737 0 0 0-.344-1.081c-1.188-1.977-5.335-2.247-7.344-1.772-.151 0-2.16.767-2.657.972a88.405 88.405 0 0 1 2.916-3.639 46.29 46.29 0 0 1 4.32-4.493c.087.119 2.473 3.24 4.05 4.028 1.361.713 3.294 1.242 4.763.54a2.717 2.717 0 0 0 1.638-2.761 2.711 2.711 0 0 0-.342-1.083c-1.199-1.977-5.346-2.236-7.344-1.772-.162 0-2.322.821-2.711.994l.27-.259a35.26 35.26 0 0 1 5.065-3.64c.983-.605 1.955-1.08 2.916-1.598.389.615 2.16 3.434 3.521 4.32 1.361.885 3.143 1.587 4.677 1.08a2.741 2.741 0 0 0 1.925-2.569 2.734 2.734 0 0 0-.219-1.114c-.972-2.095-5.065-2.808-7.106-2.56-.119 0-1.232.281-2.042.486.443-.216.886-.442 1.307-.637 1.588-.734 3.078-1.307 4.407-1.803l2.095-.724a18.374 18.374 0 0 0 5.087 2.214 5.692 5.692 0 0 0 4.644-1.22 2.722 2.722 0 0 0 .475-3.147 2.707 2.707 0 0 0-.713-.871ZM430.618 502.373l1.242.767.767-.562.292-.216-2.301.011ZM72.803 430.92a2.726 2.726 0 0 0-1.21 1.862 2.732 2.732 0 0 0 .572 2.145 4.709 4.709 0 0 0 3.024 1.598l2.323-5.303c-1.631-.734-3.51-1.08-4.71-.302ZM83.549 423.954a3.953 3.953 0 0 0-1.469 2.214l4.072-2.279a2.593 2.593 0 0 0-2.603.065ZM84.24 385.355c1.382 1.166 5.281 2.224 5.281 2.224s-.075-2.786-.108-2.959c-.324-2.03-2.16-5.767-4.417-6.123a2.702 2.702 0 0 0-2.131.638 2.71 2.71 0 0 0-.936 2.019c-.043 1.62 1.231 3.207 2.311 4.201ZM55.804 397.602s-1.61-2.279-1.728-2.408c-1.383-1.512-4.968-3.629-7.063-2.668a2.723 2.723 0 0 0-1.08 3.91c.82 1.404 2.71 2.052 4.244 2.235 1.782.205 5.627-1.058 5.627-1.069Z"/><path d="M53.773 388.984c.108.648.227 1.339.367 2.095.281 1.393.605 2.959 1.08 4.644a47.116 47.116 0 0 0 1.772 5.4 35.851 35.851 0 0 0 2.818 5.659v.065c-.507-.432-1.987-1.62-2.16-1.696-1.738-1.08-5.756-2.16-7.56-.713a2.724 2.724 0 0 0 0 4.061c1.167 1.134 3.165 1.264 4.688 1.08 1.717-.259 4.86-2.322 5.108-2.484a50.541 50.541 0 0 0 3.866 5.163c.81.95 1.653 1.89 2.517 2.818l-.929-.734c-1.739-1.08-5.756-2.16-7.56-.702a2.727 2.727 0 0 0-.668 3.142c.156.349.383.663.668.919a5.688 5.688 0 0 0 4.687 1.026 18.288 18.288 0 0 0 4.979-2.387c.335.346.659.702.994 1.08 1.609 1.685 3.24 3.359 4.752 5.054.54.594 1.08 1.199 1.566 1.804l-.81-.626c-1.74-1.08-5.757-2.16-7.56-.713a2.727 2.727 0 0 0-.668 3.142c.156.349.383.662.668.919 1.166 1.134 3.175 1.263 4.687 1.08a17.47 17.47 0 0 0 4.849-2.312 41.447 41.447 0 0 1 1.48 1.912c.302.443.626.842.907 1.307v.065l.41-.929.238-.141-.702-.95a53.862 53.862 0 0 0-2.473-3.013 18.047 18.047 0 0 0 4.32-3.337 5.722 5.722 0 0 0 1.198-4.655 2.721 2.721 0 0 0-3.629-1.804c-2.16.907-2.959 4.979-2.764 7.02 0 .13.313 1.588.497 2.387-.53-.594-1.08-1.188-1.588-1.771-1.588-1.674-3.24-3.316-4.882-4.968l-1.49-1.512c.27-.162 3.51-2.031 4.514-3.445a5.696 5.696 0 0 0 1.48-4.774 2.745 2.745 0 0 0-1.411-1.714 2.726 2.726 0 0 0-2.218-.1c-2.16.907-2.959 4.978-2.765 7.03 0 .152.443 2.247.584 2.776-1.08-1.08-2.16-2.246-3.24-3.391a47.263 47.263 0 0 1-3.845-4.903c.13-.076 3.52-2.02 4.547-3.456a5.7 5.7 0 0 0 1.198-4.644 2.742 2.742 0 0 0-1.406-1.752 2.723 2.723 0 0 0-2.244-.106c-2.16.907-2.96 4.979-2.765 7.031 0 .162.486 2.408.594 2.808l-.216-.292a35.817 35.817 0 0 1-2.905-5.529 47.27 47.27 0 0 1-1.177-3.111 18.135 18.135 0 0 0 4.784-2.883 5.687 5.687 0 0 0 1.685-4.482 2.732 2.732 0 0 0-3.413-2.16c-2.16.669-3.477 4.622-3.52 6.685 0 .108.107 1.253.194 2.084-.14-.464-.303-.939-.443-1.382-.508-1.663-.864-3.24-1.166-4.612a58.369 58.369 0 0 1-.432-2.16 18.033 18.033 0 0 0 2.894-4.741 5.66 5.66 0 0 0-.55-4.763 2.717 2.717 0 0 0-1.936-1.092 2.717 2.717 0 0 0-2.104.714c-1.652 1.609-.972 5.703 0 7.56.065.065 1.588 2.441 1.61 2.409ZM82.285 396.986c1.577.724 5.336.746 5.638.756a48.21 48.21 0 0 0 .367 6.48c.151 1.242.346 2.495.551 3.737-.184-.551-.346-1.08-.378-1.08-.842-1.879-3.586-5-5.875-4.741a2.728 2.728 0 0 0-1.884 1.18 2.73 2.73 0 0 0-.384 2.19c.345 1.587 1.944 2.797 3.348 3.445 1.771.532 3.615.787 5.465.756.086.475.162.95.248 1.425.41 2.301.832 4.58 1.177 6.837.119.799.205 1.587.303 2.376l-.324-.972c-.854-1.879-3.597-5.001-5.886-4.741a2.712 2.712 0 0 0-1.863 1.165 2.723 2.723 0 0 0-.395 2.161c.346 1.588 1.944 2.797 3.338 3.445 1.188.418 2.434.647 3.693.681l2.517-1.415 1.987-1.08 5.432-5.951a2.478 2.478 0 0 0-.378-.108c-2.268-.41-5.216 2.516-6.188 4.32 0 .119-.605 1.501-.897 2.257-.108-.777-.216-1.555-.356-2.343-.389-2.268-.864-4.547-1.318-6.837-.15-.691-.28-1.393-.41-2.095.313 0 4.05.248 5.66-.367 1.436-.551 3.12-1.653 3.563-3.24a2.725 2.725 0 0 0-1.035-3.022 2.71 2.71 0 0 0-1.038-.445c-2.268-.41-5.206 2.516-6.178 4.32-.076.14-.864 2.16-1.08 2.646-.292-1.544-.572-3.078-.788-4.601a47.32 47.32 0 0 1-.508-6.21c.151 0 4.05.259 5.702-.367a5.722 5.722 0 0 0 3.564-3.24 2.722 2.722 0 0 0-2.03-3.51c-2.268-.421-5.216 2.516-6.188 4.32-.076.14-.918 2.279-1.08 2.678v-.367c.032-2.084.241-4.161.626-6.21.205-1.134.464-2.16.734-3.24.724.119 4.029.637 5.573.227 1.545-.41 3.24-1.296 3.899-2.797a2.735 2.735 0 0 0-.651-3.142 2.719 2.719 0 0 0-.98-.573c-2.16-.659-5.4 1.933-6.62 3.628-.065.087-.605 1.08-.994 1.836.13-.464.26-.95.389-1.393.508-1.663 1.08-3.164 1.566-4.493.302-.745.583-1.414.842-2.041.778-.259 3.867-1.296 5.033-2.354 1.167-1.059 2.311-2.668 2.16-4.32a2.731 2.731 0 0 0-3.164-2.549c-2.268.432-3.953 4.234-4.212 6.275v2.97c-.27.605-.551 1.242-.853 1.955-.53 1.317-1.08 2.808-1.664 4.471a49.532 49.532 0 0 0-1.48 5.454 36.12 36.12 0 0 0-.669 6.307v.076a71.626 71.626 0 0 0-.82-2.582c-.854-1.879-3.597-5-5.887-4.741a2.707 2.707 0 0 0-1.066.39 2.713 2.713 0 0 0-1.236 1.845c-.065.377-.05.764.045 1.135.346 1.566 1.944 2.797 3.337 3.423ZM238.918 420.941a2.721 2.721 0 0 0-2.257 3.369 5.662 5.662 0 0 0 3.337 3.445c1.062.383 2.177.601 3.305.649l.961-1.145.54-1.566c-.853-1.89-3.597-5.011-5.886-4.752ZM227.07 437.259a2.74 2.74 0 0 0-1.151 2.996c.099.369.274.714.514 1.011.972 1.307 2.938 1.728 4.471 1.728a9.92 9.92 0 0 0 2.927-.669l.627-3.154-.065-.065c-1.555-1.35-5.357-3.035-7.323-1.847ZM237.816 430.348c-1.761 1.08-2.106 4.557-1.793 6.696l5.173-6.146a2.656 2.656 0 0 0-3.38-.55Z"/><path d="M221.865 422.626c.334.345.658.702.993 1.08 1.609 1.684 3.24 3.358 4.752 5.054.54.594 1.08 1.199 1.566 1.804l-.81-.627c-1.739-1.08-5.756-2.16-7.56-.713a2.736 2.736 0 0 0 0 4.061c1.167 1.134 3.175 1.264 4.687 1.08a17.478 17.478 0 0 0 4.85-2.311c.507.637 1.015 1.264 1.479 1.912.303.442.627.842.907 1.306l.854 1.34c.388.669.788 1.339 1.166 1.998l.832-.983c-.324-.54-.659-1.08-1.016-1.653l-.885-1.328c-.281-.443-.637-.886-.961-1.328-.778-1.08-1.61-2.031-2.474-3.014a18.037 18.037 0 0 0 4.32-3.337 5.71 5.71 0 0 0 1.199-4.655 2.727 2.727 0 0 0-1.369-1.721 2.717 2.717 0 0 0-2.195-.147c-2.16.907-2.959 4.979-2.765 7.02 0 .13.314 1.588.497 2.387-.529-.594-1.08-1.188-1.587-1.761-1.588-1.674-3.24-3.326-4.882-4.978l-1.49-1.512c.27-.162 3.51-2.031 4.514-3.446a5.682 5.682 0 0 0 1.199-4.644 2.73 2.73 0 0 0-2.509-1.999 2.746 2.746 0 0 0-1.12.185c-2.16.907-2.959 4.979-2.765 7.031 0 .151.443 2.246.583 2.775-1.08-1.08-2.16-2.246-3.24-3.391a47.228 47.228 0 0 1-3.844-4.903c.129-.076 3.52-2.02 4.546-3.456a5.683 5.683 0 0 0 1.199-4.644 2.736 2.736 0 0 0-3.629-1.814c-2.16.907-2.959 4.978-2.764 7.03 0 .162.486 2.409.594 2.808l-.216-.291a35.794 35.794 0 0 1-2.906-5.53 47.818 47.818 0 0 1-1.177-3.11 18.349 18.349 0 0 0 4.785-2.873c1.026-1.156 2.008-2.894 1.695-4.493a2.72 2.72 0 0 0-1.229-1.833 2.722 2.722 0 0 0-2.184-.327c-2.16.67-3.477 4.633-3.52 6.685 0 .108.108 1.253.194 2.085-.14-.465-.302-.94-.443-1.383-.507-1.663-.864-3.24-1.166-4.611a58.784 58.784 0 0 1-.432-2.16 18.04 18.04 0 0 0 2.894-4.741 5.655 5.655 0 0 0-.551-4.763 2.707 2.707 0 0 0-1.935-1.092 2.717 2.717 0 0 0-2.104.714c-1.652 1.609-.972 5.713 0 7.56.087.162 1.609 2.505 1.631 2.473.108.648.227 1.339.367 2.095.281 1.393.605 2.959 1.08 4.644a47.13 47.13 0 0 0 1.771 5.4 36.515 36.515 0 0 0 2.819 5.67.1.1 0 0 1 0 .054c-.507-.432-1.987-1.62-2.106-1.695-1.739-1.08-5.756-2.16-7.56-.702a2.725 2.725 0 0 0-.667 3.133c.156.349.383.661.667.917 1.167 1.144 3.165 1.263 4.687 1.08 1.718-.26 4.86-2.322 5.109-2.484a50.724 50.724 0 0 0 3.866 5.162c.81.95 1.653 1.89 2.517 2.819l-.929-.735c-1.739-1.08-5.757-2.16-7.56-.702a2.743 2.743 0 0 0-.672.918 2.733 2.733 0 0 0 0 2.225c.157.35.386.663.672.918 1.155 1.134 3.164 1.264 4.676 1.026a18.292 18.292 0 0 0 5.055-2.559ZM238.55 391.748c1.383 1.167 5.282 2.225 5.282 2.225s-.076-2.786-.108-2.959c-.324-2.031-2.16-5.767-4.418-6.124a2.716 2.716 0 0 0-2.812 1.55 2.717 2.717 0 0 0-.255 1.107c-.086 1.62 1.134 3.208 2.311 4.201Z"/><path d="M210.071 404.007s-1.609-2.29-1.728-2.42c-1.382-1.512-4.968-3.628-7.063-2.667a2.715 2.715 0 0 0-1.414 1.713 2.73 2.73 0 0 0-.068 1.134c.058.378.195.74.402 1.062.82 1.404 2.71 2.052 4.244 2.236 1.836.205 5.627-1.058 5.627-1.058ZM236.52 403.38c1.577.724 5.335.756 5.638.756a48.253 48.253 0 0 0 .367 6.426c.151 1.242.346 2.495.551 3.748-.184-.562-.346-1.08-.378-1.08-.843-1.88-3.586-5.001-5.875-4.742a2.743 2.743 0 0 0-1.885 1.18 2.73 2.73 0 0 0-.383 2.19c.345 1.588 1.944 2.797 3.348 3.445a17.89 17.89 0 0 0 5.464.756c.087.475.162.951.249 1.426.41 2.3.831 4.59 1.177 6.836 0 .335.076.67.119 1.005l.68-1.944c-.367-2.009-.777-4.029-1.177-6.048-.14-.692-.281-1.394-.41-2.085 1.472.088 2.95.056 4.417-.097l1.901-5.497 1.501-1.307a2.376 2.376 0 0 0-.627-.205c-2.268-.411-5.205 2.516-6.177 4.32-.076.14-.864 2.16-1.08 2.646-.292-1.545-.573-3.078-.789-4.601a47.299 47.299 0 0 1-.507-6.21c.151 0 4.05.259 5.702-.367a5.718 5.718 0 0 0 3.564-3.24 2.719 2.719 0 0 0-.992-3.051 2.708 2.708 0 0 0-1.038-.459c-2.268-.421-5.217 2.516-6.189 4.32-.075.14-.918 2.279-1.08 2.678v-.367c.033-2.084.242-4.162.627-6.21.205-1.08.464-2.16.734-3.24.724.119 4.029.637 5.573.227 1.544-.411 3.24-1.296 3.899-2.797a2.739 2.739 0 0 0 .01-2.221 2.727 2.727 0 0 0-1.641-1.495c-2.16-.658-5.4 1.934-6.62 3.629-.065.087-.605 1.08-.994 1.836.13-.464.259-.95.389-1.393.507-1.663 1.08-3.164 1.566-4.493.302-.745.583-1.415.842-2.041.778-.259 3.867-1.296 5.033-2.354 1.166-1.059 2.311-2.668 2.16-4.32a2.732 2.732 0 0 0-3.164-2.549c-2.268.432-3.953 4.233-4.202 6.275 0 .183-.054 2.98 0 2.97a66.87 66.87 0 0 0-.842 1.954c-.54 1.318-1.134 2.808-1.674 4.472a49.846 49.846 0 0 0-1.48 5.454 36.113 36.113 0 0 0-.766 6.285v.119a71.53 71.53 0 0 0-.821-2.581c-.853-1.879-3.597-5.001-5.886-4.741a2.721 2.721 0 0 0-2.257 3.369c.464 1.555 2.062 2.765 3.423 3.413Z"/></g><g><path d="m400.292 309.053-4.31-5.346 3.878-3.057 2.602 3.251-.885 2.063.734 1.641-1.523 1.091" fill="#fff"/><path d="m400.292 309.053-4.31-5.346 3.878-3.057 2.602 3.251-.885 2.063.734 1.641-1.523 1.091" stroke="#263238" stroke-linecap="round" stroke-linejoin="round"/><path d="M435.24 318.33s-2.948-2.635-4.05-2.463c-1.101.173-15.552 2.592-15.552 2.592l-13.295-10.854-2.03 1.448 12.722 15.962 13.824-.864-2.97 15.12-12.582 9.569 20.52 12.258 4.137-13.047 16.34-16.092-6.35-7.959-10.714-5.67Z" fill="#000" stroke="#263238" stroke-linecap="round" stroke-linejoin="round"/><path d="m439.452 314.842-2.322 4.881-.853-.777-1.631 11.869 11.319-6.858-1.134-1.793.259-3.704-5.638-3.618Z" fill="#fff" stroke="#263238" stroke-linecap="round" stroke-linejoin="round"/><path d="m434.646 330.815 6.621-4.018-5.53-3.888-1.091 7.906Z" fill="#fff" stroke="#263238" stroke-linecap="round" stroke-linejoin="round"/><path d="M452.52 303.21s5-5.854 10.087-2.16 3.683 7.301 7.312 5.324c3.629-1.976 10.443-6.998 14.547-.604 4.105 6.393.94 13.089-1.641 14.623-2.581 1.533-1.901-1.393-1.847-2.808.054-1.415-4.18-3.24-5.119-.324-.94 2.916-5.875 7.409-12.139 6.987-6.264-.421-7.474-8.121-7.334-12.646a7.827 7.827 0 0 0-3.877-6.707l.011-1.685Z" fill="#263238" stroke="#263238" stroke-linecap="round" stroke-linejoin="round"/><path d="M440.532 302s-3.132 6.977-2.484 11.092c.648 4.115.303 7.279 2.398 8.078 2.095.8 9.039-3.402 10.573-6.177 1.534-2.776 3.726-6.783 3.121-10.627-.605-3.845-7.97-9.44-13.608-2.366Z" fill="#fff" stroke="#263238" stroke-linecap="round" stroke-linejoin="round"/><path d="M441.72 309.323c-.162.54-.507.907-.777.82-.27-.086-.357-.583-.195-1.08.162-.496.508-.907.778-.82.27.086.313.54.194 1.08ZM446.71 311.396c-.162.54-.518.918-.788.832-.27-.087-.357-.583-.195-1.08.162-.497.519-.907.789-.832.27.076.356.54.194 1.08Z" fill="#263238"/><path d="M442.984 310.219s.324.238-.13 1.08c-.454.843-1.544.54-1.426 1.264.119.723 1.491 1.08 1.491 1.08M440.468 314.896s1.739 1.641 3.294 1.242M448.352 309.668l-3.229-.82M442.574 307.627l-1.545-1.382" stroke="#263238" stroke-linecap="round" stroke-linejoin="round"/><path d="M440.532 302s-.464 1.08-1.004 2.56c1.825-.95 4.968-2.02 7.841-.248 2.872 1.771 4.32 5.842 4.903 8.337 1.22-2.473 2.311-5.4 1.868-8.283-.605-3.845-7.97-9.44-13.608-2.366Z" fill="#263238" stroke="#263238" stroke-linecap="round" stroke-linejoin="round"/><path d="M451.526 312.541s2.247-2.063 2.16-.183c-.086 1.879-2.667 2.991-3.24 3.078-.572.086-.529-.638-.529-.638" fill="#fff"/><path d="M451.526 312.541s2.247-2.063 2.16-.183c-.086 1.879-2.667 2.991-3.24 3.078-.572.086-.529-.638-.529-.638" stroke="#263238" stroke-linecap="round" stroke-linejoin="round"/><path d="m452.293 331.97-3.456 24.635a2.253 2.253 0 0 1-2.16 1.933h-.745a2.248 2.248 0 0 1-2.322-2.041l-1.35-14.818 10.033-9.709Z" fill="#000" stroke="#263238" stroke-linecap="round" stroke-linejoin="round"/><path d="m446.04 353.225-11.091-9.785-2.484 2.084 10.649 12.323a2.25 2.25 0 0 0 1.846.713h.875a2.247 2.247 0 0 0 1.716-.905 2.262 2.262 0 0 0 .379-1.903" fill="#000"/><path d="m446.04 353.225-11.091-9.785-2.484 2.084 10.649 12.323a2.25 2.25 0 0 0 1.846.713h.875a2.247 2.247 0 0 0 1.716-.905 2.262 2.262 0 0 0 .379-1.903v0" stroke="#263238" stroke-linecap="round" stroke-linejoin="round"/><path d="m434.949 343.429-2.603-4.158-5.853-.648.032 3.489 2.808 2.343 1.782.249 1.35.81 2.484-2.085ZM403.607 356.4s-12.225 15.908-11.556 18.544c.67 2.635 18.533 30.531 18.533 30.531l2.484-1.642-9.817-30.65 19.732-7.852-19.376-8.931Z" fill="#fff" stroke="#263238" stroke-linecap="round" stroke-linejoin="round"/><path d="m413.457 362.297 1.447 6.361 6.534-2.506-7.981-3.855Z" fill="#263238" stroke="#263238" stroke-miterlimit="10"/><path d="m410.584 405.421-3.24 5.4s-2.581 3.866-1.825 4.104c1.652.529 5.929-2.279 7.149-3.143 1.221-.864 2.527-1.436 3.337-2.009.81-.572 2.43-.907.216-2.959-.745-.68-3.11-3.035-3.11-3.035l-2.527 1.642Z" fill="#fff" stroke="#263238" stroke-linecap="round" stroke-linejoin="round"/><path d="M430.769 351.324a148.821 148.821 0 0 0-16.859-5.584c-9.903-2.689-17.226-4.773-17.085-2.3.14 2.473 18.155 42.314 18.155 42.314l3.088-.982-4.708-21.968s7.56 5.292 13.143 2.668c5.584-2.624 7.711-9.72 7.323-12.139" fill="#263238"/><path d="M430.769 351.324a148.821 148.821 0 0 0-16.859-5.584c-9.903-2.689-17.226-4.773-17.085-2.3.14 2.473 18.155 42.314 18.155 42.314l3.088-.982-4.708-21.968s7.56 5.292 13.143 2.668c5.584-2.624 7.711-9.72 7.323-12.139" stroke="#263238" stroke-linecap="round" stroke-linejoin="round"/><path d="M411.805 345.168c-8.813-2.387-15.12-4.028-14.98-1.728.14 2.473 18.155 42.314 18.155 42.314l3.089-.982-4.709-21.968c1.609-3.92-.097-12.16-1.555-17.636Z" fill="#fff" stroke="#263238" stroke-linecap="round" stroke-linejoin="round"/><path d="m413.359 362.804-7.765-11.264" stroke="#263238" stroke-linecap="round" stroke-linejoin="round"/><path d="m414.979 385.754-2.894 5.454s-5.843 5.66-4.547 5.951c1.296.292 12.28-4.428 13.101-5.551.82-1.123-2.571-6.837-2.571-6.837l-3.089.983Z" fill="#fff" stroke="#263238" stroke-linecap="round" stroke-linejoin="round"/><path d="m401.544 306.417 27.238 32.433M317.736 205.978l79.931 95.644M431.115 344.693v157.68" stroke="#263238" stroke-miterlimit="10"/></g><g><path d="M170.997 300.877s5.745 33.621-.497 44.28c-6.242 10.66-21.902 2.992-21.902 2.992v153.144" stroke="#263238" stroke-miterlimit="10"/><path d="M136.501 313.459s5.087-.583 5.476.594a6.784 6.784 0 0 1 0 2.927s2.927 3.132 2.927 5.281c0 2.149-3.122 3.132-3.122 3.132l-.583 5.076-7.819.389-.983-6.059s-2.937-11.534 4.104-11.34Z" fill="#fff" stroke="#263238" stroke-linecap="round" stroke-linejoin="round"/><path d="m138.067 321.84-2.16-3.132a7.882 7.882 0 0 0 1.167-3.909c0-2.16-.195-6.059-4.688-6.059-4.492 0-7.43 3.521-8.402 11.145-.972 7.625 3.51 11.34 9.968 9.969 6.459-1.372 4.115-8.014 4.115-8.014Z" fill="#263238" stroke="#263238" stroke-linecap="round" stroke-linejoin="round"/><path d="M137.873 320.501s-3.326-.389-3.132 2.16a2.719 2.719 0 0 0 1.975 2.366 2.722 2.722 0 0 0 2.918-.995" fill="#fff"/><path d="M137.873 320.501s-3.326-.389-3.132 2.16a2.719 2.719 0 0 0 1.975 2.366 2.722 2.722 0 0 0 2.918-.995" stroke="#263238" stroke-linecap="round" stroke-linejoin="round"/><path d="m133.24 332.77-7.204 2.03s-.561 1.404-1.404 3.24c-1.134 2.495-4.255 7.56-4.255 7.56l-14.418 4.115-4.633 14.936-1.026 6.178 8.229-4.126.519-14.407 12.96-1.998 5.562-14.04 5.67-3.488Z" fill="#263238" stroke="#263238" stroke-linecap="round" stroke-linejoin="round"/><path d="M144.72 330.664s-5.67-2.538-9.968-1.955c-4.299.583-3.91 2.743-3.91 2.743l.195 2.927s7.203-2.149 13.683-3.715ZM125.356 344.941l4.05 18.728a1.433 1.433 0 0 0 .748 1.067 1.422 1.422 0 0 0 1.304.013l9.148-4.569-15.25-15.239Z" fill="#000" stroke="#263238" stroke-linecap="round" stroke-linejoin="round"/><path d="m135.529 354.91-2.149 4.298" stroke="#263238" stroke-linecap="round" stroke-linejoin="round"/><path d="m154.483 373.874 11.805 19.527-1.566 26.406 5.67-.195 5.67-31.492-8.284-22.065-13.295 7.819Z" fill="#263238" stroke="#263238" stroke-linecap="round" stroke-linejoin="round"/><path d="M131.026 334.379s-5.67 9.774-5.67 10.562c0 .789 22.097 22.086 22.097 22.086l16.815-11.145-10.562-18.36 15.206-14.926 1.167-20.142-2.733-.194-4.892 14.666-16.2 12.766-15.228 4.687Z" fill="#000" stroke="#263238" stroke-linecap="round" stroke-linejoin="round"/><path d="m167.346 302.26.195-4.493 4.881-3.715.4.972v2.937l.194 2.344-2.937 2.149-2.733-.194Z" fill="#fff" stroke="#263238" stroke-linecap="round" stroke-linejoin="round"/><path d="M147.453 367.027s3.715 6.254 6.48 8.208c2.764 1.955 11.307-4.104 13.467-5.875s10.368-12.312 10.368-12.312l7.625 32.487 4.698-1.955s-2.754-43.2-4.115-44.41c-1.361-1.209-22.485 12.507-22.485 12.507l-16.038 11.35Z" fill="#263238" stroke="#263238" stroke-linecap="round" stroke-linejoin="round"/><path d="M190.08 387.59h6.642c1.177 0 4.104-1.76 4.32-.388.216 1.371-5.67 5.076-8.024 6.253a29.097 29.097 0 0 1-7.031 1.76l-.594-5.67 4.687-1.955ZM170.392 419.613l3.327 6.058s4.104 1.761 4.104 2.549c0 .789-6.642.389-7.236.389-.594 0-7.226-6.48-7.226-6.48l1.361-2.354 5.67-.162Z" fill="#fff" stroke="#263238" stroke-linecap="round" stroke-linejoin="round"/><path d="m172.422 294.052 63.817-87.502" stroke="#263238" stroke-miterlimit="10"/></g><g><path d="M12.96 502.416h511.92" stroke="#263238" stroke-linecap="round" stroke-linejoin="round"/></g></svg>