<svg fill="none" xmlns="http://www.w3.org/2000/svg" viewBox="0 0 425 430"><path d="M199.53 222.145c-8.6.572-16.961-3.098-20.066-5.004h-1.434l-1.433 7.863v8.579l3.583 9.293s2.867 3.574 3.583 3.574c.717 0-10.033 22.161-10.033 22.161v40.032l-2.15 19.301 2.867 7.864c-2.628-.715-3.87-.858 12.183 4.289 16.053 5.147 23.411-10.723 25.083-19.301.717-9.532 2.15-28.023 2.15-25.735 0 2.287 10.033 6.672 15.05 8.578 11.944 3.813 36.979 11.438 41.566 11.438 4.587 0 10.033-1.906 12.183-2.86 7.167-6.433 2.867-24.305 2.15-26.449-.573-1.716-4.061-4.528-5.733-5.719-2.313-1.323-4.038-2.1-8.6-3.575l-19.35-5.004-1.433 3.575c-.073-.656-.521-1.129-2.15-2.145l-2.867-5.004-2.866 3.574-2.867 1.43v-2.144l1.433-4.29-1.433-2.144c-.478-.239-1.577-.858-2.15-1.43s-1.194-1.668-1.433-2.145l-.717-6.433c1.741-3.302 5.362-11.553 7.883-17.157 2.54-5.643 2.867-16.918 2.15-22.161l-5.733-7.863c-23.65 16.442-28.666 14.297-39.416 15.012Z" fill="#263238"/><path d="M182.63 247.766a.853.853 0 0 1-.673-.343c-2.25-3.145-6.364-12.324-6.794-16.556-.43-4.232 1.992-14.298 2.093-14.755a.826.826 0 0 1 .99-.599.83.83 0 0 1 .629.971c0 .114-2.451 10.265-2.064 14.297s4.4 12.867 6.493 15.727a.82.82 0 0 1 .147.617.827.827 0 0 1-.333.541.862.862 0 0 1-.488.1Z" fill="#263238"/><path d="m194.427 341.226-5.461-.386c5.919-1.587 9.589-11.094 11.882-17.628.43-1.23.846-2.402 1.261-3.474 2.036-5.305 2.222-21.818 2.107-28.166-.845-2.988-3.124-10.265-4.73-12.624a4.293 4.293 0 0 1-.688-3.317c.502-2.402 2.967-3.961 5.132-5.319a20.263 20.263 0 0 0 2.107-1.43c.487-3.059 4.056-4.017 6.708-4.718.831-.228 1.619-.443 2.235-.672 2.566-2.344 13.803-23.762 16.269-35.271 2.092-9.708-1.434-13.139-1.434-13.168l3.24-3.774c.602.5 5.833 5.29 3.11 17.986-2.121 9.865-14.405 36.887-19.078 38.76-.984.367-1.989.677-3.01.929a15.374 15.374 0 0 0-3.11 1.044c-.315 2.001-2.264 3.231-4.3 4.532a17.84 17.84 0 0 0-2.838 1.944c2.351 3.803 4.974 12.982 5.275 14.054l.086.615c0 2.345.373 23.076-2.437 30.367a195.7 195.7 0 0 0-1.204 3.317c-2.565 7.406-2.651 14.14-11.122 16.399ZM286.804 291.644c-3.913-1.916-14.104-3.918-20.21-5.205a264.839 264.839 0 0 1-6.55-1.429 12.15 12.15 0 0 0-8.328 1.001c-.762.332-1.548.609-2.35.829-3.096.772-5.203-2.259-6.723-4.475-.172-.243-.358-.529-.559-.787-1.935 1.13-4.601 2.674-7.166 1.945a4.502 4.502 0 0 1-2.752-2.331 19.222 19.222 0 0 1-1.433-4.403c-.473-1.987-.803-3.246-1.792-4.032-3.383-2.688-3.368-3.96-3.44-4.289l2.537-4.132a25.51 25.51 0 0 0 4.013 4.604 10.972 10.972 0 0 1 3.526 6.777 16.85 16.85 0 0 0 .946 3.073 13.909 13.909 0 0 0 3.01-1.429 9.339 9.339 0 0 1 2.265-1.087c2.25-.557 3.626 1.43 4.945 3.331.54.835 1.154 1.62 1.834 2.345.359-.114.789-.286 1.262-.486a16.934 16.934 0 0 1 11.466-1.201c1.591.4 3.798.858 6.35 1.43a81.338 81.338 0 0 1 17.658 5.49l1.491 4.461Z" fill="#fff"/><path d="M315.041 318.551a.883.883 0 0 1-.459-.128c-9.259-6.019-30.099-7.721-30.329-7.735a.826.826 0 0 1-.806-.552.827.827 0 0 1 .935-1.092c.875 0 21.5 1.744 31.103 7.992a.806.806 0 0 1 .364.52.804.804 0 0 1-.12.624.825.825 0 0 1-.688.371ZM307.586 302.281a6.85 6.85 0 0 1-1.906-.314c-2.967-.844-18.633-9.236-19.264-9.594a.831.831 0 0 1-.344-1.115.845.845 0 0 1 1.133-.343c5.575 3.003 16.698 8.822 18.919 9.465a3.34 3.34 0 0 0 1.878.186.83.83 0 0 1 1.634.186 1.424 1.424 0 0 1-.602 1.115 2.354 2.354 0 0 1-1.448.414Z" fill="#263238"/><path d="M316.344 291.23s-7.883 7.663-7.883 8.492c0 .829 5.604 5.791 6.02 7.449.416 1.658 4.156-.415 5.188 0s.832 3.317-2.078 3.932c-2.909.615-2.694 8.078-1.663 9.107 1.032 1.029 10.034 5.59 14.95 10.766 4.916 5.175 7.682 10.351 9.746 11.18 2.064.83 4.157 1.43 4.773-2.688.617-4.117 1.247-13.039-4.142-19.458-5.389-6.42-7.682-7.049-9.345-7.049-1.663 0-4.3.215-3.311-2.058.989-2.274 3.311-4.29 2.48-6.22-.832-1.93-7.325-14.068-14.735-13.453Z" fill="#263238"/><path d="M345.125 345.187a3.305 3.305 0 0 1-1.74-.393 3.298 3.298 0 0 1-1.284-1.237.81.81 0 0 1 .373-1.101.84.84 0 0 1 .625-.045.826.826 0 0 1 .478.403c.072.114.631 1.044 2.38.615 2.393-.601 4.3-1.287 4.787-4.118a29.959 29.959 0 0 0-3.626-17.843 36.99 36.99 0 0 0-6.565-7.463c-2.25-2.102-4.013-3.76-4.142-5.533 0-.644 0-1.287-.072-1.959a16.194 16.194 0 0 0-1.433-7.463c-1.878-3.732-6.335-8.578-10.564-10.366-3.884-1.587-5.647-.886-7.166 2.86a.834.834 0 0 1-1.537-.008.827.827 0 0 1 .003-.635c1.935-4.604 4.658-5.719 9.388-3.761 4.73 1.959 9.432 7.149 11.467 11.167a17.59 17.59 0 0 1 1.663 8.149c0 .648.028 1.277.086 1.887.071 1.115 1.72 2.659 3.612 4.432a38.232 38.232 0 0 1 6.851 7.821 31.39 31.39 0 0 1 3.841 19.001c-.717 3.789-3.368 4.761-6.02 5.419-.457.124-.93.182-1.405.171ZM197.379 215.483c-4.085 0-11.467-.529-15.322-4.104a23.987 23.987 0 0 1-4.013-4.804 16.263 16.263 0 0 0-2.681-3.331 6.118 6.118 0 0 1-1.82-6.577.832.832 0 0 1 1.075-.457.819.819 0 0 1 .464.436.807.807 0 0 1 .009.636 4.463 4.463 0 0 0 1.433 4.747 18.159 18.159 0 0 1 2.867 3.631 22.147 22.147 0 0 0 3.755 4.504c3.985 3.689 12.9 3.732 15.451 3.646a.83.83 0 1 1 0 1.658l-1.218.015Z" fill="#263238"/><path d="M203.485 222.86a62.242 62.242 0 0 1-20.324-3.174c-8.787-3.431-8.6-7.149-8.242-8.164.109-.374.238-.741.387-1.101.344-.858.473-1.172 0-1.944-1.175-1.773-.215-5.619-.1-6.048a.833.833 0 0 1 1.003-.6.842.842 0 0 1 .602 1.015c-.387 1.429-.674 3.889-.115 4.718a3.196 3.196 0 0 1 .215 3.474c-.136.3-.246.611-.329.929-.387 1.43 1.275 3.846 7.166 6.177 7.167 2.859 25.456 5.233 36.277 0 17.559-8.436 18.806-11.552 18.763-12.31-.043-.758-.115-1.43-.201-2.288a15.397 15.397 0 0 1 .258-6.891c.974-2.516 1.949-5.018.946-8.149a39.227 39.227 0 0 1-1.018-8.736c-.1-1.944-.186-3.789-.387-5.19a17.286 17.286 0 0 0-2.336-7.149.796.796 0 0 1-.301-.555.808.808 0 0 1 .186-.603.845.845 0 0 1 1.176-.114c1.204 1.015 2.436 4.99 2.866 8.25.229 1.429.315 3.359.416 5.347.003 2.8.32 5.591.946 8.321 1.175 3.688 0 6.591-.946 9.15a14.254 14.254 0 0 0-.201 6.219c.086.829.172 1.63.215 2.374.086 1.858-1.849 5.318-19.708 13.882-4.787 2.288-11.051 3.16-17.214 3.16Z" fill="#263238"/><path d="M278.175 224.29a54.227 54.227 0 0 1-11.051-1.43c-3.339-.772-3.999-5.132-4.486-8.321a10.153 10.153 0 0 0-.788-3.216c-1.978-1.316-2.294-2.474-2.294-5.505a6.992 6.992 0 0 0-1.949-4.146 18.249 18.249 0 0 1-1.835-2.86c-1.161-2.316-5.188-13.639-4.214-16.899.688-2.273-2.092-7.42-6.679-9.193-4.988-1.944-14.949-8.092-15.365-8.35a.825.825 0 0 1-.272-1.143.847.847 0 0 1 1.146-.272c.101 0 10.249 6.334 15.093 8.221 5.232 2.03 8.6 7.963 7.668 11.209-.702 2.373 2.652 12.782 4.1 15.727a17.547 17.547 0 0 0 1.763 2.588 8.567 8.567 0 0 1 2.279 5.147c0 2.859.272 3.274 1.562 4.132.917.614 1.161 2.173 1.433 4.289.445 2.859.989 6.434 3.211 6.948 7.682 1.759 16.368 2.216 17.286-.9.774-2.617.444-6.763.143-10.423a35.63 35.63 0 0 1-.172-6.849c.358-2.53-4.3-20.13-7.167-30.639-1.361-5.118-2.436-9.15-2.78-10.751-1.004-4.718-29.985-25.649-37.41-28.595-6.392-2.587-15.938-5.99-25.111-5.718a.748.748 0 0 1-.645-.272 31.653 31.653 0 0 0-4.558-4.361l-.502.544c-1.978 2.13-6.608 7.148-13.244 6.29a38.024 38.024 0 0 1-10.606-2.716 2.997 2.997 0 0 1-.746 2.073l-.129.1c-.143.1-3.54 2.216-12.899 1.43-9.03-.815-13.99-1.258-22.647-9.894-2.422-2.416-5.231-5.361-8.227-8.492-6.909-7.392-14.792-15.642-17.802-17.143-3.44-1.716-9.632-2.402-11.868-2.602-.243 2.616-1.519 10.251-7.997 12.868 0 1.029.458 4.06 4.428 9.25l2.193 2.859c6.694 8.836 22.389 29.524 27.362 31.654 1.606.687 4.3 1.645 7.368 2.745 8.385 3.003 18.833 6.734 21.944 9.851 2.637 2.617 4.902 12.61 6.908 21.446 1.176 5.147 2.394 10.48 3.111 11.338a17.027 17.027 0 0 0 5.045 3.303 9.15 9.15 0 0 1 3.311 2.158.826.826 0 0 1-.863 1.259.84.84 0 0 1-.528-.344 11.77 11.77 0 0 0-2.666-1.601 18.196 18.196 0 0 1-5.575-3.717c-.932-1.101-1.863-5.09-3.454-12.024-1.72-7.806-4.171-18.386-6.465-20.688-2.866-2.86-13.53-6.677-21.327-9.465-3.111-1.115-5.734-2.073-7.468-2.859-5.375-2.302-20.683-22.476-28.021-32.169l-2.193-2.86c-5.475-7.148-4.802-10.68-4.701-11.051a.787.787 0 0 1 .53-.587c7.166-2.402 7.453-12.252 7.467-12.353a.836.836 0 0 1 .55-.752.832.832 0 0 1 .325-.048c.358 0 8.8.586 13.33 2.86 3.253 1.686 10.907 9.679 18.303 17.413 2.981 3.117 5.733 6.062 8.199 8.464 8.227 8.207 12.699 8.579 21.614 9.422 7.854.715 11.151-.772 11.71-1.072.171-.391.245-.818.215-1.244 0-.472 0-1.558 1.018-1.558.357.045.702.156 1.017.329a35.82 35.82 0 0 0 10.421 2.716c5.733.729 10.033-3.832 11.824-5.719a5.204 5.204 0 0 1 1.118-1.044c.488-.228 1.434-.672 6.135 4.604 9.345-.171 18.963 3.246 25.413 5.862 7.467 3.045 37.165 24.019 38.398 29.853.33 1.558 1.433 5.576 2.766 10.665 4.171 15.556 7.583 28.595 7.167 31.297a34.767 34.767 0 0 0 .186 6.491c.301 3.803.645 8.106-.215 11.009-.745 2.631-4.257 3.431-8.141 3.431Z" fill="#263238"/><path d="M193.209 136.462a23.193 23.193 0 0 1-7.525-1.215c-8.284-2.86-8.198-5.648-8.098-6.177a.835.835 0 0 1 1.648.258c0 .143.33 2.058 6.995 4.289a23.313 23.313 0 0 0 13.898.093 23.262 23.262 0 0 0 11.471-7.828.828.828 0 0 1 .554-.308.817.817 0 0 1 .607.179.842.842 0 0 1 .129 1.173 25.194 25.194 0 0 1-8.748 7.008 25.265 25.265 0 0 1-10.931 2.528Z" fill="#263238"/><path d="M120.654 70.98 18 53.037l94.9 3.317 7.754 14.626Z" fill="#E8E8E8"/><path d="M103.755 56.026v-4.647L18 53.038l85.755 2.988Z" fill="#D9D9D9"/><path d="M109.316 51.279 91.601 42 18 53.038l91.316-1.76Z" fill="#E8E8E8"/><path d="M99.627 105.337a.777.777 0 0 1-.63-.286c-.13-.143-12.728-14.74-16.484-17.686-.774-.6-1.576-1.258-2.408-1.93a49.685 49.685 0 0 0-11.108-7.52c-5.16-2.174-11.753-12.754-12.025-13.211a.834.834 0 1 1 1.433-.858c0 .1 6.593 10.566 11.28 12.553 4.1 1.73 8.027 4.933 11.467 7.75l2.379 1.915c3.899 3.045 16.196 17.3 16.727 17.915a.805.805 0 0 1 .2.597.822.822 0 0 1-.286.561.807.807 0 0 1-.545.2Z" fill="#263238"/><path d="m74.473 62.788-54.265-9.75 56.243 16.87-1.978-7.12ZM84.72 72.381l20.168 6.048 1.433-9.936-23.965-4.29s.53 3.103.831 4.29c.419 1.33.931 2.63 1.534 3.888Z" fill="#9E9E9E"/><path d="M185.913 127.912h-.229a.833.833 0 0 1-.502-.395.829.829 0 0 1-.072-.634s1.563-5.505 0-9.293a.842.842 0 0 1-.048-.675.84.84 0 0 1 .472-.486.843.843 0 0 1 .677.026.81.81 0 0 1 .272.214c.075.089.13.194.161.306 1.764 4.289.101 10.122 0 10.365a.827.827 0 0 1-.731.572ZM204.431 125.024a.842.842 0 0 1-.379-.09.837.837 0 0 1-.295-.253c-2.265-3.117-6.049-8.578-5.905-10.108a.844.844 0 0 1 .903-.744.856.856 0 0 1 .759.901c0 .872 2.867 5.347 5.59 8.979a.82.82 0 0 1 .148.617.847.847 0 0 1-.113.304.847.847 0 0 1-.221.237.86.86 0 0 1-.487.157ZM297.181 253.814a2.91 2.91 0 0 1-.588-.072c-2.293-.5-11.266-9.665-12.9-11.895a13.26 13.26 0 0 0-4.715-3.746 9.079 9.079 0 0 0-1.663 4.289c-.172 2.116-.501 4.189-1.734 5.033a2.28 2.28 0 0 1-2.021.243c-2.551-.772-2.164-3.131-1.62-6.391l.187-1.158a24.847 24.847 0 0 1 2.866-7.249c.23-.429.473-.901.602-1.187-.659-1.1-3.354-5.533-5.203-8.578a.843.843 0 0 1 .273-1.144.829.829 0 0 1 .925.034.822.822 0 0 1 .221.238c.875 1.43 5.203 8.478 5.404 8.893.201.414 0 .986-.76 2.459a23.359 23.359 0 0 0-2.68 6.748l-.201 1.158c-.559 3.403-.587 4.218.459 4.533.401.128.545 0 .616 0 .746-.501.946-2.974 1.018-3.789a9.208 9.208 0 0 1 2.537-5.719 1.243 1.243 0 0 1 1.032-.172c2.25.981 4.22 2.504 5.733 4.432 2.207 2.86 10.578 10.981 11.968 11.281.158 0 .43.071.502-.072.072-.142 0-1.286-1.233-2.444-1.648-1.43-7.08-8.579-6.607-10.223a1.01 1.01 0 0 1 .774-.715c.774-.157 1.548.401 5.977 4.289 2.279 2.016 5.733 5.047 6.593 5.219.332.065.666.113 1.003.143a8.155 8.155 0 0 0-.602-.915c-.688-.958-2.049-2.445-3.368-3.889a38.336 38.336 0 0 1-4.372-5.261.832.832 0 0 1 .977-1.18.844.844 0 0 1 .5.393 39.418 39.418 0 0 0 4.113 4.933c1.434 1.544 2.752 3.002 3.497 4.032.746 1.029 1.434 2.101.846 2.859-.587.758-1.748.686-2.866.443-1.118-.243-3.598-2.273-7.368-5.59-1.003-.886-2.207-1.959-3.182-2.759a38.94 38.94 0 0 0 5.246 6.934c1.591 1.43 2.236 3.202 1.606 4.418a1.89 1.89 0 0 1-1.792 1.144Z" fill="#263238"/><path d="M305.58 246.894a7.978 7.978 0 0 1-3.354-.944.828.828 0 0 1 .817-1.429c.87.5 1.864.743 2.867.7l.071-.086s0-.486-1.591-1.93a83.879 83.879 0 0 1-7.166-8.578.97.97 0 0 1 0-1.13c.989-1.201 9.445 2.745 9.531 2.86a.452.452 0 0 0 .172 0s0-.672-1.06-1.559c-1.319-1.072-8.701-3.774-19.766-7.234l-.2-.071c-2.351-.73-3.34-4.061-3.44-4.433a.831.831 0 0 1 1.591-.443c.229.772 1.075 2.86 2.336 3.303h.201c8.198 2.573 18.389 5.962 20.324 7.534 1.935 1.573 1.892 2.974 1.433 3.775a1.706 1.706 0 0 1-2.264.515c-.86-.429-4.042-1.687-6.164-2.417a68.05 68.05 0 0 0 5.734 6.649c1.505 1.429 2.135 2.387 2.107 3.245a1.798 1.798 0 0 1-.746 1.33c-.418.287-.929.41-1.433.343ZM174.074 56.04s-10.263 2.63-11.639 8.235c-1.376 5.604 0 11.438 4.429 10.851 4.429-.586 10.234-4.417 14.104-4.146 3.87.272 3.053 1.73 1.663 4.175-1.391 2.445 1.103 6.591 8.026 4.661 6.923-1.93 7.167-5.519 12.169-4.146 5.002 1.372.444 12.696 1.605 14.297 1.161 1.601 1.434 3.86 4.042 0 2.609-3.86 6.536-9.107 10.678-7.72 4.143 1.386-3.869 9.379-8.012 11.037l-4.156 1.658s-1.663 11.581-4.157 13.24c0 0 16.612-2.202 22.933-8.007 6.321-5.804.831-5.719 1.935-8.821 1.104-3.103 7.468-3.26 7.468-7.02s-.832-3.203-6.637-5.962c-5.805-2.76-4.156-4.132-3.325-5.519.831-1.387 1.663-3.86-3.039-5.247-4.701-1.387-15.766-4.69-13.731-7.72 2.036-3.031 3.096-9.108-4.042-8.579-7.138.53-13.96 5.162-18.016 4.661-4.057-.5-7.798-1.573-12.298.072Z" fill="#263238"/><path d="M187.618 118.447h-.2l-1.864-.414c-4.83-1.058-14.877-3.246-20.238-7.034-6.55-4.633-5.361-16.156-4.185-19.83 1.175-3.675 3.827-16.1 3.855-16.285a.807.807 0 0 1 .373-.53.763.763 0 0 1 .631-.1c.166.016.334.016.501 0a.87.87 0 0 1 .273-.085 27.437 27.437 0 0 0 6.306-2.03c2.867-1.173 5.647-2.288 7.955-2.116 1.276.1 2.867.329 3.383 1.43.516 1.1-.129 2.387-1.047 4.003a2.269 2.269 0 0 0 .273 2.502c1.146 1.43 3.698 1.844 6.794.972a19.446 19.446 0 0 0 5.876-2.76c1.978-1.272 3.526-2.273 6.751-1.43 3.985 1.116 3.067 6.792 2.408 10.952a13.448 13.448 0 0 0-.344 3.746c.215.3.401.63.588.944.145.31.339.594.573.843a8.196 8.196 0 0 0 1.433-1.801c2.337-3.388 6.68-9.694 11.639-8.035.485.125.916.405 1.227.797.311.393.484.876.493 1.376.1 3.274-6.063 8.965-9.704 10.409l-3.755 1.5c-.502 2.002-2.652 10.381-4.128 13.04l-.287.543c-.917 1.802-2.866 5.576-6.55 7.52a.831.831 0 0 1-1.118-.343.842.842 0 0 1 .344-1.129c3.239-1.702 5.002-5.147 5.848-6.806l.315-.586c1.52-2.773 4.042-12.867 4.071-13.039a.808.808 0 0 1 .487-.572l4.157-1.658c3.196-1.273 8.729-6.591 8.6-8.836 0-.214 0-.472-.588-.658-3.311-1.1-6.636 2.86-9.732 7.42-1.276 1.845-2.164 2.531-3.024 2.503-.86-.029-1.434-.901-1.878-1.673-.158-.272-.315-.558-.502-.83-.573-.8-.372-2.244 0-4.946.574-3.532 1.348-8.364-1.204-9.079-2.551-.715-3.526 0-5.403 1.172a20.848 20.848 0 0 1-6.135 3.089c-5.432 1.515-7.797-.572-8.6-1.544a3.87 3.87 0 0 1-.415-4.29c.501-.9 1.189-2.116 1.017-2.43 0 0-.258-.386-2.021-.515s-4.615.944-7.166 2.002a31.446 31.446 0 0 1-6.565 2.116c-.22.08-.453.12-.688.114-.616 2.86-2.737 12.496-3.741 15.613-1.003 3.117-2.15 13.925 3.569 17.986 5.074 3.588 14.907 5.718 19.622 6.762l1.907.415a.833.833 0 0 1 .616 1.001.82.82 0 0 1-.803.614Z" fill="#263238"/><path d="M163.224 87.308a.745.745 0 0 1-.387-.1 16.274 16.274 0 0 1-7.64-10.18 5.81 5.81 0 0 1 0-3.817 2.095 2.095 0 0 1 2.021-.886c1.434.128 3.297 1.43 4.615 4.503a27.422 27.422 0 0 0 2.867 5.476.83.83 0 0 1-.766 1.331.834.834 0 0 1-.553-.316 27.825 27.825 0 0 1-3.138-5.833c-1.118-2.645-2.566-3.46-3.254-3.517-.33 0-.444.114-.473.157-.473 1.044 1.204 8.578 7.052 11.624a.826.826 0 0 1 .411.928.83.83 0 0 1-.798.63h.043ZM197.064 85.02h-.43a1.763 1.763 0 0 1-1.433-1.43c-.23-.972-2.294-2.359-3.698-3.03a.822.822 0 0 1-.427-.477.826.826 0 0 1 .04-.638.812.812 0 0 1 .791-.47.816.816 0 0 1 .312.083c.688.33 4.114 2.088 4.601 4.16 0 .13 0 .13.115.144a1.105 1.105 0 0 0 .932-.458.819.819 0 0 0 0-.915c-1.09-2.016-1.835-3.145-2.752-3.388a.834.834 0 0 1-.552-.37.836.836 0 0 1-.104-.654.84.84 0 0 1 .41-.521.829.829 0 0 1 .661-.056c1.663.428 2.666 2.087 3.799 4.217a2.412 2.412 0 0 1-.187 2.688 2.755 2.755 0 0 1-2.078 1.115ZM167.28 79.259a.912.912 0 0 1-.273 0 2.542 2.542 0 0 1-1.863-1.673 2.853 2.853 0 0 1 .688-2.345.847.847 0 0 1 1.175 0 .826.826 0 0 1 0 1.158c-.143.172-.387.586-.315.815.072.229.215.286.487.415a13.623 13.623 0 0 1 4.845-1.201 1.19 1.19 0 0 0 1.089-.83 2.341 2.341 0 0 0 .115-1.558.834.834 0 0 1-.903-.529.814.814 0 0 1 .444-1.043 1.438 1.438 0 0 1 1.563.3 3.331 3.331 0 0 1 .358 3.36 2.869 2.869 0 0 1-2.594 1.959 11.893 11.893 0 0 0-4.487 1.172.746.746 0 0 1-.329 0Z" fill="#263238"/><path d="M169.358 84.191c-.838-.345-1.7-.627-2.58-.843-.383-.102-.77-.183-1.161-.243-.445-.086-.918-.129-1.534-.3a2.866 2.866 0 0 1 3.139-1.23 2.687 2.687 0 0 1 2.136 2.616ZM184.479 86.479a3.884 3.884 0 0 1 2.093-1.43 5.3 5.3 0 0 1 2.594-.086 5.367 5.367 0 0 1 2.293 1.158 4.596 4.596 0 0 1 1.434 2.073c-.817-.285-1.434-.614-2.15-.857a11.64 11.64 0 0 0-1.95-.587 10.13 10.13 0 0 0-2.006-.285c-.774 0-1.505 0-2.308.014ZM174.203 96.33h-.158a24.161 24.161 0 0 1-4.3-1.287 1.864 1.864 0 0 1-1.06-1.216 4.011 4.011 0 0 1 .716-2.86l4.1-8.049.143-.2a2.666 2.666 0 0 1 2.222-.929 3.232 3.232 0 0 1 2.135 1.53.9.9 0 0 1 .101.543s-.932 6.09-1.032 8.579a3.922 3.922 0 0 1-2.623 3.889h-.244Zm.674-12.582-4.085 8.02a2.637 2.637 0 0 0-.545 1.602s0 .1.158.157a20.11 20.11 0 0 0 3.726 1.115 2.414 2.414 0 0 0 1.233-2.287c.1-2.288.803-7.149 1.003-8.45a1.43 1.43 0 0 0-.745-.515 1.033 1.033 0 0 0-.745.372v-.014ZM164.083 86.436a2.442 2.442 0 0 1 1.964.2 4.866 4.866 0 0 1 2.436 5.233c-.458 1.172-1.949-.158-4.099-1.001-.702-.272-.774 0-1.433-.229l1.132-4.203ZM181.068 94.428c-.244 1.43 2.408 1.086 5.518 1.587 3.11.5 5.475 1.715 5.733.228.258-1.486-1.748-5.146-4.844-5.647-3.096-.5-6.164 2.345-6.407 3.832ZM173.314 102.578c1.878-.572 3.469-.858 4.988-1.33a18.09 18.09 0 0 0 2.236-.801c.76-.3 1.433-.729 2.379-1.172a4.674 4.674 0 0 1-1.433 2.559 6.469 6.469 0 0 1-2.58 1.43 7.382 7.382 0 0 1-2.867.243 5.753 5.753 0 0 1-2.723-.929Z" fill="#263238"/><path d="M209.749 171.747c0 7.921-3.326 14.297-15.236 14.297-8.4 0-13.459-6.405-13.459-14.297s3.382-14.297 13.459-14.297c10.076 0 15.236 6.391 15.236 14.297Z" fill="#E8E8E8"/><path d="M193.079 173.535h-.272c-.459 0-1.333 0-1.591-.787-.258-.786.33-1.158.731-1.429.203-.163.391-.345.559-.544l-.129-.085c-1.075-.744-8.27-.515-14.606.142a.825.825 0 0 1-.613-.17.823.823 0 0 1-.118-1.168.848.848 0 0 1 .559-.306c2.251-.228 13.603-1.329 15.767.143a1.732 1.732 0 0 1 .846 1.43 1.72 1.72 0 0 1-.473 1.23c.688 0 1.634-.158 2.723-.286 4.801-.572 12.9-1.53 19.923.343a.83.83 0 0 1 .564 1.009.83.83 0 0 1-.994.592c-6.78-1.787-14.606-.858-19.292-.3-1.634.028-2.824.186-3.584.186ZM77.21 76.77a.819.819 0 0 1-.76-.5 19.826 19.826 0 0 1-.83-6.248l-1.964-6.89a.842.842 0 0 1 .535-1.005.848.848 0 0 1 .41-.04l6.938 1.216c.344 0 2.007.543 2.308 4.289a9.321 9.321 0 0 0 1.577 4.432.8.8 0 0 1-.287 1.13.818.818 0 0 1-1.133-.286 10.792 10.792 0 0 1-1.806-5.133c-.2-2.474-1.003-2.86-1.017-2.86l-5.561-.972 1.634 5.72c.006.08.006.161 0 .242-.065 1.93.167 3.859.688 5.719a.827.827 0 0 1-.43 1.087.891.891 0 0 1-.301.1ZM107.654 92.226a.745.745 0 0 1-.43-.114c-1.892-1.115-18.547-11.095-20.783-15.212a.842.842 0 0 1 0-.844 6.664 6.664 0 0 0 .817-2.716.832.832 0 0 1 .903-.758.837.837 0 0 1 .724.578.83.83 0 0 1 .036.323 9.05 9.05 0 0 1-.817 2.988c2.436 3.388 15.092 11.337 19.937 14.297a.802.802 0 0 1 .287 1.13.836.836 0 0 1-.674.328ZM191.962 375.669s-.789-12.096-1.434-12.682c-.645-.586-8.886.529-10.578-.314-1.691-.844-2.623 3.774-3.712 4.289-1.089.514-3.383-1.687-1.82-4.561 1.562-2.874-4.859-8.035-6.464-7.906-1.606.128-11.84 4.289-19.752 4.775-7.911.486-14.204-1.001-16.382.143-2.179 1.144-4.2 2.43-1.161 5.919 3.038 3.488 10.033 10.394 19.321 10.48 9.288.086 11.466-1.43 12.613-2.774 1.147-1.344 2.867-3.789 4.114-1.287 1.247 2.502 1.275 5.891 3.439 6.534 2.165.644 16.985 4.075 21.816-2.616Z" fill="#263238"/><path d="M178.115 387.993a27.995 27.995 0 0 1-6.45-.701 19.676 19.676 0 0 1-8.012-4.432 41.89 41.89 0 0 0-1.634-1.286c-1.032-.758-3.526-.487-6.392-.172a41.982 41.982 0 0 1-11.467.114 34.56 34.56 0 0 1-18.633-10.365c-2.651-3.274-1.562-6.148-.229-8.822a3.849 3.849 0 0 1 1.655-1.969 3.864 3.864 0 0 1 2.53-.49.83.83 0 0 1 .187 1.459.837.837 0 0 1-.574.143c-.143 0-1.433-.229-2.322 1.601-1.218 2.445-1.992 4.518 0 7.034a33.19 33.19 0 0 0 17.644 9.779c3.659.451 7.361.407 11.008-.128 3.34-.372 5.991-.658 7.539.486.574.415 1.133.872 1.706 1.33a18.032 18.032 0 0 0 7.367 4.117c4.501 1.115 11.854.887 16.354-1.43 4.171-2.144 4.845-4.146 2.867-8.22a.835.835 0 0 1 .966-.994.83.83 0 0 1 .467.264c2.437 4.861 1.434 7.878-3.526 10.409a25.14 25.14 0 0 1-11.051 2.273ZM170.935 360.199a.802.802 0 0 1-.731-.458.794.794 0 0 1-.055-.615.79.79 0 0 1 .399-.471c.115-.086 3.856-2.631 7.941-19.387a.827.827 0 0 1 1.02-.707.822.822 0 0 1 .539.415.835.835 0 0 1 .046.678c-4.3 17.786-8.342 20.245-8.786 20.459a.833.833 0 0 1-.373.086ZM187.776 365.975a.814.814 0 0 1-.817-.772c-.401-6.233 7.855-23.504 8.213-24.234a.834.834 0 0 1 1.364.19c.08.163.105.347.07.525-.086.172-8.414 17.614-8.056 23.405a.838.838 0 0 1-.202.604.843.843 0 0 1-.572.282Z" fill="#263238"/><path d="M194.255 342.242c-5.447 0-15.237-2.86-19.924-5.619-4.901-2.86-3.411-13.411-2.106-22.733.157-1.143.315-2.273.458-3.345.574-4.432.43-12.954.273-21.203-.172-9.736-.33-18.944.573-22.761 1.662-7.149 16.067-33.456 16.684-34.571a.784.784 0 0 1 .202-.252.796.796 0 0 1 .916-.077c.095.051.18.121.249.204a.83.83 0 0 1 .178.605.803.803 0 0 1-.098.306c-.143.272-14.906 27.308-16.526 34.156-.845 3.618-.673 13.154-.516 22.361.143 8.307.301 16.9-.287 21.446a193.795 193.795 0 0 1-.472 3.36c-1.161 8.364-2.623 18.787 1.304 21.074 4.887 2.86 16.368 6.048 20.597 5.276 2.078-.372 9.13-2.402 13.071-12.725 3.211-8.392 4.1-36.157 4.1-39.045a18.609 18.609 0 0 0-2.365-4.733c-1.993-3.345-2.867-4.99-2.064-5.919.802-.929 1.849-.229 2.279 0a24.089 24.089 0 0 1 5.002 3.346l.975.757v-.243a48.642 48.642 0 0 0-1.09-3.388c-.688-2.016-1.075-3.131-.43-3.875a1.652 1.652 0 0 1 1.649-.386c2.178.429 3.368.272 4.3-.6 1.118-1.201 20.797-32.884 22.187-39.746 1.577-7.607 1.434-16.071-.301-18.844-2.035-3.246-4.5-6.534-4.529-6.563a.826.826 0 0 1 .172-1.158.833.833 0 0 1 .614-.166.817.817 0 0 1 .547.324s2.537 3.374 4.601 6.676c2.279 3.646 1.978 13.054.53 20.016-1.447 6.963-21.542 39.418-22.775 40.648-1.605 1.601-3.684 1.429-5.733 1.058.169.709.384 1.406.645 2.087.329.958.745 2.145 1.118 3.503.286 1.072.501 2.159-.258 2.645-.76.486-1.706-.158-3.297-1.43a22.824 22.824 0 0 0-4.658-3.131h-.086a31.864 31.864 0 0 0 1.992 3.646c1.605 2.716 2.594 4.446 2.594 5.576 0 .286-.645 30.31-4.199 39.632-4.3 11.137-12.04 13.353-14.333 13.768a9.8 9.8 0 0 1-1.763.043Z" fill="#263238"/><path d="M269.646 316.15c-.731 0-1.433 0-1.992-.086-3.44-.258-15.394-4.175-25.943-7.621-6.336-2.073-12.312-4.031-15.294-4.818a27.636 27.636 0 0 1-13.301-8.578.838.838 0 0 1-.244-.633.84.84 0 0 1 .311-.603.842.842 0 0 1 .658-.17.846.846 0 0 1 .565.376 26.54 26.54 0 0 0 12.427 7.993c3.039.8 9.044 2.759 15.394 4.846 9.947 3.246 22.316 7.306 25.556 7.549 4.844.372 13.057-.657 15.766-5.004 2.709-4.346 3.139-14.94 2.394-17.542l-.101-.358c-.888-3.131-2.966-10.494-9.746-12.739-8.485-2.859-23.291-6.877-24.868-6.605-.33 0-.688.886-.903 1.358-.33.744-.674 1.501-1.433 1.516-.76.014-1.262-.872-1.434-1.244a31.59 31.59 0 0 1-.903-2.03c-.458-1.101-1.433-3.389-1.963-3.518a14.006 14.006 0 0 0-1.849 2.074c-1.319 1.687-2.208 2.859-3.211 2.444-1.003-.414-.889-1.429-.889-1.83.029-1.001.154-1.996.373-2.973.459-2.317.473-3.117-1.075-3.703-3.669-1.43-4.486-7.449-4.486-9.665a.83.83 0 0 1 1.419-.587.83.83 0 0 1 .244.587c0 1.429.587 7.062 3.411 8.12 2.823 1.058 2.522 3.475 2.121 5.562a16.624 16.624 0 0 0-.272 2.488c.358-.401.788-.958 1.118-1.43a13.642 13.642 0 0 1 2.107-2.345 1.691 1.691 0 0 1 1.433-.314c1.319.357 2.121 2.273 3.053 4.475.258.615.516 1.229.76 1.758.387-.857.917-2.016 2.035-2.301 2.121-.515 20.195 4.789 25.8 6.648 7.596 2.53 9.932 10.766 10.807 13.868l.1.343c.86 2.974.545 13.983-2.58 18.887-2.967 4.618-10.492 5.805-15.365 5.805ZM380.428 370.25a6.07 6.07 0 0 1-.874 0 .833.833 0 0 1-.703-.943.837.837 0 0 1 .946-.701c.115 0 10.033 1.201 18.762-15.469 7.525-14.298 7.883-18.587 7.769-19.673-.272.2-.631.529-.961.829-.85.867-1.85 1.574-2.952 2.087-1.648.658-19.436 15.727-23.076 31.597a.822.822 0 0 1-.989.615.81.81 0 0 1-.525-.36.807.807 0 0 1-.106-.627c3.812-16.613 22.13-31.982 24.08-32.769a8.242 8.242 0 0 0 2.436-1.758 4.686 4.686 0 0 1 2.107-1.43 1.22 1.22 0 0 1 1.262.5c1.977 2.631-3.899 14.741-7.583 21.718-7.955 15.098-16.813 16.384-19.593 16.384Z" fill="#263238"/><path d="M381.689 368.306a.84.84 0 0 1-.349-.08.84.84 0 0 1-.282-.22.836.836 0 0 1-.194-.607.814.814 0 0 1 .295-.565c.114-.086 11.337-9.594 16.196-19.888a.833.833 0 0 1 1.51.084.828.828 0 0 1-.005.617c-5.017 10.637-16.153 20.016-16.626 20.459a.846.846 0 0 1-.545.2ZM379.726 348.332h-.072a.82.82 0 0 1-.724-.565.832.832 0 0 1-.036-.321c1.133-13.597 7.783-27.623 19.766-41.662.501-.601.845-1.001.989-1.201.288-.462.552-.94.788-1.43.975-1.83 1.763-3.26 2.867-2.945 1.103.314 1.433 1.429 1.132 7.148-.602 11.438-8.414 33.57-8.743 34.499a.822.822 0 0 1-.41.534.837.837 0 0 1-.672.055.833.833 0 0 1-.557-.797.809.809 0 0 1 .077-.335c.086-.229 8.069-22.804 8.599-34.042.131-1.641.131-3.29 0-4.932-.301.472-.659 1.144-.888 1.573-.23.429-.631 1.186-.889 1.558-.258.372-.545.672-1.104 1.33-11.753 13.782-18.26 27.479-19.364 40.718a.827.827 0 0 1-.759.815Z" fill="#263238"/><path d="M380.142 356.539h-.23a.829.829 0 0 1-.559-1.029c4.831-16.499 16.096-37.173 16.211-37.43a.821.821 0 0 1 .811-.427.813.813 0 0 1 .307.098.806.806 0 0 1 .399.488.81.81 0 0 1-.069.627c-.115.214-11.28 20.788-16.068 37.173a.816.816 0 0 1-.802.5Z" fill="#263238"/><path d="M375.11 368.577a.823.823 0 0 1-.574-.229c-.573-.543-13.989-13.654-12.427-30.024 1.362-14.297 4.845-27.751 7.597-29.509a1.44 1.44 0 0 1 1.29-.201c1.648.572 1.992 2.989 2.422 6.062a28.54 28.54 0 0 0 1.634 7.149c2.308 5.419 7.883 30.239 4.888 43.678a.829.829 0 0 1-.977.576.83.83 0 0 1-.643-.933c2.867-13.111-2.537-37.373-4.801-42.678a30.361 30.361 0 0 1-1.749-7.52c-.272-1.901-.602-4.289-1.218-4.675-1.548.972-5.275 12.353-6.794 28.251-1.434 15.527 11.796 28.495 11.925 28.595a.814.814 0 0 1-.573 1.429v.029Z" fill="#263238"/><path d="M376.257 366.618a.845.845 0 0 1-.759-.486c-7.167-15.812-8.328-38.016-8.328-38.23a.807.807 0 0 1 .203-.599.82.82 0 0 1 .571-.274.822.822 0 0 1 .577.224.809.809 0 0 1 .254.563c0 .214 1.219 22.118 8.199 37.644a.83.83 0 0 1-.416 1.087.727.727 0 0 1-.301.071ZM375.282 325.7a.835.835 0 0 1-.832-.772c-1.275-21.818 7.798-40.647 12.155-49.683a47.99 47.99 0 0 0 2.135-4.804c.961-3.217 2.193-3.76 3.039-3.646 1.247.157 2.938 1.673 3.239 12.753.387 13.983-3.698 38.431-3.726 38.603a.832.832 0 0 1-.961.686.844.844 0 0 1-.542-.337.83.83 0 0 1-.146-.621c0-.243 4.085-24.548 3.713-38.359-.273-10.309-1.806-11.152-1.821-11.167a5.722 5.722 0 0 0-1.204 2.488 45.596 45.596 0 0 1-2.236 5.047c-4.299 8.922-13.229 27.479-11.982 48.868a.816.816 0 0 1-.213.599.84.84 0 0 1-.575.273l-.043.072Z" fill="#263238"/><path d="M379.41 344.801a.842.842 0 0 1-.831-.743c-.272-2.474.616-6.248 2.25-13.111.817-3.46 1.82-7.763 2.967-13.082a367.456 367.456 0 0 0 5.289-37.173.863.863 0 0 1 .903-.758.82.82 0 0 1 .716.579.815.815 0 0 1 .029.322 369.665 369.665 0 0 1-5.303 37.373c-1.161 5.333-2.179 9.637-2.996 13.096-1.576 6.692-2.45 10.366-2.207 12.568a.829.829 0 0 1-.731.915l-.086.014ZM392.195 374.396a.845.845 0 0 1-.803-.586.829.829 0 0 1 .559-1.029l1.692-.529a1.286 1.286 0 0 1-.23-.158 1.201 1.201 0 0 1-.344-1.201 8.28 8.28 0 0 1 1.247-2.373l.187-.272c-3.111 1.173-7.425 2.445-10.392 1.159a.837.837 0 0 1-.509-.77c0-.109.022-.217.065-.317a.843.843 0 0 1 1.103-.429c2.867 1.23 7.826-.686 9.475-1.315.587-.229 1.662-.644 2.236.085.573.73 0 1.587-.774 2.774-.273.4-.574.858-.789 1.258.473-.114 1.118-.314 1.634-.471a15.603 15.603 0 0 1 4.3-.916c.918 0 1.19.444 1.233.815.115.772.201 1.273-9.632 4.29l-.258-.015ZM372.386 368.091a.743.743 0 0 1-.387-.1 25.118 25.118 0 0 1-6.106-4.675c-1.361-1.43-2.365-1.816-2.866-1.687a.528.528 0 0 0-.33.458 1.187 1.187 0 0 1-.745.972c-.788.3-1.562-.329-2.465-1.058l-.23-.172v.286c.144 1.673.373 4.189-1.433 5.019a.83.83 0 0 1-.638.02.83.83 0 0 1-.05-1.536c.731-.329.559-2.23.459-3.36-.101-1.129-.172-2.044.516-2.43.688-.386 1.505.186 2.393.886l.688.543a2.117 2.117 0 0 1 1.347-1.215c.731-.214 2.279-.214 4.487 2.145a23.913 23.913 0 0 0 5.647 4.289.836.836 0 0 1 .417.489.838.838 0 0 1-.059.64.842.842 0 0 1-.645.486ZM84.893 367.076a33.134 33.134 0 0 1-4.429-.3c-6.507-.872-15.995-4.289-24.194-15.213-13.602-18.2-14.133-33.012-14.333-39.346 0-.957 0-1.701-.13-2.244-.358-2.86 0-6.234 1.678-6.934.43-.201 1.304-.344 2.236.786.603.839.96 1.829 1.032 2.859.3 1.83.645 3.918 4.701 6.277 8.485 4.904 36.75 23.004 44.576 49.883a.823.823 0 0 1-.241.937.833.833 0 0 1-1.217-.164.828.828 0 0 1-.133-.316c-7.654-26.278-35.474-44.078-43.816-48.91-4.744-2.745-5.189-5.462-5.504-7.435a4.15 4.15 0 0 0-.674-2.03 1.044 1.044 0 0 0-.373-.329c-.272.172-1.017 2.03-.616 5.219 0 .571.1 1.429.143 2.387.216 6.177.732 20.631 14.018 38.417 7.826 10.494 16.827 13.697 23.005 14.554 3.904.575 7.886.341 11.696-.686a.833.833 0 0 1 1.002 1.163.814.814 0 0 1-.486.41 27.07 27.07 0 0 1-7.94 1.015Z" fill="#263238"/><path d="M92.747 364.159h-.143c-.53-.1-13.201-2.359-26.86-14.511a62.954 62.954 0 0 1-17.802-28.852.83.83 0 0 1 .94-1.013.832.832 0 0 1 .68.627 61.073 61.073 0 0 0 17.285 28.023c13.273 11.823 25.914 14.097 26.043 14.111a.843.843 0 0 1 .674.958.813.813 0 0 1-.817.657ZM100.86 363.874a.82.82 0 0 1-.7-1.341c.14-.166.34-.27.557-.289.157 0 15.766-3.274 16.354-32.14.716-31.84-5.733-47.095-9.732-51.084-.832-.844-1.563-1.244-1.921-1.101-1.534.6-1.663 7.62-1.734 11.809-.115 5.605-2.867 10.995-6.565 18.473a510.127 510.127 0 0 0-4.214 8.578c-5.604 12.024-2.594 32.769-2.566 32.969a.827.827 0 0 1-.68 1.034.828.828 0 0 1-.954-.791c-.129-.858-3.124-21.446 2.695-33.913 1.433-3.217 2.967-6.105 4.3-8.664 3.64-7.277 6.278-12.524 6.378-17.757.129-7.435.402-12.381 2.781-13.325 1.62-.643 3.196.958 3.712 1.43 5.547 5.59 10.85 23.933 10.22 52.285-.688 30.31-17.028 33.598-17.716 33.727l-.215.1ZM81.496 371.252c-4.888-.172-5.06-1.03-5.146-1.43-.086-.4.258-1.087 1.104-1.43a7.303 7.303 0 0 1 3.784-.586c.964.104 1.94.011 2.867-.272 2.192-.672 2.536-1.501 2.536-1.501a.817.817 0 0 1 .99-.6.859.859 0 0 1 .616 1.015c0 .271-.53 1.715-3.655 2.673a9.074 9.074 0 0 1-3.483.343 7.334 7.334 0 0 0-1.85 0c.674.086 1.434.143 2.251.172a.83.83 0 1 1 0 1.659l-.014-.043Z" fill="#263238"/><path d="M106.621 366.548a.835.835 0 0 1-.602-.258.83.83 0 0 1 0-1.172 11.621 11.621 0 0 0 1.434-1.573l-.086.086c-.588.701-1.434 1.744-2.623 1.158a4.115 4.115 0 0 1-1.878-2.545.83.83 0 0 1 1.246-.9c.188.115.322.3.374.514a2.454 2.454 0 0 0 1.032 1.43c.172-.27.369-.524.587-.758.602-.7 1.62-1.887 2.867-1.058a1.423 1.423 0 0 1 .616 1.073c.086 1.329-1.634 3.073-2.379 3.76a.892.892 0 0 1-.588.243ZM100.761 360.257a.872.872 0 0 1-.33 0 .837.837 0 0 1-.269-.186.816.816 0 0 1-.146-.915 132.955 132.955 0 0 0 8.8-63.351.847.847 0 0 1 .731-.93.805.805 0 0 1 .324.024.808.808 0 0 1 .498.396.8.8 0 0 1 .095.309c4.128 34.857-8.815 63.938-8.944 64.238a.828.828 0 0 1-.759.415ZM89.007 346.617a.833.833 0 0 1-.746-.443c-.1-.215-10.95-21.718-7.453-53.929a160.018 160.018 0 0 1 9.66-40.919c1.663-4.59 2.752-7.621 2.451-9.508-.157-.972-1.433-9.55.932-10.608.473-.215 1.247-.243 2.136.843 2.494 3.06 10.033 26.221 9.589 45.337a.823.823 0 0 1-.244.586.835.835 0 0 1-1.176 0 .83.83 0 0 1-.243-.586c.444-19.273-7.296-41.905-9.216-44.322l-.23-.243c-.43.915-.587 4.404.1 8.707.36 2.302-.788 5.49-2.536 10.323a159.251 159.251 0 0 0-9.575 40.533c-3.44 31.697 7.167 52.785 7.281 52.999a.818.818 0 0 1-.1.917.823.823 0 0 1-.258.199.831.831 0 0 1-.373.114Z" fill="#263238"/><path d="M89.279 328.03a.83.83 0 0 1-.831-.801c0-.3-.187-7.263 2.522-22.332 2.71-15.069 5.733-50.741 5.733-51.112a.857.857 0 0 1 .903-.758.81.81 0 0 1 .564.293.814.814 0 0 1 .182.607c0 .358-3.082 36.258-5.734 51.27-2.651 15.012-2.508 21.904-2.493 21.975a.858.858 0 0 1-.817.858h-.03ZM68.783 326.929a.857.857 0 0 1-.631-.285c-.115-.143-12.011-13.912-14.92-32.398-2.91-18.486-4.143-24.648-6.02-27.308-1.09-1.558-1.133-3.231-.101-4.189.559-.529 2.867-1.93 7.955 2.245 6.75 5.504 22.66 25.735 26.674 38.931a.828.828 0 0 1-.573.985.836.836 0 0 1-1.018-.513c-3.856-12.682-19.68-32.884-26.144-38.116-3.225-2.631-5.217-2.86-5.733-2.317-.315.301-.315 1.087.344 2.016 2.093 2.96 3.282 8.95 6.292 28.009 2.867 18.014 14.434 31.454 14.548 31.568a.822.822 0 0 1 .202.604.83.83 0 0 1-.875.768Z" fill="#263238"/><path d="M87.014 342.057a.842.842 0 0 1-.644-.301c0-.085-6.995-8.435-16.197-21.774-9.202-13.34-14.204-37.559-14.419-38.603a.828.828 0 0 1 1.276-.845c.181.119.31.305.358.516 0 .258 5.088 24.82 14.161 37.988s16.039 21.56 16.11 21.646a.842.842 0 0 1-.114 1.172.833.833 0 0 1-.53.201ZM62.82 275.259a.848.848 0 0 1-.788-.6c0-.172-5.274-17.7-6.908-29.109-.387-2.76-.76-5.019-1.061-6.877-.803-4.847-1.104-6.677-.143-7.592a2.036 2.036 0 0 1 1.877-.386c2.695.529 25.384 17.8 30.86 37.745a.829.829 0 0 1-1.223.95.839.839 0 0 1-.383-.521c-5.203-18.901-27.09-36.072-29.57-36.558a1.229 1.229 0 0 0-.443 0c-.287.414.157 3.059.659 6.133.3 1.844.674 4.132 1.075 6.906 1.605 11.294 6.794 28.694 6.851 28.866a.828.828 0 0 1-.559 1.029.666.666 0 0 1-.243.014Z" fill="#263238"/><path d="M81.095 299.98a.819.819 0 0 1-.817-.672 51.659 51.659 0 0 0-8.041-17.758c-6.65-9.664-10.693-31.225-10.85-32.14a.828.828 0 0 1 .66-.972.862.862 0 0 1 .974.672c0 .214 4.128 22.132 10.578 31.454a52.339 52.339 0 0 1 8.313 18.4.816.816 0 0 1-.674.958l-.143.058ZM90.883 253.428a.842.842 0 0 1-.58-.263.834.834 0 0 1-.222-.595c.3-7.907-.674-13.125-3.483-18.587l-.33-.614c-5.532-10.852-12.025-23.891-12.971-28.409-.617-2.86-1.577-4.018-2.036-4.032-.1 0-1.29.1-2.737 4.89-2.466 8.092 3.325 38.245 3.397 38.602a.83.83 0 0 1-1.284.845.83.83 0 0 1-.35-.53c-.244-1.258-5.934-30.868-3.354-39.346 1.232-4.089 2.651-6.077 4.3-6.077h.014c2.15.086 3.168 3.389 3.583 5.348 1.032 4.875 9.603 21.674 12.9 27.994l.316.629c2.952 5.719 3.984 11.223 3.669 19.43a.83.83 0 0 1-.831.715Z" fill="#263238"/><path d="M84.95 266.667a.849.849 0 0 1-.831-.758c0-.1-.803-10.594-1.591-17.286-.789-6.691-8.6-19.015-8.715-19.129a.84.84 0 0 1 .91-1.262.845.845 0 0 1 .523.375c.33.515 8.142 12.868 8.959 19.816.817 6.949 1.59 17.257 1.605 17.357a.828.828 0 0 1-.76.887h-.1Z" fill="#263238"/><ellipse cx="239.662" cy="272.901" rx=".717" ry=".715" fill="#263238"/><ellipse cx="248.979" cy="275.045" rx="1.434" ry="1.43" fill="#263238"/><ellipse cx="238.946" cy="272.186" rx="1.434" ry="1.43" fill="#263238"/><ellipse rx="1.078" ry="5.381" transform="rotate(26.436 -458.86 510.98) skewX(-.115)" fill="#263238"/></svg>