<svg fill="none" xmlns="http://www.w3.org/2000/svg" viewBox="0 0 390 264"><path d="M289.738 146.989s-5.899-3.274-6.336 4.141c-.437 7.416-1.531 55.653-1.531 55.653" stroke="#263238" stroke-width="2" stroke-linecap="round" stroke-linejoin="round"/><path d="M280.32 151.787s4.8 10.694 2.625 54.34" stroke="#263238" stroke-width="2" stroke-linecap="round" stroke-linejoin="round"/><path d="M285.067 148.48s-2.26 1.438-3.542-.207c-1.282-1.644.869-4.683-1.027-5.977-1.896-1.294-5.175.681-5.175.681s2.52.738 2.439 2.114c-.082 1.375-1.296 1.917-1.44 1.294-.144-.623-1.368-3.629-3.418-2.368a5.081 5.081 0 0 0-2.357 3.211s4.767-.508 5.055 1.285c.288 1.793-1.954-.311-3.922-.427-1.968-.115-3.763.173-3.633 1.362a15.682 15.682 0 0 1-.188 3.144 5.851 5.851 0 0 1 3.84-1.351c2.165.124 2.084 1.5.116 1.385-1.968-.115-3.658 1.754-3.658 1.754s1.795 3.063 4.075 4.578c2.28 1.515 3.101.959 3.36-.196.259-1.156-.345-4.161 1.032-4.08 1.378.082-2.28 5.192-.523 5.494 1.757.302 3.173-.211 3.634-1.366l.48-1.156s-.615-2.991-.346-4.16c.269-1.17.59.033.902 1.438.312 1.404.509 4.764 1.109 4.601.6-.163 2.525-2.612 2.976-3.571.451-.958-2.534-3.897-2.501-4.486.034-.59 2.338.532 2.698 1.145.261.467.496.947.706 1.438 0 0 1.44-.901 1.401-3.662-.038-2.761-2.093-1.917-2.093-1.917Z" fill="#fff"/><path opacity=".3" d="M285.067 148.48s-2.26 1.438-3.542-.207c-1.282-1.644.869-4.683-1.027-5.977-1.896-1.294-5.175.681-5.175.681s2.52.738 2.439 2.114c-.082 1.375-1.296 1.917-1.44 1.294-.144-.623-1.368-3.629-3.418-2.368a5.081 5.081 0 0 0-2.357 3.211s4.767-.508 5.055 1.285c.288 1.793-1.954-.311-3.922-.427-1.968-.115-3.763.173-3.633 1.362a15.682 15.682 0 0 1-.188 3.144 5.851 5.851 0 0 1 3.84-1.351c2.165.124 2.084 1.5.116 1.385-1.968-.115-3.658 1.754-3.658 1.754s1.795 3.063 4.075 4.578c2.28 1.515 3.101.959 3.36-.196.259-1.156-.345-4.161 1.032-4.08 1.378.082-2.28 5.192-.523 5.494 1.757.302 3.173-.211 3.634-1.366l.48-1.156s-.615-2.991-.346-4.16c.269-1.17.59.033.902 1.438.312 1.404.509 4.764 1.109 4.601.6-.163 2.525-2.612 2.976-3.571.451-.958-2.534-3.897-2.501-4.486.034-.59 2.338.532 2.698 1.145.261.467.496.947.706 1.438 0 0 1.44-.901 1.401-3.662-.038-2.761-2.093-1.917-2.093-1.917Z" fill="#263238"/><path d="M273.624 154.956c1.474-1.817 3.638-4.276 5.458-5.451M271.915 157.17s.379-.527.994-1.313M280.042 149.956s2.188 3.087 2.592 6.265M277.565 151.782s.614-.354.384 3.572M279.163 148.12s1.248-1.112.59-3.317M277.474 150.004l-.893-1.63M275.597 151.667s-2.832-2.138-4.603-2.243" stroke="#263238" stroke-linecap="round" stroke-linejoin="round"/><path d="M293.112 142.655s-.091 3.241-2.626 3.399c-2.534.158-4.099-4.055-6.691-3.044-2.592 1.012-2.842 5.637-2.842 5.637s2.458-2.018 3.783-.997c1.325 1.021 1.017 2.589.302 2.34-.715-.25-4.569-1.108-4.699 1.797a6.12 6.12 0 0 0 1.608 4.549s2.741-5.11 4.738-4.18c1.996.93-1.647 1.74-3.106 3.629-1.459 1.889-2.4 3.878-1.109 4.563a18.978 18.978 0 0 1 3.024 2.33s-.345-2.675 1.258-4.75c1.603-2.076 2.923-1.06 1.469.829-1.455 1.889-.735 4.851-.735 4.851s4.291.297 7.363-.959 3.092-2.44 2.103-3.504c-.989-1.064-4.407-2.488-3.389-3.811 1.018-1.323 3.648 5.82 5.15 4.267 1.503-1.554 1.949-3.313 1.109-4.564l-.845-1.251s-3.417-1.438-4.406-2.488c-.989-1.05.437-.57 2.054.072 1.618.642 5.117 2.737 5.367 2.028.249-.71-.898-4.314-1.551-5.407-.652-1.093-5.635-.125-6.201-.561-.567-.436 2.126-1.975 2.985-1.918.86.058 1.92.264 1.92.264s.077-2.047-2.716-3.897c-2.794-1.85-3.317.776-3.317.776Z" fill="#fff"/><path opacity=".2" d="M293.112 142.655s-.091 3.241-2.626 3.399c-2.534.158-4.099-4.055-6.691-3.044-2.592 1.012-2.842 5.637-2.842 5.637s2.458-2.018 3.783-.997c1.325 1.021 1.017 2.589.302 2.34-.715-.25-4.569-1.108-4.699 1.797a6.12 6.12 0 0 0 1.608 4.549s2.741-5.11 4.738-4.18c1.996.93-1.647 1.74-3.106 3.629-1.459 1.889-2.4 3.878-1.109 4.563a18.978 18.978 0 0 1 3.024 2.33s-.345-2.675 1.258-4.75c1.603-2.076 2.923-1.06 1.469.829-1.455 1.889-.735 4.851-.735 4.851s4.291.297 7.363-.959 3.092-2.44 2.103-3.504c-.989-1.064-4.407-2.488-3.389-3.811 1.018-1.323 3.648 5.82 5.15 4.267 1.503-1.554 1.949-3.313 1.109-4.564l-.845-1.251s-3.417-1.438-4.406-2.488c-.989-1.05.437-.57 2.054.072 1.618.642 5.117 2.737 5.367 2.028.249-.71-.898-4.314-1.551-5.407-.652-1.093-5.635-.125-6.201-.561-.567-.436 2.126-1.975 2.985-1.918.86.058 1.92.264 1.92.264s.077-2.047-2.716-3.897c-2.794-1.85-3.317.776-3.317.776Z" fill="#263238"/><path d="M291.801 158.512c-.816-2.713-1.804-6.557-1.737-9.174M292.858 161.724s-.269-.733-.639-1.884M291.168 148.686s4.584-.082 8.045 1.677M291.312 152.405s.058-.853 3.84 2.057M288.739 148.321s-.259-2.008-2.923-2.852M289.464 151.289l-2.241-.221M289.853 154.294s-4.075 1.381-5.386 3.078" stroke="#263238" stroke-linecap="round" stroke-linejoin="round"/><path d="M265.92 164.226s12.893 8.514 12.672 41.464" stroke="#263238" stroke-width="2" stroke-linecap="round" stroke-linejoin="round"/><path d="M281.818 161.978s-.413 3.729-3.36 3.677c-2.947-.053-4.349-5.072-7.431-4.147-3.081.926-3.816 6.232-3.816 6.232s3.029-2.095 4.464-.796c1.436 1.299.927 3.082.125 2.728-.801-.355-5.165-1.707-5.592 1.634a7.078 7.078 0 0 0 1.44 5.403s3.648-5.642 5.861-4.382c2.213 1.261-2.064 1.855-3.926 3.898-1.863 2.042-3.125 4.251-1.714 5.162a21.722 21.722 0 0 1 3.274 2.972s-.149-3.12 1.92-5.364c2.068-2.243 3.475-.959 1.617 1.093-1.857 2.052-1.305 5.532-1.305 5.532s4.929.748 8.592-.403c3.662-1.15 3.792-2.521 2.75-3.835-1.042-1.313-4.848-3.288-3.547-4.717 1.301-1.428 3.657 7.057 5.539 5.408 1.882-1.649 2.563-3.639 1.709-5.163l-.898-1.524s-3.806-1.971-4.848-3.289c-1.041-1.318.557-.613 2.362.278 1.805.892 5.649 3.643 6 2.843.35-.801-.634-5.048-1.263-6.385-.628-1.338-6.489-.671-7.104-1.227-.614-.556 2.645-2.081 3.629-1.918.733.122 1.459.282 2.175.48 0 0 .278-2.359-2.77-4.756-3.048-2.396-3.883.566-3.883.566Z" fill="#fff"/><path opacity=".3" d="M281.818 161.978s-.413 3.729-3.36 3.677c-2.947-.053-4.349-5.072-7.431-4.147-3.081.926-3.816 6.232-3.816 6.232s3.029-2.095 4.464-.796c1.436 1.299.927 3.082.125 2.728-.801-.355-5.165-1.707-5.592 1.634a7.078 7.078 0 0 0 1.44 5.403s3.648-5.642 5.861-4.382c2.213 1.261-2.064 1.855-3.926 3.898-1.863 2.042-3.125 4.251-1.714 5.162a21.722 21.722 0 0 1 3.274 2.972s-.149-3.12 1.92-5.364c2.068-2.243 3.475-.959 1.617 1.093-1.857 2.052-1.305 5.532-1.305 5.532s4.929.748 8.592-.403c3.662-1.15 3.792-2.521 2.75-3.835-1.042-1.313-4.848-3.288-3.547-4.717 1.301-1.428 3.657 7.057 5.539 5.408 1.882-1.649 2.563-3.639 1.709-5.163l-.898-1.524s-3.806-1.971-4.848-3.289c-1.041-1.318.557-.613 2.362.278 1.805.892 5.649 3.643 6 2.843.35-.801-.634-5.048-1.263-6.385-.628-1.338-6.489-.671-7.104-1.227-.614-.556 2.645-2.081 3.629-1.918.733.122 1.459.282 2.175.48 0 0 .278-2.359-2.77-4.756-3.048-2.396-3.883.566-3.883.566Z" fill="#263238"/><path d="M278.813 180.15c-.692-3.202-1.464-7.732-1.148-10.747M279.725 183.956s-.24-.872-.562-2.233M279.005 168.732s5.28.341 9.12 2.699M278.818 173.046s.149-.958 4.238 2.733M276.235 168.104s-.11-2.339-3.101-3.566M276.792 171.594l-2.563-.465M276.96 175.103s-4.834 1.203-6.509 3.039" stroke="#263238" stroke-linecap="round" stroke-linejoin="round"/><path d="M270.946 190.198s8.304 6.327 9.177 15.713l-1.723-31.427" stroke="#263238" stroke-width="2" stroke-linecap="round" stroke-linejoin="round"/><path d="M291.048 185.615c-10.925-1.965-10.925 20.296-10.925 20.296" stroke="#263238" stroke-width="2" stroke-linecap="round" stroke-linejoin="round"/><path d="M281.434 205.69s-6.336-46.046 12-46.046" stroke="#263238" stroke-width="2" stroke-linecap="round" stroke-linejoin="round"/><path d="M286.887 184.287c-1.493-1.673-4.666-1.673-6.528 2.613-1.863 4.285-.187 3.537-.187 3.537s3.542-1.117 5.759-1.864c2.218-.748 5.223-2.608 5.41-1.486.187 1.121-1.493 2.233-3.547 2.607-2.054.374-7.459 1.86-6.902 2.982.556 1.122 1.867 4.467 1.867 4.467a47.694 47.694 0 0 1 5.035-3.724c2.429-1.491 3.922-.93 2.616.743s-5.04 3.542-4.291 5.776c.749 2.234 5.241 5.033 5.241 5.033s.557-4.659 1.867-6.15c1.311-1.491 1.306.187.932 2.795a29.99 29.99 0 0 0-.375 3.355l5.223 1.86a37.24 37.24 0 0 1 2.798-3.724l.96-.93s-4.104-3.543-4.291-5.753c-.187-2.209 2.798 0 3.729.374.932.374 2.424 2.977 2.424 2.977s.936-4.28 1.124-5.752l.187-1.491s-3.922-1.491-5.415-1.491c-1.492 0-2.236 1.117-2.236-.374 0-1.49 1.492-2.42 3.172-2.233 1.521.251 3.019.624 4.479 1.117 0 0 1.118-.935.744-3.73-.375-2.794-1.306-2.794-3.543-2.047-2.236.748-3.734 2.397-5.414 2.397-1.68 0-.744-2.047.374-2.608 1.119-.56 3.917-1.677 4.479-1.864.561-.187-2.986-2.795-4.853-3.164-1.867-.369-4.281.959-4.104 2.795.355 3.892-5.242 4.659-6.734 2.957Z" fill="#fff"/><path d="M298.896 203.471c.058.561.096 1.126.116 1.687M295.147 190.097a49.3 49.3 0 0 1 3.514 11.548M294.475 188.601c-.922-1.984-1.618-3.192-1.618-3.192a5.519 5.519 0 0 0 2.4-2.239 6.236 6.236 0 0 1 1.868-2.233M286.325 191.741s6.72-2.794 6.72-2.234M296.774 188.204s2.986-1.491 5.597-1.491M295.68 192.7a25.887 25.887 0 0 0-3.547 3.537 16.095 16.095 0 0 0-2.612 4.286M297.706 193.419s3.921-1.117 5.971.743" stroke="#263238" stroke-linecap="round" stroke-linejoin="round"/><path d="M304.8 168.253c-2.03-1.199-4.277-1.227-5.381-2.493-1.104-1.265 1.061-1.917 2.218-1.438 1.157.479 3.84 1.855 4.344 2.157.504.302.158-4.084-.782-5.752-.941-1.668-3.519-2.612-4.8-1.266-2.712 2.848-6.946-.886-6.658-3.111.288-2.224-1.79-4.616-6.24-3.211-4.45 1.404-2.798 2.176-2.798 2.176s3.168 1.941 5.203 3.145c2.035 1.203 5.395 2.229 4.67 3.101-.725.872-2.669.34-4.296-.959-1.627-1.299-6.297-4.405-6.777-3.25-.48 1.156-2.16 4.315-2.16 4.315 2.067.316 4.112.769 6.12 1.356 2.716.849 3.273 2.339 1.152 2.454-2.122.115-5.981-1.476-7.2.552-1.22 2.027-.38 7.238-.38 7.238s3.888-2.632 5.871-2.622c1.982.009.715 1.107-1.503 2.536a31.083 31.083 0 0 0-2.779 1.917l2.016 5.163a36.56 36.56 0 0 1 4.651-.331l1.316.091s0-5.417 1.555-7.023c1.555-1.605 1.833 2.11 2.165 3.059.331.949-.663 3.782-.663 3.782s3.84-2.105 5.098-2.939l1.253-.839s-1.44-3.93-2.4-5.057c-.96-1.126-2.309-.958-1.186-1.917 1.123-.959 2.813-.479 3.773.925a29.035 29.035 0 0 1 2.088 4.108s1.44.235 3.307-1.879 1.238-2.795-.797-3.988Zm-17.654 5.963c-1.493-.743 2.049-2.234 2.049-2.234 1.311-.196-.556 2.982-2.044 2.224l-.005.01Zm2.51-6.955c-.633-.317 1.272-.959 1.272-.959 2.765.513-.629 1.27-1.267.949l-.005.01Z" fill="#fff"/><path d="M287.107 178.003c-.387.412-.785.81-1.195 1.194M294.763 166.407a49.181 49.181 0 0 1-6.427 10.22M295.455 164.921c.897-1.999 1.353-3.317 1.353-3.317a5.506 5.506 0 0 0 3.283.365 6.24 6.24 0 0 1 2.914-.058M293.832 164.418c.422-.364-6.091-3.6-6.091-3.6M297.264 166.393s3.087 1.275 4.8 3.245M293.151 168.478a26.189 26.189 0 0 0-5.002-.35 16.089 16.089 0 0 0-4.949.839M293.933 170.515s3.412 2.225 3.36 4.99" stroke="#263238" stroke-linecap="round" stroke-linejoin="round"/><path d="M275.813 194.061c-1.632-.958-3.442-.987-4.32-2.008-.878-1.021.85-1.534 1.781-1.146.931.388 3.086 1.491 3.499 1.731.413.239.125-3.284-.634-4.612-.758-1.328-2.832-2.104-3.84-1.016-2.184 2.287-5.592-.714-5.356-2.507.235-1.793-1.44-3.715-5.036-2.584-3.595 1.132-2.251 1.755-2.251 1.755s2.549 1.562 4.186 2.526c1.637.963 4.32 1.793 3.758 2.497-.561.705-2.145.274-3.456-.776-1.31-1.05-5.069-3.547-5.457-2.617-.389.929-1.733 3.494-1.733 3.494 1.664.254 3.309.617 4.925 1.088 2.184.686 2.63 1.889.921 1.98-1.709.091-4.8-1.189-5.76.441-.96 1.63-.302 5.824-.302 5.824s3.129-2.114 4.723-2.109c1.594.005.576.891-1.205 2.042-.775.471-1.523.985-2.241 1.539l1.622 4.156a29.498 29.498 0 0 1 3.744-.269l1.061.077s0-4.362 1.253-5.652c1.252-1.289 1.473 1.697 1.737 2.459.264.763-.533 3.044-.533 3.044s3.101-1.692 4.104-2.368l1.008-.671s-1.161-3.164-1.948-4.07c-.788-.905-1.863-.771-.96-1.557.902-.787 2.26-.37 3.033.747a23.49 23.49 0 0 1 1.685 3.308s1.157.187 2.659-1.515c1.503-1.702.96-2.267-.667-3.231Zm-14.208 4.794c-1.2-.599 1.651-1.798 1.651-1.798 1.051-.148-.451 2.402-1.656 1.803l.005-.005Zm2.026-5.599c-.514-.254 1.022-.767 1.022-.767 2.227.431-.514 1.031-1.022.772v-.005Z" fill="#fff"/><path d="M261.6 201.913c-.312.331-.633.652-.96.959M267.734 192.585a39.785 39.785 0 0 1-5.174 8.221M268.291 191.386c.72-1.605 1.09-2.67 1.09-2.67.829.366 1.75.468 2.64.293a5.038 5.038 0 0 1 2.342-.048M262.08 188.098s5.246 2.603 4.906 2.876M269.76 192.57s2.482 1.026 3.84 2.608M266.434 194.248a20.851 20.851 0 0 0-4.023-.283 12.982 12.982 0 0 0-3.984.676M267.062 195.888s2.751 1.788 2.698 4.017" stroke="#263238" stroke-linecap="round" stroke-linejoin="round"/><path d="M269.15 163.296s-2.054 1.491-3.36 0c-1.305-1.49.562-4.472-1.31-5.589s-4.848.93-4.848.93 2.424.561 2.424 1.865c0 1.304-1.118 1.86-1.306 1.304-.187-.556-1.492-3.356-3.36-2.052a4.791 4.791 0 0 0-2.049 3.168s4.473-.747 4.848.93c.374 1.678-1.867-.187-3.73-.187-1.862 0-3.547.374-3.36 1.491.102.992.102 1.991 0 2.982a5.55 5.55 0 0 1 3.547-1.491c2.05 0 2.05 1.304.188 1.304-1.863 0-3.36 1.865-3.36 1.865s1.867 2.794 4.104 4.098c2.236 1.304 2.985.748 3.172-.374.188-1.122-.561-3.911.744-3.911 1.306 0-1.862 5.033-.187 5.215 1.675.182 2.986-.369 3.36-1.491l.375-1.117s-.749-2.794-.562-3.911c.187-1.117.562 0 .931 1.304.37 1.303.749 4.472 1.306 4.285.557-.187 2.241-2.608 2.616-3.538.374-.93-2.616-3.542-2.616-4.098s2.241.369 2.616.93c.27.422.518.857.744 1.304 0 0 1.305-.93 1.118-3.543-.187-2.612-2.045-1.673-2.045-1.673Z" fill="#fff"/><path d="M258.72 170.05c1.291-1.797 3.202-4.242 4.858-5.45M257.208 172.236s.331-.517.864-1.294M264.48 164.969s2.237 2.795 2.798 5.777M262.248 166.815s.557-.374.557 3.355M263.554 163.296s1.118-1.121.369-3.168M262.061 165.156l-.936-1.491M260.381 166.815s-2.799-1.865-4.479-1.865" stroke="#263238" stroke-linecap="round" stroke-linejoin="round"/><path d="M287.99 205.034h-14.424v20.732h14.424v-20.732Z" fill="#263238" stroke="#263238" stroke-width="2" stroke-linecap="round" stroke-linejoin="round"/><path d="M158.074 45.72s.173-6.125-.043-11.393c-.217-5.268.221-16.562.221-16.562M158.151 24.409l-2.396-1.884M158.122 25.703l.854-1.376M157.93 31.153l2.126-1.76M158.251 20.08l-1.123-1.02M157.91 32.107l-1.406-1.505M158.031 38.022l-2.924-2.665" stroke="#263238" stroke-miterlimit="10"/><path d="M158.107 41.306a17.95 17.95 0 0 0 2.17-1.012" stroke="#263238" stroke-miterlimit="10"/><path d="M156.48 25.353c-1.176-.906-5.121-.748-5.88 1.136-.758 1.884 1.656 4.957 3.96 4.74.907-.085 1.301-.148 1.656-.656l-3.24-3.163 3.509 2.818c.099-.183.179-.376.24-.575.038-.14.077-.293.106-.45.244-1.127.758-3.002-.351-3.85ZM164.117 23.167v.067c-.317 1.405-1.92 2.2-3.278 2.08a2.991 2.991 0 0 1-.557-.1 3.825 3.825 0 0 0-.346 3.403c.057.16.133.31.226.45.398-.325 4.661-3.959 4.661-3.959l-4.426 4.257c1.335 1.438 4.464 1.232 5.554-1.41 1.089-2.64-.298-4.41-1.834-4.788Z" fill="#fff"/><path d="M161.947 18.254c-2.294-.48-4.349.537-4.32 2.929a3.87 3.87 0 0 0 1.287 2.785l2.366-3.222-1.987 3.514c.445.303.961.488 1.497.537 1.354.115 2.962-.68 3.279-2.085.331-1.568.173-3.955-2.122-4.458ZM159.269 9.937s-.235.072-1.704.786a3.706 3.706 0 0 0-1.469 5.024 3.48 3.48 0 0 0 1.963 1.716l.591-5.7-.25 5.777c.112.011.224.011.336 0 .96-.096 2.462-1.237 2.606-3.572.144-2.334-2.073-4.031-2.073-4.031ZM152.563 15.119l4.431 3.537c.044-.155.058-.318.043-.479-.206-2.023-2.227-3.197-3.562-3.62-1.334-.42-2.26.332-1.401 2.268.859 1.937 3.11 2.876 4.113 2.584.239-.059.453-.19.615-.374l-4.239-3.916Z" fill="#fff"/><path d="M155.611 19.654a4.504 4.504 0 0 1-3.403-1.966 1.812 1.812 0 0 0-1.968 1.587c-.451 2.109 1.075 4.314 3.278 4.046a2.925 2.925 0 0 0 1.853-.791l-3.936-3.59 4.214 3.206a1.27 1.27 0 0 0 .154-.48 3.494 3.494 0 0 0-.192-2.012ZM155.587 31.383a3.417 3.417 0 0 1-1.128.269c-1.44.134-2.908-.993-3.638-2.316a1.919 1.919 0 0 0-1.762 1.582c-.436 2.469 1.853 5.724 4.167 5.206a3.3 3.3 0 0 0 1.608-.815l-5.05-4.85 5.343 4.534c.305-.391.502-.856.571-1.347a3.07 3.07 0 0 0-.111-2.263ZM165.749 36.43c-1.699-1.965-3.72-.205-3.72-.205s-1.238.407-1.709 2.162a2.708 2.708 0 0 0 .063 1.615l5.107-2.972-4.983 3.25c.48.882 1.479 1.438 2.88 1.03 2.237-.613 4.056-2.9 2.362-4.88Z" fill="#fff"/><path d="M161.515 43.87h-7.07v10.455h7.07V43.87Z" fill="#263238"/><path d="M239.554 54.239h-93.255v172.198h93.255V54.239Z" fill="#fff" stroke="#263238" stroke-miterlimit="10"/><path d="M226.401 56.42h-78.163v167.395h78.163V56.42Z" fill="#263238" stroke="#263238" stroke-linecap="round" stroke-linejoin="round"/><path d="M226.401 82.382h-78.163v2.468h78.163v-2.468ZM226.401 110.922h-78.163v2.469h78.163v-2.469ZM201.211 56.449h-1.661v25.928h1.661V56.449ZM174.638 56.449h-1.66v25.928h1.66V56.449ZM201.211 113.42h-1.661v25.928h1.661V113.42ZM174.638 113.42h-1.66v25.928h1.66V113.42ZM187.795 84.99h-1.661v25.927h1.661V84.989ZM226.401 139.353h-78.163v2.468h78.163v-2.468ZM226.401 167.797h-78.163v56.89h78.163v-56.89ZM187.795 141.865h-1.661v25.928h1.661v-25.928Z" fill="#fff" stroke="#263238" stroke-miterlimit="10"/><path d="M228.317 54.224v172.174l11.241.039V54.224h-11.241Z" fill="#263238" stroke="#263238" stroke-linecap="round" stroke-linejoin="round"/><path d="M206.376 58.462h-4.013v23.857h4.013V58.462Z" fill="#fff" stroke="#263238" stroke-miterlimit="10"/><path d="M206.376 77.195h-4.013v1.956h4.013v-1.956ZM206.376 60.883h-4.013v1.955h4.013v-1.955ZM210.48 58.462h-4.013v23.857h4.013V58.462Z" fill="#fff" stroke="#263238" stroke-miterlimit="10"/><path d="M210.48 77.195h-4.013v1.956h4.013v-1.956ZM210.48 60.883h-4.013v1.955h4.013v-1.955ZM214.589 58.462h-4.013v23.857h4.013V58.462Z" fill="#fff" stroke="#263238" stroke-miterlimit="10"/><path d="M214.589 77.195h-4.013v1.956h4.013v-1.956ZM214.589 60.883h-4.013v1.955h4.013v-1.955ZM218.693 58.462h-4.013v23.857h4.013V58.462Z" fill="#fff" stroke="#263238" stroke-miterlimit="10"/><path d="M225.379 58.462h-6.72v23.857h6.72V58.462Z" fill="#fff" stroke="#263238" stroke-miterlimit="10"/><path d="M218.693 77.195h-4.013v1.956h4.013v-1.956ZM218.693 60.883h-4.013v1.955h4.013v-1.955ZM179.53 58.462h-4.013v23.857h4.013V58.462Z" fill="#fff" stroke="#263238" stroke-miterlimit="10"/><path d="M179.53 77.195h-4.013v1.956h4.013v-1.956ZM179.53 60.883h-4.013v1.955h4.013v-1.955ZM183.634 58.462h-4.013v23.857h4.013V58.462Z" fill="#fff" stroke="#263238" stroke-miterlimit="10"/><path d="M183.634 77.195h-4.013v1.956h4.013v-1.956ZM183.634 60.883h-4.013v1.955h4.013v-1.955ZM187.742 58.462h-4.013v23.857h4.013V58.462Z" fill="#fff" stroke="#263238" stroke-miterlimit="10"/><path d="M187.742 77.195h-4.013v1.956h4.013v-1.956ZM187.742 60.883h-4.013v1.955h4.013v-1.955ZM191.846 58.462h-4.013v23.857h4.013V58.462Z" fill="#fff" stroke="#263238" stroke-miterlimit="10"/><path d="M198.533 58.462h-6.72v23.857h6.72V58.462Z" fill="#fff" stroke="#263238" stroke-miterlimit="10"/><path d="M191.846 77.195h-4.013v1.956h4.013v-1.956ZM191.846 60.883h-4.013v1.955h4.013v-1.955ZM179.53 115.519h-4.013v23.858h4.013v-23.858Z" fill="#fff" stroke="#263238" stroke-miterlimit="10"/><path d="M179.53 134.252h-4.013v1.956h4.013v-1.956ZM179.53 117.945h-4.013v1.956h4.013v-1.956ZM183.634 115.519h-4.013v23.858h4.013v-23.858Z" fill="#fff" stroke="#263238" stroke-miterlimit="10"/><path d="M183.634 134.252h-4.013v1.956h4.013v-1.956ZM183.634 117.945h-4.013v1.956h4.013v-1.956ZM187.742 115.519h-4.013v23.858h4.013v-23.858Z" fill="#fff" stroke="#263238" stroke-miterlimit="10"/><path d="M187.742 134.252h-4.013v1.956h4.013v-1.956ZM187.742 117.945h-4.013v1.956h4.013v-1.956ZM191.846 115.519h-4.013v23.858h4.013v-23.858Z" fill="#fff" stroke="#263238" stroke-miterlimit="10"/><path d="M198.533 115.519h-6.72v23.858h6.72v-23.858Z" fill="#fff" stroke="#263238" stroke-miterlimit="10"/><path d="M191.846 134.252h-4.013v1.956h4.013v-1.956ZM191.846 117.945h-4.013v1.956h4.013v-1.956ZM206.03 115.519h-4.012v23.858h4.012v-23.858Z" fill="#fff" stroke="#263238" stroke-miterlimit="10"/><path d="M206.03 134.252h-4.012v1.956h4.012v-1.956ZM206.03 117.945h-4.012v1.956h4.012v-1.956ZM210.139 115.519h-4.013v23.858h4.013v-23.858Z" fill="#fff" stroke="#263238" stroke-miterlimit="10"/><path d="M210.139 134.252h-4.013v1.956h4.013v-1.956ZM210.139 117.945h-4.013v1.956h4.013v-1.956ZM214.243 115.519h-4.013v23.858h4.013v-23.858Z" fill="#fff" stroke="#263238" stroke-miterlimit="10"/><path d="M214.243 134.252h-4.013v1.956h4.013v-1.956ZM214.243 117.945h-4.013v1.956h4.013v-1.956ZM218.352 115.519h-4.013v23.858h4.013v-23.858Z" fill="#fff" stroke="#263238" stroke-miterlimit="10"/><path d="M225.033 115.519h-6.72v23.858h6.72v-23.858Z" fill="#fff" stroke="#263238" stroke-miterlimit="10"/><path d="M218.352 134.252h-4.013v1.956h4.013v-1.956ZM218.352 117.945h-4.013v1.956h4.013v-1.956ZM153.197 115.519h-4.013v23.858h4.013v-23.858Z" fill="#fff" stroke="#263238" stroke-miterlimit="10"/><path d="M153.197 134.252h-4.013v1.956h4.013v-1.956ZM153.197 117.945h-4.013v1.956h4.013v-1.956ZM157.306 115.519h-4.013v23.858h4.013v-23.858Z" fill="#fff" stroke="#263238" stroke-miterlimit="10"/><path d="M157.306 134.252h-4.013v1.956h4.013v-1.956ZM157.306 117.945h-4.013v1.956h4.013v-1.956ZM161.41 115.519h-4.013v23.858h4.013v-23.858Z" fill="#fff" stroke="#263238" stroke-miterlimit="10"/><path d="M161.41 134.252h-4.013v1.956h4.013v-1.956ZM161.41 117.945h-4.013v1.956h4.013v-1.956ZM165.519 115.519h-4.013v23.858h4.013v-23.858Z" fill="#fff" stroke="#263238" stroke-miterlimit="10"/><path d="M172.2 115.519h-6.72v23.858h6.72v-23.858Z" fill="#fff" stroke="#263238" stroke-miterlimit="10"/><path d="M165.519 134.252h-4.013v1.956h4.013v-1.956ZM165.519 117.945h-4.013v1.956h4.013v-1.956ZM152.683 58.462h-4.013v23.857h4.013V58.462Z" fill="#fff" stroke="#263238" stroke-miterlimit="10"/><path d="M152.683 77.195h-4.013v1.956h4.013v-1.956ZM152.683 60.883h-4.013v1.955h4.013v-1.955ZM156.787 58.462h-4.013v23.857h4.013V58.462Z" fill="#fff" stroke="#263238" stroke-miterlimit="10"/><path d="M156.787 77.195h-4.013v1.956h4.013v-1.956ZM156.787 60.883h-4.013v1.955h4.013v-1.955ZM160.896 58.462h-4.013v23.857h4.013V58.462Z" fill="#fff" stroke="#263238" stroke-miterlimit="10"/><path d="M160.896 77.195h-4.013v1.956h4.013v-1.956ZM160.896 60.883h-4.013v1.955h4.013v-1.955ZM165 58.462h-4.013v23.857H165V58.462Z" fill="#fff" stroke="#263238" stroke-miterlimit="10"/><path d="M171.686 58.462h-6.72v23.857h6.72V58.462Z" fill="#fff" stroke="#263238" stroke-miterlimit="10"/><path d="M165 77.195h-4.013v1.956H165v-1.956ZM165 60.883h-4.013v1.955H165v-1.955ZM164.559 86.892h-4.013v23.858h4.013V86.892Z" fill="#fff" stroke="#263238" stroke-miterlimit="10"/><path d="M164.559 105.625h-4.013v1.956h4.013v-1.956ZM164.559 89.318h-4.013v1.956h4.013v-1.956Z" fill="#fff" stroke="#263238" stroke-miterlimit="10"/><path d="M160.599 86.892h-4.013v23.858h4.013V86.892Z" fill="#fff" stroke="#263238" stroke-miterlimit="10"/><path d="M160.599 105.625h-4.013v1.956h4.013v-1.956ZM160.599 89.318h-4.013v1.956h4.013v-1.956Z" fill="#fff" stroke="#263238" stroke-miterlimit="10"/><path d="M156.638 86.892h-4.013v23.858h4.013V86.892Z" fill="#fff" stroke="#263238" stroke-miterlimit="10"/><path d="M156.638 105.625h-4.013v1.956h4.013v-1.956ZM156.638 89.318h-4.013v1.956h4.013v-1.956Z" fill="#fff" stroke="#263238" stroke-miterlimit="10"/><path d="M152.683 86.892h-4.013v23.858h4.013V86.892Z" fill="#fff" stroke="#263238" stroke-miterlimit="10"/><path d="M152.683 105.625h-4.013v1.956h4.013v-1.956ZM152.683 89.318h-4.013v1.956h4.013v-1.956ZM168.663 86.892h-4.013v23.858h4.013V86.892Z" fill="#fff" stroke="#263238" stroke-miterlimit="10"/><path d="M168.663 105.625h-4.013v1.956h4.013v-1.956ZM168.663 89.318h-4.013v1.956h4.013v-1.956ZM172.767 86.892h-4.013v23.858h4.013V86.892Z" fill="#fff" stroke="#263238" stroke-miterlimit="10"/><path d="M172.767 105.625h-4.013v1.956h4.013v-1.956ZM172.767 89.318h-4.013v1.956h4.013v-1.956ZM176.875 86.892h-4.013v23.858h4.013V86.892Z" fill="#fff" stroke="#263238" stroke-miterlimit="10"/><path d="M183.562 86.892h-6.72v23.858h6.72V86.892Z" fill="#fff" stroke="#263238" stroke-miterlimit="10"/><path d="M176.875 105.625h-4.013v1.956h4.013v-1.956ZM176.875 89.318h-4.013v1.956h4.013v-1.956ZM193.089 86.892h-4.012v23.858h4.012V86.892Z" fill="#fff" stroke="#263238" stroke-miterlimit="10"/><path d="M193.089 105.625h-4.012v1.956h4.012v-1.956ZM193.089 89.318h-4.012v1.956h4.012v-1.956ZM197.198 86.892h-4.012v23.858h4.012V86.892Z" fill="#fff" stroke="#263238" stroke-miterlimit="10"/><path d="M197.198 105.625h-4.012v1.956h4.012v-1.956ZM197.198 89.318h-4.012v1.956h4.012v-1.956ZM205.414 86.886l-3.741 1.578 9.408 22.252 3.741-1.577-9.408-22.253Z" fill="#fff" stroke="#263238" stroke-miterlimit="10"/><path d="m212.802 104.357-3.741 1.578.771 1.824 3.741-1.578-.771-1.824ZM206.372 89.148l-3.741 1.577.771 1.824 3.741-1.577-.771-1.824ZM211.085 110.707h8.376l3.768-1.568-8.405-.009-3.739 1.577Z" fill="#fff" stroke="#263238" stroke-miterlimit="10"/><path d="M205.416 86.878h7.867l9.946 22.261-8.405-.01-9.408-22.251ZM201.158 86.892h-4.012v23.858h4.012V86.892Z" fill="#fff" stroke="#263238" stroke-miterlimit="10"/><path d="M201.158 105.625h-4.012v1.956h4.012v-1.956ZM201.158 89.318h-4.012v1.956h4.012v-1.956ZM201.159 86.892h4.257l-3.744 1.563 9.413 22.252h-9.926V86.892ZM164.559 143.849h-4.013v23.857h4.013v-23.857Z" fill="#fff" stroke="#263238" stroke-miterlimit="10"/><path d="M164.559 162.582h-4.013v1.956h4.013v-1.956ZM164.559 146.27h-4.013v1.956h4.013v-1.956Z" fill="#fff" stroke="#263238" stroke-miterlimit="10"/><path d="M160.599 143.849h-4.013v23.857h4.013v-23.857Z" fill="#fff" stroke="#263238" stroke-miterlimit="10"/><path d="M160.599 162.582h-4.013v1.956h4.013v-1.956ZM160.599 146.27h-4.013v1.956h4.013v-1.956Z" fill="#fff" stroke="#263238" stroke-miterlimit="10"/><path d="M156.638 143.849h-4.013v23.857h4.013v-23.857Z" fill="#fff" stroke="#263238" stroke-miterlimit="10"/><path d="M156.638 162.582h-4.013v1.956h4.013v-1.956ZM156.638 146.27h-4.013v1.956h4.013v-1.956Z" fill="#fff" stroke="#263238" stroke-miterlimit="10"/><path d="M152.683 143.849h-4.013v23.857h4.013v-23.857Z" fill="#fff" stroke="#263238" stroke-miterlimit="10"/><path d="M152.683 162.582h-4.013v1.956h4.013v-1.956ZM152.683 146.27h-4.013v1.956h4.013v-1.956ZM168.663 143.849h-4.013v23.857h4.013v-23.857Z" fill="#fff" stroke="#263238" stroke-miterlimit="10"/><path d="M168.663 162.582h-4.013v1.956h4.013v-1.956ZM168.663 146.27h-4.013v1.956h4.013v-1.956ZM172.767 143.849h-4.013v23.857h4.013v-23.857Z" fill="#fff" stroke="#263238" stroke-miterlimit="10"/><path d="M172.767 162.582h-4.013v1.956h4.013v-1.956ZM172.767 146.27h-4.013v1.956h4.013v-1.956ZM176.875 143.849h-4.013v23.857h4.013v-23.857Z" fill="#fff" stroke="#263238" stroke-miterlimit="10"/><path d="M183.562 143.849h-6.72v23.857h6.72v-23.857Z" fill="#fff" stroke="#263238" stroke-miterlimit="10"/><path d="M176.875 162.582h-4.013v1.956h4.013v-1.956ZM176.875 146.27h-4.013v1.956h4.013v-1.956ZM193.089 143.849h-4.012v23.857h4.012v-23.857Z" fill="#fff" stroke="#263238" stroke-miterlimit="10"/><path d="M193.089 162.582h-4.012v1.956h4.012v-1.956ZM193.089 146.27h-4.012v1.956h4.012v-1.956ZM197.198 143.849h-4.012v23.857h4.012v-23.857Z" fill="#fff" stroke="#263238" stroke-miterlimit="10"/><path d="M197.198 162.582h-4.012v1.956h4.012v-1.956ZM197.198 146.27h-4.012v1.956h4.012v-1.956ZM205.411 143.84l-3.741 1.578 9.408 22.252 3.741-1.577-9.408-22.253Z" fill="#fff" stroke="#263238" stroke-miterlimit="10"/><path d="m212.704 160.887-3.736 1.582.773 1.821 3.736-1.581-.773-1.822Z" fill="#fff" stroke="#263238" stroke-width=".999" stroke-miterlimit="10"/><path d="m206.368 146.102-3.741 1.577.772 1.824 3.741-1.577-.772-1.824ZM211.085 167.663h8.376l3.768-1.567-8.405-.015-3.739 1.582Z" fill="#fff" stroke="#263238" stroke-miterlimit="10"/><path d="M205.416 143.83h7.867l9.946 22.266-8.405-.015-9.408-22.251ZM201.158 143.849h-4.012v23.857h4.012v-23.857Z" fill="#fff" stroke="#263238" stroke-miterlimit="10"/><path d="M201.158 162.582h-4.012v1.956h4.012v-1.956ZM201.158 146.27h-4.012v1.956h4.012v-1.956ZM201.159 143.849h4.257l-3.744 1.558 9.413 22.256h-9.926v-23.814Z" fill="#fff" stroke="#263238" stroke-miterlimit="10"/><path d="M186.134 167.793v55.94M148.872 174.719h77.51" stroke="#263238" stroke-miterlimit="10"/><path d="M164.779 179.451v10.143M168.163 179.451v10.143M203.708 179.451v10.143M207.091 179.451v10.143" stroke="#263238" stroke-width="2" stroke-miterlimit="10"/><path d="M247.987 55.13V37.931h25.047M274.877 37.931h10.55v42.663h-37.44V57.738" stroke="#263238" stroke-miterlimit="10"/><path d="M271.805 74.841h-18.773V43.683h27.346v31.158h-6.423" stroke="#263238" stroke-miterlimit="10"/><path d="M271.963 53.27h-10.517v11.984h10.517V53.27ZM288.754 75.014V64.286h15.624M305.525 64.286h6.581v26.609h-23.352V76.639" stroke="#263238" stroke-miterlimit="10"/><path d="M303.61 87.31h-11.708V67.871h17.055v19.437h-4.008" stroke="#263238" stroke-miterlimit="10"/><path d="M303.71 73.854h-6.561v7.473h6.561v-7.473Z" stroke="#263238" stroke-miterlimit="10"/><path d="M41.184 226.437h270.72" stroke="#263238" stroke-linecap="round" stroke-linejoin="round"/><path d="M60.384 159.327s-2.88-38.348-1.44-42.662 10.32-4.074 12-4.074c1.68 0 36.72 0 41.76 2.396 5.04 2.397 5.76 61.358 5.76 61.358h-55.68l-2.4-17.018Z" fill="#263238" stroke="#263238" stroke-miterlimit="10"/><path d="M120.379 156.212s-5.76 0-6.912 5.752c-1.152 5.752 3.384 29.48 3.72 36.191.336 6.711 1.517 16.058 1.517 16.058h20.4l4.56-58.001h-23.285Z" fill="#263238" stroke="#263238" stroke-miterlimit="10"/><path d="M143.664 156.212s-5.76 0-7.2 5.752c-1.44 5.752 1.92 29.48 1.92 36.191 0 6.711.72 16.058.72 16.058h7.2s.72-17.256.72-19.653c0-2.397 2.88-27.323 1.44-32.357-1.44-5.033-2.64-5.512-4.8-5.991Z" fill="#636363" stroke="#263238" stroke-miterlimit="10"/><path d="M82.824 115.107s-19.08 7.79-19.08 8.628c0 .839 6.48 23.369 8.88 26.844 2.4 3.475 4.08 7.31 4.8 8.748.72 1.438 3.84 5.034 6.36 5.034 2.52 0 5.52-2.996 13.56-4.195 8.04-1.198 15.24-1.078 16.68-2.157 1.44-1.078-.36-3.955-.6-4.554-.24-.599-1.2-2.756-1.2-2.756s7.8 6.471 10.92 6.711c3.12.24 5.4-1.318 5.88-3.356.48-2.037-1.32-6.95-2.52-9.587-1.2-2.636-6.84-6.83-9.36-10.066-2.52-3.236-5.76-7.07-8.04-9.707a21.814 21.814 0 0 0-7.2-5.512c-2.16-.959-7.68-3.356-11.16-3.715-3.48-.36-7.92-.36-7.92-.36Z" fill="#fff" stroke="#263238" stroke-miterlimit="10"/><path d="M120.22 143.188s-2.716 7.511-1.756 9.429c.96 1.917 3.518 2.554 3.518 2.554M79.944 117.624l15.84 15.339 2.4-11.505" stroke="#263238" stroke-miterlimit="10"/><path d="M120.984 144.108s3.84 2.756 5.16 1.798c1.32-.959.96-2.757.12-4.674-.84-1.918-3.6-2.996-4.68-2.157-1.08.839-1.44 4.194-.6 5.033ZM81.624 110.074l.6 7.19 12.72 12.463 1.92-8.868.84-3.715s-8.28-1.438-10.92-3.235c-2.64-1.798-5.16-3.835-5.16-3.835Z" fill="#fff" stroke="#263238" stroke-miterlimit="10"/><path d="M97.704 117.144s-8.28-1.438-10.92-3.235c-2.64-1.798-5.16-3.835-5.16-3.835l.6 7.19 3.216 3.149c2.5.705 4.992 1.045 6.686.394a26.63 26.63 0 0 0 5.357-2.661l.221-1.002ZM77.822 104.523s-2.241-10.23-2.241-11.984c0-1.754 6.081-10.709 14.4-9.27 8.318 1.438 12.96 6.231 13.281 7.67.322 1.437-.96 4.313-.96 4.313.253.833.414 1.692.48 2.56 0 .959-1.44 5.11-1.44 5.11l-.48-4.314s-3.998 1.121-6.24 1.121c-2.241 0-6.081-1.438-6.081-1.438s.801 2.555 0 3.835c-.802 1.28-3.197 2.397-3.197 2.397s-.322 2.555-1.282 2.555a20.963 20.963 0 0 1-3.518-.479c-.643-.159-2.722-2.076-2.722-2.076Z" fill="#263238" stroke="#263238" stroke-miterlimit="10"/><path d="M81.504 105.64s-.322-3.835-3.523-2.876c-3.202.959-1.119 4.472.643 6.231 1.761 1.76 2.237.48 2.237.48s.48 3.676 2.88 5.752c2.4 2.076 6.081 5.91 9.921 5.431 3.84-.479 6.562-5.273 7.042-8.786.48-3.514.797-11.826.797-12.785a17.99 17.99 0 0 0-.639-3.192s-3.36 2.396-6.398 1.754c-3.039-.642-6.24-1.917-7.68-1.917-1.44 0-1.123 2.08-.643 2.718.48.637 1.761 1.917.321 2.718-1.44.8-3.36 1.596-3.36 1.596v3.355l-1.598-.479Z" fill="#fff" stroke="#263238" stroke-miterlimit="10"/><path d="m96.811 103.895-.787 8.662-3.941-1.141" stroke="#263238" stroke-miterlimit="10"/><path d="M93.484 112.116s-1.92 0-2.975.091a8.068 8.068 0 0 1-1.92.086c-.437-.086-.96-.436-.087.437.874.872 3.504 1.917 4.906 2.099 1.401.182 2.366-.264 3.412-.959 1.047-.695 1.92-1.399 1.402-1.572a11.552 11.552 0 0 0-2.189-.177v.441l-2.549-.446Z" fill="#263238" stroke="#263238" stroke-miterlimit="10"/><path d="M90.725 106.867c.315 0 .57-.528.57-1.179 0-.652-.255-1.179-.57-1.179-.316 0-.572.527-.572 1.179 0 .651.256 1.179.572 1.179ZM99.264 105.515c0 .652-.254 1.179-.566 1.179-.312 0-.572-.527-.572-1.179s.255-1.184.572-1.184c.317 0 .566.532.566 1.184Z" fill="#263238"/><path d="M88.58 103.895s2.365-1.663 4.29-.959M97.252 103.023s2.453-1.141 3.504-.091M92.26 107.854s-.528.614-2.28 1.137M97.075 107.481a7.938 7.938 0 0 0 1.666.877" stroke="#263238" stroke-miterlimit="10"/><path d="m104.544 130.207.84-2.157s1.08 1.078 3.96 1.078 7.56 2.037 7.56 2.037l.36.6s.84-2.517 2.4-2.996c1.56-.48 4.08-2.157 4.44-2.637l.36-.479 1.68 1.438-7.44 9.827-13.92-5.393-.24-1.318Z" fill="#fff" stroke="#263238" stroke-miterlimit="10"/><path d="m104.664 129.368-3.6 19.054 12.48 2.876 4.56-18.455-13.44-3.475Z" fill="#fff" stroke="#263238" stroke-miterlimit="10"/><path d="m118.104 132.843 8.04-5.752-4.8 18.455-7.8 5.752 4.56-18.455ZM89.184 144.947l5.439-2.239s4.8-5.11 5.28-5.589c.479-.479 5.279-.959 5.279-.959l5.28 3.514s.96.8 0 1.117c-.96.316-3.038-.638-3.038-.638l-2.083-1.28-1.277.643 2.717 2.234s.801 2.08.801 3.197a5.173 5.173 0 0 1-.48 2.075l-1.598 2.239-4.8-2.397s-2.88 2.076-3.523 2.397c-.643.321-6.72-.158-6.72-.158l-1.277-4.156Z" fill="#fff" stroke="#263238" stroke-miterlimit="10"/><path d="m100.661 139.348 1.699-.321 1.459.402M99.043 142.502s3.802-1.054 4.046-1.054c.245 0 3.077 2.909 3.077 2.909l.322 3.154" stroke="#263238" stroke-miterlimit="10"/><path d="m99.206 144.52 3.072.082 2.832 1.86c.287.904.42 1.85.394 2.799" stroke="#263238" stroke-miterlimit="10"/><path d="M67.104 121.458s-3.523.48-4.003 3.514-3.677 28.603-2.717 31.479c.96 2.876 18.72-2.075 19.358-2.396.639-.322 10.719-3.356 10.882-3.994.163-.637.48-5.915-.96-6.231-1.44-.316-15.202.158-15.202.158l-1.92-16.619" fill="#fff"/><path d="M67.104 121.458s-3.523.48-4.003 3.514-3.677 28.603-2.717 31.479c.96 2.876 18.72-2.075 19.358-2.396.639-.322 10.719-3.356 10.882-3.994.163-.637.48-5.915-.96-6.231-1.44-.316-15.202.158-15.202.158l-1.92-16.619M74.462 143.988l-8.481 1.438M64.382 143.509l7.359.958" stroke="#263238" stroke-miterlimit="10"/><path d="M123.984 135s-3.24 3.356-3.12 4.195c.12.838 1.8-.48 2.16-.839.36-.36 2.04-1.318 2.04-2.277 0-.959-.36-2.037-1.08-1.079Z" fill="#fff" stroke="#263238" stroke-miterlimit="10"/><path d="M124.344 137.037s.96.959.96 1.798c0 .839-2.04 3.595-3 3.595s-.24-1.917.24-2.756c.48-.839 1.8-2.637 1.8-2.637Z" fill="#fff" stroke="#263238" stroke-miterlimit="10"/><path d="M125.304 138.835s1.2.36 1.2 1.438c0 1.079-2.28 2.876-2.88 2.996-.6.12-.48-.959 0-1.797.48-.839 1.68-2.637 1.68-2.637Z" fill="#fff" stroke="#263238" stroke-miterlimit="10"/><path d="M126.504 140.273c.246.607.329 1.268.24 1.917-.12 1.199-1.92 1.918-2.52 1.918-.6 0-.6-.839-.6-.839a36.859 36.859 0 0 0 2.88-2.996ZM88.761 226.437h-2.28l-1.137-15.1h4.56l-1.143 15.1ZM67.882 226.437h-2.28l-1.138-15.1h4.56l-1.142 15.1ZM143.241 226.437h-2.28l-1.137-15.1h4.56l-1.143 15.1ZM122.361 226.437h-2.28l-1.137-15.1h4.56l-1.143 15.1Z" fill="#fff" stroke="#263238" stroke-miterlimit="10"/><path d="M140.064 182.447h-54.48v31.637h54.48v-31.637Z" fill="#263238" stroke="#263238" stroke-miterlimit="10"/><path d="M179.582 177.385s5.76-2.397 7.042-3.356c1.281-.959 3.038 1.117 2.236 3.356-.801 2.238-2.88 6.231-6.076 8.149-3.197 1.917-5.76 3.513-6.404 4.151-.643.637-.48 3.039-3.196 3.998-2.717.958-6.082-.959-8.002-3.998-1.92-3.039-3.202-5.11-3.202-5.11s.164-2.239 3.36-3.356c3.197-1.116 8.64-1.601 8.64-1.601l5.602-2.233Z" fill="#fff" stroke="#263238" stroke-miterlimit="10"/><path d="M114.024 158.009s3.797-.92 4.757-.441c.96.48 4.161 3.519 4.161 3.519s19.359.316 20.799.958c1.44.643 16.32 11.984 19.521 13.58a309.466 309.466 0 0 1 5.919 3.035l-2.4 10.546v.958l.163 1.601s-8.323-2.559-10.402-3.039c-2.078-.479-10.718-4.952-11.52-4.952-.801 0-7.358-1.917-7.358-1.917s-.96-.638-11.362-1.596c-10.401-.959-22.08-2.081-26.241-2.239-4.162-.158-9.6-.479-11.679-1.28-2.078-.8-5.76-6.389-6.398-9.745-.638-3.355 6.077-6.232 8.957-7.511 2.88-1.28 13.603-2.877 15.523-2.877s7.56 1.4 7.56 1.4Z" fill="#fff" stroke="#263238" stroke-miterlimit="10"/><path d="m117.662 162.683-3.202 4.635 4.32-2.876" fill="#fff"/><path d="m117.662 162.683-3.202 4.635 4.32-2.876" stroke="#263238" stroke-miterlimit="10"/><path d="M166.781 176.584s4.641-3.677 5.601-4.793c.96-1.117 4.162-7.191 4.8-9.108.639-1.918 2.242-2.876 3.36-1.438 1.119 1.438 1.92 4.314 2.559 5.594.638 1.28-.317 7.506-2.237 9.587-1.92 2.08-4.575 7.118-5.122 8.149-1.44 2.713-3.681 3.034-5.121 3.192-1.44.159-4.959-3.671-4.959-3.671l1.119-7.512Z" fill="#fff" stroke="#263238" stroke-miterlimit="10"/><path d="M95.582 165.88s4.8-.959 9.12-.479c4.32.479 13.119 3.192 16.8 4.151 3.682.959 10.239 1.438 13.282 2.56 3.043 1.121 11.04 2.555 17.117 2.555 6.076 0 15.36.8 15.36.8s-1.277 9.266-.96 11.025a27.149 27.149 0 0 0 1.281 4.152s-12.321.958-15.84 1.438c-3.518.479-17.76-1.755-20.16-2.397-2.4-.642-5.918-1.596-8.16-1.596-2.241 0-6.561.958-12.801 1.596-6.24.637-15.039-2.076-16.157-2.234-1.119-.158-5.122-1.601-6.082-2.239-.96-.637-6.561-10.545-4.641-14.701 1.92-4.156 4.32-4.794 4.32-4.794" fill="#fff"/><path d="M95.582 165.88s4.8-.959 9.12-.479c4.32.479 13.119 3.192 16.8 4.151 3.682.959 10.239 1.438 13.282 2.56 3.043 1.121 11.04 2.555 17.117 2.555 6.076 0 15.36.8 15.36.8s-1.277 9.266-.96 11.025a27.149 27.149 0 0 0 1.281 4.152s-12.321.958-15.84 1.438c-3.518.479-17.76-1.755-20.16-2.397-2.4-.642-5.918-1.596-8.16-1.596-2.241 0-6.561.958-12.801 1.596-6.24.637-15.039-2.076-16.157-2.234-1.119-.158-5.122-1.601-6.082-2.239-.96-.637-6.561-10.545-4.641-14.701 1.92-4.156 4.32-4.794 4.32-4.794" stroke="#263238" stroke-miterlimit="10"/><path d="M125.016 182.001c3.086.613 6.355 2.483 10.776 4.213 5.899 2.306 17.707 2.095 19.228 2.306 1.522.211 5.386 0 5.386 0" fill="#fff"/><path d="M125.016 182.001c3.086.613 6.355 2.483 10.776 4.213 5.899 2.306 17.707 2.095 19.228 2.306 1.522.211 5.386 0 5.386 0" stroke="#263238" stroke-miterlimit="10"/><path d="m101.217 184.168 1.762.254c5.126.767 14.88-2.047 18.969-2.56" fill="#fff"/><path d="m101.217 184.168 1.762.254c5.126.767 14.88-2.047 18.969-2.56" stroke="#263238" stroke-miterlimit="10"/><path d="M96.058 183.655s.921 0 3.326.282l-3.326-.282Z" fill="#fff"/><path d="M96.058 183.655s.921 0 3.326.282" stroke="#263238" stroke-miterlimit="10"/><path d="M64.94 156.212s-5.76 0-6.913 5.752c-1.152 5.752 3.36 29.48 3.72 36.191.36 6.711 1.517 16.058 1.517 16.058h20.4l4.56-58.001H64.939Z" fill="#263238" stroke="#263238" stroke-miterlimit="10"/><path d="M88.224 156.212s-5.76 0-7.2 5.752c-1.44 5.752 1.92 29.48 1.92 36.191 0 6.711.72 16.058.72 16.058h7.2s.72-17.256.72-19.653c0-2.397 2.88-27.323 1.44-32.357-1.44-5.033-2.64-5.512-4.8-5.991Z" fill="#636363" stroke="#263238" stroke-miterlimit="10"/><path d="M135.082 226.437h-2.28l-1.138-15.1h4.56l-1.142 15.1ZM154.522 226.437h-2.28l-1.138-15.1h4.56l-1.142 15.1ZM163.641 226.437h-2.28l-1.137-15.1h4.56l-1.143 15.1ZM182.841 226.437h-2.28l-1.137-15.1h4.56l-1.143 15.1Z" fill="#fff" stroke="#263238" stroke-miterlimit="10"/><path d="M132.264 191.684H182.4c.923 0 1.808.366 2.461 1.018a3.473 3.473 0 0 1 1.019 2.457v24.567h-57.12v-24.567a3.466 3.466 0 0 1 1.028-2.466 3.486 3.486 0 0 1 2.476-1.009Z" fill="#263238" stroke="#263238" stroke-miterlimit="10"/><path d="M182.424 191.684h-18.24c-.923 0-1.808.366-2.461 1.018a3.473 3.473 0 0 0-1.019 2.457v24.567h25.2v-24.567a3.486 3.486 0 0 0-3.48-3.475Z" fill="#636363" stroke="#263238" stroke-miterlimit="10"/></svg>