<svg fill="none" xmlns="http://www.w3.org/2000/svg" viewBox="0 0 654 510"><path d="M145.373 176.116c-.3 5.531.118 18.698 9.465 14.043 3.106-1.543.639-5.976 5.639-5.845 3.055.105 2.389 4.668.444 6.643-.483.496-1.723 5.23-.627 4.628 1.541-.993 6.566-.784 7.833.576 1.266 1.359-.288 2.066.182 3.556 1.619 5.27-1.109 6.041 4.856 8.316-1.958-.745 7.467.301 5.222.968 1.331-.393 1.828-2.275 3.133-3.243.64-.471 6.344-4.446 7.167-3.923-1.149-.732-.692 8.303.443 5.806.392-.824-.274-5.23 2.18-5.23 1.606 0 2.324 2.85 3.434 3.085 2.78.628 6.97-1.203 9.137-.34-1.344-.536 3.525 3.714 1.867 3.819 4.073-.262 4.334 3.334 7.232 4.798 3.107 1.556 5.914 1.138 9.334 3.387 3.55 1.935.639 9.336.457 9.231.104.065 2.075-2.393 3.185-1.373 1.109 1.02.026 3.727-.196 3.635 1.096.471 2.337-2.824 3.551-2.497.039.013 7.271 3.36 4.503 4.498 2.48-1.02 2.65-.72 5.47-.327 3.172.444 5.965 4.171 8.863 4.014 8.29-.471-4.973 14.148-4.79 13.755-1.306 1.948-.666 8.146-1.306 10.578-1.031 3.923-1.997 7.022-5.352 9.153-2.611 1.648-7.323.942-9.425 4.629-1.044 1.896-.13 4.524-.888 6.538-.522 1.412-4.581 4.772-4.581 5.988.53-.797.968-1.653 1.305-2.55.013-.183-3.446 5.95-4.138 6.682-2.781 2.955-7.833.51-8.916 1.647.065-.078 3.263 3.988 3.094 5.152-.77 5.27-7.598 2.406-9.451 4.38-.379.406.47 2.916-.274 3.348.274-.157-5.157 1.7-4.491.706-2.102 3.177 1.893 2.824 2.402 3.256.013.013-2.076 2.066-2.689 2.85-1.619 2.04-2.624 5.884-3.029 7.453-.104.405 2.063.432 1.945 1.857-.13 1.804-2.323 3.046-3.211 4.668-.666 1.216-1.697 1.582-2.284 2.889-.379.824 1.422 3.609 1.096 3.923-.326.314-1.579-.902-1.775 0-.196.902 1.135.615 1.488.706.444.183 3.316 4.367 5.665 5.23a21.85 21.85 0 0 1-5.065 1.046c-.378-.052.744 1.674.092 1.478a39.19 39.19 0 0 1-3.512-2.432 3.927 3.927 0 0 1-.587 1.412c.052.052-2.063-2.563-2.063-1.896 0 1.19 1.371-2.288.757-1.425a1.003 1.003 0 0 1 1.214.68c.105.078-.274-1.818.47-1.491a2.125 2.125 0 0 0 .692 1.504c-.156.078.431-2.589.849-2.118a5.965 5.965 0 0 1-1.515-.079 1.93 1.93 0 0 1 .927-1.726c-.182.497-3.524 2.354-3.916 2.877-.561.732 1.018.392.34 1.085-.418.392-2.898-1.164-3.029-1.726.118.497 4.464-1.19 4.203-1.765a32.711 32.711 0 0 0-3.681.85c.105-.131 3.094-2.197 3.238-1.7-.523-1.739-3.316.915-3.76.288-1.175-1.674 2.258-.733 1.958-1.752-.3-1.02-1.906-.066-2.611-.327-.209-.079 1.084-1.086.979-1.308-.339-.706-2.101.301-2.271.092-.849-1.02 2.754-3.701 1.514-4.943-.587-.588-.809 1.648-1.227 1.582-2.115-.34 1.044-3.726.653-3.648-.359.36-.763.672-1.201.929-2.65.405 2.963-3.753 2.833-1.818.091-1.294-1.737.183-1.841-.706-.065-.51-1.645-3.7-1.775-2.262.013-.052 3.355-5.152 2.258-4.668 1.201-.536.235 2.733.692 3.06.874.614 2.245-10.474 1.41-10.199-.836.274-1.24 5.23-2.141 3.922-1.971-2.785 3.302-17.285 3.916-20.07 1.527-6.983 1.736-14.07 2.532-21.274.549-4.917 1.554-7.845-1.618-11.454-3.473-3.949-6.606-4.446-9.06-9.284-1.279-2.55-6.762-9.833-7.232-12.291-.248-1.294 2.311-5.452 2.141-5.766-2.415-4.419.327-5.178 2.467-9.558 1.985-4.014 2.872-10.604-2.036-11.768-1.11-.262-.405 2.327-2.611 2.17-2.206-.156-4.66-2.889-6.122-4.327-.888-.89-1.332-2.341-2.872-3.923-2.284-2.354-3.29-1.229-5.731-3.478-.887-.85-2.858-.942-4.164-2.158-2.78-2.719-6.422-1.686-9.869-2.785-2.61-.823-7.179-2.589-9.137-4.615-2.951-3.06-3.394-7.519-6.697-11.768-1.932-2.537-5.143-5.034-6.906-7.767-.639-.994-.94-6.394-4.386-6.041-.274.039 9.255 17.273 8.42 17.874.339-.248-8.433-9.44-8.433-9.532.392-1.883-.039-2.719-1.984-6.014a38.062 38.062 0 0 0-4.399-6.669c-2.768-3.007-6.867-5.779-8.42-10.16-2.271-6.394 1.07-13.206-.966-19.064-.379-1.019-5.887-8.956-6.906-8.237 4.87-3.439 9.256 8.394 9.412 8.394 4.191 0-3.42-6.433-3.224-6.276a29.923 29.923 0 0 1-5.926-4.786c-.366-.523-3.186-3.36-3.59-3.922-.562-.785-.379-4.524-1.397-4.707-1.018-.183-3.029 1.713-3.472 1.386a17.723 17.723 0 0 1-.262-3.204c1.462-.131 3.186-2.17.992-1.987-1.422.117 1.15 1.647.627 1.909 1.658-.811-3.968-.445-3.133-.327.575.078.483-5.426.287-4.917.118-.261-.039 3.531-.953 2.354a2.616 2.616 0 0 0-.221-1.307c-.823-.301.391 2.928-.118 3.203.13-.039-2.61-3.91-2.61-4.093-.014.157 5.273-.575 1.67-3.19a3.077 3.077 0 0 0 .235 2.092c.078 1.831-7.493-4.72-7.154-4.42-.704-.627-11.97-.13-12.218-.915a.902.902 0 0 1 1.149-.719c-.105.092-2.676-1.425-3.342-1.307-1.958.353.796 2.798 0 3.112-.796.313-6.188 2.183-6.527 1.882-1.123-1.033 3.746-5.034 3.746-4.76.288-2.64-7.871 4.159-7.545 4.983.478.157.921.406 1.306.732 0 2.314-14.477 12.108-15.887 10.552 1.175 1.307 9.203-8.447 9.869-10.461.287-.823-4.608.824-3.407 1.308-1.345-.549-3.786-.248-4.49-.628-1.045-.549.182-2.902-.94-4.027.417.419-3.147.432-4.309-.588-.065-.053-1.97-4.328-2.284-4.04a23.674 23.674 0 0 0 2.754-2.236c1.462-1.91 1.554-.092 2.768-1.217 1.005-.941 5.09-3.478 3.211-5.347-.026-.04-6.71 1.399-8.015.928-.274-.105-2.937-4.276-3.355-3.282 1.214-2.903 12.218-2.301 12.218-2.484-.744-2.288-10.521-3.073-9.581-7.27.405-2 9.608-4.08 10.848-5.387 1.54-1.687 4.895-3.19 6.2-1.779.705.811 12.467 2.145 14.36 2.302 1.28.104 20.625 4.354 20.325 4.668.744-.811-1.45-1.766 1.632-2.877 1.305-.445.587 1.085 1.305.693s7.167-3.125 7.088-2.236c.013-.17-7.35 4.354-6.24 4.42a59.108 59.108 0 0 0 5.862-3.282c-.3.17 4.15-3.217 2.715-2.995 2.115-.326 1.88 4.04 3.655 4.172a10.18 10.18 0 0 0 2.245-2.616c.862.131.21 2.615.483 2.615 1.854 0 2.611-1.425 4.608-1.216 1.658.183 3.042 1.216 4.856 1.661 1.815.445 6.932.588 7.833 2.68.248.576-2.976.811-2.089 1.779 1.828 2.013 7.389-.523 9.843.3 1.788.589 1.423 2.642 2.01 2.956 1.319.693 1.697-7.846 3.734-5.61-.509-.536-3.59 1.582-4.426 1.216-1.148-.523 2.611-2.118 3.159-2.118 1.58.183 1.541 1.098 2.415 1.308 2.964.692 4.374 2.445 7.833 2 7.584-.98 1.279-3.386 1.984-4.328a4.504 4.504 0 0 1 4.797-1.86c.593.144 1.15.408 1.639.775.731.562-1.306.3-1.306.732 0 .222 3.799.196 2.259 1.7-.209.196-4.191.81-4.034 1.098a40.662 40.662 0 0 0 3.446 3.53c-.313.236 2.689-5.269 2.611-5.439a1.059 1.059 0 0 0-1.11.98c2.689-2.183-3.028-3.477-3.328-4.471-.744-2.55 1.396-3.583 1.566-4.223.509-2 .313-6.97.653-8.277.613-2.21 4.621-1.91 7.349-1.007 2.728.902-5.13 6.446-5.339 4.367.444 4.459-.731.536 1.005 4.459 0-.026 2.637 4.694 2.898 4.276-.209.327-2.232.902-1.031 1.948-.065-.065 3.707-.431 3.107.693-.092.157-1.567 3.596-.261 3.36.339-.065 1.175-3.765 2.049-2.98.875.784 1.567 2.47 2.089 2.928.209.183.326 2.85 1.645 3.465 1.318.615-.64-3.138.391-3.204.157.429.407.818.731 1.138 2.441-1.425 1.214-5.819 2.115-6.106 1.292-.419 5.196.928 5.94 2.053.979 1.477-1.958 2.275-1.958 2.51.117 2.066 3.015 2.288 1.109 4.42-2.467 2.746-4.347-.406-4.882.13-.118.17 1.684 1.896 1.188 1.896-.718 0-4.269-.117-4.138 0 3.733 3.335-5.666 2.812-5.496 1.504-.261 2.027 4.047 1.478 4.817 2.027 1.827 1.32-5.509 4.55-4.974 2.916-1.175 3.543-5.469-1.151-6.174.536-.039.091 5.026 1.987 5.026 2.262-.092-.196-6.279 6.459-6.527 7.845-.993 5.544.783 2.432 2.428 5.23.287.432 1.579 4.25.913 4.354a10.51 10.51 0 0 1 7.311 1.151c1.684.771 9.268 3.648 9.868 4.367 1.528 1.778-.287 5.165 2.324 7.505 2.324 2.079 1.41.144 3.485 1.125.314.144-.287-4.524-.195-5.021.235-1.229-1.28-2.275-.979-3.308.274-.772 3.394-1.151 3.916-2.458 1.71-4.341-1.084-5.427-1.736-8.813-.079-.445.731-3.544.796-4.289.339-4.367-1.919-4.72 3.577-4.864.718-.026 10.443 2.877 10.443 4.014 0 2.576-.379 7.074 3.538 7.074 3.55-.013 2.401-4.21 4.438-6.054-.3.275 3.89 6.159 4.203 7.113 1.123 3.491 1.136.981-.6 3.23-.849 1.124 8.563 5.701 8.563 5.635-.496.837-4.895 1.02-4.556 2.615 0 .013 4.386-1.804 4.804-1.516-.026.487.013.975.118 1.451 4.347.51.43 1.504 1.514 2.51.38.167.751.355 1.11.563 1.305 3.465-14.36 4.602-15.469 4.968-2.781.68-8.668 7.846-9.974 7.846 2.663 0 4.556-5.649 8.472-5.139 5.614.732-.222 1.935.248 3.53a2.901 2.901 0 0 0 1.476-.274c1.723 1.15-.392 4.132 4.046 4.942.653.092 3.446-2.118 3.525-2.615-.131.785.77 1.909.666 1.988-1.737 1.307-5.261 3.569-7.585 3.922-4.556.68-2.741-1.346 1.058-2.458-1.032.301-1.854-1.216-1.671-1.595-1.488 3.06-6.305 2.615-8.237 4.616a12.794 12.794 0 0 0-1.815 4.994c-.627.432-4.908.197-4.908 1.583 0 .078 2.728-.314 2.545.078-.43.941-5.757 2.707-5.757 3.74-.078 1.294.993 2.968-.652 4.105.065-.039-1.136-4.851-.496-4.851-1.645 0-.679 5.126-.679 5.505-.3 3.596 2.023.105-.392 3.204-1.057 1.359-4.399 3.922-5.796 5.988-1.109 1.635-.835 15.259-1.005 15.259-1.932-.614-2.271-4.354-3.133-5.845-2.193-3.726-1.449-2.85-4.399-3.726a13.812 13.812 0 0 0-4.817-1.059c-1.775.104-3.081 2.432-1.54 2.615-5.848-.68-12.858-3.321-13.368 6.42Zm0 0a2.063 2.063 0 0 0-.365-.209m476.131-93.346 1.867.431c.423 0-.368-.492-.472-.675m0 0c-.015-.026-.016-.045.002-.057-.079.05-.071.066-.002.057Zm0 0c.424-.056 3.181-1.083 2.417-1.364.059 0-6.33-3.81-7.496-3.245m0 0a.309.309 0 0 0-.18.277c.031-.47.1-.488.18-.277Zm0 0c.22.58.521 2.9.329 2.277-1.41-4.668-10.939-9.78-16.278-10.93-2.964-.642-8.015-.537-9.817.3.144-.079 1.214 2.288-.248 3.19-.679.419-3.916-2.432-3.159-2.785.757-.353 1.71 1.242 1.906-.274.144-1.23-6.253.496-7.18.627a35.277 35.277 0 0 1-4.647-.353c-2.018-.195-.945 1.586-1.769 1.998m0 0-.006.003m.006-.003c.692-.354-2.617-3.214-2.617-3.188-2.911-2.47-2.493-2.929-7.911-3.347-1.658-.13-9.764 0-10.587-2.471-.235-.733 2.468.144 1.75-1.06-1.322-2.17-5.998-.476-7.595.32m0 0c-.327.162-.525.288-.538.334.183-.106.362-.218.538-.335Zm0 0c.264-.175.519-.36.767-.555a7.644 7.644 0 0 0-1.866-.627c-.562-.916 2.61 0 2.61-.484.47-2.798-13.484-1.15-12.114.758a1.45 1.45 0 0 0 .992.116m0 0c.108-.026.214-.065.314-.116-.165-.092-.263-.033-.314.116Zm0 0c-.152.441.108 1.679.27 2.14m0 0c.078.223.133.265.109-.046 0 .025-.039.04-.109.046Zm0 0c-.562.057-3.121-.371-3.585-.046.27.273.595.487.953.628 0 0-8.812-1.674-9.412-1.818-.601-.144-1.606 3.687-2.937 3.609-1.754-.104-3.141-3.814-4.133-4.63m0 0c-.131-.106-.254-.163-.371-.156.121.06.245.112.371.157Zm0 0c.452.162.935.23 1.417.197 2.52-1.477-6.279-6.707-8.158-6.315-1.371.288-1.658 3.23-2.154 3.308-.744.13-7.833-.17-8.028-.994-.131-.444.953-.993.496-1.111-3.655-.955-6.527.758-8.799.98-.6 0 .118-2.13-.77-2.288-.431-.078-6.383 0-5.848.667.326.118.666.21 1.005.3.091.785-7.454 1.988-7.61 2.407 1.618-4.171 13.824-5.23 12.832-9.637-.301-1.307.509-2.393-2.193-3.687-3.447-1.621-6.044.968-9.138.196.32-.596.71-1.153 1.162-1.657m0 0 .039-.043c0 .02-.014.033-.039.043Zm0 0c-.432.17-4.312-.867-4.817-.657.365-.157 2.976-.589 2.402-1.49-1.972-3.008-6.527.823-8.172 2.026.638-.462-1.479 2.442-2.628 2.84m0 0c-.379.132-.652-.009-.688-.63.216.224.445.435.688.63Zm0 0c.059.048.12.096.181.142m0 0c.07.053.142.105.215.156.027-.085-.055-.134-.215-.156Zm0 0c-.923-.128-4.443.64-4.655.561.144-.353.301-.693.47-1.033a33.479 33.479 0 0 0-5.378 1.033c.186.296.455.528.77.669m0 0c.08.036.163.066.248.09-.008-.062-.096-.09-.248-.09Zm0 0c-1.361.001-7.852 2.235-8.38 2.482-1.88.877-.914.798-1.723 1.883-.47 0-.953 0-1.423-.091-.17.183 1.631 1.033 1.644 1.19a7.943 7.943 0 0 1-1.305.091s1.984 1.177 1.084 2c-.536.484-3.629.223-4.517.406-12.375 2.615 0 3.452-2.402 6.734-.953 1.307-7.141-4.093-8.955-2.288-.157.157 1.997 1.66 1.514 1.791-.94.261-2.376-1.111-3.054.196-.536 1.046 4.373 2.707 3.994 3.164 0 0-5.222-1.085-5.222-1.163-1.031-1.177 1.776-4.538-.417-5.23-2.193-.694-3.486 9.872-2.611 11.074.842 1.147 1.945 1.669 3.083 2.088m0 0c.558.206 1.125.386 1.673.604m-1.673-.604c.997-.132 1.337.183 1.673.604m-1.673-.604a5.063 5.063 0 0 0-.198.03c-2.976.51-.144 2.21-1.306 3.623-1.305 1.66-3.067 4.066-4.882 4.471-.496.118-4.947-.117-4.543-1.307-.065.157 5.875-.602 6.867-3.923.626-2.105-.418-3.792-.875-6.198-.13-.693.196-7.95.248-7.845-3.467-5.72-9.212.646-9.646 4.76m16.008 6.993c1.47.583 2.81 1.43 3.507 3.728.781 2.607-4.493-3.592-2.243-2.625m-1.264-1.103c.288.36.573.799 1.264 1.103m0 0 .024.01m-17.296-8.106-.014.156a2.31 2.31 0 0 1 .014-.156Zm0 0c.026-.087-.13 3.527-.336 3.784m0 0c-.023.028-.046.016-.069-.045l.069.045Zm0 0c.677.447 6.044 4.072 2.542 4.636-2.611.445-13.054-8.787-16.279-6.943.849-.484 5.666 8.29 1.018 6.407-1.827-.745.066-.915-4.138-.536 0 0-6.722 1.124-6.2.706.522-.418 1.449-.85 1.305-1.896 0 .667-8.785 3.544-10.012 4.08-1.71.745-1.306 3.922-4.465 1.817-3.159-2.105 1.58-2.013 1.971-2.471 1.423-1.713-5.796-3.57-5.535-2.484 0-.3 1.689 5.398.35 4.44m0 0a.068.068 0 0 1-.01-.008m.01.007c3.363 2.438-.546 2.203-.767 2.373-3.916 3.138-3.916-.249-4.687 5.36-.13.942-3.237-.954-3.72-.575l-.125-.079c-.601-.38-1.219-.771-1.768-1.163-1.149.536-1.305 1.23-.522 2.092 1.893-1.072 2.506 4.12-.796 1.504-.741-.587-4.557-8.867-6.599-9.6m0 0c-.188-.067-.361-.07-.516.003.092-.044.269-.042.516-.002Zm0 0c3.276.523 18.927 7.498 13.648-1.972-.952-1.723-9.99-5.709-12.831-5.816m0 0c-.392-.014-.666.045-.784.194.271-.023.535-.09.784-.194Zm0 0c.154-.064.303-.144.443-.238-.157-1.307-2.99 0-3.303-.3-.77-.85-2.611 1.059-3.172-1.033.104.405 3.002-.38 3.081-.785.613-3.386-5.326-.366-4.595-.34-.588 0 .313-1.83.261-1.922-1.201-2.314-2.219 1.961-2.885 1.961-.235 0 .156-2.026-.261-1.752-.797.85-1.58 1.713-2.376 2.615-.862.17 1.684-2.798 1.671-2.863-.221-1.375-2.338.82-2.788 1.316m0 0a1.43 1.43 0 0 0-.084.096c.114-.098.132-.123.084-.096Zm0 0c-.304.17-3.232 2.399-2.186 2.084-1.178.358-.384-1.784.189-2.614m0 0c.2-.291.374-.421.425-.224.029.1-.152.167-.425.224Zm0 0c-.693.146-1.979.234-1.951.665.357.356.598.812.692 1.308a5.356 5.356 0 0 0-1.88-.066c.213.394.541.714.94.916a7.012 7.012 0 0 1-2.196-.753m0 0-.01-.006c.003 0 .006.002.01.006Zm0 0c.128.123.674 2.244-.01 1.825-1.227-.81-.966-2.118-2.611-1.373-.131 0-3.577 2.615-3.512 3.007.066.393 1.684-.34 1.423 1.033 0 0-2.911 0-2.806.131.117-.51.248-1.007.404-1.517a62.57 62.57 0 0 1-4.96 4.407c1.305 0 4.216-3.217 5.6-1.936 0 0-.209 1.413-.235 1.426-3.916 1.569-5.013 7.936-8.629 9.519-.313.143 1.475 1.307.875 1.569-2.063.797-2.076 1.595-3.786 3.007-.13.105-1.305-1.504-1.383-.497-.196 2.066-1.214.47-2.246 2.014.034.066.072.129.114.189m0 0a1.425 1.425 0 0 0 .774.543c-.207-.459-.475-.605-.774-.543Zm0 0c-1.283.266-3.122 4.372-3.038 3.969-.626 3.844 1.88 2.615 2.076 3.23.542 1.907-2.096 1.105-2.157.954m0 0c-.003-.005-.001-.01.003-.013l-.003.013Zm0 0a11.156 11.156 0 0 0-.284 1.713c0 .719 1.527-.785 1.814 0 .196.523-.953 1.072-1.109 1.307-1.932 2.955 6.527.667 5.522.89 1.305-.301 2.075-2.459 2.858-2.916.47-.288 4.125 11.14 4.491 11.271 1.391.528 4-2.79 5.255-4.176m0 0c.299-.33.522-.551.632-.584-.173.444-.382.639-.632.584Zm0 0a.685.685 0 0 1-.282-.152c.34-3.073 4.008-5.505 3.917-7.846 0-3.06-3.46-1.608-2.337-6.106.64-2.615 2.611-2.837 3.916-4.68 1.058-1.504 2.794-5.846 4.791-6.538 9.281-3.073-2.154 7.766-2.441 8.316-.718 1.307-.196 6.616.444 7.256 2.611 2.615 7.506.68 10.338-.091m0 0c.237-.39.503-.762.797-1.112-.297.348-.563.72-.797 1.112Zm0 0a6.52 6.52 0 0 1 3.212 1.307c.626.733-7.963 1.674-7.585 1.491-5.508 2.615-.195 2.537-1.579 4.132-1.645 2.615-1.984.627-2.611 1.19-.222.196-4.308.497-2.793 3.556 1.475 3.321-1.45 4.132-3.29 4.799.157 0-4.804.484-5.992.641-2.611.313-1.227.68-2.48-1.125-.535-.758-3.564 2.092-4.125 1.674a2.358 2.358 0 0 1 0-1.242c-.718-.196-2.898 0-2.611-1.896 0-.34 1.893 1.006 2.049.17.288-1.582-.9-.536-1.305-1.308-.222-.353 2.037-4.171.862-5.465-.797-.876-2.115 2.105-2.115 2.105-.849.85-1.671-.667-1.802 2.876 0 1.138 2.18 3.727 1.619 4.838-.418.85-5.156 1.726-6.044 2.302a42.77 42.77 0 0 0-4.451 4.458 23.355 23.355 0 0 1-3.016 3.008c-1.305.614-4.151.261-4.582.51-.979.549.901 2.039 0 2.785-.9.745-3.485-1.569-4.086-.432-1.644 3.047.81.732 2.259 3.047 1.984 3.177 5.065 6.969.457 9.309-2.141 1.099-7.389-1.726-9.138-.784-3.277 1.791-.718 1.634-1.423 4.681-1.436 6.211-1.305 8.813 3.799 10.46 3.563 1.164 7.336.432 10.299-3.543 2.35-3.164 3.76-8.656 7.35-10.892-.81.51 7.506-.941 6.814-.968 3.564.183 1.305-.326 4.386 2.04-.087-.074 10.577 9.724 8.802 10.719m0 0a.813.813 0 0 1-.395.082.952.952 0 0 0 .395-.082Zm0 0c1.411-.631.92-4.726 1.041-4.835a2.348 2.348 0 0 1 1.329.155m0 0c.302.13.574.322.798.564-.147-.044-.426-.244-.798-.564Zm0 0c-2.931-2.52-11.609-12.476-6.512-12.197.78 0 6.907 6.977 8.905 8.132m0 0 .024.014c.026-.156.065-.309.118-.458m-.142.444c-1.511-.835 2.915 6.931 4.577 8.269m0 0c.37.298.604.278.604-.227 0-.759-.305-.469-.604.227Zm0 0c-.668 1.56-1.305 5.156 1.583 3.565a5.553 5.553 0 0 0-.288-1.844c.376.104.773.104 1.149 0 .614-.758-1.305-.654-.888-1.046.418-.392 2.389.732 2.102-.863-.339-1.935-1.384 0-2.102-.771.218.242-.225-3.328-.561-3.692m0 0c-.027-.029-.053-.037-.078-.022l.078.022Zm0 0c.637.178 1.287.302 1.945.371 1.11-.497 7.036-.458 8.472-1.896-.378.379-2.376-3.178-2.245-3.923a23.634 23.634 0 0 1 2.846-4.485c.679-.967.992-3.19 2.402-3.844.887-.418 4.856-.262 5.078.941a8.798 8.798 0 0 1-2.166 1.286m0 0-.054.022c-.009-.052.011-.056.054-.022Zm0 0c.295.228 1.652 2.187 1.696 2.269m0 0v.002-.002Zm0 0c.049-.075 5.105-1.307 5.221-1.463.301-.523-4.647-.235-2.271-2.785.561-.588 6.122-2.615 6.527-1.817.091.196-3.916 3.923-3.773 4.629.522 2.497 8.159 3.857 7.911 6.537-.339 3.688-4.726 2.393-7.297 2.341-1.097 0-1.971-1.242-3.042-1.308-3.511-.222-5.574.589-8.89 1.517-4.255 1.19-8.968 3.4-4.033 8.434 2.31 2.366 4.569 1.307 7.179 1.412.862 0 6.11-1.138 6.815-.68.705.458-1.528 6.681-1.802 7.348l.875.406m0 0c0 .17 0 .366-.065.536 0-.17 0-.366.065-.536Zm0 0-.849-.393c-2.61 6.133-7.571 4.878-14.033 3.662-1.71-.314-3.094-1.138-4.804-1.373-2.767-.38-1.305-2.615-4.986-.72-1.214.641-.875 3.099-1.005 3.152-2.18.863-11.579-2.341-14.007-4.838-2.428-2.498 1.684-4.629-.157-7.231-1.123-1.582-8.772-.157-10.939.078a43.103 43.103 0 0 0-7.833 2.066c-2.676.759-4.843.536-7.336 1.19-2.115.562-1.305-.327-3.12.667 1.958-1.046-4.216 4.603-3.459 3.387-.94 1.503-1.671 3.164-2.611 4.681-.679 1.176-.496 2.719-1.619 4.406-.731 1.111-2.219 1.308-3.041 2.144a29.572 29.572 0 0 0-5.418 8.696c-1.435 3.648-.587 4.236-.704 7.426-.118 2.969-1.045 6.133-.953 9.062.104 3.216 1.553 4.511 3.12 7.047 3.524 5.741 7.701 11.049 14.463 11.768a30.538 30.538 0 0 0 10.587-1.477c.444-.118 4.974-2.615 5.444-2.053a42.648 42.648 0 0 0 3.837 2.066c.601.288.366 1.739 1.136 2.092.77.353 1.632-.824 2.272-.418 3.589 2.262 2.206.3 4.033 4.445.353.915-.705 3.844-.692 4.302.079 3.727 1.475 4.276 3.642 8.054 1.789 3.099 4.06 9.153 3.577 12.749-.522 3.805-3.302 7.1-3.472 11.271-.287 2.798 3.694 9.388 4.308 12.317 1.109 5.23 2.715 8.434 4.464 13.403 2.376 6.76.34 8.224 7.833 7.283 7.284-.89 11.422-3.178 15.234-10.461.593-1.9 1.03-3.846 1.305-5.818 2.611-3.766 4.151-1.713 4.869-6.63.509-3.491-1.671-3.478.222-6.825 1.514-2.694 5.678-3.099 7.297-5.518 3.342-5.034-.13-10.591-1.083-15.69-1.032-5.453 1.749-9.389 5.495-13.442 1.541-1.687 19.986-21.156 14.255-23.274-3.916-1.478-8.341 4.184-12.858 1.307m-55.257-60.225c.64-.092.705-3.374.339-3.413-1.305-.118-1.801 3.635-.339 3.413Zm-138.607 47.581c1.07-.392 7.976 1.059 7.976-1.137 0-1.412-7.102-3.269-7.976-2.615.069.94.461 1.827 1.109 2.51 0 .693-2.989-.078-3.25.654a1.58 1.58 0 0 0 2.141.588Zm-1.802-3.975c1.919-2.615-19.777-7.296-17.062-3.334-1.305-1.896 8.655.641 9.138.902 1.619.929 5.561 5.61 7.924 2.432Zm-6.918 3.57c.3.562 3.107 1.308 3.394.654.287-.654-3.759-1.36-3.394-.654Zm18.993.157c.652 1.137 2.611.458 2.728 0 .3-.811-3.394-1.125-2.728 0Zm10.561 139.986c.887.483 2.728-1.949 1.919-2.106-.81-.156-2.768 1.648-1.919 2.106Zm2.166.17c.588.313 3.016-.798 2.729-1.386-.536-1.216-3.277 1.059-2.729 1.386Zm-53.443-106.317c-.744 1.216.731 2.406 1.032 1.87.3-.536-.288-3.086-1.032-1.87Zm66.328-155.075c.156-2.929-4.321-1.503-4.987-1.307-.666.196 4.778 4.89 4.987 1.307Zm50.18-2c-.536.327-7.128-.706-7.167-.589.17-.444 2.389-2.994 2.102-3.098 1.449.549 5.613 5.504 5.809.915.156-2.68-3.76-2.68-4.334-4.904-.17-.614 5.091 1.7 4.034-1.569-.588-1.856-5.757 1.308-5.548-.68-.079.694 1.788-2.431 1.462-2.078 1.644-1.818 9.137 4.445 4.294-1.844-.195-.249 4.347-.17 4.569-1.099.222-.928-4.516-.797-3.446-2.615 1.305-2.222 4.739 1.007 2.611-3.543.078.157-5.47-1.74-4.621-2.615.848-.876 7.362 0 7.114-1.007-.626-2.38-3.851.13-4.112-1.909-.143-1.059 1.958 0 2.272-.55 1.174-1.856-5.091-.352-4.87-.182-1.697-1.308 6.945-9.375 7.193-9.035-1.579-2.119-3.028 1.412-4.151.3-1.123-1.111 6.253-2.04 6.449-2.17.626-.392-3.917-1.308-4.138-1.007.796-1.307 11.435-1.19 11.435-4.132 0-3.922-10.091-.157-11.214.21-.887.274-2.166-.877-2.78-.641-2.023.771-3.916 4.066-6.057 4.38 2.128-.314 4.543-5.465 1.07-6.08-.548-.092-6.422 4.25-6.788 2.942-.287-1.033 3.538-1.517 3.447-2.38-.183-1.83-12.48 1.033-12.506.759-.183-2.498 17.127-1.491 18.863-3.845.966-1.307-22.009-5.02-24.085-4.484-.522.13-3.642 1.242-3.994 1.307a15.809 15.809 0 0 0-2.167-.118c-3.916.445-7.715.183-11.618.929-.483.091 1.697 1.556 1.671 1.687-.027.13-3.421.352-2.951.967-.104-.13 4.804 3.491 4.465 3.57-2.755.588-7.833-5.714-10.574-3.674-.679.496 2.024 2.157 2.024 2.536 0 1.517-5.535-1.726-5.379-1.726-.404 0-.248 3.308-1.031 3.805 2.389-1.49-2.95-3.596-3.786-3.674a4.458 4.458 0 0 0-4.399 2.537c-1.24.431-3.068-1.073-4.673-.419-1.149.47 1.018 2.406-.575 3.282-.43.235-11.591.51-10.103 3.923 1.122 2.615 7.153-.118 1.801 4.262-1.462 1.19-5.691.706-7.532 1.962-8.55 5.844 7.911 1.987 7.741 5.23 0 .366-8.733.379-8.563 1.19.221 1.19 6.109 3.922 7.675 4.066 3.172.3 6.214-2.079 10.444 0 3.707 1.791 7.453 5.466 8.563 9.61 1.305 4.852-1.775 5.466 3.303 5.466a28.715 28.715 0 0 0 4.334 4.668c-.183.144-5.666-2.17-5.666-.771 0 3.268 7.65.876 5.613 6.707-.313.863-2.728-.366-3.446 1.4a8.755 8.755 0 0 0-.862 3.739c-.117 2.354 3.408 10.46 6.005 14.07 2.089 2.863 3.329 3.307 6.279 4.64 4.621 2.08 3.551 2.341 6.162-1.529 1.005-1.517-.549-2.981-.144-4.158.209-.614 2.206-.601 2.507-1.922.378-1.7.143-4.511.365-5.23a3.39 3.39 0 0 1 1.645.222c.222-.13 3.094-4.001 3.433-4.001a1.218 1.218 0 0 1 .222 1.556c.561 1.765 7.154-4.119 7.284-4.223 2.519-1.83 2.154-1.949 4.399-2.942 4.974-2.132 10.574-4.001 14.621-6.394ZM103.261 47.375c1.436-.785 1.436 0 2.52-1.138a5.525 5.525 0 0 0 1.175 1.465c1.71 0 2.402-3.687 3.472-3.923 1.071-.235.326 3.27 2.794.876.94-.902.731-1.739 1.644-2.745.249-.275-5.221-.092-5.952.156-2.076.733-5.731 5.361-5.653 5.309Zm10.939-1.464c-2.467.196 1.306 1.804 1.227 1.412a5.462 5.462 0 0 0-2.858.837c-.444.627 2.467.392 2.154.51a5.438 5.438 0 0 0-2.964 1.059c1.58 2.314 4.269.117 5.522-.667-.653.405 3.838 1.517 4.138 1.059-.431.64-4.647 1.229-4.582 1.909.235 2.197 8.42-.72 9.634-1.308 4.06-1.778 5.222-.34 3.342-3.922.17.287-4.386-2.864-5.104-2.485-2.115 1.099 1.305 3.295.796 4.067-1.214 2-5.313-2.25-6.279-2.498-2.493-.523-2.963-.13-5.026.027Zm27.636 17.442c2.99 2.25 6.527-6.158 4.595-6.263a1.413 1.413 0 0 0-.352 1.765c.209-.444-2.454-1.307-2.402-1.307-.575-.903 3.799-1.726.966-3.648-2.102-1.439-1.854 1.229-1.815 1.216.366-.183-6.292-.772-4.177 1.137.714.199 1.443.339 2.18.419 2.506 2.183-4.36 1.007-3.655.876-1.997.418 4.047 5.348 4.66 5.805Zm-41.89-1.451a33.92 33.92 0 0 1 2.363 2.863c1.801 0 3.694-2.615 4.581-3.295 2.324-1.739 5.627-3.438 7.976-5.387.875-.719-10.717-4.053-12.231-3.582-4.856 1.53-.627.483-2.206 3.164-.496.824-3.107 5.139-2.78 5.544a6.091 6.091 0 0 0 2.297.693Zm8.863-13.311c1.305.157 2.611-1.138 2.611-1.87 0-.732-3.277 1.792-2.611 1.87Zm78.39 16.174a1.405 1.405 0 0 0 1.317-.908 1.41 1.41 0 0 0 .092-.556c.314 1.072-5.574-2.014-6.109-2.197-1.305-.444-.483-1.647-2.611-2.131-1.449-.327-3.668 1.83-3.603 1.844-1.958-.693-1.135.143-3.354.143-1.632 0 1.122-8.956-5.966-4.668-4.282 2.616-.731 3.923-.535 6.695 0 .458-3.198-.954-3.068-3.033.118-1.883 2.467-3.57 2.467-4.76 0-2.197-7.715 2.615-8.093 4.367-.509 2.302 2.806 6.904 4.164 5.1-.352.457-3.616-.432-3.525.431.47 4.72 17.454 1.779 17.819 2.733a1.963 1.963 0 0 1-.861-1.308c.235-.784 5.978 3.57 6.017 3.923a4.73 4.73 0 0 0-1.631 1.543c1.096.915 2.31-.928 4.138.968 2.062 2.144 2.023 1.7 2.519 4.955.105.68 6.24-1.307 5.13 1.53-1.109 2.837-2.741-.732-3.55-.47-.81.26-2.911.34-4.034.68a5.44 5.44 0 0 0 .679 2.065c-1.736.85-4.556.092-5.887 1.308-4.896 4.197 5.221 1.647 6.618 2.092 1.397.444 9.856 10.8 12.049 7.845.548-.758-3.721-5.387-4.517-5.23 3.237-.942 7.989 4.42 6.292-1.007-.757-2.419-6.527-4.289-3.994-7.31 1.044-1.307 5.404 4.093 6.135 4.067 0 0 4.282-4.498 4.282-4.472 0-3.007-11.827-4.628-11.449-7.544a6.314 6.314 0 0 1 2.285-.562 3.785 3.785 0 0 0-1.919-1.06c-.196-1.79 1.893-1.7-1.11-1.7 2.18 0-3.015-2.366-3.211-2.444-.614-.196-2.976-.929-2.976-.929ZM85.625 114.321c-1.37.798 1.71 4.577 2.533 4.015.248-.184-.522-5.191-2.532-4.015Zm49.044-64.109c.509-.653-1.109-2.026-1.553-.889-.444 1.138.979 1.556 1.553.89Zm39.893 43.502c.522-.091 1.553-2.118.222-2.04-1.332.08-1.018 2.158-.222 2.04Zm7.389-17.285c4.033-.746-3.917-3.661-2.611-2.537.875.72-2.245 3.426 2.611 2.537Zm-13.916 15.494c1.188.81 2.95-1.373 2.806-2.027-.143-.653-4.203 1.02-2.806 2.027Zm-14.164-41.54c.679 2.091 17.558 2.954 19.516 1.53 7.833-5.662-16.539-2.825-16.213-4.669a6.912 6.912 0 0 1 1.306-1.307c.6-.798-13.25-3.596-12.193-1.948 2.911 4.445 5.639.248 7.584 6.393Zm-16.983 18.174c.392-.51 2.285 1.046 2.363-.078 0-.798-5.626-4.812-6.122-6.093a30.329 30.329 0 0 1-.379-5.23c.666-.602.601-1.308-.222-1.896a3.05 3.05 0 0 0-3.25.81 10.05 10.05 0 0 1 2.062 1.949c0-.38-3.694-1.713-4.059-.981-.522 1.046 1.684 4.838.979 5.23-.131 0-4.987-5.465-5.222-4.223.516.44.957.96 1.306 1.542 0 .197-2.69.079-2.546.458-1.945-5.152-3.551 1.02-5.313-.64-.183-.184 3.029-2.616-.757-2.616-1.462 0-5.222 2.105-5.705 3.335-2.193 5.23 2.729 1.386 4.791 2.98.105.08-4.36 1.243-4.36 1.858 0 2.745 10.561-.275 10.561 2.04 0 .562-9.517 0-9.138 1.542.979 4.263 13.054 3.413 15.508 3.073a18.562 18.562 0 0 1 3.916-.536c.823 0 7.585 2.327 6.775-.432-.652-2.157-2.206.654-2.741-.81a5.987 5.987 0 0 1 1.553-1.282Zm63.535 55.832c.143.641 4.438 2.616 4.581 1.7.144-.915-4.712-2.262-4.581-1.7Zm-42.83-83.59c-1.306-.733-3.003.81-1.619 1.385 1.227.484 3.003-.654 1.619-1.386Zm-11.476-1.047c8.694 0-1.566-4.851-2.14-3.923-.575.929 1.122 3.923 2.14 3.923Zm.888-8.041c.078 0 6.853 3.177 6.527 2.105.183.549-3.12 1.307-2.95 1.543 2.167 2.392 5.574 3.922 8.642 3.085.208 0 6.383-5.57 6.2-4.628-.248 1.307-4.556-4.367-4.791-4.55-.235-.183-9.385-4.995-10.273-4.315a1.31 1.31 0 0 0 1.096.954c0 .51-2.245.105-2.454.523.418.331.823.671 1.214 1.02-.443.863-3.028-.418-2.937 1.308a5.55 5.55 0 0 0 2.024 1.53c.052.915-4.896 0-2.298 1.425Zm25.717 23.614c-1.867 4.42 7.532 3.4 7.532 2.432 0-1.478-6.997-3.687-7.532-2.432ZM152.11 40.157c-.157-.496-5.757.249-4.883.968 1.476 1.216 5.026-.484 4.883-.968Zm-34.072-.091c.378-.968-2.441-.81-2.206-.484.509.732 1.84 1.465 2.206.484Zm32.44 8.852c-1.188-.98-4.7 1.373-4.217 1.778 1.919 1.635 8.564 1.805 4.217-1.778Zm-17.062-6.498c.587-.811-2.376-3.4-2.52-2.184-.143 1.216 1.893 3.046 2.52 2.184Zm6.501 1.425c-1.762-.746.744 2.615.47 2.615a6.52 6.52 0 0 0-2.807-1.308c-.626.51.914 2.053.405 2.301-.796.38-2.741-3.36-3.838-3.425-2.35-.131.836 3.347.94 3.412 1.971 1.19 3.525.275 5.496.811-.274-.078 2.18 6.263 4.49.654 1.684-4.145-3.146-4.25-5.156-5.06Zm-15.743-4.184c1.305-.21-5.222-1.766-5.222.732-.026 4.236 5.235-.732 5.222-.732Zm-3.616-1.543c.6.274 4.804.222 4.804-.641 0-3.151-6.971.34-6.801.484a7.276 7.276 0 0 0 1.997.157Zm22.453-6.329c.522-.968-3.107-1.739-2.206-.889.509.484 1.697 1.87 2.206.89Zm-10.117 3.818c1.188-.392 1.932 0 2.219 1.138-.144.353-2.741.248-2.611.483.131.236 14.216 5.793 7.023-1.307a7.472 7.472 0 0 0-3.407-1.844c-6.357-.784-2.702 1.15-3.224 1.53Zm40.494 51.857c.143-.85-7.219-5.897-7.611-5.844-.705.091-4.138 4.707-3.694 6.171.444 1.465 11.37-.719 11.305-.327Zm-17.441-63.782c2.611-1.883.457.785.483.824.53.023 1.056.107 1.567.248-2.95 3.465 5.509 2.903 5.469 2.25.379 5.387 10.783-1.805 12.036-.916 2.402 1.713-6.318 3.4-6.109 3.688 0 0 2.806 2.38 2.454 2.392-1.658.131-10.326-6.04-8.864-.549.34 1.308 7.154 3.923 7.154 5.126 0 0-8.59-2.615-8.798 1.137-.131 2.328 4.738-.418 4.79-.274-.757-1.687.758 5.23.758 3.922 0 1.57-6.658-4.08-6.384-.967.609.56 1.264 1.068 1.958 1.517 0 .536-5.717 1.006-4.373 2.366 1.541 1.582 18.915 2.066 19.79 0s-6.527-1.543-6.853-2.092c1.031 1.621 6.527-2.942 6.957-3.151 2.768-1.53 3.917.719 5.379-3.609.43-1.308-4.791-1.308-4.739-1.308 3.042-2.157 7.049-1.307 9.817-2.615 1.684-.836 11.657-6.001 11.748-6.76.092-.758-4.673-.196-4.947-.313 2.297 1.006 10.443-4.42 10.573-4.394-.652-.209-10.103-3.425-10.26-.994a3.606 3.606 0 0 1 1.527-1.307c-1.853.732-11.135.235-12.388.3-4.255.223-8.367-.561-12.114.471-.757.21-18.171 5.937-18.497 5.23a1.641 1.641 0 0 0 1.866-.222Zm59.083 97.308a9.14 9.14 0 0 0-3.551 4.106c-.183.392-3.433 3.661-2.115 4.445 2.99 1.752 5.744-2.615 6.057 1.308-.104-1.308 4.334.484 4.53.104-.078.17-1.306-3.399-.718-3.138.796.366-5.887-4.262-5.796-3.491a7.295 7.295 0 0 1 1.593-3.334Zm-187.051-5.23c.888-.406 1.305-.903.888-1.386-.418-.484-1.567 1.726-.888 1.386Zm6.28-3.635c-1.032-.406-2.076 1.242-2.22 1.229-.444-.079 3.211-.824 2.22-1.229Zm17.44-9.009c-1.698 2.144-3.095 6.25.521 2.615.535-.549 1.319-4.93-.522-2.615Zm-22.245-5.309c-.692-.418-1.188-.222-1.475.562a2.284 2.284 0 0 0 2.324.772c2.506-.916-.862-1.478-.849-1.334ZM314.24 147.35c-.118-.915-1.815.275-1.449.536.744.562 1.579.379 1.449-.536Zm37.517 9.192c0-.602-4.778 0-4.674 0-.613-.052 4.817 1.569 4.674 0Zm12.492.68a15.74 15.74 0 0 1 1.227-1.556 15.333 15.333 0 0 0-3.785 1.307c-.653 1.256 2.702 1.112 2.558.249ZM283.197 86c5.222-.288.313-8.277-2.193-6.812-.574.326-4.255 2.38-4.921 2.183a1.31 1.31 0 0 0-1.175-.902c-3.277 3.923.117-1.124-4.399-1.124-.94 0 .483 1.307.235 1.307-.914-.105-2.298-.38-2.52 1.308-.104.745 3.76.575 3.616.431-.143-.144-.378 1.386-.248 1.308-.104.065-3.094.13-2.833.666.092.184 2.729.275 3.186.811.835.968-.901 2.17-1.084 1.974 3.159 3.505 8.955-.954 12.336-1.15Zm9.778 34.192c4.386 0 5.587-3.164 5.156-6.537-.143-1.151 2.206-1.308-.431-2.759a10.246 10.246 0 0 0-3.446.732c-.078 2.353.17.274-2.337 1.647-.078.079-.026 6.917 1.058 6.917Zm13.433-21.967c.418-.457.914-2.222.274-2.026-.64.196-.444 2.223-.274 2.026Zm-8.407 4.25c-.327-.353-1.606 1.634-1.11 1.621.496-.013 1.423-1.268 1.11-1.621Zm-.418 2.432c1.605-1.412.091 5.426.091 4.55 0-1.229 2.115.602 1.88.641.462-.36.797-.86.953-1.425.744.117-.483 2.929-.47 3.112.143 1.098 2.819-.693 2.976-.406 1.762 3.073-1.41 4.354-1.305 6.381a2.337 2.337 0 0 0-1.828 1.922 22.39 22.39 0 0 0 4.112.602c.091.497-5.809 1.713-4.36 3.648 0 0 10.6-2.328 11.226-2.968.627-.641-1.083-.236-1.031-.693.287-2.132 1.958-1.138 1.031-3.465a6.07 6.07 0 0 1-2.062-1.622c-1.188-2.013-2.35-6.341-5.222-6.132 0 0 1.854-3.086 1.658-3.57-.809-2.066-2.337.288-3.485-1.098-.392-.458 2.363-2.301 1.553-3.06-.561-.627-5.6 3.478-5.717 3.583Zm30.194 6.682c-.313-.079 4.177-1.216 2.036-2.681-1.827-1.255-2.219 2.641-2.036 2.681Zm11.944-7.597c-.94 0-1.305 2.04-1.135 2.38.169.339 2.062-2.459 1.135-2.38Zm5.222-.602a4.776 4.776 0 0 0 1.723-1.242c1.201-1.334-3.577 1.347-1.723 1.242Zm1.397-2.38c.196-.404-1.423-.222-1.058.144a.69.69 0 0 0 .563.177.698.698 0 0 0 .495-.321Zm-7.233-70.398c1.397 1.203 4.125-.183 5.862.903-.066 0-3.486 1.307-3.473 1.307.849 2.197 13.054 1.072 12.232-2.314-.105-.406-7.963-1.517-7.65-1.622a1.478 1.478 0 0 0-.287 1.779c-.653.483-3.812-2.119-4.517-2.027a5.236 5.236 0 0 0-1.07 1.464l-1.306-.98c-1.396-.013 0 1.32.209 1.49Zm-10.234 3.295c-2.507-.588 1.305 3.923 1.906 4.224 1.161.666 2.088-2.158 2.924-2.485.835-.327-.353 1.543.457 1.49a6.44 6.44 0 0 1 1.775-.758c.718 1.125-5.222 3.296-4.425 3.505 1.501.379 3.12-.602 4.673-.223a24.51 24.51 0 0 0-4.582 1.465c-.144 1.464 2.611 1.399 3.29 1.66a1.127 1.127 0 0 1-.81.694c-.378.51 2.076.758 2.467.523a37.836 37.836 0 0 0 2.611-3.923c.301-.38 2.676-6.08 4.151-3.74-.391-.627.601 4.969.066 4.864.626.131 6.266 1.086 6.044-1.543.117 1.308-5.835-4.354-5.731-4.275-1.854-1.517-4.621-1.765-5.94-2.092.771.183-1.227-2.485-2.18-2.798-1.383-.458.314 4.929.405 4.497 1.306-5.543-3.851-1.19-3.812-1.202a9.517 9.517 0 0 0-1.54-1.308 5.716 5.716 0 0 1 1.397-.575c-.431.17-9.53.523-3.146 2Zm-1.514 3.282c.357.34.751.638 1.175.89-.549 0-1.149-2.838-2.219-2.511a1.412 1.412 0 0 0 1.044 1.621Zm296.586 51.413a2.869 2.869 0 0 0-2.062.693c.326.405 5.117 1.53 5.117.445a4.656 4.656 0 0 0-3.055-1.138Zm-81.261 50.955c-.248-1.648-3.916 5.413-2.075 4.393-.327.183 1.54-1.046 1.488-.771-.314-.458-.64-.915-.979-1.308 0 .393 10.625.301 10.09-4.328.287 2.511-8.889-1.647-7.832-2.366.104-.092-.692 4.118-.692 4.38Zm-19.659 22.777c.522 1.06 1.018-1.477 1.305-.209 0 .183-.705 4.001.522 3.727 1.006-.223 2.82-3.858 1.306-4.511-.444-.144-4.465-1.687-3.133.993Zm5.862-.431c.365-1.608 2.61.301 2.61-2.223 0-1.308-2.61 0-2.741.235-.431.798-.235 3.557.131 1.988Zm3.641-5.466s-8.119.367-7.493 3.217c.079.366 6.841-.641 7.324-.745-1.515.353 1.449 1.072 1.801 1.046 1.149-.092.274-1.674.483-1.805 1.305-.797 5.222.706 6.527-1.111 1.044-1.425 3.42-11.232 1.58-12.291-2.311-1.308-3.46 6.119-4.543 7.636-.875 1.203-5.431 1.53-5.679 4.053Zm-41.916 33.591c.344-.698.641-1.419.888-2.157-.196-.746-4.373-.183-3.525 1.425.092.196 2.494 3.465 2.637.732Zm17.284-6.538c.809-.614 2.715-4.746 2.075-5.687-2.141-3.125-3.838 7.087-2.075 5.687Zm-1.527 11.298c-1.136 3.765 11.004 8.799 8.498 11.689 4.034-4.642-4.634-6.538-5.522-8.656-.888-2.118 3.12-5.152 0-6.969-2.089-1.242-2.924 3.779-2.976 3.936Zm-2.116 11.794a10.473 10.473 0 0 0-2.115 3.033c-.208-.405 4.269-3.229 3.447-5.034a2.797 2.797 0 0 0-.893.849c-.23.346-.38.74-.439 1.152Zm3.055-6.276c.143.758.496 2.327 1.579 1.948 1.084-.379-1.684-2.485-1.579-1.948Zm6.945 6.498c-.392-.536-1.371.458-1.228.863.144.405 1.619-.379 1.228-.863Zm1.632.915s-7.18 4.668-5.966 4.55c1.214-.117 1.71-1.817 2.95-.941 1.24.876.483 3.7 2.859 3.7-1.775 0 1.893-3.805 1.723-3.138a4.014 4.014 0 0 0-1.566-4.171Zm-5.914-4.654a1.807 1.807 0 0 0 .092 2.497c3.093-.68-1.084 2.353 1.305 2.916 2.05.497 2.193-6.198-1.397-5.413Zm49.749 31.106c0 2.144-5.496.811-5.574 1.464-.3 3.112 8.459.105 6.657-2.157-.6-.183-.966.039-1.083.693Zm2.219-.209c1.475-.432-1.149-2.302-1.462-2.38.483.105.979 2.51 1.462 2.38Zm-9.464 3.779c1.305.091-4.243-4.629-5.522-5.361-2.872-1.635-8.446-4.171-11.318-4.001-.835 0-1.997 2.615-3.015 2.432-2.05-.38-.875-2.616-2.337-3.178-1.305-.51-1.305-1.909-3.511-1.582-.379.065-2.52 1.752-1.763 1.922.418.092 4.752 2.511 4.778 1.765 0 .34-2.611.327-2.898.366-1.201.223 4.517 3.034 4.882 3.204 2.52 1.229 4.347.968 5.809 3.543 1.462 2.576-2.049 2.432-1.462 3.596 1.084 2.131 9.047.249 9.895.262 2.324 0 2.285-.079 5.222 1.373-.078 0 7.14 3.608 6.37 2.327-.352-.51-6.579-6.747-5.13-6.668Zm-110.528-30.558c-1.071.131-1.097 6.368.143 6.865 3.46 1.412 2.689-7.205-.143-6.865Zm-52.36 39.92c0 .065-2.31 4.04-2.702 4.445-1.044 1.046-3.785 1.687-4.608 2.615-2.271 2.615-.744 3.805-1.136 7.676-.287 2.732-3.498 13.768 3.917 10.172 4.242-2.066 3.368-14.213 4.96-18.201.209-.523 1.306 1.177 1.306-1.033 0-2.209-1.254-3.752-1.737-5.674Zm7.232-45.189c.549.627 1.632-.105 1.697-.353.066-.249-2.323-.353-1.697.353Zm176.425 40.821c.143.811 1.305 1.308 1.697 1.02.391-.287-1.854-1.856-1.697-1.02Zm-5.248-4.994c0 .209 1.136 1.464 1.397 1.307.261-.157-1.332-1.687-1.397-1.307Zm5.535 3.255c.404-.287-2.285-1.909-2.324-1.386-.039.523 1.919 1.674 2.324 1.386Zm-8.655-5.518c-.091.484 1.488 3.06 2.076 2.616 1.044-.733-2.01-3.099-2.076-2.616Zm10.104 5.44c-.379.889 1.096 2.432 1.305 2.471.209.039-.966-3.164-1.305-2.471Zm1.292 3.609c0 .196 1.032 1.177 1.515.81.483-.366-1.645-1.163-1.515-.81Zm-52.79 2.589c.366.327 2.206-.079 2.141-.563-.065-.483-2.702.079-2.141.563Zm39.149 31.211s-.888-5.361-.431-5.152c-3.146-1.477-7.728-8.041-9.999-11.506-1.71-2.615-2.232-5.401-3.603-8.656-.705-1.687-2.167-.419-2.611-1.517-.731-1.608 0-4.969-1.579-6.446-1.201-1.125-1.841 8.041-1.854 8.08-1.671 4.76-.679 4.838-4.96 3.322-1.228-.445-4.922-2.341-5.222-3.923-.274-1.373 2.95-3.687 2.519-4.55.327.653-7.754-2.302-7.923-2.223-.209.523 0 .928.626 1.216-2.219-2.615-5.874 6.695-4.778 6.538.523-.066-3.302-.602-2.245 0-2.741-1.596-2.324-3.178-5.6-.824-2.128 1.543-1.371 3.609-2.611 4.982-.326.366-.548-1.87-1.057-1.53-1.762 1.19-.392 2.719-1.984 4.027-1.972 1.608-2.964 1.713-5.131 2.798-2.845 1.399-4.869 1.831-7.336 4.158a1.218 1.218 0 0 1-.183-1.137c0 .588-.705 2.432-.783 3.412-.078.981.94 4.773.666 5.348a1.955 1.955 0 0 1-.992-.928c.2.42.361.858.483 1.307-.405-.314-.797-.64-1.188-.967-.47 1.177 3.081 7.44 3.42 8.839.17.719.13 7.492-.17 6.864 2.272 4.668 5.561 1.478 9.321.366 3.08-.902 5.065-1.556 8.041-2.68 2.298-.863 7.18-2.615 9.686-2.197 1.54.249 9.242 6.29 7.48 7.087.535-.235 3.707-4.184 3.916-4.001.992.928-1.605 3.439-1.736 4.014-.47 2.262 2.611-1.778 1.775-1.124 1.11-.889.588 2.759.483 2.471-.104-.288 3.642 4.825 3.995 5.113 2.115 1.83 7.375.13 7.323.104.078.406.078.823 0 1.229-.483-.601 1.749.745 2.285 1.308-1.084-1.033 6.187-3.308 5.978-3.073 1.11-1.308 1.75-7.048 2.611-8.917.535-1.53 2.728-10.709 3.368-11.232Zm-28.693 16.266c.405.405 1.763.287 1.985-.288.221-.575-2.376-.079-1.985.288Zm16.696 11.284a13.35 13.35 0 0 1-2.846-.903c.496-.143.091 7.663 4.256 5.466 2.101-1.164 2.911-5.086-1.41-4.563Zm35.755 13.624c.261.079 1.11-.157.627-.81-.483-.654-1.254.627-.627.81Zm16.696-20.528c-.992 1.817-3.159-2.733-3.355-2.72a.96.96 0 0 0 0 1.02c.17-.261-3.276-4.956-3.994-4.956-.079 0 2.48 5.074 2.702 5.701.77 2.249-1.762 2.158-1.671 3.387 0-.092 1.841 5.23 1.736 5.112 2.115 3.975 6.619-11.284 4.582-7.544Zm-6.017 6.537c-2.076-1.621-14.556 9.546-10.783 12.082 3.773 2.537 12.532-10.669 10.783-12.082Zm8.197-48.535c.405.17 1.737-.314 1.737-1.007 0-.693-2.35.81-1.737 1.007Zm-2.284 2.196c.626.654 1.879.602 1.919-.562.039-1.164-2.481-.013-1.919.562ZM388.843 28.926a2.703 2.703 0 0 0-1.567.98c.692 1.517 7.076-1.53 7.102-1.961.104-2.014-5.157.405-5.535.98Zm9.217.863c0-.863-2.611.091-2.063.274.548.183 2.063.588 2.063-.274Zm-11.579-1.295a6.777 6.777 0 0 1 2.806-.601c.327-.89-5.691 0-5.508.497a1.813 1.813 0 0 0 2.702.104Zm2.52 43.228c1.436 1.45 2.31-.654 3.054-.968 1.019-.405-5.704-1.726-3.054.968Zm10.586-16.345a61.457 61.457 0 0 0-5.613 6.276c0 .157 2.845 2.537 2.61 2.616-.248-.51-.156-.89.275-1.125-.261 0 7.127 6.198 7.453 2.615.092-.954-3.25-3.007-3.394-4.34-.143-1.335 1.306-2.708 1.867-3.924a20.392 20.392 0 0 1 3.355-4.432c2.193-2.027 18.093-8.708 17.388-9.31-1.697-1.451-15.874 3.19-18.171 4.629-1.24.863-5.731 6.995-5.77 6.995Zm155.499-3.4a4.456 4.456 0 0 0 3.995-.875c.339-3.727-16.07 0-3.995.876Zm-12.611 1.884c0-.811-2.611.3-1.566.706.587.222 1.566.104 1.566-.706Zm-69.891-14.488c.993.614 9.843-.863 10.143-2.615.301-1.752-5.13-2.25-4.96-.89-.979-7.714-3.903 4.302-5.183 3.505Zm-7.636-7.636a4.694 4.694 0 0 0-1.136 1.621c2.481 2.38 8.525 4.21 9.047 0 .444-3.57-7.911-2.589-7.911-1.621Zm-2.611-1.517c1.606.745-1.409.824-1.592.928-.862.432 3.198.197 3.916-.104.718-.3 6.109-1.883 5.117-3.1-3.981-5.02-8.211 1.923-7.441 2.276Zm31.525 22.673c-1.136 2.497 1.997.745 2.024.327a1.304 1.304 0 0 0-2.024-.327Zm-94.667-25.105c.796.89 5.6.98 5.809-.588.065-.537-3.995-1.308-4.243-1.216.692-.105-1.135 2.275-1.566 1.804Zm61.863-1.4c.196-.81-3.068-.457-2.219.315.3.274 2.023.497 2.219-.314ZM608.385 65.55c.222.17 4.569-.13 3.707-1.15-2.036-2.446-6.396 1.032-6.07 1.202.783-.039 1.567-.052 2.363-.052Zm-72.228-15.037a7.824 7.824 0 0 0 5.379 1.085c1.305-.248 4.712-2.262 3.42-2.72.613.223 2.415 4.342 3.472 1.151.888-2.615-1.619-2.013-3.916-2.759-.196-.065-4.243-.17-4.269-.17.614-.117-7.91 1.334-4.086 3.413Zm10.261 6.917c2.611-.628-6.762-3.766-4.921-.863.587.941 4.047 1.085 4.921.863ZM412.836 28.063c1.501-2.119-6.527-.955-4.725.64.861.759 4.033.327 4.725-.64Zm-8.419 1.02c-.757.326-1.515.601-2.285.863-1.005 1.124 5.091.94 5.483-.367.248-.797-3.303-.706-3.198-.497Zm-.249-2.916a13.04 13.04 0 0 0 3.055-1.19c-.64-.876-5.13.837-5.222.536a2.614 2.614 0 0 0 2.167.654Zm139.991 95.215c1.044 2.615-2.076 10.081-.444 12.173-1.11-1.425 2.48.144 2.506.157.027.013-1.436-4.302-1.305-4.485 1.305-2.915 2.611-1.556 3.055-2.131.783-1.059-3.825-12.814-3.172-13.232-1.854 1.19-1.201 6.158-.64 7.518ZM425.943 57.875a4.12 4.12 0 0 0 2.611-.654c1.018-2.053-4.83.274-2.611.654Zm15.664.209c-.104-.863-1.906.248-1.305.601.6.353 1.397.262 1.305-.601Zm-25.168-30.296 1.489-.785c.483-1.66-4.439.393-4.256.628a3.91 3.91 0 0 0 2.767.157Zm164.207 235.724c.104.654 4.242 4.119 4.83 3.688.587-.432-4.935-4.302-4.83-3.688ZM177.565 177.58c-.927-1.752.209 3.465.627 2.498a18.04 18.04 0 0 1-.627-2.498Zm27.243 28.675c1.227.274 1.632-.144 1.188-1.229-.874-.811-1.592.823-1.188 1.229Zm282.005 24.189c0-.483-1.305-.248-.874.432.431.68.874.052.874-.432Zm10.182 10.435a4.186 4.186 0 0 0 1.971.065c.875-.732-4.738-1.7-4.582-1.621a1.506 1.506 0 0 1 1.671-1.308c-1.462.981-14.242-3.321-13.393-.288.326 1.282 13.759 4.015 14.333 3.152Zm15.143.065c1.306 0 1.449-.17.536-.549-.653-.105-6.762.549-6.645.811.796 1.739 5-.197 6.109-.262Zm-9.921-.654c-.47 1.164-1.619-.405-2.219.393-1.227 1.647 4.216 1.608 4.686.47.288-.654-2.232-1.399-2.467-.863Zm-14.464-16.331c3.72 3.805 1.905 7.087 8.041 7.414 5.104.261 5.391-3.805 8.707-7.963-.222.274-2.193-4.394-2.167-4.825.104-1.987 2.454-1.7 2.859-3.02.404-1.321-4.739-2.262-5.013-2.197-1.658.366-.822 3.295-3.668 3.073-.092 0-5 5.635-5.013 5.674.366-.876-6.331-.81-3.746 1.844Zm-19.476-1.464c-.105.536.443 2.105 1.031 1.464.587-.641-.914-2.001-1.031-1.464Zm2.441 4.654c-.104.262.444 1.308.783 1.02.34-.287-.483-1.882-.783-1.02Zm12.257 6.002c-.143-2.275 1.136-1.674 1.123-3.138 0-.641-2.076-2.615-2.115-1.399.399.393.749.832 1.044 1.307-.43 1.086-5.482-6.629-5.743-6.916-1.175-1.308-11.384-9.153-11.84-8.133-.327.758 7.832 12.526 8.916 14.016 1.083 1.491 9.085 11.481 8.615 4.263Zm24.777 10.748c0-1.464-2.911-.68-3.054-.915-.144-.236 3.054 2.223 3.054.915Zm-3.303-13.991c-.235.432 3.107 5.322 1.724 5.897 1.305-.536.143-5.962 1.422-5.334 2.428 1.189-.261 4.55 2.99 2.013-1.723 1.308.091-8.943 1.41-6.041.169.393-7.35 2.367-5.47-.706 2.049-3.36 6.618.484 8.42-3.242-1.084 2.249-5.561-.497-7.049.51-2.324 1.569-2.154 4.602-3.447 6.903Zm15.521 1.243c1.422.533 2.89.932 4.386 1.189 1.828 0-5.273-4.131-4.386-1.189Zm.249-8.5c0-3.634-3.016 3.858-.248 3.309 1.827-.367.248-3.374.248-3.309Zm-5.549 20.28c.849-1.124 3.694-1.307 4.073-2.366.209-.628-4.373 1.399-4.804 1.451-.666.105-2.611 1.53-1.305 2.223a2.257 2.257 0 0 0 2.036-1.308Zm1.906-11.676c.209.863 1.632 1.308 2.024.602.391-.707-2.259-1.609-2.024-.602Zm-194.269-86.337c-.457.85.575 5.714 2.468 3.321 1.553-1.974-1.28-5.57-2.468-3.321Zm10.731 5.805c.352-.078-3.786-.366-3.42.733a12.392 12.392 0 0 0 3.629 2.327 26 26 0 0 1 1.122-2.942 1.042 1.042 0 0 0-1.331-.118Z" stroke="gray" stroke-miterlimit="10"/><path d="M38.801 495h569.336" stroke="#263238" stroke-linecap="round" stroke-linejoin="round"/><path d="M96.239 449.053s-34.58-60.827-26.604-76.295c7.976-15.469 28.38 12.356 28.38 12.356s-17.741-56.708-7.977-81.46c9.765-24.752 26.591 0 27.414 17.534.822 17.534-3.538 47.425-3.538 47.425s7.088-61.86 23.928-43.306c16.84 18.554-21.278 80.427-21.278 80.427s25.716-14.383 24.803 4.132c-.914 18.515-31.03 35.055-31.03 35.055" fill="#fff"/><path d="M96.54 437.716s-32.01-29.903-16.423-43.305c15.587-13.403 23.798 14.383 23.798 14.383s-17.232-85.579 10.678-88.678c27.909-3.099 7.375 74.242 7.375 74.242s23.798-33.002 22.192-6.184c-1.605 26.817-36.956 49.542-36.956 49.542M112.256 432.264l-21.63-23.47m17.126 25.287 5.848-68.606m-6.761 63.638 19.385-25.733" stroke="#263238" stroke-miterlimit="10"/><path d="M134.866 424.327H75.052L81.031 495h47.856l5.979-70.673Z" fill="#263238"/><g><path d="m520.493 65.785-67.672 4.21a14.92 14.92 0 0 0-10.024 4.759 14.97 14.97 0 0 0-3.983 10.37l.339 27.236-19.672 2.092 19.829 10.251a14.956 14.956 0 0 0 9.457 13.71 14.887 14.887 0 0 0 5.751 1.039l65.7-1.203c3.814-.07 7.456-1.6 10.179-4.274a14.97 14.97 0 0 0 4.468-10.109l1.514-42.573a14.956 14.956 0 0 0-4.495-11.298 14.912 14.912 0 0 0-11.391-4.21Z" fill="#fff" stroke="#263238" stroke-miterlimit="10"/><g fill="#263238"><path d="M462.142 123.396v-7.1c0-3.413 2.415-5.688 6.057-5.688 3.642 0 6.057 2.223 6.057 5.583 0 .157-.131.262-.327.288l-1.161.078c-.209 0-.34 0-.34-.157v-.157a4.235 4.235 0 0 0-4.229-4.236 4.224 4.224 0 0 0-2.991 1.241 4.24 4.24 0 0 0-1.239 2.995v7.231c0 1.124.446 2.201 1.239 2.996a4.228 4.228 0 0 0 5.981 0 4.238 4.238 0 0 0 1.239-2.996.29.29 0 0 1 .02-.127.28.28 0 0 1 .076-.104.283.283 0 0 1 .244-.056h1.161c.196 0 .327 0 .327.13v.131c0 3.387-2.415 5.636-6.057 5.636-3.642 0-6.057-2.249-6.057-5.688ZM477.715 112.138a1.405 1.405 0 0 1 .796-1.356 1.397 1.397 0 0 1 1.386 2.42 1.392 1.392 0 0 1-.785.243 1.3 1.3 0 0 1-1.289-.785 1.305 1.305 0 0 1-.108-.522Zm.496 16.423v-12.396a.316.316 0 0 1 .327-.34h1.162a.307.307 0 0 1 .248.091.31.31 0 0 1 .091.249v12.396a.307.307 0 0 1-.018.134.318.318 0 0 1-.321.206h-1.162a.31.31 0 0 1-.131-.023.308.308 0 0 1-.179-.186.325.325 0 0 1-.017-.131ZM493.706 119.957v8.604a.322.322 0 0 1-.086.244.303.303 0 0 1-.11.073.306.306 0 0 1-.13.023h-1.162a.32.32 0 0 1-.249-.091.331.331 0 0 1-.073-.115.322.322 0 0 1-.017-.134v-.929c0-.104-.079-.157-.157 0a5.452 5.452 0 0 1-4.021 1.53c-2.193 0-4.255-1.059-4.255-3.779 0-2.719 1.958-4.184 5.313-4.184h3.015a.12.12 0 0 0 .125-.078c.006-.017.008-.035.006-.053v-.954a2.63 2.63 0 0 0-.154-1.176 2.61 2.61 0 0 0-2.862-1.662c-1.631 0-2.689.667-2.976 1.753a.302.302 0 0 1-.379.261l-1.305-.157c-.209 0-.339-.104-.313-.274.339-1.896 2.245-3.191 4.908-3.191 3.159-.052 4.882 1.739 4.882 4.289Zm-1.827 4.759v-1.987a.12.12 0 0 0-.034-.097.118.118 0 0 0-.097-.034h-2.702c-2.245 0-3.773.955-3.773 2.615 0 1.661 1.306 2.288 2.833 2.288 1.919.027 3.773-.98 3.773-2.785ZM497.453 125.514a11.162 11.162 0 0 1-.366-3.177 11.785 11.785 0 0 1 .34-3.152 5.354 5.354 0 0 1 5.038-3.553 5.347 5.347 0 0 1 5.039 3.553c.27 1.037.393 2.107.366 3.178a11.162 11.162 0 0 1-.366 3.177 5.312 5.312 0 0 1-8.114 2.605 5.323 5.323 0 0 1-1.937-2.605v-.026Zm8.354-.536c.165-.862.235-1.739.209-2.615a10.98 10.98 0 0 0-.209-2.615 3.453 3.453 0 0 0-5.415-1.821 3.465 3.465 0 0 0-1.242 1.821 16.386 16.386 0 0 0 0 5.23 3.463 3.463 0 0 0 3.329 2.522 3.463 3.463 0 0 0 3.328-2.522Z"/></g><path d="M506.786 72.82h-44.318v27.955h44.318V72.82Z" fill="#8C8C8C"/><path d="M506.786 72.82h-25.168v27.955h25.168V72.82Z" fill="#696969"/><path d="M493.654 72.82H475.6v27.955h18.054V72.82Z" fill="#fff"/><path d="M462.468 72.82v-.5a.5.5 0 0 0-.5.5h.5Zm44.318 0h.5a.5.5 0 0 0-.5-.5v.5Zm0 27.955v.5a.5.5 0 0 0 .5-.5h-.5Zm-44.318 0h-.5a.5.5 0 0 0 .5.5v-.5Zm19.15-27.955v-.5a.5.5 0 0 0-.5.5h.5Zm0 27.955h-.5a.5.5 0 0 0 .5.5v-.5ZM475.6 72.82v-.5a.5.5 0 0 0-.5.5h.5Zm18.054 0h.5a.5.5 0 0 0-.5-.5v.5Zm0 27.955v.5a.5.5 0 0 0 .5-.5h-.5Zm-18.054 0h-.5a.5.5 0 0 0 .5.5v-.5ZM462.468 73.32h44.318v-1h-44.318v1Zm43.818-.5v27.955h1V72.82h-1Zm.5 27.455h-44.318v1h44.318v-1Zm-43.818.5V72.82h-1v27.955h1Zm18.65-27.455h25.168v-1h-25.168v1Zm25.168 26.955h-25.168v1h25.168v-1Zm-24.668.5V72.82h-1v27.955h1ZM475.6 73.32h18.054v-1H475.6v1Zm17.554-.5v27.955h1V72.82h-1Zm.5 27.455H475.6v1h18.054v-1Zm-17.554.5V72.82h-1v27.955h1Z" fill="#263238"/><g><path d="m237.052 99.298-26.761-7.244 6.044-39.736a12.644 12.644 0 0 0-3.243-10.512 12.608 12.608 0 0 0-10.241-3.976l-56.824 4.707a12.57 12.57 0 0 0-8.573 4.401 12.62 12.62 0 0 0-2.954 9.184l4.177 52.119a12.63 12.63 0 0 0 3.833 8.093 12.586 12.586 0 0 0 8.229 3.505l43.731 1.726a12.554 12.554 0 0 0 8.518-2.866 12.592 12.592 0 0 0 4.431-7.83l1.136-7.44 28.497-4.131Z" fill="#fff" stroke="#263238" stroke-miterlimit="10"/><g fill="#263238"><path d="M163.271 86.994h1.161a.316.316 0 0 1 .31.208c.015.042.02.087.017.132v17.416a.322.322 0 0 1-.087.244.31.31 0 0 1-.24.096h-1.161a.31.31 0 0 1-.249-.091.31.31 0 0 1-.091-.249v-7.845a.117.117 0 0 0-.006-.053.113.113 0 0 0-.072-.072.118.118 0 0 0-.052-.006h-8.172a.116.116 0 0 0-.125.078c-.006.017-.008.035-.006.053v7.845a.325.325 0 0 1-.017.135.318.318 0 0 1-.188.187.307.307 0 0 1-.134.018h-1.162a.302.302 0 0 1-.245-.091.304.304 0 0 1-.081-.249V87.281a.303.303 0 0 1 .193-.322.3.3 0 0 1 .133-.018h1.162a.311.311 0 0 1 .322.206c.015.043.021.089.017.134v7.728a.117.117 0 0 0 .034.097.116.116 0 0 0 .097.034h8.185a.116.116 0 0 0 .097-.034.126.126 0 0 0 .028-.045.132.132 0 0 0 .005-.052V87.28a.315.315 0 0 1 .327-.288ZM169.119 101.651a11.34 11.34 0 0 1-.353-3.177c-.032-1.06.078-2.12.327-3.151a5.37 5.37 0 0 1 5.045-3.547 5.36 5.36 0 0 1 5.045 3.547 11.46 11.46 0 0 1 .366 3.177 11.306 11.306 0 0 1-.366 3.177 5.331 5.331 0 0 1-5.032 3.588 5.323 5.323 0 0 1-5.032-3.588v-.026Zm8.354-.549c.166-.861.236-1.738.209-2.615a11.087 11.087 0 0 0-.209-2.615 3.45 3.45 0 0 0-3.322-2.534 3.443 3.443 0 0 0-3.322 2.534c-.17.86-.24 1.738-.209 2.615-.034.877.036 1.755.209 2.615a3.447 3.447 0 0 0 5.41 1.829 3.453 3.453 0 0 0 1.234-1.829ZM183.257 104.698V87.281a.324.324 0 0 1 .017-.134.313.313 0 0 1 .322-.205h1.162a.313.313 0 0 1 .326.34v17.416a.313.313 0 0 1-.326.34h-1.162a.322.322 0 0 1-.322-.205.329.329 0 0 1-.017-.135ZM198.634 96.147v8.603a.325.325 0 0 1-.017.135.318.318 0 0 1-.188.187.307.307 0 0 1-.134.018h-1.162a.307.307 0 0 1-.134-.018.318.318 0 0 1-.188-.187.325.325 0 0 1-.017-.135v-.928c0-.105-.079-.157-.157 0a5.425 5.425 0 0 1-4.021 1.517c-2.193 0-4.255-1.06-4.255-3.766 0-2.707 1.958-4.184 5.313-4.184h2.989c.018.002.036 0 .052-.006a.115.115 0 0 0 .073-.073.117.117 0 0 0 .006-.052v-1.111a2.618 2.618 0 0 0-1.831-2.77 2.61 2.61 0 0 0-1.185-.081c-1.618 0-2.676.68-2.963 1.765a.32.32 0 0 1-.044.124.305.305 0 0 1-.348.125l-1.305-.144c-.196 0-.326-.105-.3-.288.326-1.883 2.245-3.177 4.895-3.177 3.185.052 4.921 1.83 4.921 4.446Zm-1.879 4.694v-1.988a.117.117 0 0 0-.034-.097.12.12 0 0 0-.097-.034h-2.702c-2.245 0-3.773.955-3.773 2.615 0 1.661 1.306 2.302 2.846 2.302 1.945.026 3.76-.955 3.76-2.798Z"/></g><path d="M197.289 48.944h-44.318V76.9h44.318V48.944Z" fill="#8C8C8C"/><path d="M197.289 55.717h-44.318V70.14h44.318V55.717Z" fill="#fff"/><path d="M152.971 48.944v-.5a.5.5 0 0 0-.5.5h.5Zm44.318 0h.5a.5.5 0 0 0-.5-.5v.5Zm0 27.956v.5a.5.5 0 0 0 .5-.5h-.5Zm-44.318 0h-.5a.5.5 0 0 0 .5.5v-.5Zm0-21.183v-.5a.5.5 0 0 0-.5.5h.5Zm44.318 0h.5a.5.5 0 0 0-.5-.5v.5Zm0 14.422v.5a.5.5 0 0 0 .5-.5h-.5Zm-44.318 0h-.5a.5.5 0 0 0 .5.5v-.5Zm0-20.695h44.318v-1h-44.318v1Zm43.818-.5V76.9h1V48.944h-1Zm.5 27.456h-44.318v1h44.318v-1Zm-43.818.5V48.944h-1V76.9h1Zm-.5-20.683h44.318v-1h-44.318v1Zm43.818-.5V70.14h1V55.717h-1Zm.5 13.922h-44.318v1h44.318v-1Zm-43.818.5V55.717h-1V70.14h1Z" fill="#263238"/></g><g><path d="M541.758 167.63h-34.815a26.517 26.517 0 0 0-18.766 7.786 26.603 26.603 0 0 0-7.773 18.796v9.82l-17.349-.667 17.401 11.376v7.361a26.622 26.622 0 0 0 7.772 18.802 26.534 26.534 0 0 0 18.767 7.794h34.815a26.532 26.532 0 0 0 18.766-7.794 26.619 26.619 0 0 0 7.773-18.802v-27.89a26.616 26.616 0 0 0-7.792-18.815 26.516 26.516 0 0 0-18.799-7.767Z" fill="#fff" stroke="#263238" stroke-miterlimit="10"/><g fill="#263238"><path d="M510.637 217.225h1.162a.326.326 0 0 1 .127.021.322.322 0 0 1 .178.179c.016.04.023.084.021.127v17.417a.322.322 0 0 1-.086.244.319.319 0 0 1-.24.096h-1.162a.305.305 0 0 1-.134-.018.331.331 0 0 1-.115-.073.331.331 0 0 1-.073-.115.322.322 0 0 1-.017-.134v-7.846a.118.118 0 0 0-.079-.125.101.101 0 0 0-.052-.005h-8.172a.103.103 0 0 0-.052.005.131.131 0 0 0-.045.028.131.131 0 0 0-.028.045.132.132 0 0 0-.005.052v7.846a.317.317 0 0 1-.205.322.31.31 0 0 1-.135.018h-1.161a.31.31 0 0 1-.249-.091.305.305 0 0 1-.073-.115.307.307 0 0 1-.018-.134v-17.417a.318.318 0 0 1 .208-.31.31.31 0 0 1 .132-.017h1.161a.306.306 0 0 1 .244.087.319.319 0 0 1 .096.24v7.728a.132.132 0 0 0 .005.052.131.131 0 0 0 .028.045.131.131 0 0 0 .045.028.103.103 0 0 0 .052.005h8.172a.101.101 0 0 0 .052-.005.118.118 0 0 0 .079-.125v-7.728a.302.302 0 0 1 .022-.13.303.303 0 0 1 .186-.18.308.308 0 0 1 .131-.017ZM524.918 232a.3.3 0 0 1 .184-.186.302.302 0 0 1 .26.029l.744.419c.183.104.261.261.157.431a5.041 5.041 0 0 1-4.791 2.825 4.76 4.76 0 0 1-4.83-3.23 10.052 10.052 0 0 1-.496-3.57 11.94 11.94 0 0 1 .235-2.994 4.89 4.89 0 0 1 1.831-2.746 4.875 4.875 0 0 1 3.156-.954 4.81 4.81 0 0 1 3.495 1.155 4.827 4.827 0 0 1 1.661 3.29c.136.865.189 1.741.157 2.616a.303.303 0 0 1-.34.326h-8.25a.118.118 0 0 0-.125.079c-.006.017-.008.035-.006.052a8.32 8.32 0 0 0 .157 1.896 3.33 3.33 0 0 0 3.499 2.524 3.536 3.536 0 0 0 3.302-1.962Zm-6.749-5.949a7.345 7.345 0 0 0-.209 1.765.12.12 0 0 0 .034.097.118.118 0 0 0 .045.028c.016.006.034.008.052.006h6.631a.12.12 0 0 0 .049-.01.114.114 0 0 0 .064-.072.116.116 0 0 0 .005-.049 13.57 13.57 0 0 0-.144-1.66 3.223 3.223 0 0 0-3.328-2.524 3.058 3.058 0 0 0-3.199 2.419ZM530.309 234.969v-17.417a.318.318 0 0 1 .096-.24.316.316 0 0 1 .244-.087h1.162a.3.3 0 0 1 .309.197.304.304 0 0 1 .017.13v17.417a.3.3 0 0 1-.326.339h-1.162a.325.325 0 0 1-.135-.017.318.318 0 0 1-.187-.188.307.307 0 0 1-.018-.134ZM536.301 234.969v-17.417a.324.324 0 0 1 .092-.235.312.312 0 0 1 .235-.092h1.162a.308.308 0 0 1 .243.087.319.319 0 0 1 .096.24v17.417a.307.307 0 0 1-.018.134.318.318 0 0 1-.321.206h-1.162a.31.31 0 0 1-.131-.023.308.308 0 0 1-.179-.186.325.325 0 0 1-.017-.131ZM542.228 231.922a11.197 11.197 0 0 1-.365-3.177c-.03-1.061.085-2.121.339-3.152a5.377 5.377 0 0 1 1.964-2.571 5.359 5.359 0 0 1 8.127 2.571 11.46 11.46 0 0 1 .352 3.178c.035 1.07-.084 2.14-.352 3.177a5.335 5.335 0 0 1-5.033 3.588 5.335 5.335 0 0 1-5.032-3.588v-.026Zm8.355-.536a12.14 12.14 0 0 0 .209-2.615 11.19 11.19 0 0 0-.209-2.615 3.45 3.45 0 0 0-3.323-2.535 3.444 3.444 0 0 0-3.322 2.535c-.169.86-.239 1.738-.209 2.615-.032.877.038 1.754.209 2.615a3.452 3.452 0 0 0 3.322 2.534 3.448 3.448 0 0 0 3.323-2.534Z"/></g><path d="M546.718 179.228H502.4v27.955h44.318v-27.955Z" fill="#fff"/><path d="M546.953 179.228h-44.318v2.707h44.318v-2.707ZM546.953 183.464h-44.318v2.707h44.318v-2.707ZM546.953 187.688h-44.318v2.706h44.318v-2.706ZM546.953 191.924h-44.318v2.707h44.318v-2.707ZM546.953 196.161h-44.318v2.706h44.318v-2.706ZM546.953 200.397h-44.318v2.707h44.318v-2.707ZM546.953 204.633h-44.318v2.707h44.318v-2.707Z" fill="#263238"/><g><path d="M523.887 179.228H502.4v14.893h21.487v-14.893Z" fill="#263238"/><path d="m503.235 180.483.196.419.418.065-.301.327.066.457-.379-.209-.365.209.065-.457-.3-.327.417-.065.183-.419ZM503.235 183.242l.196.418.418.066-.301.327.066.457-.379-.222-.365.222.065-.457-.3-.327.417-.066.183-.418ZM503.235 185.988l.196.418.418.066-.301.327.066.457-.379-.222-.365.222.065-.457-.3-.327.417-.066.183-.418ZM503.235 188.734l.196.418.418.079-.301.313.066.458-.379-.209-.365.209.065-.458-.3-.313.417-.079.183-.418ZM503.235 191.493l.196.418.418.065-.301.327.066.458-.379-.222-.365.222.065-.458-.3-.327.417-.065.183-.418ZM505.207 182.091l.183.419.417.065-.3.327.065.458-.365-.209-.379.209.065-.458-.3-.327.418-.065.196-.419ZM505.207 184.85l.183.419.417.065-.3.327.065.458-.365-.223-.379.223.065-.458-.3-.327.418-.065.196-.419ZM505.207 187.596l.183.419.417.065-.3.327.065.458-.365-.21-.379.21.065-.458-.3-.327.418-.065.196-.419ZM505.207 190.342l.183.418.417.066-.3.327.065.457-.365-.209-.379.209.065-.457-.3-.327.418-.066.196-.418ZM507.165 180.483l.196.419.417.065-.313.327.078.458-.378-.21-.379.21.079-.458-.314-.327.431-.065.183-.419ZM507.165 183.242l.196.418.417.066-.313.327.078.457-.378-.222-.379.222.079-.457-.314-.327.431-.066.183-.418ZM507.165 185.988l.196.418.417.066-.313.327.078.457-.378-.222-.379.222.079-.457-.314-.327.431-.066.183-.418ZM507.165 188.734l.196.418.417.079-.313.313.078.458-.378-.209-.379.209.079-.458-.314-.313.431-.079.183-.418ZM507.165 191.493l.196.418.417.065-.313.327.078.458-.378-.222-.379.222.079-.458-.314-.327.431-.065.183-.418ZM509.136 182.091l.183.419.418.065-.301.327.066.458-.366-.209-.379.209.066-.458-.301-.327.418-.065.196-.419ZM509.136 184.85l.183.419.418.065-.301.327.066.458-.366-.223-.379.223.066-.458-.301-.327.418-.065.196-.419ZM509.136 187.596l.183.419.418.065-.301.327.066.458-.366-.21-.379.21.066-.458-.301-.327.418-.065.196-.419ZM509.136 190.342l.183.418.418.066-.301.327.066.457-.366-.209-.379.209.066-.457-.301-.327.418-.066.196-.418ZM511.094 180.483l.183.419.417.065-.3.327.079.458-.379-.21-.379.21.066-.458-.301-.327.418-.065.196-.419ZM511.094 183.242l.183.419.417.065-.3.327.079.457-.379-.222-.379.222.066-.457-.301-.327.418-.065.196-.419ZM511.094 185.988l.183.418.417.066-.3.327.079.457-.379-.222-.379.222.066-.457-.301-.327.418-.066.196-.418ZM511.094 188.734l.183.418.417.079-.3.313.079.458-.379-.209-.379.209.066-.458-.301-.313.418-.079.196-.418ZM511.094 191.493l.183.418.417.065-.3.327.079.458-.379-.222-.379.222.066-.458-.301-.327.418-.065.196-.418ZM513.052 182.091l.196.419.418.065-.301.327.066.458-.379-.209-.378.209.078-.458-.3-.327.417-.065.183-.419ZM513.052 184.85l.196.419.418.065-.301.327.066.458-.379-.223-.378.223.078-.458-.3-.327.417-.065.183-.419ZM513.052 187.596l.196.419.418.065-.301.327.066.458-.379-.21-.378.21.078-.458-.3-.327.417-.065.183-.419ZM513.052 190.342l.196.419.418.065-.301.327.066.457-.379-.209-.378.209.078-.457-.3-.327.417-.065.183-.419ZM515.024 180.483l.183.419.417.065-.3.327.065.458-.365-.21-.379.21.065-.458-.3-.327.418-.065.196-.419ZM515.024 183.242l.183.419.417.065-.3.327.065.457-.365-.222-.379.222.065-.457-.3-.327.418-.065.196-.419ZM515.024 185.988l.183.418.417.066-.3.327.065.457-.365-.222-.379.222.065-.457-.3-.327.418-.066.196-.418ZM515.024 188.734l.183.418.417.079-.3.313.065.458-.365-.209-.379.209.065-.458-.3-.313.418-.079.196-.418ZM515.024 191.493l.183.418.417.065-.3.327.065.458-.365-.222-.379.222.065-.458-.3-.327.418-.065.196-.418ZM516.982 182.091l.182.419.431.065-.313.327.078.458-.378-.209-.379.209.078-.458-.313-.327.431-.065.183-.419ZM516.982 184.85l.182.419.431.065-.313.327.078.458-.378-.223-.379.223.078-.458-.313-.327.431-.065.183-.419ZM516.982 187.596l.182.419.431.065-.313.327.078.458-.378-.21-.379.21.078-.458-.313-.327.431-.065.183-.419ZM516.982 190.342l.182.418.431.066-.313.327.078.457-.378-.209-.379.209.078-.457-.313-.327.431-.066.183-.418ZM518.939 180.483l.196.419.418.065-.3.327.065.458-.379-.21-.365.21.065-.458-.3-.327.418-.065.182-.419ZM518.939 183.242l.196.419.418.065-.3.327.065.457-.379-.222-.365.222.065-.457-.3-.327.418-.065.182-.419ZM518.939 185.988l.196.418.418.066-.3.327.065.457-.379-.222-.365.222.065-.457-.3-.327.418-.066.182-.418ZM518.939 188.734l.196.418.418.079-.3.313.065.458-.379-.209-.365.209.065-.458-.3-.313.418-.079.182-.418ZM518.939 191.493l.196.418.418.065-.3.327.065.458-.379-.222-.365.222.065-.458-.3-.327.418-.065.182-.418ZM520.911 182.091l.183.419.417.065-.3.327.078.458-.378-.209-.379.209.066-.458-.301-.327.418-.065.196-.419ZM520.911 184.85l.183.419.417.065-.3.327.078.458-.378-.223-.379.223.066-.458-.301-.327.418-.065.196-.419ZM520.911 187.596l.183.419.417.065-.3.327.078.458-.378-.21-.379.21.066-.458-.301-.327.418-.065.196-.419ZM520.911 190.342l.183.418.417.066-.3.327.078.457-.378-.209-.379.209.066-.457-.301-.327.418-.066.196-.418ZM522.869 180.483l.195.419.418.065-.3.327.065.458-.378-.21-.379.21.078-.458-.3-.327.418-.065.183-.419ZM522.869 183.242l.195.418.418.066-.3.327.065.457-.378-.222-.379.222.078-.457-.3-.327.418-.066.183-.418ZM522.869 185.988l.195.418.418.066-.3.327.065.457-.378-.222-.379.222.078-.457-.3-.327.418-.066.183-.418ZM522.869 188.734l.195.418.418.079-.3.313.065.458-.378-.209-.379.209.078-.458-.3-.313.418-.079.183-.418ZM522.869 191.493l.195.418.418.065-.3.327.065.458-.378-.222-.379.222.078-.458-.3-.327.418-.065.183-.418Z" fill="#fff"/></g></g><g><path d="M213.594 208.059H190.71a44.82 44.82 0 0 0-20.623-25.38 44.69 44.69 0 0 0-32.348-4.583 44.76 44.76 0 0 0-26.842 18.655 44.897 44.897 0 0 0-7.036 31.957 44.847 44.847 0 0 0 16.518 28.233 44.712 44.712 0 0 0 31.273 9.471 44.733 44.733 0 0 0 29.367-14.338 44.87 44.87 0 0 0 11.819-30.508v-1.007l20.756-12.5Z" fill="#fff" stroke="#263238" stroke-miterlimit="10"/><path d="M126.38 236.511a32.219 32.219 0 0 1-2.728 4.041 12.787 12.787 0 0 0-1.11-1.399 38.748 38.748 0 0 0 6.214-12.579l2.141.641c-.104.261-.326.314-.614.288a56.3 56.3 0 0 1-2.454 6.119l.744.209c0 .157-.169.288-.509.301v16.436h-1.684v-14.057Zm17.662.628c.209-.954.47-2.406.692-3.805h-5.13v15.089c0 1.857-.666 2.197-4.282 2.197a6.934 6.934 0 0 0-.639-1.778H137.463c.34 0 .444-.105.444-.445v-15.063h-4.151a22.797 22.797 0 0 1-2.611 4.89 6.995 6.995 0 0 0-1.305-1.059 27.993 27.993 0 0 0 4.255-10.525l2.141.575c0 .183-.222.288-.561.261a40.177 40.177 0 0 1-1.306 4.237h12.31a44.991 44.991 0 0 1-1.162 5.675l-1.475-.249Zm-8.25.85c-.078.183-.261.288-.574.288a25.396 25.396 0 0 1-3.916 8.629 8.268 8.268 0 0 0-1.371-.889 23.487 23.487 0 0 0 3.773-8.656l2.088.628Zm9.36 8.708a35.795 35.795 0 0 0-3.538-8.917l1.528-.536a34.598 34.598 0 0 1 3.668 8.826l-1.658.627ZM157.487 231.974l.979.249-.156.366a33.856 33.856 0 0 1-2.48 11.114 18.212 18.212 0 0 1 3.067 2.811l-1.057 1.425a17.544 17.544 0 0 0-2.755-2.693 13.967 13.967 0 0 1-5.104 5.4 8.03 8.03 0 0 0-1.083-1.425 12.209 12.209 0 0 0 4.843-5.034 34.07 34.07 0 0 0-2.937-1.988l-.314 1.138-1.475-.772c.653-2.275 1.449-5.557 2.193-8.891h-2.61v-1.634h2.937c.418-1.936.77-3.792 1.083-5.453l2.115.262c0 .183-.183.287-.509.313a219.166 219.166 0 0 1-1.031 4.878h3.916l.378-.066Zm-4.647 1.7a250.421 250.421 0 0 1-1.684 6.943 41.146 41.146 0 0 1 3.277 2.053 30.473 30.473 0 0 0 2.141-8.996h-3.734Zm19.686 4.446v1.673h-6.227v8.552c0 1.987-.77 2.301-5.339 2.249a8.75 8.75 0 0 0-.64-1.726h3.094c.875 0 1.136 0 1.136-.549v-8.578h-6.319v-1.674h6.319v-4.393h.848a26.164 26.164 0 0 0 3.825-4.21h-9.934v-1.635h11.239l.34-.104 1.37.863a.832.832 0 0 1-.417.248 32.446 32.446 0 0 1-5.522 5.976v3.203l6.227.105ZM170.32 190.551h-44.318v27.956h44.318v-27.956Z" fill="#263238"/><path d="m131.237 192.199 1.083 2.183 2.389.34-1.736 1.7.418 2.38-2.154-1.125-2.141 1.125.418-2.38-1.737-1.7 2.389-.34 1.071-2.183ZM138.194 191.349l.561 1.124 1.228.183-.888.863.209 1.23-1.11-.576-1.096.576.208-1.23-.9-.863 1.24-.183.548-1.124ZM139.696 197.024l.548 1.124 1.24.17-.901.876.209 1.229-1.096-.575-1.11.575.209-1.229-.888-.876 1.227-.17.562-1.124ZM136.014 200.737l.548 1.111 1.24.183-.887.877.209 1.229-1.11-.589-1.097.589.209-1.229-.9-.877 1.24-.183.548-1.111ZM130.91 202.437l.548 1.111 1.24.183-.887.876.209 1.229-1.11-.575-1.097.575.209-1.229-.9-.876 1.24-.183.548-1.111Z" fill="#fff"/></g></g><g><path d="M397.106 102.004a54.3 54.3 0 0 0-15.859-38.351 54.147 54.147 0 0 0-17.567-11.757 54.074 54.074 0 0 0-20.722-4.129h-18.85a54.103 54.103 0 0 0-38.288 15.886 54.281 54.281 0 0 0-15.86 38.351" stroke="#263238" stroke-width="3" stroke-linecap="round" stroke-linejoin="round"/><path d="M397.106 142.172v-40.168M269.96 102.004v40.168" stroke="#263238" stroke-width="6" stroke-linecap="round" stroke-linejoin="round"/><path d="M308.848 202.437s3.381 23.653 2.703 29.733c-.679 6.08-2.024 12.16-18.889 5.4-16.866-6.76-47.217 5.414-66.785 29.054-19.568 23.641-56.654 102.708-56.654 112.161 0 9.454 7.415 22.229 20.887 24.321 13.471 2.092 45.192-36.481 45.192-36.481s13.485 76.348 13.485 82.375c0 6.028-6.044 45.948-6.044 45.948h190.902l-7.428-49.321 13.498-108.788s55.988 76.348 68.128 79.76c12.141 3.413 31.03-2.706 35.755-16.893 4.726-14.187-2.702-29.054-12.153-39.867-9.451-10.813-68.795-106.081-79.629-114.855-10.835-8.773-41.146-9.466-51.942-6.76-10.796 2.707-29.006 6.76-33.732 4.054-4.725-2.707-4.712-28.374 0-39.867.04.026-41.107 10.839-57.294.026Z" fill="#fff" stroke="#263238" stroke-linecap="round" stroke-linejoin="round"/><path d="M282.479 408.166a68.056 68.056 0 0 0 6.644 2.183M247.665 364.821s3.002 26.255 27.7 40.011M324.487 287.924l13.132 19.221M454.348 306.295l3.472-7.244M448.722 297.025l-9.008 39.867 11.07-23.131M489.163 368.861s14.255-9.153 28.288-9.153" stroke="#263238" stroke-linecap="round" stroke-linejoin="round"/><path d="M460.157 396.28a194.416 194.416 0 0 0 25.833-16.762 57.735 57.735 0 0 1 41.12-11.664c13.459 1.452 20.743 18.214 21.096 34.99.352 16.776-8.733 26.962-25.103 29.511-16.37 2.55-35.664-1.085-47.66-4.001a158.018 158.018 0 0 0-19.294-3.648s-15.639-24.059 4.008-28.426Z" fill="#fff" stroke="#263238" stroke-linecap="round" stroke-linejoin="round"/><path d="M548.207 402.844c-.353-16.776-7.637-33.538-21.095-34.99a57.732 57.732 0 0 0-41.12 11.664l-1.828 1.399c15.665.536 47.334 6.943 42.373 50.759 14.203-3.413 22.009-13.285 21.67-28.832ZM308.848 202.437s3.381 23.653 2.703 29.733c-.509 4.564-1.397 9.153-8.916 8.264 10.756 17.613 41.994 58.957 71.144 2.615-3.394.209-6.135 0-7.597-.811-4.713-2.706-4.713-28.373 0-39.867 0 .066-41.147 10.879-57.334.066Z" fill="#fff" stroke="#263238" stroke-linecap="round" stroke-linejoin="round"/><path d="M308.848 202.437s.874 6.145 1.644 12.971a59.693 59.693 0 0 0 25.325 6.903 48.835 48.835 0 0 0 27.557-7.989 48.964 48.964 0 0 1 2.807-11.885s-41.146 10.813-57.333 0ZM271.775 120.663h-3.72c-4.571 0-8.277 3.711-8.277 8.29v31.721c0 4.578 3.706 8.29 8.277 8.29h3.72c4.571 0 8.276-3.712 8.276-8.29v-31.721c0-4.579-3.705-8.29-8.276-8.29Z" fill="#263238" stroke="#263238" stroke-linecap="round" stroke-linejoin="round"/><path d="M271.984 120.702h-4.151v48.222h4.151v-48.222Z" fill="#fff" stroke="#263238" stroke-linecap="round" stroke-linejoin="round"/><path d="M399.339 120.663h-3.72c-4.571 0-8.277 3.711-8.277 8.29v31.721c0 4.578 3.706 8.29 8.277 8.29h3.72c4.571 0 8.276-3.712 8.276-8.29v-31.721c0-4.579-3.705-8.29-8.276-8.29Z" fill="#263238" stroke="#263238" stroke-linecap="round" stroke-linejoin="round"/><path d="M399.56 120.702h-4.151v48.222h4.151v-48.222ZM238.044 158.804a9.516 9.516 0 0 0-7.559 5.047c-3.028 5.047-12.597 23.719-11.591 29.276 1.005 5.557 42.83 44.914 42.83 47.438 0 2.523-33.249 47.948-55.428 68.136-22.178 20.189-39.801 42.888-42.83 61.062-3.028 18.175 7.559 33.304 18.654 36.337 11.096 3.034 24.686-3.53 40.298-23.222 15.613-19.692 58.456-105.48 65.009-134.677 0 0 1.501-13.076-4.543-20.699-6.044-7.623-21.16-25.235-21.16-25.235s3.028-34.82.509-37.344c-2.52-2.523-5.039 3.034-5.039 3.034s-2.337-11.677-5.548-11.114c-3.512.627-4.53 5.047-4.53 5.047s-2.519-10.16-9.072-3.086Z" fill="#fff" stroke="#263238" stroke-linecap="round" stroke-linejoin="round"/><path d="M257.194 167.891s-7.232 28.989-6.527 33.879M247.116 161.824s-7.663 28.191-8.642 32.114a9.678 9.678 0 0 0 1.227 7.597M238.043 158.804s-10.821 30.23-10.821 33.421c0 3.19 2.454 7.1 2.454 7.1" stroke="#263238" stroke-linecap="round" stroke-linejoin="round"/><path d="M228.41 285.126a265.748 265.748 0 0 1-22.114 23.536c-22.191 20.175-39.801 42.887-42.83 61.062-3.028 18.175 7.559 33.303 18.654 36.337 11.096 3.033 24.686-3.531 40.298-23.222 8.994-11.324 26.983-44.535 41.89-76.269-22.714-6.041-32.086-15.456-35.898-21.444ZM279.607 95.636s-.874 70.255 1.763 83.435c2.637 13.18 26.303 35.565 53.521 36.441 27.218.876 48.665-24.15 51.289-37.33 2.624-13.18 0-65.861-.431-86.939-.431-21.078-30.69-39.958-61.353-35.134-30.664 4.825-46.538 22.83-44.789 39.527Z" fill="#fff" stroke="#263238" stroke-linecap="round" stroke-linejoin="round"/><path d="M346.248 124.18s1.749 12.291 3.511 14.919c1.763 2.628 4.817 6.159-1.305 8.787-6.122 2.628-10.965-.445-10.965-3.517" stroke="#263238" stroke-linecap="round" stroke-linejoin="round"/><path d="M352.826 167.643s-23.679 3.034-34.201-7.427c0 0 2.611 16.253 10.522 18.894 7.91 2.641 23.679-11.467 23.679-11.467Z" fill="#fff" stroke="#263238" stroke-linecap="round" stroke-linejoin="round"/><path d="m322.137 124.612 2.193 7.021" stroke="#263238" stroke-linecap="round" stroke-linejoin="round"/><path d="M312.491 131.202s6.135 3.922 17.531.431" stroke="#263238" stroke-width="2" stroke-linecap="round" stroke-linejoin="round"/><path d="m365.098 124.612 2.193 7.021" stroke="#263238" stroke-linecap="round" stroke-linejoin="round"/><path d="M355.451 131.202s6.136 3.922 17.545.431M309.423 112.321a23.008 23.008 0 0 1 8.117-6.786 22.966 22.966 0 0 1 10.29-2.432M351.509 102.213s12.714-3.504 21.487 6.538" stroke="#263238" stroke-width="2" stroke-linecap="round" stroke-linejoin="round"/><path d="M335.126 120.99a12.156 12.156 0 0 1-.156 12.526l-.248.392a20.423 20.423 0 0 1-7.415 7.066 20.382 20.382 0 0 1-9.908 2.571h-2.741a15.898 15.898 0 0 1-13.759-7.937v0a13.255 13.255 0 0 1-.757-11.768 13.175 13.175 0 0 1 11.331-8.067l12.479-.785a12.055 12.055 0 0 1 6.437 1.414 12.084 12.084 0 0 1 4.737 4.588v0ZM349.485 120.99a12.153 12.153 0 0 0 .157 12.526l.248.392a20.415 20.415 0 0 0 7.415 7.066 20.382 20.382 0 0 0 9.908 2.571h2.741a15.894 15.894 0 0 0 7.938-2.127 15.923 15.923 0 0 0 5.821-5.81v0a13.202 13.202 0 0 0 .757-11.768v0a13.178 13.178 0 0 0-11.331-8.067l-12.466-.785a12.09 12.09 0 0 0-11.188 6.002v0ZM336.601 123.291s3.916-3.073 11.396 0M331.341 116.714h21.487M300.115 123.827h-20.508" stroke="#263238" stroke-linecap="round" stroke-linejoin="round"/><path d="M358.088 77.187s11.357 36.533 28.602 45.973c-.379-12.526-.823-24.294-.98-31.917-.443-21.078-30.689-39.958-61.353-35.134-30.664 4.825-46.472 22.83-44.723 39.527 0 0-.144 11.468-.131 26.021 14.803-6.394 53.783-24.203 78.585-44.47Z" fill="#263238"/><g stroke="#737373" stroke-linecap="round" stroke-linejoin="round"><path d="M276.566 112.059s57.503-24.15 88.585-54.812M271.919 92.55s60.296-13.938 95.085-50.64M369.315 61.418s.927 23.693 25.977 45.529"/></g><path d="M362.788 208.844s0 15.926-11.919 41.305c-11.918 25.38-12.427 50.759-4.477 69.666 7.95 18.907 29.319 26.386 52.216 17.927 22.896-8.46 25.834-46.288 23.353-69.183-2.48-22.895-24.802-49.765-29.815-63.206-5.013-13.442-8.446-20.398-8.446-20.398s-12.923 17.913-20.886 21.888l-.026 2.001Z" fill="#263238"/><g stroke="#737373" stroke-linecap="round" stroke-linejoin="round"><path d="M371.168 191.035a125.206 125.206 0 0 1-8.342 64.07c-13.915 33.447-3.25 69.221 12.989 76.648 16.239 7.427 31.995 4.655 39.88-5.57"/><path d="M377.199 183.608s15.769 37.161 9.281 65.037c-6.488 27.877-3.707 63.246 15.769 70.15 19.477 6.904 30.612-6.904 30.612-6.904"/><path d="M396.218 207.758s13.445 51.099 13.445 77.577 16.24 22.307 20.417 9.297"/></g><path d="M362.788 208.844s0 15.926-11.919 41.305c-11.918 25.38-12.427 50.759-4.477 69.666 7.95 18.907 29.319 26.386 52.216 17.927 22.896-8.46 25.834-46.288 23.353-69.183-2.48-22.895-24.802-49.765-29.815-63.206-5.013-13.442-8.446-20.398-8.446-20.398s-12.923 17.913-20.886 21.888l-.026 2.001Z" stroke="#263238" stroke-linecap="round" stroke-linejoin="round"/><path d="m424.103 349.715-84.756-3.424c-3.739-.151-6.892 2.762-7.043 6.507l-4.721 117.217c-.15 3.745 2.758 6.904 6.497 7.055l84.756 3.424c3.738.151 6.891-2.762 7.042-6.507l4.721-117.218c.151-3.744-2.758-6.903-6.496-7.054Z" fill="#263238" stroke="#263238" stroke-linecap="round" stroke-linejoin="round"/><path d="M467.285 397.13s-43.392-13.52-50.793-15.795c-7.402-2.275-50.036 29.616-51.733 34.166-1.697 4.551 4.543 4.564 4.543 4.564s-2.611 4.55 1.305 6.825a23.444 23.444 0 0 0 3.916 2.131s-2.271 5.126 2.272 6.839c4.542 1.713 10.808-2.851 10.808-2.851l10.235-7.4s-12.297 15.076-9.673 18.227c3.616 4.315 5.926-.314 5.926-.314l14.138-16.776 14.202-6.838s11.37 6.838 29.568 7.4c18.197.563 22.191-7.4 22.191-7.4" fill="#fff"/><path d="M467.285 397.13s-43.392-13.52-50.793-15.795c-7.402-2.275-50.036 29.616-51.733 34.166-1.697 4.551 4.543 4.564 4.543 4.564s-2.611 4.55 1.305 6.825a23.444 23.444 0 0 0 3.916 2.131s-2.271 5.126 2.272 6.839c4.542 1.713 10.808-2.851 10.808-2.851l10.235-7.4s-12.297 15.076-9.673 18.227c3.616 4.315 5.926-.314 5.926-.314l14.138-16.776 14.202-6.838s11.37 6.838 29.568 7.4c18.197.563 22.191-7.4 22.191-7.4" stroke="#263238" stroke-linecap="round" stroke-linejoin="round"/><path d="M374.614 429.021s15.939-10.957 19.908-14.919c3.968-3.962 16.826-12.238 20.795-12.238M397.929 425.648s7.833-8.865 10.783-10.186c2.95-1.321 7.258-3.308 7.258-3.308M369.302 420.065s22.192-15.691 29.789-20.307a107.212 107.212 0 0 1 14.19-7.283" stroke="#263238" stroke-linecap="round" stroke-linejoin="round"/></g></svg>