<svg fill="none" xmlns="http://www.w3.org/2000/svg" viewBox="0 0 408 274"><path d="M218.688 118.412a26.32 26.32 0 0 0-16.942-4.431 26.382 26.382 0 0 0-15.983 7.188 26.731 26.731 0 0 0-8.036 15.664 26.83 26.83 0 0 0 3.425 17.292M228.099 129.722a27.47 27.47 0 0 0-1.785-3.381M225.841 155.424a26.868 26.868 0 0 0 4.02-9.78c.68-3.496.66-7.095-.059-10.584M177.622 114.05a38.103 38.103 0 0 0-4.815 5.962" stroke="#263238" stroke-width=".97" stroke-linecap="round" stroke-linejoin="round"/><path d="M233.278 163.43a37.616 37.616 0 0 0 7.744-24.296 37.58 37.58 0 0 0-9.513-23.65 37.083 37.083 0 0 0-22.348-12.015 36.942 36.942 0 0 0-24.799 5.205M174.45 163.43a37.665 37.665 0 0 1-7.197-16.366 37.797 37.797 0 0 1 1.147-17.862M162.803 172.894a52.529 52.529 0 0 0 7.822 8.099" stroke="#263238" stroke-width=".97" stroke-linecap="round" stroke-linejoin="round"/><path d="M233.408 97.177a51.907 51.907 0 0 0-31.719-9.148 51.965 51.965 0 0 0-30.827 11.847 52.626 52.626 0 0 0-17.612 28.106 52.933 52.933 0 0 0 2.644 33.13M252.557 121.535a52.634 52.634 0 0 0-5.369-10.351M239.958 178.489a52.396 52.396 0 0 0 11.925-17.319 52.72 52.72 0 0 0 4.183-20.652M130.995 140.518c0 17.438 6.13 34.313 17.302 47.633 11.173 13.321 26.667 22.225 43.735 25.136" stroke="#263238" stroke-width=".97" stroke-linecap="round" stroke-linejoin="round"/><path d="M262.752 184.429a74.173 74.173 0 0 0 14.322-41.917 74.225 74.225 0 0 0-12.096-42.624c-8.272-12.623-20.193-22.383-34.152-27.958a72.778 72.778 0 0 0-43.891-3.21M130.995 140.518c.001-16.543 5.518-32.606 15.666-45.612S171 72.705 186.956 68.796M247.188 200.02a73.067 73.067 0 0 0 5.369-4.384M216.083 213.287a72.427 72.427 0 0 0 23.713-8.439" stroke="#263238" stroke-width=".97" stroke-linecap="round" stroke-linejoin="round"/><path d="M203.896 206.678a27.91 27.91 0 0 1-19.777-8.266 28.327 28.327 0 0 1-8.206-19.923v-9.491c0-.407.161-.798.446-1.085.286-.288.673-.45 1.077-.45h3.808c.404 0 .792.162 1.077.45a1.539 1.539 0 0 1 0 2.17 1.519 1.519 0 0 1-1.077.449h-2.268v7.957a25.214 25.214 0 0 0 7.304 17.763 24.843 24.843 0 0 0 17.633 7.357 24.846 24.846 0 0 0 17.633-7.357 25.218 25.218 0 0 0 7.304-17.763v-7.957h-2.285a1.52 1.52 0 0 1-1.077-.449 1.539 1.539 0 0 1 1.077-2.62h3.808c.404 0 .791.162 1.077.45.286.287.446.678.446 1.085v9.491a28.331 28.331 0 0 1-8.211 19.929 27.914 27.914 0 0 1-19.789 8.26ZM233.403 230.264v-3.069c0-.403-.078-.802-.231-1.175a3.056 3.056 0 0 0-1.649-1.661 3.015 3.015 0 0 0-1.167-.232h-52.92a3.019 3.019 0 0 0-2.156.897 3.072 3.072 0 0 0-.89 2.171v3.069h59.013Z" fill="#263238"/><path d="M206.867 227.864a3.01 3.01 0 0 0 .076-.669v-22.051h-6.093v22.051c0 .225.026.45.076.669h5.941Z" fill="#263238"/><path d="M222.741 140.518a19.124 19.124 0 0 0-1.342-7.365 18.996 18.996 0 0 0-4.064-6.27 18.835 18.835 0 0 0-6.154-4.199 18.72 18.72 0 0 0-14.574 0 18.835 18.835 0 0 0-6.154 4.199 18.996 18.996 0 0 0-4.064 6.27 19.124 19.124 0 0 0-1.342 7.365v37.971a19.06 19.06 0 0 0 5.632 13.218 18.78 18.78 0 0 0 13.215 5.448 18.78 18.78 0 0 0 13.215-5.448 19.06 19.06 0 0 0 5.632-13.218v-37.971Z" stroke="#263238" stroke-width=".97" stroke-linecap="round" stroke-linejoin="round"/><path d="M222.741 140.518a19.124 19.124 0 0 0-1.342-7.365 18.996 18.996 0 0 0-4.064-6.27 18.835 18.835 0 0 0-6.154-4.199 18.72 18.72 0 0 0-14.574 0 18.835 18.835 0 0 0-6.154 4.199 18.996 18.996 0 0 0-4.064 6.27 19.124 19.124 0 0 0-1.342 7.365v37.971a19.06 19.06 0 0 0 5.632 13.218 18.78 18.78 0 0 0 13.215 5.448 18.78 18.78 0 0 0 13.215-5.448 19.06 19.06 0 0 0 5.632-13.218v-37.971Z" fill="#E8E8E8"/><path d="M196.09 142.518h-11.043v4.604h11.043c.606 0 1.187-.243 1.616-.675a2.31 2.31 0 0 0 0-3.255 2.28 2.28 0 0 0-1.616-.674ZM222.741 142.518h-11.038c-.606 0-1.187.243-1.615.674a2.31 2.31 0 0 0 0 3.255 2.273 2.273 0 0 0 1.615.675h11.038v-4.604ZM203.897 142.518c-.452 0-.894.135-1.27.388a2.306 2.306 0 0 0-.971 2.363c.088.446.305.856.625 1.178.32.322.727.541 1.17.63.443.089.902.044 1.32-.131a2.29 2.29 0 0 0 1.025-.847 2.317 2.317 0 0 0-.284-2.907 2.277 2.277 0 0 0-1.615-.674ZM203.897 151.823c-.452 0-.894.135-1.27.388a2.306 2.306 0 0 0-.971 2.363 2.299 2.299 0 0 0 1.795 1.808c.443.089.902.044 1.32-.131a2.29 2.29 0 0 0 1.025-.847 2.317 2.317 0 0 0-.284-2.907 2.277 2.277 0 0 0-1.615-.674ZM203.897 161.112c-.452 0-.894.135-1.27.388a2.3 2.3 0 0 0-.841 1.033 2.318 2.318 0 0 0 .495 2.508 2.27 2.27 0 0 0 3.515-.349 2.311 2.311 0 0 0-.284-2.906 2.272 2.272 0 0 0-1.615-.674ZM196.09 151.823h-11.043v4.604h11.043c.606 0 1.187-.243 1.616-.675a2.31 2.31 0 0 0 0-3.255 2.28 2.28 0 0 0-1.616-.674ZM222.741 151.823h-11.038c-.606 0-1.187.243-1.615.674a2.311 2.311 0 0 0 0 3.255 2.273 2.273 0 0 0 1.615.675h11.038v-4.604ZM196.09 161.112h-11.043v4.603h11.043c.606 0 1.187-.242 1.616-.674a2.312 2.312 0 0 0 0-3.255 2.277 2.277 0 0 0-1.616-.674ZM222.741 161.112h-11.038c-.606 0-1.187.242-1.615.674a2.31 2.31 0 0 0 0 3.255 2.272 2.272 0 0 0 1.615.674h11.038v-4.603Z" fill="#fff"/><path d="M222.741 140.518a19.124 19.124 0 0 0-1.342-7.365 18.996 18.996 0 0 0-4.064-6.27 18.835 18.835 0 0 0-6.154-4.199 18.72 18.72 0 0 0-14.574 0 18.835 18.835 0 0 0-6.154 4.199 18.996 18.996 0 0 0-4.064 6.27 19.124 19.124 0 0 0-1.342 7.365v37.971a19.06 19.06 0 0 0 5.632 13.218 18.78 18.78 0 0 0 13.215 5.448 18.78 18.78 0 0 0 13.215-5.448 19.06 19.06 0 0 0 5.632-13.218v-37.971Z" stroke="#263238" stroke-width=".97" stroke-miterlimit="10"/><path d="M185.047 178.489a19.056 19.056 0 0 0 5.632 13.218 18.78 18.78 0 0 0 13.215 5.448c4.944 0 9.689-1.957 13.215-5.448a19.06 19.06 0 0 0 5.632-13.218h-37.694Z" fill="#263238" stroke="#263238" stroke-width=".97" stroke-miterlimit="10"/><path d="M363.761 168.925c23.535-23.707 23.535-62.145 0-85.853-23.534-23.708-61.692-23.708-85.226 0-23.535 23.708-23.535 62.146 0 85.853 23.534 23.708 61.692 23.708 85.226 0Z" fill="#E8E8E8"/><path d="M312.506 100.881h-42.1c-2.121 0-3.841 1.733-3.841 3.869v42.41c0 2.137 1.72 3.869 3.841 3.869h42.1c2.121 0 3.841-1.732 3.841-3.869v-42.41c0-2.136-1.72-3.869-3.841-3.869Z" fill="#fff"/><g opacity=".1" fill="#000"><path opacity=".1" d="M271.26 151.034h16.614l10.586-50.153h-17.288l-10.57 50.099c.218.034.438.053.658.054ZM305.5 100.881h-4.156l-10.581 50.153h4.156l10.581-50.153Z"/></g><path d="M311.652 152.284H271.26a5.921 5.921 0 0 1-4.19-1.751 6.007 6.007 0 0 1-1.745-4.217v-40.705a6.016 6.016 0 0 1 1.741-4.225 5.929 5.929 0 0 1 4.194-1.754h40.392a5.927 5.927 0 0 1 4.197 1.752 6.016 6.016 0 0 1 1.743 4.227v40.705a6.008 6.008 0 0 1-1.747 4.219 5.924 5.924 0 0 1-4.193 1.749Zm-40.392-50.148c-.915 0-1.793.366-2.441 1.018a3.493 3.493 0 0 0-1.014 2.457v40.705a3.5 3.5 0 0 0 1.012 2.463 3.445 3.445 0 0 0 2.443 1.022h40.392a3.434 3.434 0 0 0 2.444-1.021 3.495 3.495 0 0 0 1.01-2.464v-40.705a3.49 3.49 0 0 0-1.012-2.459 3.442 3.442 0 0 0-2.442-1.016H271.26Z" fill="#fff" stroke="#263238" stroke-width=".933" stroke-miterlimit="10"/><path d="M371.057 100.881h-42.1c-2.121 0-3.841 1.733-3.841 3.869v42.41c0 2.137 1.72 3.869 3.841 3.869h42.1c2.121 0 3.841-1.732 3.841-3.869v-42.41c0-2.136-1.72-3.869-3.841-3.869Z" fill="#fff"/><g opacity=".1" fill="#000"><path opacity=".1" d="M334.157 151.034h16.614l10.581-50.153h-17.283l-10.597 50.099c.226.035.456.054.685.054ZM368.396 100.881h-4.156l-10.586 50.153h4.161l10.581-50.153Z"/></g><path d="M370.203 152.284h-40.392a5.923 5.923 0 0 1-4.19-1.751 6.012 6.012 0 0 1-1.745-4.217v-40.705a6.016 6.016 0 0 1 1.741-4.225 5.929 5.929 0 0 1 4.194-1.754h40.392a5.926 5.926 0 0 1 4.197 1.752 6.013 6.013 0 0 1 1.744 4.227v40.705a6.009 6.009 0 0 1-1.748 4.219 5.924 5.924 0 0 1-4.193 1.749Zm-40.392-50.148c-.915 0-1.793.366-2.441 1.018a3.492 3.492 0 0 0-1.013 2.457v40.705a3.5 3.5 0 0 0 1.011 2.463 3.447 3.447 0 0 0 2.443 1.022h40.392a3.434 3.434 0 0 0 2.445-1.021 3.48 3.48 0 0 0 1.009-2.464v-40.705a3.49 3.49 0 0 0-1.012-2.459 3.427 3.427 0 0 0-2.442-1.016h-40.392Z" fill="#fff" stroke="#263238" stroke-width=".933" stroke-miterlimit="10"/><path d="M322.777 243.022c14.971 0 27.107-1.799 27.107-4.017 0-2.219-12.136-4.017-27.107-4.017s-27.108 1.798-27.108 4.017c0 2.218 12.137 4.017 27.108 4.017Z" fill="#E8E8E8"/><path d="M334.756 215.605s-.071 11.251-1.251 13.103c-1.409 2.192-2.41 5.255 1.321 6.088 3.732.833 5.952 4.981 10.396 5.255 4.445.274 4.896-1.644 2.96-3.184-1.937-1.539-6.855-5.808-7.502-7.885-.647-2.077.609-13.377.609-13.377h-6.533Z" fill="#fff"/><path opacity=".1" d="M340.696 222.137c.24-3.315.593-6.532.593-6.532h-6.528s0 2.877-.19 5.962a36.68 36.68 0 0 0 6.125.57Z" fill="#000"/><path d="M334.756 215.605s-.071 11.251-1.251 13.103c-1.409 2.192-2.41 5.255 1.321 6.088 3.732.833 5.952 4.981 10.396 5.255 4.445.274 4.896-1.644 2.96-3.184-1.937-1.539-6.855-5.808-7.502-7.885-.647-2.077.609-13.377.609-13.377h-6.533Z" stroke="#263238" stroke-width=".933" stroke-linecap="round" stroke-linejoin="round"/><path d="M348.16 236.867a55.53 55.53 0 0 1-5.157-4.674c-1.55 1.184-6.093.066-7.431-.997-1.632-1.294-1.289-1.957-2.062-2.538l-.027.05c-1.409 2.192-2.41 5.255 1.322 6.088 3.732.833 5.951 4.981 10.396 5.255 4.444.274 4.907-1.671 2.959-3.184Z" fill="#BFBFBF" stroke="#263238" stroke-width=".933" stroke-miterlimit="10"/><path d="M309.661 211.528s-4.896 10.292-6.745 11.546c-2.236 1.502-4.456 3.919-1.393 6.072 3.063 2.154 3.335 6.79 7.289 8.702 3.955 1.913 5.19.296 4.075-1.813-1.115-2.11-3.808-7.886-3.509-10.034.299-2.148 6.322-12.281 6.322-12.281l-6.039-2.192Z" fill="#fff"/><path opacity=".1" d="M309.661 211.528s-1.751 3.694-3.552 6.921a19.196 19.196 0 0 0 4.961 3.579c1.877-3.661 4.63-8.291 4.63-8.291l-6.039-2.209Z" fill="#000"/><path d="M309.661 211.528s-4.896 10.292-6.745 11.546c-2.236 1.502-4.456 3.919-1.393 6.072 3.063 2.154 3.335 6.79 7.289 8.702 3.955 1.913 5.19.296 4.075-1.813-1.115-2.11-3.808-7.886-3.509-10.034.299-2.148 6.322-12.281 6.322-12.281l-6.039-2.192Z" stroke="#263238" stroke-width=".933" stroke-linecap="round" stroke-linejoin="round"/><path d="M312.887 236.007a51.193 51.193 0 0 1-2.72-6.214c-1.931.509-5.946-2.094-6.387-3.683-.854-3.063-.348-2.274-.81-3.096l-.044.033c-2.236 1.501-4.455 3.918-1.392 6.072 3.062 2.153 3.334 6.789 7.289 8.702 3.955 1.913 5.179.296 4.064-1.814Z" fill="#BFBFBF" stroke="#263238" stroke-width=".933" stroke-miterlimit="10"/><path d="M335.545 138.704s7.491 36.168 7.991 47.967c.501 11.798-1.447 32.841-1.447 32.841l-8.317-.548s-.055-6.219-.887-14.878c-.495-5.146-2.051-11.152-1.877-17.224 0 0-7.904-23.613-7.616-33.976.288-10.362 0-13.343 0-13.343l12.153-.839Z" fill="#263238" stroke="#263238" stroke-width=".933" stroke-linecap="round" stroke-linejoin="round"/><path d="M315.52 138.704s-7.768 6.467-3.264 19.504c1.773 5.173 8.617 28.835 8.617 28.835a33.051 33.051 0 0 0-4.733 7.152c-3.122 6.214-5.396 15.892-9.248 21.443l5.701 3.874s18.409-23.246 19.584-30.627c1.175-7.382-4.352-36.897-4.352-36.897l-1.768-11.996-10.537-1.288Z" fill="#263238" stroke="#263238" stroke-width=".933" stroke-linecap="round" stroke-linejoin="round"/><path d="M349.972 114.192a7.293 7.293 0 0 0-1.192-3.425 14.277 14.277 0 0 0 1.474-2.422c.414-1.003-.136-2.422-1.283-.723-1.148 1.699-2.41 2.937-1.953 5.058a5.951 5.951 0 0 1-.697 3.984l2.65 2.088 5.282-4.22-4.281-.34Z" fill="#fff" stroke="#263238" stroke-width=".933" stroke-linecap="round" stroke-linejoin="round"/><path d="m352.46 103.352-4.441 1.217a.772.772 0 0 0-.539.948l2.531 9.376a.766.766 0 0 0 .941.542l4.441-1.216a.773.773 0 0 0 .539-.948l-2.531-9.376a.766.766 0 0 0-.941-.543Z" fill="#263238" stroke="#263238" stroke-width=".933" stroke-linecap="round" stroke-linejoin="round"/><path d="m353.433 104.012-5.921 1.621 2.469 9.149 5.921-1.622-2.469-9.148Z" fill="#E8E8E8" stroke="#263238" stroke-width=".933" stroke-linecap="round" stroke-linejoin="round"/><path d="M352.245 107.178a1.097 1.097 0 0 0-.501-.672 1.088 1.088 0 0 0-1.493.388 1.1 1.1 0 0 0-.116.832c.07.274.424 1.562.544 2.017l2.11-.576c-.119-.422-.478-1.759-.544-1.989ZM352.05 110.652a1.09 1.09 0 0 0 .633-.468c.146-.23.201-.507.156-.776l-2.095.548c.091.26.276.477.518.606s.523.161.788.09Z" fill="#263238"/><path d="m354.019 111.792-1.371.378-.283-1.041c.39-.153.71-.446.899-.822.189-.376.233-.81.124-1.217l-.153-.548a.085.085 0 0 0-.04-.056.093.093 0 0 0-.033-.012.069.069 0 0 0-.035.003l-.229.06a.089.089 0 0 0-.06.115.086.086 0 0 0 .015.032c.007.01.015.018.026.025.01.006.021.01.033.011a.082.082 0 0 0 .035-.002l.136-.039.125.466a1.545 1.545 0 0 1-.147 1.158c-.099.174-.23.326-.388.448a1.503 1.503 0 0 1-2.123-.273 1.528 1.528 0 0 1-.263-.533l-.131-.466.136-.032a.102.102 0 0 0 .055-.045.104.104 0 0 0 .011-.071.092.092 0 0 0-.044-.056.082.082 0 0 0-.034-.012.078.078 0 0 0-.037.003l-.223.06a.092.092 0 0 0-.056.044.104.104 0 0 0-.012.035.11.11 0 0 0 .003.036l.152.548c.111.407.366.758.717.986.352.229.774.319 1.187.253l.278 1.041-1.371.372a.19.19 0 0 0-.136.158.2.2 0 0 0 .005.073l.049.18 3.46-.948-.049-.18a.176.176 0 0 0-.032-.066.17.17 0 0 0-.055-.048.166.166 0 0 0-.069-.023.175.175 0 0 0-.072.005Z" fill="#263238"/><path d="M354.579 106.148c-.544.06-.995.92-.827 2.131.169 1.211 1.273-.104 1.338-.487.066-.384.528-1.749-.511-1.644ZM355.776 107.956a.966.966 0 0 0-.954.74.989.989 0 0 0-.009.433c.103 1.178.332.904.332.904.005.485.103.965.288 1.414.272.52.99-.269.99-.74s-.076-2.948-.647-2.751Z" fill="#fff" stroke="#263238" stroke-width=".933" stroke-linecap="round" stroke-linejoin="round"/><path d="M355.15 110.011s.942-.28 1.165-.97l-1.165.97Z" fill="#fff"/><path d="M355.15 110.011s.942-.28 1.165-.97" stroke="#263238" stroke-width=".933" stroke-linecap="round" stroke-linejoin="round"/><path d="M346.974 114.992a5.367 5.367 0 0 0 .044-2.312c-.457-2.121.799-3.365 1.953-5.058 1.153-1.694 1.697-.28 1.283.723-.41.855-.904 1.666-1.474 2.422a6.087 6.087 0 0 1 1.192 3.425v1.595" fill="#fff"/><path d="M346.974 114.992a5.367 5.367 0 0 0 .044-2.312c-.457-2.121.799-3.365 1.953-5.058 1.153-1.694 1.697-.28 1.283.723-.41.855-.904 1.666-1.474 2.422a6.087 6.087 0 0 1 1.192 3.425v1.595" stroke="#263238" stroke-width=".933" stroke-linecap="round" stroke-linejoin="round"/><path d="M332.384 101.747c1.893-.4 2.475-.888 2.475-.888-1.419-5.76 3.672-25.13-12.375-26.024-16.048-.893-7.072 26.556-7.072 26.556l1.746.225-.898-5.519 2.089 5.656c6.18.674 10.14.548 12.632.23a31.072 31.072 0 0 1-.104-7.508 48.04 48.04 0 0 0 1.507 7.272Z" fill="#263238"/><path d="M322.478 75.18a3.877 3.877 0 0 0-4.809-.548" stroke="#263238" stroke-width=".933" stroke-linecap="round" stroke-linejoin="round"/><path d="M334.701 105.259v-.175c-.032.077-.065.131 0 .175Z" fill="#fff" stroke="#263238" stroke-width=".933" stroke-linecap="round" stroke-linejoin="round"/><path d="m346.321 116.664-7.616 7.124.142-10.675a9.633 9.633 0 0 0-1.104-4.63 9.534 9.534 0 0 0-3.183-3.519l.288 28.096c7.48.477 14.144-14.308 14.144-14.308a4.098 4.098 0 0 0-2.671-2.088Z" fill="#fff"/><path opacity=".1" d="M337.536 129.613c-1.132.104-1.388-2.077-1.371-4.198a9.8 9.8 0 0 0-.626 2.488 118.018 118.018 0 0 0-.06 6.861c8.519-3.891 8.623-7.359 10.81-10.899-1.393 1.781-6.572 5.545-8.753 5.748Z" fill="#000"/><path d="m346.321 116.664-7.616 7.124.142-10.675a9.633 9.633 0 0 0-1.104-4.63 9.534 9.534 0 0 0-3.183-3.519l.288 28.096c7.48.477 14.144-14.308 14.144-14.308a4.098 4.098 0 0 0-2.671-2.088v0Z" stroke="#263238" stroke-width=".933" stroke-linecap="round" stroke-linejoin="round"/><path d="m344.706 117.584 1.67-1.594 3.661 2.531-1.066 1.787-4.265-2.724Z" fill="#E8E8E8" stroke="#263238" stroke-width=".933" stroke-linecap="round" stroke-linejoin="round"/><path d="M337.568 118.368c-3.068 13.7-1.544 22.704-1.544 22.704s-7.404 5.288-22.968.805c0 0 2.829-7.085 2.067-12.489-.462-3.326-3.563-15.283-3.563-15.283s-1.469-5.228-.794-9.448c1.3-.849 4.085-1.874 9.008-2.236.082-.277.138-.561.169-.849.156-1.394.191-2.798.103-4.198-.07-1.644-.207-2.954-.207-2.954h5.941s.076 1.513.267 3.288c.103 1.047.25 2.192.435 3.179.092.494.21.982.353 1.463 5.93.899 8.16 2.455 8.59 3.809 2.018 6.104 2.796 9.283 2.143 12.209Z" fill="#fff" stroke="#263238" stroke-width=".933" stroke-linecap="round" stroke-linejoin="round"/><path d="M326.063 98.673c-.485 1.096-1.088 1.962-3.183 1.951-1.556 0-2.959-1.387-3.117-1.918.169-1.2 0-1.644-.071-3.003 2.001-.057 4.003.06 5.984.35.085.88.214 1.754.387 2.62Z" fill="#263238"/><path d="M330.012 86.94v-1.31c-.441-2.126-3.052-2.235-4.254-2.23a9.187 9.187 0 0 1-3.71-.652 5.343 5.343 0 0 0 1.844 2.313c-4.472-1.003-4.82-3.382-4.651-4.664-1.589 5.595-3.651 5.83-3.651 5.83s0 .5.093 1.305a2.274 2.274 0 0 0-1.329.883 2.3 2.3 0 0 0-.428 1.545 2.276 2.276 0 0 0 .625 1.591c.406.428.963.68 1.551.7.117-.006.234-.023.348-.05.946 3.705 2.889 7.732 6.865 7.573 3.977-.159 5.598-4.334 6.24-8.105.118.011.236.011.354 0a2.236 2.236 0 0 0 1.507-.813 2.271 2.271 0 0 0 .5-1.647 2.305 2.305 0 0 0-.537-1.487 2.272 2.272 0 0 0-1.367-.782Z" fill="#fff" stroke="#263238" stroke-width=".933" stroke-linecap="round" stroke-linejoin="round"/><path d="m322.048 93.215.685.498a.5.5 0 0 0 .599 0l.631-.487M324.659 90.097s.849-1.13 2.541-.335M320.96 90.097s-.843-1.13-2.541-.335M324.692 95.204a2.835 2.835 0 0 1-3.346.137" stroke="#263238" stroke-width=".933" stroke-linecap="round" stroke-linejoin="round"/><path d="M331.878 190.085a18.354 18.354 0 0 1-.674 1.77M323.936 150.152l1.773 1.6a9.239 9.239 0 0 1 2.944 5.48c1.517 9.727 3.954 19.728 3.655 30.294" stroke="#fff" stroke-width=".933" stroke-linecap="round" stroke-linejoin="round"/><path d="m330.649 150.437-2.813 4.05.354-.499" stroke="#fff" stroke-width=".933" stroke-linecap="round" stroke-linejoin="round"/><path d="m319.535 134.189.805.833M313.708 122.708a28.12 28.12 0 0 0 4.439 9.716" stroke="#263238" stroke-width=".933" stroke-linecap="round" stroke-linejoin="round"/><path d="m313.865 85.65-.603.025.086 2.163.603-.025-.086-2.163ZM332.28 84.87l-.604.024.087 2.163.603-.024-.086-2.163Z" fill="#fff" stroke="#263238" stroke-width=".933" stroke-linecap="round" stroke-linejoin="round"/><path d="M322.391 75.832a9.879 9.879 0 0 0-6.758 3.072 10.028 10.028 0 0 0-2.752 6.935.36.36 0 0 0 .113.258.354.354 0 0 0 .263.098h.636a.358.358 0 0 0 .343-.367 8.655 8.655 0 0 1 2.406-5.934 8.532 8.532 0 0 1 5.808-2.62 8.519 8.519 0 0 1 5.997 2.143 8.646 8.646 0 0 1 2.871 5.72.355.355 0 0 0 .369.335h.637a.347.347 0 0 0 .253-.118.367.367 0 0 0 .09-.266 10.002 10.002 0 0 0-3.277-6.725 9.855 9.855 0 0 0-6.999-2.53ZM314.976 86.973h-.141a3.106 3.106 0 0 0-2.171 1.013 3.164 3.164 0 0 0 .181 4.448c.61.566 1.417.864 2.245.83h.136l-.25-6.29Z" fill="#E8E8E8" stroke="#263238" stroke-width=".933" stroke-linecap="round" stroke-linejoin="round"/><path d="M315.819 90.08c.093 2.335.256 3.836-.544 3.886-.799.049-1.136-1.475-1.229-3.837-.092-2.361.12-3.836.919-3.89.8-.055.762 1.507.854 3.841Z" fill="#fff" stroke="#263238" stroke-width=".933" stroke-linecap="round" stroke-linejoin="round"/><path d="M330.697 86.337h.142a3.1 3.1 0 0 1 2.244.832 3.14 3.14 0 0 1 1.003 2.188 3.147 3.147 0 0 1-1.812 2.984 3.1 3.1 0 0 1-1.185.287h-.142l-.25-6.29Z" fill="#E8E8E8" stroke="#263238" stroke-width=".933" stroke-linecap="round" stroke-linejoin="round"/><path d="M330.077 89.505c.093 2.334.055 3.836.854 3.836.8 0 1.012-1.562.92-3.896-.093-2.335-.43-3.836-1.224-3.809-.795.027-.642 1.534-.55 3.869Z" fill="#fff" stroke="#263238" stroke-width=".933" stroke-linecap="round" stroke-linejoin="round"/><path d="M317.244 88.025s2.073-1.726 4.037-.164M328.619 87.68s-2.176-1.55-4.036.164" stroke="#263238" stroke-width=".933" stroke-linecap="round" stroke-linejoin="round"/><path d="M318.991 101.66s1.24 3.134 5.842 3.836c0 0-1.838 3.836-4.352 2.329-3.008-1.798-3.585-5.53-3.585-5.53l2.095-.635Z" fill="#E8E8E8" stroke="#263238" stroke-width=".933" stroke-linecap="round" stroke-linejoin="round"/><path d="M327.423 102.049a3.568 3.568 0 0 1-.778 2.298 3.516 3.516 0 0 1-2.062 1.258s2.236 3.694 4.069 1.644c1.833-2.049.408-4.839.408-4.839l-1.637-.361ZM326.4 112.926a.55.55 0 0 1-.336.507.544.544 0 0 1-.711-.716.55.55 0 0 1 .503-.339.543.543 0 0 1 .544.548ZM327.14 123.716a.55.55 0 0 1-.336.507.544.544 0 0 1-.711-.716.544.544 0 0 1 1.047.209ZM327.836 134.764a.55.55 0 0 1-.336.506.537.537 0 0 1-.593-.118.555.555 0 0 1-.118-.598.547.547 0 0 1 .503-.338.543.543 0 0 1 .544.548Z" fill="#E8E8E8" stroke="#263238" stroke-width=".933" stroke-linecap="round" stroke-linejoin="round"/><path d="M375.774 61.294H265.548a.928.928 0 0 0-.924.931v2c0 .515.414.932.924.932h110.226c.51 0 .924-.417.924-.931v-2a.928.928 0 0 0-.924-.932Z" fill="#fff"/><path d="M375.589 65.157H265.733M265.733 61.294h109.856" stroke="#263238" stroke-width=".933" stroke-linecap="round" stroke-linejoin="round"/><path d="M299.929 87.29s-4.543-.64-4.787.587c-.245 1.228-.109 3.195.674 3.836 1.48 1.217 1.208 3.491 1.208 3.491l3.808-.373.098-1.918a3.895 3.895 0 0 1 1.017-1.644c1.371-1.298.827-2.74.593-4.477-.234-1.737-1.371-.964-1.463-.066-.028.802.038 1.604.195 2.39l-1.343-1.825Z" fill="#fff" stroke="#263238" stroke-width=".933" stroke-linecap="round" stroke-linejoin="round"/><path d="M300.995 88.979s-1.088.224-1.947 1.775l1.947-1.775Z" fill="#fff"/><path d="M300.995 88.979s-1.088.224-1.947 1.775" stroke="#263238" stroke-width=".933" stroke-linecap="round" stroke-linejoin="round"/><path d="M300.996 89.384h-5.506a2.383 2.383 0 0 1-1.98-.953 1.65 1.65 0 0 1 0-1.907l2.753-4.072a2.543 2.543 0 0 1 1.991-.97 2.527 2.527 0 0 1 1.991.97l2.758 4.072a1.65 1.65 0 0 1 0 1.907 2.387 2.387 0 0 1-2.007.953Zm-6.528-2.41a.857.857 0 0 0 0 .996 1.24 1.24 0 0 0 1.028.493h5.5a1.23 1.23 0 0 0 1.028-.493.856.856 0 0 0 0-.997l-2.753-4.066a1.245 1.245 0 0 0-1.039-.504 1.216 1.216 0 0 0-1.034.504l-2.758 4.072.028-.006Z" fill="#263238"/><path d="M296.594 87.346c.283 1.446.109 1.962-.544 1.885-.653-.077-1.311-1.852-.408-2.258.903-.406 1.632-.718 1.632-.718a2.104 2.104 0 0 1 1.893-.06c1.295-.455 1.523.493 1.523.493s.936 2.74.158 2.833c-.778.093-1.42-2.285-1.42-2.285s.974 2.608.082 2.652c-.893.044-1.409-2.531-1.409-2.531s.582 2.263-.261 2.34c-.844.076-1.246-2.351-1.246-2.351ZM298.65 64.121h-.892v17.991h.892v-17.99Z" fill="#fff" stroke="#263238" stroke-width=".933" stroke-linecap="round" stroke-linejoin="round"/><path d="m299.145 81.833-.582.86a.41.41 0 0 1-.321.157.407.407 0 0 1-.321-.157l-.576-.86c-.142-.203.038-.455.315-.455h1.165c.282 0 .456.274.32.455ZM298.721 75.794h-.952a.475.475 0 0 0-.473.477v3.989c0 .263.212.477.473.477h.952a.474.474 0 0 0 .473-.477v-3.99a.474.474 0 0 0-.473-.476ZM298.721 60.675h-.952a.475.475 0 0 0-.473.476v3.99c0 .263.212.477.473.477h.952a.474.474 0 0 0 .473-.477v-3.99a.474.474 0 0 0-.473-.476Z" fill="#fff" stroke="#263238" stroke-width=".933" stroke-linecap="round" stroke-linejoin="round"/><path d="M288.053 89.384h-5.505a2.376 2.376 0 0 1-1.98-.953 1.651 1.651 0 0 1 0-1.907l2.752-4.072a2.531 2.531 0 0 1 3.988 0l2.752 4.072a1.651 1.651 0 0 1 0 1.907 2.384 2.384 0 0 1-2.007.953Zm-6.528-2.41a.863.863 0 0 0 0 .996 1.246 1.246 0 0 0 1.028.494h5.506a1.246 1.246 0 0 0 1.033-.494.856.856 0 0 0 0-.997l-2.752-4.066a1.245 1.245 0 0 0-1.04-.504 1.218 1.218 0 0 0-1.033.504l-2.758 4.072.016-.006Z" fill="#263238"/><path d="M285.709 64.121h-.893v17.991h.893v-17.99Z" fill="#fff" stroke="#263238" stroke-width=".933" stroke-linecap="round" stroke-linejoin="round"/><path d="m286.204 81.833-.604.86a.405.405 0 0 1-.499.116.405.405 0 0 1-.143-.116l-.577-.86c-.141-.203.039-.455.316-.455h1.164c.283 0 .479.274.343.455ZM285.78 75.794h-.952a.475.475 0 0 0-.474.477v3.989c0 .263.212.477.474.477h.952a.475.475 0 0 0 .473-.477v-3.99a.475.475 0 0 0-.473-.476ZM285.78 60.675h-.952a.475.475 0 0 0-.474.476v3.99c0 .263.212.477.474.477h.952a.475.475 0 0 0 .473-.477v-3.99a.475.475 0 0 0-.473-.476Z" fill="#fff" stroke="#263238" stroke-width=".933" stroke-linecap="round" stroke-linejoin="round"/><path d="M344.14 89.384h-5.506a2.384 2.384 0 0 1-1.98-.954 1.65 1.65 0 0 1 0-1.906l2.753-4.072a2.543 2.543 0 0 1 1.991-.97 2.527 2.527 0 0 1 1.991.97l2.752 4.072a1.651 1.651 0 0 1 0 1.907 2.382 2.382 0 0 1-2.001.953Zm-6.528-2.41a.85.85 0 0 0 0 .996 1.232 1.232 0 0 0 1.028.494h5.505a1.235 1.235 0 0 0 1.028-.494.85.85 0 0 0 0-.997l-2.752-4.066a1.338 1.338 0 0 0-1.04-.505 1.32 1.32 0 0 0-1.039.505l-2.752 4.072.022-.006Z" fill="#263238"/><path d="M341.79 64.121h-.893v17.991h.893v-17.99Z" fill="#fff" stroke="#263238" stroke-width=".933" stroke-linecap="round" stroke-linejoin="round"/><path d="m342.285 81.833-.577.86a.401.401 0 0 1-.321.157.407.407 0 0 1-.32-.157l-.577-.86c-.142-.203.038-.455.315-.455h1.165c.277 0 .457.274.315.455ZM341.866 75.794h-.952a.475.475 0 0 0-.473.477v3.989c0 .263.212.477.473.477h.952a.474.474 0 0 0 .473-.477v-3.99a.474.474 0 0 0-.473-.476ZM341.866 60.675h-.952a.475.475 0 0 0-.473.476v3.99c0 .263.212.477.473.477h.952a.474.474 0 0 0 .473-.477v-3.99a.474.474 0 0 0-.473-.476Z" fill="#fff" stroke="#263238" stroke-width=".933" stroke-linecap="round" stroke-linejoin="round"/><path d="M356.473 89.384h-5.506a2.383 2.383 0 0 1-1.98-.953 1.65 1.65 0 0 1 0-1.907l2.753-4.072a2.54 2.54 0 0 1 3.101-.715c.345.168.648.413.886.715l2.753 4.072a1.65 1.65 0 0 1 0 1.907 2.387 2.387 0 0 1-2.007.953Zm-6.528-2.41a.857.857 0 0 0 0 .996 1.241 1.241 0 0 0 1.028.493h5.505a1.25 1.25 0 0 0 1.034-.493.863.863 0 0 0 0-.997l-2.753-4.066a1.245 1.245 0 0 0-1.039-.504 1.216 1.216 0 0 0-1.034.504l-2.758 4.072.017-.006Z" fill="#263238"/><path d="M354.128 64.121h-.892v17.991h.892v-17.99Z" fill="#fff" stroke="#263238" stroke-width=".933" stroke-linecap="round" stroke-linejoin="round"/><path d="m354.623 81.833-.583.86a.401.401 0 0 1-.32.157.408.408 0 0 1-.321-.157l-.577-.86c-.142-.203.038-.455.315-.455h1.165c.282 0 .457.274.321.455ZM354.198 75.794h-.952a.475.475 0 0 0-.473.477v3.989c0 .263.212.477.473.477h.952a.474.474 0 0 0 .473-.477v-3.99a.474.474 0 0 0-.473-.476ZM354.198 60.675h-.952a.475.475 0 0 0-.473.476v3.99c0 .263.212.477.473.477h.952a.474.474 0 0 0 .473-.477v-3.99a.474.474 0 0 0-.473-.476Z" fill="#fff" stroke="#263238" stroke-width=".933" stroke-linecap="round" stroke-linejoin="round"/><path d="m301.42 93.966.288 2.34-5.919.279.495-2.345 5.136-.274Z" fill="#E8E8E8" stroke="#263238" stroke-width=".933" stroke-linecap="round" stroke-linejoin="round"/><path d="M311.456 113.633s-10.276 9.519-12.648 9.667c-.582.038-1.088.406-1.578.071-1.088-.745-2.66-2.323-2.431-8.735.119-3.507 2.225-18.122 2.225-18.122l3.808-.17.925 16.44c3.264-3.409 8.937-8.132 8.943-8.132 1.773 5.71.756 8.981.756 8.981Z" fill="#fff" stroke="#263238" stroke-width=".933" stroke-linecap="round" stroke-linejoin="round"/><path d="M337.372 126.867a8.463 8.463 0 0 1 1.431-3.145l-1.431 3.145Z" fill="#fff"/><path d="M337.372 126.867a8.463 8.463 0 0 1 1.431-3.145M300.593 116.653c.397-.181 1.343-1.962 1.148-5.003" stroke="#263238" stroke-width=".933" stroke-linecap="round" stroke-linejoin="round"/><path d="M304.243 77.613v-6.548c.002-.317.127-.62.349-.843.222-.224.523-.35.837-.352h10.205a1.199 1.199 0 0 1 1.186 1.195v6.548a1.2 1.2 0 0 1-.347.845c-.222.224-.524.35-.839.35h-3.552l.283 2.493h-1.833v2.357l-2.176-3.836h1.779l-.185-1.009h-4.526a1.183 1.183 0 0 1-1.093-.742 1.196 1.196 0 0 1-.088-.458Z" fill="#fff" stroke="#263238" stroke-width=".933" stroke-linecap="round" stroke-linejoin="round"/><path d="M313.088 72.111h-6.898M314.873 73.969h-8.683M313.534 75.821h-7.344" stroke="#263238" stroke-width=".933" stroke-linecap="round" stroke-linejoin="round"/><path d="M77.27 239.695c14.028 0 25.399-1.685 25.399-3.764 0-2.08-11.371-3.765-25.399-3.765s-25.4 1.685-25.4 3.765c0 2.079 11.372 3.764 25.4 3.764ZM75.045 175.935c24.429 0 44.232-19.949 44.232-44.557 0-24.609-19.803-44.558-44.232-44.558-24.43 0-44.233 19.949-44.233 44.558 0 24.608 19.804 44.557 44.233 44.557Z" fill="#E8E8E8"/><path d="M54.644 160.515s1.126 6.576-2.676 13.968h47.55s-2.175-3.447-4.455-13.968H54.644Z" fill="#fff" stroke="#263238" stroke-width=".874" stroke-linecap="round" stroke-linejoin="round"/><path d="M65.487 162.033a14.12 14.12 0 0 0-7.21 2.687 14.267 14.267 0 0 0-4.758 6.081 264.917 264.917 0 0 1-1.55 3.699c-2.895 6.746-.159 16.56 7.24 16.56h33.924c6.707 0 8.54-8.554 6.936-14.998-1.034-4.143-3.118-8.303-6.675-11.218-4.755-3.918-18.649-3.557-27.907-2.811Z" fill="#263238" stroke="#263238" stroke-width=".874" stroke-linecap="round" stroke-linejoin="round"/><path d="M33.097 154.794s-6.082 3.704-6.283 5.721h7.458l2.965-2.143-1 2.154h2.267s2.41-1.885 2.541-3.973l-.245-1.759-4.352-1.951-3.35 1.951Z" fill="#fff" stroke="#263238" stroke-width=".874" stroke-linecap="round" stroke-linejoin="round"/><path d="M104.339 141.187s-.974-6.45-3.112-15.739c-2.137-9.288-6.315-10.017-6.315-10.017h-.038c-5.44-2.357-19.584-3.628-19.584-3.628h-.653s-14.177 1.271-19.584 3.628h-.038s-4.216.745-6.354 10.017-3.117 15.739-3.117 15.739-3.863 1.052-10.815 9.864a23.313 23.313 0 0 0-2.769 4.526s5.342-1.77 9.085.943c0 0 12.261-5.239 12.876-10.763 0-.197.05-.416.076-.652.349 8.384.648 15.388.648 15.388h40.593s.305-7.004.653-15.388c0 .236.049.455.07.652.62 5.524 14.194 11.716 14.194 11.716 3.72-5.765 9.122-2.581 9.122-2.581l-14.938-13.705Z" fill="#fff"/><path opacity=".3" d="M53.921 145.768c0-.164.044-.351.066-.548l-.887-19.405s-2.448.505-1.746 6.461c.702 5.957 2.176 4.932 1.354 7.228-.821 2.297-4.009-.334-5.064 1.644-1.056 1.979 5.897 1.557 3.024 6.653-2.872 5.097-9.623 8.768-9.623 8.768s12.267-5.266 12.876-10.801ZM96.152 145.768c0-.164 1.6.121 0 0l.484-16.61s-.12 8.034.735 10.346c.854 2.313 4.009-.334 5.059 1.644 1.05 1.979-5.897 1.557-3.02 6.653 2.879 5.097 9.619 8.768 9.619 8.768s-12.257-5.266-12.877-10.801ZM95.532 149.549c-.266 6.286-.468 10.96-.468 10.96H58.567c24.48 0 36.992-10.96 36.992-10.96h-.027Z" fill="#000"/><path d="M104.339 141.187s-.974-6.45-3.112-15.739c-2.137-9.288-6.315-10.017-6.315-10.017h-.038c-5.44-2.357-19.584-3.628-19.584-3.628h-.653s-14.177 1.271-19.584 3.628h-.038s-4.216.745-6.354 10.017-3.117 15.739-3.117 15.739-3.863 1.052-10.815 9.864a23.313 23.313 0 0 0-2.769 4.526v0s5.342-1.77 9.085.943c0 0 12.261-5.239 12.876-10.763 0-.197.05-.416.076-.652.349 8.384.648 15.388.648 15.388h40.593s.305-7.004.653-15.388c0 .236.049.455.07.652.62 5.524 14.194 11.716 14.194 11.716 3.72-5.765 9.122-2.581 9.122-2.581l-14.938-13.705Z" stroke="#263238" stroke-width=".874" stroke-linecap="round" stroke-linejoin="round"/><path d="M46.844 141.148a7.491 7.491 0 0 1 5.347 1.88M50.668 126.396s2.513.548 3.09 12.856l-.756-16.155M53.79 140.962l.115 2.494M103.045 141.149a7.485 7.485 0 0 0-5.348 1.852M96.734 126.396c.047-1.096.098-2.192.153-3.288" stroke="#263238" stroke-width=".874" stroke-linecap="round" stroke-linejoin="round"/><path d="M82.563 112.691c-.658 3.321-3.846 4.521-7.687 4.521-3.84 0-7.017-1.195-7.687-4.505h.153c.398-.054.77-.229 1.067-.501.297-.272.505-.628.597-1.022a1.54 1.54 0 0 0 .082-.488V106.8h11.75v3.896c-.001.244.043.485.131.712a2.004 2.004 0 0 0 1.594 1.283Z" fill="#fff"/><path d="M80.74 109.715c-1.947 1.929-4.118 3.129-6.212 3.223-2.176.098-4.7-1.699-5.729-3.464.043-.153.063-.312.06-.471v-1.195l11.75.126v1.069c0 .252.3.548.131.712Z" fill="#263238"/><path d="M82.563 112.691c-.658 3.321-3.846 4.521-7.687 4.521-3.84 0-7.017-1.195-7.687-4.505h.153c.398-.054.77-.229 1.067-.501.297-.272.505-.628.597-1.022a1.54 1.54 0 0 0 .082-.488V106.8h11.75v3.896c-.001.244.043.485.131.712a2.004 2.004 0 0 0 1.594 1.283v0Z" stroke="#263238" stroke-width=".874" stroke-linecap="round" stroke-linejoin="round"/><path d="M66.292 98.432s-4.075-4.642-3.542-11.037C63.283 81 68.495 81 68.495 81s6.283-5.584 13.295-2.088c7.012 3.496 6.528 15.618 1.338 18.632l-16.836.888Z" fill="#263238"/><path d="M84.255 95.308c.054-1.063.049-1.72.049-1.72-.468-2.828-3.9-3.113-5.478-3.162-6.61-.225-8.35-4.308-8.35-4.308-4.01-1.21-5.147 7.47-5.147 7.47s0 .657.054 1.72a3 3 0 0 0-1.791 1.094 3.04 3.04 0 0 0-.646 2.008c0 1.732 1.24 3.129 2.775 3.129.155-.001.31-.015.462-.044l.718 4.077c.136.915.99 3.08 1.757 3.595 1.632 1.096 4.216 2.658 6.158 2.658 1.676 0 4.026-1.392 5.761-2.34.969-.548 2.035-2.647 2.127-3.748l.452-4.121c.255-.012.509-.038.761-.077 1.529 0 2.775-1.397 2.775-3.129a3.04 3.04 0 0 0-.646-2.008 3 3 0 0 0-1.791-1.094Z" fill="#fff" stroke="#263238" stroke-width=".874" stroke-linecap="round" stroke-linejoin="round"/><path d="M64.013 92.678h-.719v2.576h.719v-2.576ZM85.952 92.678h-.718v2.576h.718v-2.576Z" fill="#fff" stroke="#263238" stroke-width=".874" stroke-linecap="round" stroke-linejoin="round"/><path d="M74.62 81.427a11.749 11.749 0 0 0-8.187 3.328 11.92 11.92 0 0 0-3.601 8.12.423.423 0 0 0 .424.439h.762a.423.423 0 0 0 .424-.417 10.297 10.297 0 0 1 3.142-6.95 10.15 10.15 0 0 1 7.036-2.84c2.621 0 5.141 1.018 7.037 2.84a10.297 10.297 0 0 1 3.142 6.95.434.434 0 0 0 .43.417h.755a.421.421 0 0 0 .4-.27.432.432 0 0 0 .03-.169 11.926 11.926 0 0 0-3.604-8.12 11.754 11.754 0 0 0-8.19-3.328Z" fill="#fff" stroke="#263238" stroke-width=".874" stroke-linecap="round" stroke-linejoin="round"/><path d="M65.237 94.327h-.164a3.715 3.715 0 0 0-2.542 1.148 3.77 3.77 0 0 0 0 5.207 3.72 3.72 0 0 0 2.542 1.148h.164v-7.503Z" fill="#263238" stroke="#263238" stroke-width=".874" stroke-miterlimit="10"/><path d="M66.123 98.092c0 2.778.12 4.587-.832 4.587s-1.279-1.809-1.279-4.587c0-2.778.327-4.592 1.279-4.592s.832 1.786.832 4.592Z" fill="#fff" stroke="#263238" stroke-width=".874" stroke-linecap="round" stroke-linejoin="round"/><path d="M84.01 94.327h.163a3.714 3.714 0 0 1 2.542 1.148 3.768 3.768 0 0 1 1.042 2.603c0 .971-.373 1.904-1.042 2.603a3.711 3.711 0 0 1-2.542 1.148h-.163v-7.502Z" fill="#263238" stroke="#263238" stroke-width=".874" stroke-miterlimit="10"/><path d="M83.118 98.092c0 2.778-.115 4.587.837 4.587s1.279-1.809 1.279-4.587c0-2.778-.327-4.592-1.279-4.592s-.837 1.786-.837 4.592Z" fill="#fff" stroke="#263238" stroke-width=".874" stroke-linecap="round" stroke-linejoin="round"/><path d="M68.255 98.766s1.55 1.924 4.456.406" stroke="#263238" stroke-width=".874" stroke-linecap="round" stroke-linejoin="round"/><path d="M72.71 106.246a3.73 3.73 0 0 0 4.413 0" stroke="#263238" stroke-width=".75" stroke-linecap="round" stroke-linejoin="round"/><path d="M67.826 96.185s2.812-2.159 5.315 0M81.638 96.256s-2.812-2.192-5.315 0" stroke="#263238" stroke-width=".874" stroke-linecap="round" stroke-linejoin="round"/><path d="M76.96 103.221s.25 1.403-2.301 1.37c-.626 0-1.763-.449-1.801-1.37" stroke="#263238" stroke-width=".75" stroke-linecap="round" stroke-linejoin="round"/><path d="M68.865 99.276c.234.466.762 1.003 1.942 1.03 1.18.027 1.388-.444 1.41-.904a3.547 3.547 0 0 1-3.352-.126Z" fill="#263238"/><path d="M81.23 98.766s-1.55 1.924-4.456.406" stroke="#263238" stroke-width=".874" stroke-linecap="round" stroke-linejoin="round"/><path d="M80.621 99.276c-.234.466-.761 1.003-1.942 1.03-1.18.027-1.387-.444-1.409-.904a3.542 3.542 0 0 0 3.351-.126Z" fill="#263238"/><path d="M69.833 78.331s-1.43.806-1.273 3.096c0 0-.5-1.545-2.339-.87" stroke="#263238" stroke-width=".874" stroke-linecap="round" stroke-linejoin="round"/><path d="M74.941 118.916a9.046 9.046 0 0 0 5.237-1.672 9.16 9.16 0 0 0 3.326-4.405c-.495-.077-.985-.143-1.458-.209a8.365 8.365 0 0 1-3.033 2.934 8.284 8.284 0 0 1-8.138 0 8.365 8.365 0 0 1-3.033-2.934c-.473.066-.963.132-1.458.209a9.158 9.158 0 0 0 3.324 4.403 9.045 9.045 0 0 0 5.233 1.674Z" fill="#263238" stroke="#263238" stroke-width=".874" stroke-linecap="round" stroke-linejoin="round"/><path d="M95.89 145.127c.24-5.341.481-10.684.724-16.029" stroke="#263238" stroke-width=".874" stroke-linecap="round" stroke-linejoin="round"/><path d="M96.07 90.535v-5.902a1.1 1.1 0 0 0-.319-.775 1.084 1.084 0 0 0-.769-.32H85.81c-.288 0-.565.115-.77.32a1.1 1.1 0 0 0-.318.775v5.902c0 .29.115.57.319.775.204.206.48.321.77.321h3.198l-.256 2.247h1.632v2.12l1.953-3.457h-1.605l.169-.91h4.075a1.081 1.081 0 0 0 .772-.319 1.096 1.096 0 0 0 .321-.777Z" fill="#fff" stroke="#263238" stroke-width=".874" stroke-linecap="round" stroke-linejoin="round"/><path d="M86.496 85.581h6.218M86.496 87.253h7.817M86.496 88.924h6.615" stroke="#263238" stroke-width=".874" stroke-linecap="round" stroke-linejoin="round"/><path d="M124.249 157.66c0 1.742-2.72 2.833-6.06 2.833-3.34 0-6.06-1.096-6.06-2.833 0-1.738 2.72-3.162 6.06-3.162 3.34 0 6.06 1.414 6.06 3.162Z" fill="#fff" stroke="#263238" stroke-width=".874" stroke-linecap="round" stroke-linejoin="round"/><path d="M114.267 159.863c.163-.039.294-.959-1.18-1.644-1.023-.472-1.05-.97-.463-1.584.588-.614 1.589-1.129 2.361-.904 1.257.361 2.089 2.997 2.649 2.427.844-.219-.174-2.636-1.68-3.43 2.719.679 2.85 3.836 4.101 3.584.958-.187-.696-3.321-2.127-4.247a6.362 6.362 0 0 1 2.339 1.879c.909 1.332 1.012 1.781 1.632 1.59.806-.258-1.115-3.184-1.354-3.502 1.208.482 1.436 1.501 1.806 1.912.37.411.544 1.096 1.055.828.512-.269.038-1.222-.304-1.781-1.632-2.658-4.352-3.102-6.942-2.773-2.045.263-4.395 1.129-5.641 2.773a2.58 2.58 0 0 0-.174 2.904c.435.926 1.991 2.406 3.922 1.968Z" fill="#fff" stroke="#263238" stroke-width=".874" stroke-linecap="round" stroke-linejoin="round"/><path d="M125.838 160.515H25.726a.54.54 0 0 0-.539.542v.872a.54.54 0 0 0 .539.542h100.112a.54.54 0 0 0 .538-.542v-.872a.54.54 0 0 0-.538-.542Z" fill="#BFBFBF" stroke="#263238" stroke-width=".874" stroke-miterlimit="10"/><path d="m28.663 160.515-7.366-22.55a.601.601 0 0 1 .283-.707.598.598 0 0 1 .262-.072h23.266l8.286 23.329h-24.73Z" fill="#263238"/><path d="m45.745 137.186 7.616 22.019h20.4v.773a.55.55 0 0 1-.544.548H52.055l-7.327-22.43a.677.677 0 0 1 .329-.807.663.663 0 0 1 .302-.075l.386-.028Z" fill="#fff" stroke="#263238" stroke-width=".874" stroke-linecap="round" stroke-linejoin="round"/><path d="M34.94 148.853a2.091 2.091 0 0 0-.51-1.025 1.174 1.174 0 0 1 .93-.416c.41.018.805.17 1.122.434.317.264.54.626.635 1.029a1.155 1.155 0 0 1-.199 1.027 1.14 1.14 0 0 1-.944.436 1.769 1.769 0 0 1-1.131-.444c.156-.323.191-.693.098-1.041Z" fill="#fff"/><path d="M82.079 160.515h7.436a7.751 7.751 0 0 0 2.342-2.796 7.804 7.804 0 0 0 .808-3.567v-3.523a1.021 1.021 0 0 0-1.012-1.02H79.968a1.006 1.006 0 0 0-.931.63c-.05.124-.076.256-.075.39v3.523a7.798 7.798 0 0 0 .793 3.562 7.735 7.735 0 0 0 2.324 2.801Z" fill="#fff" stroke="#263238" stroke-width=".874" stroke-linecap="round" stroke-linejoin="round"/><path d="M94.775 151.111a2.126 2.126 0 0 0-2.11-.098v1.271c.322-.054.653.012.93.186 1.05.614.827 1.869.092 3.146a3.402 3.402 0 0 1-1.632 1.644 7.758 7.758 0 0 1-.81 1.496c1.398.307 2.676-.888 3.677-2.631 1.175-2.049 1.529-4.038-.147-5.014Z" fill="#fff" stroke="#263238" stroke-width=".874" stroke-linecap="round" stroke-linejoin="round"/><path d="M85.952 144.058a9.16 9.16 0 0 0 .397-2.74c0-5.151-4.809-5.759-4.809-11.612M82.541 148.601a7.663 7.663 0 0 0 2.214-2.11M85.534 134.616a2.85 2.85 0 0 1-.322-1.644M89.281 141.85c-.245-1.611-1.164-3.124-2.073-4.499M86.496 148.661s1.589-.674 2.459-3.715" stroke="#263238" stroke-width=".874" stroke-linecap="round" stroke-linejoin="round"/><path d="M96.212 191.044H55.477c-2.974 0-5.385 2.429-5.385 5.425v27.126c0 2.996 2.411 5.425 5.385 5.425h40.735c2.974 0 5.386-2.429 5.386-5.425v-27.126c0-2.996-2.412-5.425-5.386-5.425Z" fill="#fff" stroke="#263238" stroke-width=".874" stroke-miterlimit="10"/><path d="m62.968 217.172.614 10.834.071.094a5.177 5.177 0 0 0 1.851 1.555 5.14 5.14 0 0 0 6.505-1.649l.228-10.834h-9.27Z" fill="#fff" stroke="#263238" stroke-width=".874" stroke-linecap="round" stroke-linejoin="round"/><path d="M74.272 238.594a35.847 35.847 0 0 1-12.474 0 5.99 5.99 0 0 1-.984-1.293 5.474 5.474 0 0 1-.201-4.932l2.486-4.467 9.852.11 2.219 4.077a5.515 5.515 0 0 1-.582 6.171c-.1.116-.205.228-.316.334Z" fill="#BFBFBF" stroke="#263238" stroke-width=".874" stroke-miterlimit="10"/><path d="M71.851 232.971c.61.271 1.19.601 1.735.987l-1.735-.987Z" fill="#BFBFBF"/><path d="M71.851 232.971c.61.271 1.19.601 1.735.987" stroke="#263238" stroke-width=".874" stroke-miterlimit="10"/><path d="M62.56 233.958a9.855 9.855 0 0 1 7.475-1.562" fill="#BFBFBF"/><path d="M62.56 233.958a9.855 9.855 0 0 1 7.475-1.562" stroke="#263238" stroke-width=".874" stroke-miterlimit="10"/><path d="m57.664 172.461 4.352 50.241h11.255s1.115-30.688 1.823-50.613a8.826 8.826 0 0 0-.564-3.467 8.778 8.778 0 0 0-1.869-2.966 8.695 8.695 0 0 0-2.874-1.988 8.643 8.643 0 0 0-3.419-.693 8.648 8.648 0 0 0-3.504.729 8.706 8.706 0 0 0-2.917 2.088 8.783 8.783 0 0 0-1.837 3.093 8.828 8.828 0 0 0-.446 3.576Z" fill="#263238"/><path d="M68.865 163.332a8.664 8.664 0 0 0-2.524-.357v0a8.647 8.647 0 0 0-3.496.738 8.702 8.702 0 0 0-2.907 2.089 8.777 8.777 0 0 0-1.83 3.089 8.833 8.833 0 0 0-.444 3.57l1.545 18.583M73.565 166.756a9.148 9.148 0 0 0-1.561-1.72s-.68-.548-.985-.724M74.348 191.044c.223-6.22.571-13.497.762-18.955a8.828 8.828 0 0 0-.762-3.941" stroke="#fff" stroke-width=".874" stroke-linecap="round" stroke-linejoin="round"/><path d="m81.279 217.172.615 10.834.07.094a5.177 5.177 0 0 0 1.852 1.555 5.14 5.14 0 0 0 6.504-1.649l.229-10.834h-9.27Z" fill="#fff" stroke="#263238" stroke-width=".874" stroke-linecap="round" stroke-linejoin="round"/><path d="M92.583 238.594a35.847 35.847 0 0 1-12.474 0 5.879 5.879 0 0 1-.98-1.293 5.456 5.456 0 0 1-.206-4.932l2.492-4.467 9.846.11 2.22 4.077a5.515 5.515 0 0 1-.582 6.171c-.1.116-.205.228-.316.334Z" fill="#BFBFBF" stroke="#263238" stroke-width=".874" stroke-miterlimit="10"/><path d="M90.162 232.971c.61.269 1.191.6 1.735.987l-1.735-.987Z" fill="#BFBFBF"/><path d="M90.162 232.971c.61.269 1.191.6 1.735.987" stroke="#263238" stroke-width=".874" stroke-miterlimit="10"/><path d="M80.882 233.958a9.83 9.83 0 0 1 7.475-1.562" fill="#BFBFBF"/><path d="M80.882 233.958a9.83 9.83 0 0 1 7.475-1.562" stroke="#263238" stroke-width=".874" stroke-miterlimit="10"/><path d="m75.991 172.461 4.352 50.241h11.255s1.116-30.688 1.828-50.613a8.855 8.855 0 0 0-.575-3.473 8.797 8.797 0 0 0-1.88-2.967 8.725 8.725 0 0 0-2.886-1.986 8.666 8.666 0 0 0-3.428-.688 8.666 8.666 0 0 0-6.396 2.831 8.782 8.782 0 0 0-1.827 3.088 8.83 8.83 0 0 0-.443 3.567Z" fill="#263238"/><path d="M88.248 163.732a8.648 8.648 0 0 0-3.59-.757 8.666 8.666 0 0 0-6.397 2.831 8.782 8.782 0 0 0-1.827 3.088 8.83 8.83 0 0 0-.443 3.567l1.632 18.583M91.876 166.756a8.847 8.847 0 0 0-1.561-1.72M93.133 191.044c.223-6.22.098-13.497.294-18.956a8.85 8.85 0 0 0-.588-3.512" stroke="#fff" stroke-width=".874" stroke-linecap="round" stroke-linejoin="round"/><path d="M226.44 86.951V63.568c0-1.13-.446-2.215-1.24-3.015a4.215 4.215 0 0 0-2.992-1.249h-36.416c-1.122 0-2.199.45-2.992 1.25a4.278 4.278 0 0 0-1.24 3.014V86.95c0 1.13.446 2.215 1.24 3.015.793.8 1.87 1.249 2.992 1.249h12.681l-1.001 8.899H204v8.39l7.747-13.7h-6.354l.669-3.595h16.146a4.219 4.219 0 0 0 2.991-1.247 4.28 4.28 0 0 0 1.241-3.011Z" fill="#fff" stroke="#263238" stroke-width="1.025" stroke-linecap="round" stroke-linejoin="round"/><path d="M188.513 67.305h24.621M188.513 73.93h30.975M188.513 80.556h26.21" stroke="#263238" stroke-width="1.025" stroke-linecap="round" stroke-linejoin="round"/><path d="m254.255 187.076 21.999 7.387-5.456 5.502 10.184 10.259-22-7.387 5.457-5.502-10.184-10.259ZM153.745 187.076l-21.999 7.387 5.456 5.502-10.183 10.259 21.999-7.387-5.456-5.502 10.183-10.259ZM203.385 17.613l-10.374 20.9h7.725v14.511l10.369-20.9h-7.72V17.613Z" fill="#E8E8E8" stroke="#263238" stroke-width="1.025" stroke-linecap="round" stroke-linejoin="round"/></svg>