<svg fill="none" xmlns="http://www.w3.org/2000/svg" viewBox="0 0 390 264"><path d="m336.457 168.717-.456 4.076 7.951-9.266c.951.1 1.906.15 2.862.152M326.497 140.598a11.877 11.877 0 0 0-1.911 5.242c-.753 6.773 4.575 13.179 12.625 16.144l-.409 3.64M329.587 137.226c-.518.418-1.01.867-1.472 1.345M359.403 137.226a26.29 26.29 0 0 0-12.203-4.45 26.012 26.012 0 0 0-13.588 1.992M352.346 163.131c7.594-1.566 13.349-6.406 14.02-12.684.491-4.392-1.571-8.626-5.257-11.876" stroke="#263238" stroke-linecap="round" stroke-linejoin="round"/><path d="M333.618 141.728a4.983 4.983 0 0 0 3.727-.792l2.839 2.195c-.199.065-.181-.355.029-.366.21-.012.368.18.514.332.666.704 1.788.728 2.74.524.952-.204 1.881-.583 2.851-.548.576.06 1.144.191 1.688.39 3.902 1.206 7.962 1.812 12.005 2.406M330.265 145.869c.584-.035 3.838 0 4.305-.39l.795 1.38.876-.845c.152.583.304 1.165.45 1.713.66.157.584-1.113 1.168-1.491a.798.798 0 0 1 1.034.308c.191.358.284.76.269 1.165l3.995.326.777.064c.278-.422.689-.74 1.169-.902-.146.92 1.016 1.444 1.939 1.63a250.79 250.79 0 0 0 13.705 2.394M332.041 152.194c.368.256.817-.222 1.267-.28.45-.058.818.28 1.215.484.398.203 1.052.116 1.075-.327.094.583.818.792 1.408.874l15.341 2.149M126.772 132.299l6.146 8.247-1.233-10.792a28.639 28.639 0 0 0 4.2-2.499c6.298-4.543 8.833-11.852 6.525-17.74-1.618-4.112-5.409-6.907-10.199-8.066M102.5 119.288a11.81 11.81 0 0 0 .747 5.503c2.489 6.349 10.188 9.552 18.694 8.445M103.662 114.867a16.89 16.89 0 0 0-.672 1.876M130.067 101.053a26.291 26.291 0 0 0-12.887 1.7 25.92 25.92 0 0 0-11.099 8.061" stroke="#263238" stroke-linecap="round" stroke-linejoin="round"/><path d="M109.329 116.981a4.967 4.967 0 0 0 2.92-2.422l3.506.629c-.152.145-.328-.233-.146-.344.181-.111.408 0 .584.058.923.315 1.922-.18 2.669-.804.748-.623 1.391-1.397 2.273-1.805a7.21 7.21 0 0 1 1.676-.443c4.02-.733 7.893-2.085 11.754-3.43M108.289 122.206c.52-.309 3.4-1.783 3.634-2.33l1.349.856c.129-.384.257-.775.38-1.165l1.197 1.311c.66-.163 0-1.252.316-1.847a.79.79 0 0 1 1.057-.203c.334.223.602.53.777.891l3.686-1.561.725-.303c.041-.5.246-.973.584-1.345.304.891 1.577.809 2.477.547a240.355 240.355 0 0 0 13.255-4.228M112.811 126.981c.449.059.625-.582.993-.838s.858-.123 1.302-.134c.444-.012.988-.379.801-.781.356.472 1.098.321 1.653.123l14.604-5.213" stroke="#263238" stroke-linecap="round" stroke-linejoin="round"/><path d="M304.905 32.382H159.246c-2.836 0-5.135 2.291-5.135 5.119v130.82c0 2.827 2.299 5.119 5.135 5.119h145.659c2.836 0 5.135-2.292 5.135-5.119V37.501c0-2.828-2.299-5.12-5.135-5.12Z" fill="#fff"/><path opacity=".2" d="M310.04 109.649v58.823a4.958 4.958 0 0 1-1.458 3.511 4.993 4.993 0 0 1-3.519 1.457H159.094a4.992 4.992 0 0 1-3.523-1.455 4.959 4.959 0 0 1-1.46-3.513v-11.648h.31v7.851c0 .746.147 1.485.434 2.174a5.691 5.691 0 0 0 5.268 3.504h141.014a5.703 5.703 0 0 0 4.031-1.661 5.66 5.66 0 0 0 1.236-1.843 5.655 5.655 0 0 0 .435-2.174v-46.302a3.95 3.95 0 0 0-1.162-2.796 3.976 3.976 0 0 0-2.805-1.158H154.111v-4.77H310.04Z" fill="#000"/><path d="M304.905 32.382H159.246c-2.836 0-5.135 2.291-5.135 5.119v130.82c0 2.827 2.299 5.119 5.135 5.119h145.659c2.836 0 5.135-2.292 5.135-5.119V37.501c0-2.828-2.299-5.12-5.135-5.12Z" stroke="#263238" stroke-linecap="round" stroke-linejoin="round"/><path d="M296.464 126.399v-6.738a2.502 2.502 0 0 0-.731-1.765 2.498 2.498 0 0 0-1.77-.728H170.188c-.663 0-1.299.262-1.768.73a2.487 2.487 0 0 0-.732 1.763v6.738c0 .661-.264 1.295-.733 1.763a2.507 2.507 0 0 1-1.768.73 2.497 2.497 0 0 0-2.506 2.498v13.297a11.54 11.54 0 0 0 3.397 8.174 11.612 11.612 0 0 0 8.199 3.386 1.858 1.858 0 0 1 1.864 1.858v3.984c0 1.47.586 2.881 1.628 3.92a5.57 5.57 0 0 0 3.933 1.624h100.747a5.57 5.57 0 0 0 3.933-1.624 5.534 5.534 0 0 0 1.629-3.92v-3.984a1.857 1.857 0 0 1 1.863-1.858 11.628 11.628 0 0 0 8.2-3.386 11.556 11.556 0 0 0 3.396-8.174V131.39a2.506 2.506 0 0 0-2.5-2.498 2.51 2.51 0 0 1-1.77-.73 2.49 2.49 0 0 1-.736-1.763Z" fill="#263238"/><path d="M177.168 120.983h-4.328c-.53 0-1.038.21-1.413.583-.375.374-.585.88-.585 1.408v1.107c0 2.295 1.863 5.207 4.165 5.207s4.165-2.912 4.165-5.207v-1.107a2.003 2.003 0 0 0-2.004-1.991ZM187.526 120.983h-4.328a2.003 2.003 0 0 0-2.004 1.991v1.107c0 2.295 1.863 5.207 4.165 5.207s4.165-2.912 4.165-5.207v-1.107c0-.528-.21-1.034-.585-1.408a2.004 2.004 0 0 0-1.413-.583ZM197.924 120.983h-4.328c-.53 0-1.039.21-1.413.583-.375.374-.585.88-.585 1.408v1.107c0 2.295 1.863 5.207 4.159 5.207s4.165-2.912 4.165-5.207v-1.107c0-.528-.21-1.034-.585-1.408a2.004 2.004 0 0 0-1.413-.583ZM208.299 120.983h-4.328c-.53 0-1.039.21-1.413.583-.375.374-.585.88-.585 1.408v1.107c0 2.295 1.863 5.207 4.165 5.207 2.301 0 4.159-2.912 4.159-5.207v-1.107a1.996 1.996 0 0 0-1.233-1.84 2.007 2.007 0 0 0-.765-.151ZM218.675 120.983h-4.329a1.992 1.992 0 0 0-1.998 1.991v1.107c0 2.295 1.864 5.207 4.165 5.207 2.302 0 4.166-2.912 4.166-5.207v-1.107a1.998 1.998 0 0 0-2.004-1.991ZM229.056 120.983h-4.329a2.004 2.004 0 0 0-2.004 1.991v1.107c0 2.295 1.864 5.207 4.165 5.207 2.302 0 4.166-2.912 4.166-5.207v-1.107a2 2 0 0 0-1.998-1.991ZM239.43 120.983h-4.329c-.529 0-1.038.21-1.412.583-.375.374-.585.88-.585 1.408v1.107c0 2.295 1.863 5.207 4.159 5.207s4.165-2.912 4.165-5.207v-1.107c0-.528-.21-1.034-.585-1.408a2.004 2.004 0 0 0-1.413-.583ZM249.805 120.983h-4.329c-.529 0-1.038.21-1.412.583-.375.374-.585.88-.585 1.408v1.107c0 2.295 1.863 5.207 4.165 5.207 2.301 0 4.159-2.912 4.159-5.207v-1.107c0-.528-.21-1.034-.585-1.408a2.004 2.004 0 0 0-1.413-.583ZM260.18 120.983h-4.305a2.007 2.007 0 0 0-1.413.583 1.99 1.99 0 0 0-.585 1.408v1.107c0 2.295 1.863 5.207 4.165 5.207s4.165-2.912 4.165-5.207v-1.107a1.993 1.993 0 0 0-1.254-1.847 2.006 2.006 0 0 0-.773-.144ZM270.561 120.983h-4.329c-.53 0-1.039.209-1.415.583-.375.373-.587.88-.588 1.408v1.107c0 2.295 1.863 5.207 4.165 5.207 2.301 0 4.165-2.912 4.165-5.207v-1.107a1.992 1.992 0 0 0-1.998-1.991ZM280.936 120.983h-4.329a2 2 0 0 0-1.998 1.991v1.107c0 2.295 1.864 5.207 4.16 5.207 2.296 0 4.165-2.912 4.165-5.207v-1.107a1.992 1.992 0 0 0-1.998-1.991ZM291.311 120.983h-4.328a2 2 0 0 0-1.413.583c-.375.373-.585.88-.585 1.408v1.107c0 2.289 1.852 5.201 4.188 5.201 2.337 0 4.16-2.912 4.16-5.207v-1.106a1.994 1.994 0 0 0-2.022-1.986ZM177.168 142.904h-4.328a2 2 0 0 0-1.413.584c-.375.373-.585.88-.585 1.408v1.107c0 2.294 1.863 5.207 4.165 5.207s4.165-2.913 4.165-5.207v-1.107a1.992 1.992 0 0 0-.589-1.409 2.007 2.007 0 0 0-1.415-.583ZM187.526 142.904h-4.328c-.531 0-1.04.21-1.415.583-.376.374-.588.88-.589 1.409v1.107c0 2.294 1.863 5.207 4.165 5.207s4.165-2.913 4.165-5.207v-1.107c0-.528-.21-1.035-.585-1.408a2 2 0 0 0-1.413-.584ZM197.924 142.904h-4.328a1.999 1.999 0 0 0-1.998 1.992v1.107c0 2.294 1.863 5.207 4.159 5.207s4.165-2.913 4.165-5.207v-1.107c0-.528-.21-1.035-.585-1.408a2 2 0 0 0-1.413-.584ZM208.299 142.904h-4.328a1.999 1.999 0 0 0-1.998 1.992v1.107c0 2.294 1.863 5.207 4.165 5.207 2.301 0 4.159-2.913 4.159-5.207v-1.107a1.996 1.996 0 0 0-1.233-1.84 2.008 2.008 0 0 0-.765-.152ZM218.675 142.904h-4.329a2 2 0 0 0-1.413.584 1.99 1.99 0 0 0-.585 1.408v1.107c0 2.294 1.864 5.207 4.165 5.207 2.302 0 4.166-2.913 4.166-5.207v-1.107a2 2 0 0 0-2.004-1.992ZM229.056 142.904h-4.329c-.531 0-1.039.21-1.415.583-.376.374-.587.88-.589 1.409v1.107c0 2.294 1.864 5.207 4.165 5.207 2.302 0 4.166-2.913 4.166-5.207v-1.107a1.997 1.997 0 0 0-1.998-1.992ZM239.43 142.904h-4.329a1.998 1.998 0 0 0-1.997 1.992v1.107c0 2.294 1.863 5.207 4.159 5.207s4.165-2.913 4.165-5.207v-1.107c0-.528-.21-1.035-.585-1.408a2 2 0 0 0-1.413-.584ZM249.805 142.904h-4.329a1.998 1.998 0 0 0-1.997 1.992v1.107c0 2.294 1.863 5.207 4.165 5.207 2.301 0 4.159-2.913 4.159-5.207v-1.107c0-.528-.21-1.035-.585-1.408a2 2 0 0 0-1.413-.584ZM260.18 142.904h-4.305a2.008 2.008 0 0 0-1.413.584 1.99 1.99 0 0 0-.585 1.408v1.107c0 2.294 1.863 5.207 4.165 5.207s4.165-2.913 4.165-5.207v-1.107a1.985 1.985 0 0 0-.597-1.417 2.011 2.011 0 0 0-1.43-.575ZM270.561 142.904h-4.329a1.995 1.995 0 0 0-2.003 1.992v1.107c0 2.294 1.863 5.207 4.165 5.207 2.301 0 4.165-2.913 4.165-5.207v-1.107a1.99 1.99 0 0 0-.585-1.408 2 2 0 0 0-1.413-.584ZM280.936 142.904h-4.329a1.997 1.997 0 0 0-1.998 1.992v1.107c0 2.294 1.864 5.207 4.16 5.207 2.296 0 4.165-2.913 4.165-5.207v-1.107a1.99 1.99 0 0 0-.585-1.408 2 2 0 0 0-1.413-.584ZM291.311 142.904h-4.328a2 2 0 0 0-1.413.584c-.375.373-.585.88-.585 1.408v1.107c0 2.294 1.863 5.207 4.165 5.207s4.159-2.913 4.159-5.207v-1.107a1.999 1.999 0 0 0-1.998-1.992ZM171.981 132.299h-4.317a1.992 1.992 0 0 0-1.998 1.992v1.106c0 2.289 1.864 5.207 4.165 5.207 2.302 0 4.16-2.912 4.16-5.207v-1.106a1.987 1.987 0 0 0-.59-1.413 1.993 1.993 0 0 0-1.42-.579ZM182.356 132.299h-4.328c-.53 0-1.038.21-1.413.583-.375.374-.585.88-.585 1.409v1.106c0 2.289 1.863 5.207 4.165 5.207s4.165-2.912 4.165-5.207v-1.106a2.003 2.003 0 0 0-2.004-1.992ZM192.737 132.299h-4.328a2.003 2.003 0 0 0-2.004 1.992v1.106c0 2.289 1.869 5.207 4.165 5.207 2.296 0 4.165-2.912 4.165-5.207v-1.106c0-.529-.21-1.035-.585-1.409a2.004 2.004 0 0 0-1.413-.583ZM203.112 132.299h-4.329a1.992 1.992 0 0 0-1.998 1.992v1.106c0 2.289 1.864 5.207 4.159 5.207 2.296 0 4.166-2.912 4.166-5.207v-1.106a1.998 1.998 0 0 0-.585-1.409 1.999 1.999 0 0 0-1.413-.583ZM213.487 132.299h-4.347c-.529 0-1.038.21-1.412.583-.375.374-.585.88-.585 1.409v1.106c0 2.289 1.863 5.207 4.165 5.207 2.301 0 4.159-2.912 4.159-5.207v-1.106a1.997 1.997 0 0 0-1.98-1.992ZM223.862 132.299h-4.328c-.53 0-1.039.21-1.413.583-.375.374-.585.88-.585 1.409v1.106c0 2.289 1.863 5.207 4.165 5.207 2.301 0 4.165-2.912 4.165-5.207v-1.106a2.004 2.004 0 0 0-2.004-1.992ZM234.26 132.299h-4.329a2.002 2.002 0 0 0-2.003 1.992v1.106c0 2.289 1.869 5.207 4.165 5.207 2.296 0 4.165-2.912 4.165-5.207v-1.106c0-.529-.21-1.035-.585-1.409a2.004 2.004 0 0 0-1.413-.583ZM244.618 132.299h-4.329a1.992 1.992 0 0 0-1.998 1.992v1.106c0 2.289 1.864 5.207 4.159 5.207 2.296 0 4.166-2.912 4.166-5.207v-1.106a2 2 0 0 0-1.998-1.992ZM254.993 132.299h-4.329c-.53 0-1.038.21-1.413.583-.375.374-.585.88-.585 1.409v1.106c0 2.289 1.864 5.207 4.165 5.207 2.302 0 4.16-2.912 4.16-5.207v-1.106a2 2 0 0 0-1.998-1.992ZM265.368 132.299h-4.329c-.53 0-1.038.21-1.413.583-.375.374-.585.88-.585 1.409v1.106c0 2.289 1.864 5.207 4.165 5.207 2.302 0 4.165-2.912 4.165-5.207v-1.106a2.002 2.002 0 0 0-2.003-1.992ZM275.737 132.299h-4.329a1.999 1.999 0 0 0-2.004 1.992v1.106c0 2.289 1.87 5.207 4.165 5.207 2.296 0 4.166-2.912 4.166-5.207v-1.106a1.992 1.992 0 0 0-1.998-1.992ZM286.124 132.299h-4.329a1.992 1.992 0 0 0-1.969 1.992v1.106c0 2.289 1.864 5.207 4.159 5.207 2.296 0 4.166-2.912 4.166-5.207v-1.106a1.99 1.99 0 0 0-1.254-1.849 2.008 2.008 0 0 0-.773-.143ZM296.499 132.299h-4.329a2 2 0 0 0-1.998 1.992v1.106c0 2.289 1.864 5.207 4.166 5.207 2.301 0 4.159-2.912 4.159-5.207v-1.106a1.992 1.992 0 0 0-1.998-1.992ZM271.706 153.947h-79.261a1.872 1.872 0 0 0-1.875 1.869v5.673c0 1.032.839 1.869 1.875 1.869h79.261a1.872 1.872 0 0 0 1.875-1.869v-5.673a1.872 1.872 0 0 0-1.875-1.869ZM282.321 154.5h-4.329a2 2 0 0 0-1.413.584 1.99 1.99 0 0 0-.585 1.408v1.107c0 2.294 1.864 5.206 4.165 5.206 2.302 0 4.16-2.912 4.16-5.206v-1.107a1.997 1.997 0 0 0-1.998-1.992ZM186.159 154.5h-4.329a1.998 1.998 0 0 0-1.997 1.992v1.107c0 2.294 1.863 5.206 4.165 5.206 2.301 0 4.165-2.912 4.165-5.206v-1.107a1.996 1.996 0 0 0-.589-1.409 2.009 2.009 0 0 0-1.415-.583Z" fill="#fff" stroke="#263238" stroke-linecap="round" stroke-linejoin="round"/><path opacity=".2" d="M177.408 124.145c.21.001.419.02.625.058v-1.229a.87.87 0 0 0-.87-.862h-4.329a.868.868 0 0 0-.864.862v1.107c0 1.59 1.168 3.593 2.547 3.995-.427-1.764.531-3.931 2.891-3.931ZM188.017 123.848c.132-.009.265-.009.397 0v-.897a.865.865 0 0 0-.864-.862h-4.329a.872.872 0 0 0-.87.862v1.107c0 1.747 1.384 3.931 2.92 4.077-.706-1.806.222-4.287 2.746-4.287ZM198.701 123.697h.088v-.728a.862.862 0 0 0-.865-.862h-4.328a.87.87 0 0 0-.871.862v1.106c0 1.776 1.472 4.077 3.032 4.077.076.006.152.006.228 0-.783-1.84.122-4.455 2.716-4.455ZM208.417 123.4c.242-.007.485.012.724.058v-.507a.86.86 0 0 0-.865-.862h-4.328a.865.865 0 0 0-.865.862v1.107c0 1.665 1.285 3.785 2.734 4.077-.993-1.829-.134-4.735 2.6-4.735ZM219.323 123.399h.222v-.436a.868.868 0 0 0-.87-.862h-4.329a.872.872 0 0 0-.865.862v1.106c0 1.777 1.473 4.077 3.032 4.077.08.006.16.006.24 0-1.022-1.835-.164-4.747 2.57-4.747ZM229.785 123.458h.135v-.507a.87.87 0 0 0-.865-.862h-4.329a.866.866 0 0 0-.87.862v1.107c0 1.776 1.472 4.077 3.032 4.077.095.008.191.008.286 0-.958-1.835-.088-4.677 2.611-4.677ZM239.798 123.4c.166.002.332.014.497.034v-.46a.862.862 0 0 0-.865-.862h-4.329a.864.864 0 0 0-.864.862v1.107c0 1.747 1.449 4.042 2.997 4.077-1.034-1.829-.181-4.758 2.564-4.758ZM250.67 123.551v-.582a.862.862 0 0 0-.864-.862h-4.329a.863.863 0 0 0-.865.862v1.106c0 1.776 1.467 4.077 3.032 4.077a1.58 1.58 0 0 0 .462-.076c-.842-1.794.017-4.444 2.564-4.525ZM260.198 123.324c.288-.001.574.036.853.11v-.46a.871.871 0 0 0-.871-.862h-4.305a.873.873 0 0 0-.865.862v1.107c0 1.642 1.25 3.716 2.67 4.03-1.092-1.823-.245-4.787 2.518-4.787ZM270.806 123.324c.208.001.415.02.62.058v-.408a.87.87 0 0 0-.865-.862h-4.329a.87.87 0 0 0-.87.862v1.107c0 1.747 1.402 3.966 2.921 4.077-1.099-1.829-.257-4.834 2.523-4.834ZM281.345 123.621c.152.002.305.014.456.035v-.682a.864.864 0 0 0-.865-.862h-4.329a.876.876 0 0 0-.611.253.862.862 0 0 0-.253.609v1.107c0 1.747 1.402 3.96 2.921 4.077-.847-1.841.046-4.537 2.681-4.537ZM292.176 123.487v-.513a.862.862 0 0 0-.865-.862h-4.329a.864.864 0 0 0-.864.862v1.107c0 1.776 1.466 4.077 3.032 4.077.225-.003.447-.051.654-.14-.83-1.759-.047-4.333 2.372-4.531ZM177.706 145.007c.111-.006.222-.006.333 0v-.122a.868.868 0 0 0-.87-.862h-4.329a.863.863 0 0 0-.609.254.862.862 0 0 0-.255.608v1.106c0 1.776 1.472 4.077 3.031 4.077.108-.003.216-.014.322-.035-1.309-1.771-.514-5.026 2.377-5.026ZM187.871 145.007c.182 0 .364.016.543.046v-.151a.865.865 0 0 0-.864-.862h-4.329a.872.872 0 0 0-.87.862v1.107c0 1.776 1.472 4.076 3.031 4.076h.129c-1.338-1.793-.549-5.078 2.36-5.078ZM198.181 145.153c.196 0 .392.018.584.052v-.309a.87.87 0 0 0-.065-.33.88.88 0 0 0-.468-.466.876.876 0 0 0-.331-.066h-4.329a.872.872 0 0 0-.87.862v1.107c0 1.747 1.448 4.036 2.996 4.077-1.162-1.812-.35-4.927 2.483-4.927ZM208.715 145.228c.15.001.3.01.449.029v-.361a.87.87 0 0 0-.065-.33.88.88 0 0 0-.468-.466.876.876 0 0 0-.331-.066h-4.329a.873.873 0 0 0-.799.532.871.871 0 0 0-.066.33v1.107c0 1.776 1.467 4.077 3.032 4.077h.07c-1.121-1.823-.286-4.852 2.507-4.852ZM218.879 145.007c.224 0 .447.021.666.064v-.169a.866.866 0 0 0-.87-.862h-4.329a.876.876 0 0 0-.61.254.874.874 0 0 0-.255.608v1.107c0 1.776 1.473 4.076 3.032 4.076-1.332-1.782-.549-5.078 2.366-5.078ZM229.411 145.077c.171.001.341.015.509.041v-.222a.87.87 0 0 0-.865-.862h-4.329a.866.866 0 0 0-.87.862v1.107c0 1.776 1.472 4.077 3.032 4.077h.111c-1.262-1.806-.456-5.003 2.412-5.003ZM240.172 145.298h.123v-.408a.862.862 0 0 0-.865-.862h-4.329a.864.864 0 0 0-.864.862v1.107c0 1.776 1.466 4.077 3.026 4.077.114-.002.227-.016.339-.041-1.005-1.817-.17-4.735 2.57-4.735ZM250.618 145.077h.035v-.181a.871.871 0 0 0-.253-.609.87.87 0 0 0-.612-.253h-4.311a.873.873 0 0 0-.799.532.871.871 0 0 0-.066.33v1.107c0 1.776 1.467 4.077 3.032 4.077.179-.003.357-.034.526-.093-1.186-1.806-.362-4.91 2.448-4.91ZM260.718 144.855h.327a.866.866 0 0 0-.865-.832h-4.305a.867.867 0 0 0-.865.862v1.106c0 1.776 1.472 4.077 3.032 4.077.142-.004.284-.026.421-.064-1.467-1.736-.707-5.149 2.255-5.149ZM271.408 145.007v-.105a.87.87 0 0 0-.865-.862h-4.328a.87.87 0 0 0-.871.862v1.107c0 1.776 1.472 4.076 3.032 4.076.199-.003.397-.038.584-.104-1.221-1.806-.414-4.974 2.448-4.974ZM281.579 145.007h.234v-.117a.863.863 0 0 0-.865-.862h-4.329a.864.864 0 0 0-.864.862v1.107c0 1.776 1.466 4.077 3.026 4.077.138-.002.276-.022.409-.058-1.303-1.783-.503-5.009 2.389-5.009ZM291.802 145.449h.374v-.582a.864.864 0 0 0-.865-.862h-4.329a.864.864 0 0 0-.864.862v1.107c0 1.776 1.466 4.076 3.032 4.076-.906-1.805-.03-4.601 2.652-4.601ZM172.776 134.576h.076v-.285a.867.867 0 0 0-.871-.862h-4.317a.863.863 0 0 0-.864.862v1.106c0 1.776 1.466 4.077 3.032 4.077a1.72 1.72 0 0 0 .444-.07c-1.122-1.817-.275-4.828 2.5-4.828ZM182.935 134.576h.292v-.297a.868.868 0 0 0-.871-.862h-4.328a.872.872 0 0 0-.865.862v1.106c0 1.777 1.472 4.077 3.032 4.077.086.006.171.006.257 0-1.151-1.823-.321-4.886 2.483-4.886ZM193.549 134.576h.053v-.285a.866.866 0 0 0-.865-.862h-4.329a.858.858 0 0 0-.621.248.878.878 0 0 0-.261.614v1.106c0 1.777 1.472 4.077 3.032 4.077.157-.002.313-.027.462-.076-1.093-1.811-.257-4.822 2.529-4.822ZM203.708 134.524h.268v-.222a.86.86 0 0 0-.864-.862h-4.329a.864.864 0 0 0-.865.862v1.107c0 1.776 1.467 4.077 3.026 4.077.106-.003.212-.014.316-.035-1.209-1.812-.391-4.927 2.448-4.927ZM213.814 134.576c.186 0 .372.016.555.047v-.332a.862.862 0 0 0-.864-.862h-4.364a.863.863 0 0 0-.865.862v1.106c0 1.776 1.467 4.077 3.032 4.077-1.156-1.811-.333-4.898 2.506-4.898ZM224.259 134.203c.156.001.312.011.467.029a.865.865 0 0 0-.864-.803h-4.329a.867.867 0 0 0-.865.862v1.106c0 1.776 1.473 4.077 3.032 4.077.112-.002.224-.016.333-.041-1.519-1.73-.777-5.23 2.226-5.23ZM234.716 134.646h.391v-.379a.865.865 0 0 0-.864-.862h-4.329a.87.87 0 0 0-.871.862v1.107c0 1.776 1.473 4.077 3.032 4.077h.117c-1.092-1.806-.269-4.805 2.524-4.805ZM245.482 134.291a.862.862 0 0 0-.864-.862h-4.329a.872.872 0 0 0-.611.252.857.857 0 0 0-.254.61v1.106c0 1.776 1.467 4.077 3.026 4.077.312-.008.617-.092.888-.245-1.18-1.735-.467-4.705 2.144-4.938ZM255.875 134.524v-.222a.86.86 0 0 0-.865-.862h-4.329a.864.864 0 0 0-.864.862v1.107c0 1.776 1.466 4.077 3.032 4.077.251-.004.498-.062.724-.169-1.069-1.777-.304-4.648 2.302-4.793ZM265.876 134.349h.362v-.076a.866.866 0 0 0-.87-.862h-4.329a.868.868 0 0 0-.865.862v1.107c0 1.776 1.472 4.076 3.032 4.076a1.5 1.5 0 0 0 .327-.04c-1.355-1.753-.578-5.067 2.343-5.067ZM276.613 134.727v-.436a.867.867 0 0 0-.865-.862h-4.328a.87.87 0 0 0-.871.862v1.106c0 1.776 1.472 4.077 3.032 4.077.177-.003.352-.032.52-.087-.952-1.806-.117-4.59 2.512-4.66ZM286.498 134.424c.164.003.328.014.491.035v-.168a.863.863 0 0 0-.865-.862h-4.329a.875.875 0 0 0-.611.252.863.863 0 0 0-.253.61v1.106c0 1.776 1.466 4.077 3.026 4.077.054.003.109.003.163 0-1.308-1.8-.514-5.05 2.378-5.05ZM296.96 134.873a3.01 3.01 0 0 1 .403 0v-.582a.862.862 0 0 0-.864-.862h-4.329a.866.866 0 0 0-.865.862v1.106c0 1.747 1.455 4.077 3.015 4.077-.912-1.835-.03-4.601 2.64-4.601ZM272.448 161.524v-5.743a.705.705 0 0 0-.707-.704H192.41a.706.706 0 0 0-.707.704v5.743c0 .389.317.705.707.705h79.331a.706.706 0 0 0 .707-.705ZM283.185 157.069v-.583a.87.87 0 0 0-.065-.33.88.88 0 0 0-.468-.466.858.858 0 0 0-.331-.066h-4.329a.854.854 0 0 0-.611.253.864.864 0 0 0-.254.609v1.107c0 1.776 1.467 4.077 3.032 4.077.13-.004.26-.021.386-.053-.865-1.817.017-4.531 2.64-4.548ZM186.521 156.696c.171.001.34.015.509.041v-.245a.87.87 0 0 0-.871-.862h-4.329a.875.875 0 0 0-.609.254.864.864 0 0 0-.255.608v1.107c0 1.776 1.472 4.076 3.032 4.076h.099c-1.244-1.805-.426-4.979 2.424-4.979ZM160.479 35.224h143.193c.984 0 1.927.39 2.623 1.083a3.692 3.692 0 0 1 1.087 2.615v32.615H156.769V38.922c0-.981.391-1.922 1.087-2.615a3.714 3.714 0 0 1 2.623-1.084Z" fill="#000"/><path d="M291.966 41.374H172.209A135.29 135.29 0 0 0 166.952 17h130.295a129.808 129.808 0 0 0-5.281 24.374Z" fill="#fff"/><path opacity=".2" d="M293.145 33.517c-.87 4.74-1.168 7.857-1.168 7.857H172.221s-.304-3.058-1.198-7.857h122.122Z" fill="#000"/><path d="M291.966 41.374H172.209A135.29 135.29 0 0 0 166.952 17h130.295a129.808 129.808 0 0 0-5.281 24.374v0Z" stroke="#263238" stroke-linecap="round" stroke-linejoin="round"/><path d="M290.335 61.898H172.852v48.188h117.483V61.898Z" fill="#263238"/><g opacity=".4" fill="#fff"><path opacity=".4" d="m228.664 105.823.619.029c.779-12.017 1.558-24.054 2.336-36.11-.993 12.06-1.978 24.087-2.955 36.081ZM226.666 105.671l.619.053c1.351-11.94 2.701-23.931 4.048-35.976a19010.04 19010.04 0 0 1-4.667 35.923ZM224.721 105.45c.204 0 .414.046.619.07 1.916-11.811 3.844-23.737 5.783-35.777a11861.119 11861.119 0 0 1-6.402 35.707ZM222.751 105.153l.626.099c2.484-11.648 4.988-23.49 7.512-35.527a5468.189 5468.189 0 0 1-8.138 35.428ZM220.789 104.786l.631.128a6076.472 6076.472 0 0 0 9.236-35.177 3361.414 3361.414 0 0 1-9.867 35.049ZM218.838 104.343l.631.158c3.581-11.171 7.261-22.755 10.953-34.77-3.908 12.015-7.804 23.547-11.584 34.612ZM216.893 103.819l.636.186c4.09-10.856 8.372-22.282 12.659-34.286-4.504 12.004-8.99 23.366-13.295 34.1ZM214.982 103.225l.637.204c4.621-10.484 9.47-21.73 14.353-33.716-5.123 11.986-10.193 23.151-14.99 33.512ZM213.042 102.544l.643.233c5.117-10.088 10.556-21.107 16.036-33.075-5.708 11.968-11.374 22.888-16.679 32.842ZM211.15 101.775l.642.268c5.585-9.633 11.614-20.384 17.695-32.353-6.326 11.945-12.571 22.638-18.337 32.085ZM209.275 100.913l.643.309c6.028-9.115 12.647-19.627 19.336-31.543-6.929 11.915-13.775 22.329-19.979 31.234ZM207.429 99.958l.642.349c6.426-8.544 13.653-18.76 20.949-30.646a350.684 350.684 0 0 1-21.591 30.297Z"/><path opacity=".4" d="M205.636 98.91c.21.133.432.256.648.384a304.522 304.522 0 0 0 22.526-29.645 277.156 277.156 0 0 1-23.174 29.26Z"/><path opacity=".4" d="m203.842 97.75.637.437a242.275 242.275 0 0 0 24.073-28.538 221.687 221.687 0 0 1-24.71 28.102Z"/><path opacity=".4" d="M228.319 69.615c-9.399 11.735-18.594 20.687-26.189 26.872l.625.483a196.316 196.316 0 0 0 25.564-27.355Z"/><path opacity=".4" d="M228.086 69.597c-10.013 11.648-19.798 20.163-27.62 25.52l.619.53c7.717-5.695 17.251-14.373 27.001-26.05Z"/><path opacity=".4" d="M227.834 69.58c-10.614 11.56-20.954 19.574-28.952 24.047.193.198.386.396.585.582 7.921-4.834 18.033-13.04 28.367-24.63Z"/><path opacity=".4" d="M227.618 69.556C216.425 81 205.548 88.484 197.422 92.037l.584.635c8.044-3.943 18.676-11.637 29.612-23.116Z"/><path opacity=".4" d="M196.079 90.336c.169.233.344.466.52.693 8.149-2.999 19.277-10.157 30.792-21.49-11.748 11.28-23.116 18.206-31.312 20.797Z"/><path opacity=".4" d="M194.886 88.566c.152.245.31.49.468.734 8.178-2.05 19.791-8.637 31.802-19.802-12.244 11.1-24.062 17.443-32.27 19.068Z"/><path opacity=".4" d="M193.87 86.766c.129.256.263.507.397.763 8.179-1.106 20.19-7.11 32.656-18.025-12.671 10.81-24.874 16.563-33.053 17.262Z"/><path opacity=".4" d="M193.041 84.926c.105.256.216.518.327.775 8.131-.198 20.446-5.61 33.298-16.238-12.998 10.518-25.505 15.667-33.625 15.463ZM230.644 105.904h.613c.187-12.036.382-24.088.585-36.156-.409 12.06-.809 24.112-1.198 36.156ZM232.619 105.916h.619L232.07 69.76l.549 36.156ZM234.593 105.863h.619c-.973-11.997-1.947-24.034-2.92-36.109.767 12.06 1.534 24.096 2.301 36.109ZM236.597 105.741l.619-.047c-1.557-11.908-3.115-23.89-4.673-35.946 1.34 12.056 2.691 24.054 4.054 35.993ZM238.542 105.555l.619-.076c-2.118-11.769-4.26-23.68-6.426-35.736 1.952 12.055 3.887 23.993 5.807 35.812ZM240.511 105.293l.625-.094a9554.05 9554.05 0 0 1-8.149-35.456 8273.126 8273.126 0 0 0 7.524 35.55ZM242.474 104.961l.625-.117a4880.15 4880.15 0 0 1-9.879-35.107 4043.058 4043.058 0 0 0 9.254 35.224ZM244.425 104.553l.637-.146c-3.786-11.065-7.688-22.638-11.608-34.676a2605.381 2605.381 0 0 0 10.971 34.822ZM246.376 104.075l.631-.18c-4.311-10.757-8.804-22.132-13.319-34.176 4.293 12.033 8.569 23.454 12.688 34.356ZM248.31 103.51l.642-.209c-4.831-10.379-9.931-21.55-15.031-33.588 4.896 12.015 9.756 23.273 14.389 33.797ZM250.231 102.864l.643-.239c-5.316-9.953-10.994-20.92-16.719-32.923 5.497 12.003 10.947 23.046 16.076 33.162ZM252.136 102.136c.216-.093.438-.175.648-.268-5.783-9.47-12.057-20.192-18.395-32.178 6.104 11.986 12.139 22.79 17.747 32.446ZM254.023 101.326l.648-.308c-6.221-8.928-13.097-19.371-20.049-31.334 6.712 11.951 13.349 22.499 19.401 31.642ZM255.875 100.412c.216-.111.432-.233.642-.349a352.315 352.315 0 0 1-21.673-30.402c7.338 11.94 14.605 22.184 21.031 30.751ZM257.709 99.404l.654-.384a277.856 277.856 0 0 1-23.274-29.37 304.349 304.349 0 0 0 22.62 29.754Z"/><path opacity=".4" d="M235.323 69.632a242.595 242.595 0 0 0 24.179 28.666l.649-.437a221.944 221.944 0 0 1-24.828-28.229Z"/><path opacity=".4" d="M235.557 69.615A195.664 195.664 0 0 0 261.26 97.08c.217-.157.421-.32.631-.484-7.617-6.185-16.882-15.177-26.334-26.982Z"/><path opacity=".4" d="M235.791 69.597c9.814 11.747 19.406 20.46 27.146 26.156.211-.175.427-.35.631-.53-7.851-5.347-17.7-13.885-27.777-25.626Z"/><path opacity=".4" d="M236.012 69.58c10.428 11.648 20.592 19.912 28.537 24.74.205-.192.398-.396.584-.582-8.003-4.467-18.419-12.51-29.121-24.159Z"/><path opacity=".4" d="M236.258 69.556c11.023 11.567 21.737 19.295 29.793 23.209l.584-.64c-8.126-3.513-19.091-11.026-30.377-22.569Z"/><path opacity=".4" d="M267.494 91.111c.181-.233.35-.466.526-.705-8.208-2.533-19.681-9.481-31.546-20.867 11.614 11.432 22.853 18.613 31.02 21.572Z"/><path opacity=".4" d="m268.762 89.358.479-.746c-8.22-1.543-20.148-7.903-32.521-19.097 12.145 11.258 23.828 17.863 32.042 19.843Z"/><path opacity=".4" d="M269.895 87.547c.14-.257.275-.513.409-.775-8.179-.582-20.511-6.342-33.298-17.28 12.548 11.03 24.711 17.047 32.889 18.055Z"/><path opacity=".4" d="M237.181 69.463c12.992 10.751 25.47 16.162 33.59 16.243.117-.262.228-.524.339-.786-8.108.332-20.75-4.822-33.929-15.457Z"/></g><path opacity=".2" d="M214.982 70.616c-2.214 5.661.181 22.132 16.159 22.132 15.977 0 21.778-11.573 21.129-18.725l21.329-3.424s6.537 18.008-7.343 30.605c-13.881 12.598-61.993 11.782-72.164 2.207-10.17-9.574-4.527-28.49-4.527-28.49l25.417-4.305Z" fill="#000"/><path d="M308.591 46.19v-3.972a.69.69 0 0 1 .485-.658l2.921-.909V36.68a1.793 1.793 0 0 1 1.799-1.793h3.505a.67.67 0 0 1 .678.629v1.28a.661.661 0 0 1-.66.665h-4.457v3.884a.698.698 0 0 1-.333.583l-2.489 1.502v2.767l-1.449-.006Z" fill="#999" stroke="#263238" stroke-linecap="round" stroke-linejoin="round"/><path d="M312.435 46.19h-3.844v11.462h3.844V46.19Z" fill="#263238"/><path d="M317.243 45.218h-4.808v13.407h4.808V45.218Z" fill="#757575"/><path opacity=".2" d="M317.231 53.383h-4.796v5.241h4.796v-5.241Z" fill="#000"/><path d="M317.243 45.218h-4.808v13.407h4.808V45.218Z" stroke="#263238" stroke-linecap="round" stroke-linejoin="round"/><path d="M151.716 57.646h3.844V46.184h-3.844v11.462Z" fill="#263238"/><path d="M146.908 58.619h4.808V45.212h-4.808v13.407Z" fill="#757575"/><path opacity=".2" d="M151.722 53.383h-4.808v5.113h4.808v-5.113Z" fill="#000"/><path d="M146.908 58.619h4.808V45.212h-4.808v13.407Z" stroke="#263238" stroke-linecap="round" stroke-linejoin="round"/><path d="M154.982 52.602a4.648 4.648 0 0 0-1.379-5.241l-2.827-2.33a1.712 1.712 0 0 0-1.972-.165 1.704 1.704 0 0 0-.517.468l-11.21 15.416a1.662 1.662 0 0 0-.327.996v16.558a1.673 1.673 0 0 0 1.054 1.556c.207.083.428.124.651.121a1.677 1.677 0 0 0 1.683-1.677V64.856c.001-.332.105-.655.298-.926l8.383-11.648a.909.909 0 0 1 1.332-.163l1.542 1.305a2.078 2.078 0 0 0 3.289-.821Z" fill="#fff" stroke="#263238" stroke-linecap="round" stroke-linejoin="round"/><path d="M152.668 51.094a.799.799 0 1 0 .002-1.598.799.799 0 0 0-.002 1.598Z" fill="#999" stroke="#263238" stroke-linecap="round" stroke-linejoin="round"/><path d="M305.028 40.651H159.129V63.18h145.899V40.65Z" fill="#263238"/><path opacity=".2" d="M302.919 42.346H161.18a.804.804 0 0 0-.806.804v3.646c0 .444.36.803.806.803h141.739c.445 0 .806-.36.806-.803V43.15a.805.805 0 0 0-.806-.804Z" fill="#fff"/><path d="M291.966 67.71H172.209a62.39 62.39 0 0 1-5.257-24.374h130.295c0 11.287-5.281 24.374-5.281 24.374Z" fill="#fff"/><g opacity=".7" stroke="#263238" stroke-linecap="round" stroke-linejoin="round"><path opacity=".7" d="M181.895 65.881s2.623-.14 4.089-1.019c1.467-.88 1.361.792 2.203.903.841.11 2.827-.583 3.879-.583 1.051 0 .251.641 1.437.583 1.185-.058.549.058 1.168-.058l5.076-.845s2.577-.495 3.097-.244c.52.25 1.203 1.485 1.962 1.164.76-.32.357-.582 1.502-.582a7.611 7.611 0 0 1 2.091.303s.105-.297.631-.303h.941s1.992.524 2.307.524c.316 0 2.67-.518 2.752-.524.081-.006 2.336-.582 2.336-.582a3.8 3.8 0 0 0 1.753 1.036c.853.11 1.752-.116 2.395.17.643.284 2.757-.117 2.757-.117.505.003 1.008.042 1.507.116a3.957 3.957 0 0 0 1.981-.058 7.57 7.57 0 0 1 3.622-.058c1.898.343 3.645-.519 4.451-.525.806-.005 4.031.356 5.141.356 1.11 0 4.048.396 6.093.169 2.044-.228 3.382.285 4.755.285 1.373 0 2.839-.058 3.155-.058.315 0 1.834-.99 4.007-.752 2.173.24.24-.297 1.577 0 1.338.297 2.395.583 2.962.641a6.76 6.76 0 0 0 1.361-.058l2.337-.17h11.648M179.47 61.385s7.215 0 8.518-.116c1.302-.117 1.997-.78 2.693-.78.695 0 4.206.663 4.206.663a1.162 1.162 0 0 1 1.168-.664c.952 0 .467.087 1.344.437.876.35.42 0 .882.344.688.308 1.415.52 2.161.629 0 0 3.254.151 3.377-.63.122-.78 1.752.63 1.752.63s4.417-.63 6.122-.63c1.706 0 5.982-.343 5.982-.343s3.505.46 3.669.46c.164 0 .742.915 1.367.513s1.227-.862 1.969-.746a9.12 9.12 0 0 1 1.986.746l1.63-.862 1.869.116s1.905 1.264 3.266.746a29.981 29.981 0 0 0 3.032-1.41l1.676 1.41h1.098l3.254-.63a1.97 1.97 0 0 0 2.132.63c1.379-.396 14.552 0 17.906 0 3.353 0 4.089-.862 4.089-.862l2.582.862h12.852"/></g><path opacity=".2" d="M293.187 64.344c-.707 2.096-1.221 3.366-1.221 3.366H172.21s-.584-1.223-1.385-3.366h122.362ZM295.681 55.526a93.338 93.338 0 0 1-1.285 4.962H169.522a69.007 69.007 0 0 1-1.262-4.962h127.421Z" fill="#000"/><path d="M291.966 67.71H172.209a62.39 62.39 0 0 1-5.257-24.374h130.295c0 11.287-5.281 24.374-5.281 24.374Z" stroke="#263238" stroke-linecap="round" stroke-linejoin="round"/><path d="M159.1 39.492h-3.569V64.35h3.569V39.492Z" fill="#757575"/><path opacity=".2" d="M159.03 56.976h-3.476v7.374h3.476v-7.374Z" fill="#000"/><path d="M159.1 39.492h-3.569V64.35h3.569V39.492Z" stroke="#263238" stroke-linecap="round" stroke-linejoin="round"/><path d="M308.62 39.492h-3.569V64.35h3.569V39.492Z" fill="#757575"/><path opacity=".2" d="M308.621 56.976h-3.599v7.374h3.599v-7.374Z" fill="#000"/><path d="M308.62 39.492h-3.569V64.35h3.569V39.492Z" stroke="#263238" stroke-linecap="round" stroke-linejoin="round"/><path d="M305.08 38.45v18.13H159.071V38.45h-1.402v19.347h148.813V38.45h-1.402Z" fill="#999" stroke="#263238" stroke-linecap="round" stroke-linejoin="round"/><path d="M313.709 68.991v40.658c0 .686-.274 1.343-.76 1.828a2.597 2.597 0 0 1-1.834.758H153.019a2.597 2.597 0 0 1-1.834-.758 2.583 2.583 0 0 1-.76-1.828V68.991c0-.686.274-1.343.76-1.828a2.597 2.597 0 0 1 1.834-.758h72.847v2.586s-12.437 10.757-33.882 14.723c3.072 13.868 19.862 24.461 40.121 24.461 20.259 0 37.048-10.605 40.127-24.46-21.474-3.967-33.911-14.724-33.911-14.724v-2.609h72.811A2.6 2.6 0 0 1 313.52 68c.128.315.192.652.189.992Z" fill="#fff" stroke="#263238" stroke-linecap="round" stroke-linejoin="round"/><path d="M313.709 68.991v40.658a2.593 2.593 0 0 1-.762 1.83 2.591 2.591 0 0 1-1.838.756h-158.09a2.605 2.605 0 0 1-1.838-.756 2.593 2.593 0 0 1-.762-1.83V68.991a2.593 2.593 0 0 1 .764-1.83 2.608 2.608 0 0 1 1.836-.761h72.847v2.591s-12.443 10.751-33.882 14.723c3.072 13.868 19.862 24.461 40.127 24.461 20.265 0 37.042-10.605 40.121-24.46-21.474-3.973-33.911-14.724-33.911-14.724v-2.609h72.811a2.604 2.604 0 0 1 1.83.774c.483.489.751 1.149.747 1.835Z" fill="#fff"/><path opacity=".2" d="M310.203 69.615v37.536a1.876 1.876 0 0 1-.56 1.342 1.91 1.91 0 0 1-1.35.55H154.572a1.89 1.89 0 0 1-1.898-1.892V69.615a1.89 1.89 0 0 1 .553-1.345 1.914 1.914 0 0 1 1.345-.56h71.27v1.281s-12.443 10.752-33.882 14.724c3.073 13.867 19.862 24.461 40.127 24.461 20.265 0 37.043-10.606 40.121-24.461-21.474-3.972-33.911-14.724-33.911-14.724v-1.28h70.013a1.903 1.903 0 0 1 1.893 1.904Z" fill="#fff"/><path d="M313.709 68.991v40.658a2.593 2.593 0 0 1-.762 1.83 2.591 2.591 0 0 1-1.838.756h-158.09a2.605 2.605 0 0 1-1.838-.756 2.593 2.593 0 0 1-.762-1.83V68.991a2.593 2.593 0 0 1 .764-1.83 2.608 2.608 0 0 1 1.836-.761h72.847v2.591s-12.443 10.751-33.882 14.723c3.072 13.868 19.862 24.461 40.127 24.461 20.265 0 37.042-10.605 40.121-24.46-21.474-3.973-33.911-14.724-33.911-14.724v-2.609h72.811a2.604 2.604 0 0 1 1.83.774c.483.489.751 1.149.747 1.835v0Z" stroke="#263238" stroke-linecap="round" stroke-linejoin="round"/><path opacity=".2" d="m261.483 124.285 7.764 21.59s3.359-23.762 5.363-23.762c2.003 0 6.32 12.993 6.32 12.993s2.664-6.779 5.188-7.024c2.523-.244 4.808 16.645 4.808 16.645l.391 37.49-3.184 56.697s-20.312-22.306-26.235-28.054c-5.924-5.749-11.584-18.399-13.22-20.967-1.636-2.568-2.051-16.016-2.051-16.016a14.39 14.39 0 0 0 3.062-9.272s4.766-7.956 4.474-13.826c-.292-5.871-1.028-28.684 7.32-26.494Z" fill="#000" fill-opacity=".7"/><path d="M322.594 228.873 291.843 245c0-.163-4.042-6.692-8.926-14.077a361.192 361.192 0 0 0-6.853-10.034c-3.703-5.201-8.412-9.692-8.815-10.67-1.168-2.912-10.176-13.815-12.192-18.055-2.015-4.24-2.477-17.431-3.364-20.535-.888-3.105 1.659-6.069 3.703-7.513 2.045-1.445 4.189-5.242 4.189-5.242s-2.261-8.783-2.284-13.25c-.024-4.467-1.548-20.058.274-21.514 1.823-1.456 3.453-.844 3.908.157 1.496 3.303 2.839 11.608 3.99 15.434 1.151 3.827 3.313 14.927 4.376 15.725 1.063.798 2.956-2.196 2.956-2.196s.181-9.318.584-13.179l-.584-12.231s-1.093-7.35 1.448-8.049c3.505-.961 4.785 1.235 5.182 2.161.397.926 2.033 6.261 2.033 6.261l.093.367v.175a60.458 60.458 0 0 1 .31 1.199c.777 3.035 2.273 9.109 2.208 10.606-.087 2.021-.794 13.215.205 15.538l1.554-15.462s-2.506-11.916-1.776-13.635c.73-1.718 4.171.181 4.58.857.409.675 3.75 4.764 4.346 6.325l.584 1.56s.824-3.692 2.757-2.731c1.934.961 2.174 5.655 2.308 7.705.134 2.05 1.536 15.236 1.753 15.259.216.023 2.447 6.873 2.143 11.398-.636 9.685 1.046 16.89 1.105 20.605.058 3.716-2.752 12.324-2.752 12.324.099.169 1.934 3.279 2.436 6.01.368 2.004 6.917 9.243 12.268 15.003 3.721 3.972 6.841 7.222 7.004 7.577Z" fill="#fff"/><path opacity=".4" d="M282.923 230.935a364.976 364.976 0 0 0-6.853-10.035c-3.703-5.201-8.412-9.691-8.815-10.67-1.168-2.912-10.176-13.814-12.192-18.054-2.015-4.24-2.477-17.432-3.365-20.536-.888-3.104 1.659-6.068 3.704-7.513 2.045-1.444 4.189-5.241 4.189-5.241s-2.261-8.783-2.285-13.25c-.023-4.467-1.548-20.058.275-21.514 1.823-1.456 3.453-.845 3.908.157 1.496 3.302 2.839 11.607 3.99 15.434 1.151 3.826 3.312 14.927 4.376 15.725 1.063.798 2.956-2.196 2.956-2.196s.181-9.318.584-13.18l-.584-12.23s-1.093-7.35 1.448-8.049c3.505-.961 4.785 1.235 5.182 2.161.397.926 2.033 6.26 2.033 6.26l.093.367v.175a64.609 64.609 0 0 1 .31 1.2c-.906-1.427-2.15-2.644-3.815-2.965-4.673-.908-3.663 4.275-3.219 7.385a21.46 21.46 0 0 1-.146 6.203l1.169-.67c-.841 1.497-2.045 13.937-2.045 16.704 0 2.766-2.196 3.686-4.165 2.877-1.969-.81-2.67-13.506-4.165-15.784-1.496-2.277-5.655 2.074-5.842 6.052-.187 3.977 3.534 15.841 2.652 18.637-.882 2.795-.87 13.395-.87 13.395l-1.075-2.732c.07.373 0 1.625-2.249 5.312a10.96 10.96 0 0 0-1.221 9.062c1.373 3.023 8.336 10.99 9.504 11.811 0 0 .847-3.459 3.505-2.539a15.268 15.268 0 0 0-1.951 4.659c-.549 2.54 4.995 4.165 6.73 6.582 1.063 1.473 1.776 5.963 8.249 17ZM315.625 221.302c-5.468-5.492-15.09-10.722-14.506-12.091.783-1.84-.21-5.76-1.892-8.94-1.683-3.18.584-8.34.584-8.34l1.04 3c.832-3.46.929-7.054.286-10.553-1.063-5.947-1.893-3.856-1.893-3.856s.216-5.358 1.169-8.282c.952-2.923 1.752-10.023.438-14.222-1.315-4.199-4.09-3.407-4.831-1.963-.742 1.445.052 7.076.665 8.923.614 1.846-1.997 4.95-2.05 2.644-.053-2.307-1.04-8.736-1.04-8.736l1.981-12.912-1.981-10.256s.824-3.693 2.758-2.732c1.933.961 2.173 5.655 2.307 7.705.134 2.05 1.536 15.236 1.753 15.259.216.024 2.447 6.873 2.143 11.398-.636 9.685 1.046 16.89 1.105 20.606.058 3.715-2.752 12.323-2.752 12.323.099.169 1.934 3.279 2.436 6.011.368 2.003 6.917 9.242 12.268 15.002l.012.012ZM292.988 134.163c.111.291.204.53.274.722-1.857-4.304-5.024-2.97-5.584-1.747-.561 1.223 1.326 8.811 1.752 9.988.427 1.176-1.694 10.57-2.004 13.681-.309 3.11-1.133 3.744-1.133 3.744-2.097.158-2.337-5.614-2.337-6.406.041.663.171 1.317.386 1.945l1.554-15.463s-2.565-11.927-1.835-13.645c.731-1.719 4.172.18 4.58.856.409.675 3.751 4.764 4.347 6.325Z" fill="#fff"/><path d="M322.594 228.873c-.397-.897-18.641-19.219-19.278-22.585-.514-2.808-2.442-6.017-2.442-6.017s2.81-8.59 2.752-12.323c-.059-3.734-1.753-10.92-1.104-20.606.304-4.525-1.922-11.374-2.144-11.397-.222-.024-1.624-13.209-1.753-15.259-.128-2.051-.368-6.745-2.307-7.706-1.94-.961-2.757 2.732-2.757 2.732l-.585-1.561c-.584-1.561-3.937-5.649-4.346-6.325-.409-.676-3.844-2.58-4.58-.856-.736 1.724 1.829 13.622 1.829 13.622l-1.543 15.481c-.999-2.33-.292-13.518-.204-15.539.088-2.021-2.658-12.347-2.658-12.347s-1.648-5.311-2.033-6.267c-.386-.955-1.677-3.121-5.182-2.16-2.541.699-1.448 8.049-1.448 8.049l.584 12.23c-.392 3.879-.584 13.18-.584 13.18s-1.893 2.988-2.956 2.196c-1.064-.793-3.225-11.887-4.376-15.725-1.151-3.838-2.494-12.132-3.99-15.434-.455-1.002-2.085-1.613-3.908-.157s-.304 17.041-.275 21.514c.03 4.473 2.285 13.249 2.285 13.249s-2.144 3.774-4.189 5.242-4.592 4.403-3.704 7.513c.888 3.11 1.35 16.307 3.365 20.536 2.016 4.228 11 15.142 12.192 18.054.403.979 5.112 5.469 8.815 10.67 7.273 10.209 15.773 23.878 15.773 24.111" stroke="#263238" stroke-linecap="round" stroke-linejoin="round"/><path d="M259.585 158.891s1.449 7.158 1.396 8.358c0 0-1.268 5.527-1.279 9.109a36.352 36.352 0 0 0-2.384 4.211c-.49 1.293-1.367 4.472-1.005 6.243" stroke="#263238" stroke-linecap="round" stroke-linejoin="round"/><path d="M256.938 169.468s3.552.029 3.324 1.52M259.701 176.358s-2.278-.984-3.078.338M272.816 153.242s-.164 5.486-1.612 5.05M284.336 156.073s-.42 2.999.713 3.925M293.578 135.724s1.577 7.571 1.939 9.365c.362 1.793-1.793 10.949-1.752 13.331.04 2.382 1.063 5.789.923 7.391M299.875 193.224s-.508 4.945 1.017 7.059M269.247 203.009s-3.4 3.086-2.156 6.884M291.592 164.523c.052 2.179-1.227 4.718-1.362 7.729M280.761 162.578c.724 1.782-.853 5.661-1.092 7.117a8.879 8.879 0 0 0 .368 3.378M301.119 168.717c-.292 1.892-1.635 3.244-1.892 9.068M267.95 162.025c.982 1.066.322 6.156.584 6.989M286.252 132.701s3.342-2.441 6.216.437M274.744 127.092s.584-.972 3.405-.734c2.822.239 3.324 1.823 3.324 1.823" stroke="#263238" stroke-linecap="round" stroke-linejoin="round"/><path d="M266.501 143.72s-.946-1.392-3.441-.932c-2.494.46-3.604 3.978-3.604 3.978" fill="#fff"/><path d="M266.501 143.72s-.946-1.392-3.441-.932c-2.494.46-3.604 3.978-3.604 3.978M300.395 155.956s-2.079-3.005-4.58-1.718" stroke="#263238" stroke-linecap="round" stroke-linejoin="round"/><path opacity=".2" d="M211.799 133.941c3.505 2.708.549 19.33.549 19.33l.31 5.411 6.011-2.609 2.74 11.56s-.07 4.234 2.156 5.824c0 0 .549 9.499 0 16.442-.55 6.942-11.684 15.101-15.522 22.387-3.838 7.286-28.87 28.701-28.87 28.701l-21.194-10.052 15.323-61.7 13.728-17.595 8.138-20.238s1.396 13.22.584 22.131l16.047-19.592Z" fill="#000" fill-opacity=".7"/><path d="M217.699 170.866c-.531 2.551.748 16.534.526 18.421-.222 1.887-11.38 14.56-11.94 15.521-.561.961-8.021 5.242-9.756 7.286-8.109 9.429-12.537 18.113-16.094 26.82a232.45 232.45 0 0 0-1.981 5.049l-32.176-18.636c2.705-3.343 5.257-6.314 7.594-9.016 4.674-5.481 8.395-9.866 10.217-14.007a23.1 23.1 0 0 1 1.917-3.028c.724-1.025 1.372-1.87 1.372-1.87s-2.336-6.564-1.793-8.625c.543-2.062-.672-19.01-.672-19.01s-1.583-11.538-3.143-14.45a4.784 4.784 0 0 1-.502-2.457c.076-2.662 1.624-6.017 2.383-9.901 1.017-5.242.526-7.834 3.716-6.022 3.189 1.811 1.7 12.813 1.7 12.813l4.819 10.646c1.268-2.574 0-10.087-.064-11.864 0-.291 0-.774-.047-1.403-.099-3.064-.304-9.441-.041-11.957 0-.14 0-.268.047-.384.391-2.598 1.787-10.862 2.675-11.782 1.321-1.363 3.418-2.511 5.392.582 1.104 1.747.631 15.603.631 15.603s4.58-5.51 5.971-6.855c1.39-1.346 5.608-3.803 6.735-.955 1.128 2.848-3.032 11.648-3.032 11.648.871 2.038.976 7.682.976 7.682s1.969 7.053 3.178 6.988h.052c.351-.075.736-1.357 1.139-3.156.994-4.409 2.074-11.951 2.921-12.609l.585-.466a.432.432 0 0 1 .093-.088l.216-.192c2.068-1.834 6.426-5.911 6.426-5.911s.31-1.951 4.124-1.351c3.815.6-1.694 11.823-1.694 11.823-.765 3.57-1.939 12.754-1.939 12.754-.357 3.821-.146 14.089-.146 14.089s1.805-5.976 1.688-8.154c-.117-2.178 3.587-7.513 4.673-8.888 1.087-1.374 5.936-.891 4.586 1.748-1.349 2.638-.8 11.001-1.332 13.564Z" fill="#fff"/><path opacity=".4" d="M164.072 202.327c.559-1.057 1.2-2.07 1.916-3.028 0 0-1.899 5.241-2.086 8.031-.122 1.84-4.983 5.026-10.048 9.004 4.703-5.48 8.395-9.866 10.218-14.007ZM165.988 199.299c.724-1.025 1.373-1.87 1.373-1.87s-2.337-6.563-1.794-8.625c.543-2.062-.672-19.01-.672-19.01s-1.583-11.537-3.143-14.449l3.634 6.33s-.356 5.003.678 7.746c1.034 2.743 2.336 11.113 2.336 11.113s-1.53 7.035-1.01 9.569c.52 2.533 2.862 1.613 2.862 1.613s1.151 4.636-4.264 7.583ZM174.464 151.64c2.506 14.63-1.811 10.583-3.371 7.426-1.559-3.157-5.222-9.132-7.979-7.857a4.312 4.312 0 0 0-1.864 1.678c.076-2.662 1.624-6.017 2.383-9.901 1.017-5.242.526-7.833 3.716-6.022 3.189 1.811 1.7 12.813 1.7 12.813l4.819 10.646c1.268-2.574 0-10.087-.064-11.864 0-.291 0-.774-.047-1.403.193 1.345.427 2.842.707 4.484ZM180.598 137.185s-2.705-3.529-5.053-3.349a2.072 2.072 0 0 0-1.829 1.346c0-.14 0-.268.047-.385.391-2.597 1.788-10.862 2.676-11.782 1.32-1.363 3.417-2.51 5.392.583 1.104 1.747.63 15.602.63 15.602s4.58-5.509 5.971-6.855c1.39-1.345 5.608-3.803 6.735-.955 1.128 2.848-3.032 11.648-3.032 11.648.871 2.039.976 7.682.976 7.682s1.969 7.053 3.178 6.989c-2.664 4.997-4.44-6.051-4.44-6.051.397-2.283-1.016-7.234-.876-8.538.14-1.305-2.454-5.917-6.823-4.659-4.37 1.258-1.215 18.473-1.215 18.473a9.602 9.602 0 0 0-1.461 4.555c-1.349-1.66 0-6.407 0-6.407-1.197-4.542-.876-17.897-.876-17.897ZM200.963 141.454c-1.864 1.951-1.607 6.884-3.505 13.075.993-4.409 2.073-11.951 2.92-12.609l.585-.466ZM217.699 170.866c-.531 2.551.748 16.534.526 18.421-.222 1.887-11.38 14.56-11.941 15.521-.56.961-8.02 5.242-9.755 7.286-8.109 9.429-12.537 18.113-16.094 26.82 1.34-4.514 2.957-8.94 4.842-13.256 3.838-8.602 5.404-10.134 7.706-12.591 2.301-2.458 2.05-7.682 2.05-7.682a22.16 22.16 0 0 1 5.188-.612c2.921 0 11.566-12.289 14.54-14.443 2.973-2.155 3.505-2.155 0-6.908-3.505-4.752-2.512.763-3.564.583-1.051-.181-1.624 2.114-1.624 2.114-.368-4.846-3.505-10.484-4.165-11.893-.66-1.409 1.601-9.674 1.133-11.974-.467-2.301 2.01-16.308 2.01-16.308s-.31-5.375-5.193-5.393a3.215 3.215 0 0 0-2.092.629c2.068-1.834 6.426-5.911 6.426-5.911s.31-1.951 4.125-1.351c3.814.6-1.695 11.823-1.695 11.823-.765 3.57-1.939 12.754-1.939 12.754-.356 3.821-.146 14.089-.146 14.089s1.805-5.976 1.688-8.154c-.117-2.178 3.587-7.513 4.674-8.887 1.086-1.375 5.935-.892 4.585 1.747-1.349 2.638-.753 11.013-1.285 13.576Z" fill="#fff"/><path d="M178.448 244.016c3.967-10.443 8.401-20.635 18.081-31.893 1.752-2.015 9.189-6.296 9.755-7.286.567-.99 11.725-13.64 11.941-15.521.216-1.881-1.057-15.87-.526-18.421.532-2.551-.087-10.961 1.256-13.582 1.344-2.621-3.505-3.098-4.586-1.747-1.08 1.351-4.772 6.732-4.673 8.887.099 2.155-1.688 8.154-1.688 8.154s-.211-10.268.146-14.088c0 0 1.168-9.185 1.939-12.755 0 0 5.503-11.229 1.694-11.823-3.808-.594-4.124 1.351-4.124 1.351s-6.081 5.696-7.285 6.628c-1.203.932-2.845 15.492-4.054 15.766-1.209.274-3.23-6.989-3.23-6.989s-.105-5.644-.976-7.682c0 0 4.154-8.777 3.032-11.648-1.122-2.871-5.339-.384-6.736.955-1.396 1.34-5.97 6.855-5.97 6.855s.473-13.867-.631-15.603c-1.974-3.104-4.089-1.957-5.392-.582-.888.92-2.284 9.184-2.675 11.782-.392 2.597 0 11.963.041 13.745s1.332 9.289.064 11.863l-4.819-10.646s1.495-11.013-1.7-12.813c-3.196-1.8-2.699.798-3.716 6.022-1.016 5.224-3.435 9.47-1.881 12.388 1.554 2.918 3.143 14.449 3.143 14.449s1.203 16.948.672 19.01c-.532 2.062 1.811 8.631 1.811 8.631s-2.699 3.547-3.289 4.898c-2.722 6.168-9.61 12.912-17.8 23.058" stroke="#263238" stroke-linecap="round" stroke-linejoin="round"/><path d="M182.462 139.212a5.707 5.707 0 0 0-.982 3.395c0 2.213 1.455 14.328 1.455 14.328s-1.057 1.246-1.11 2.329M208.02 172.578a17.028 17.028 0 0 0 1.559 5.905c1.367 2.691.923 4.176.456 5.766a20.494 20.494 0 0 0-.497 4.246M174.383 158.012s1.016 3.215-.871 4.741M196.342 157.686s.199 1.264-1.595 1.38M208.388 143.126s-4.499-4.893-7.992-1.206" stroke="#263238" stroke-linecap="round" stroke-linejoin="round"/><path d="M190.161 140.377s-2.074-2.615-3.873-2.458c-1.799.157-4.229 1.252-4.504 2.691M210.42 182.677a10.265 10.265 0 0 1 1.56 3.418M198.737 162.793c-1.396 2.592-.73 6.989-1.244 8.195M183.946 158.489c.327 1.491-.707 3.92-.865 5.708-.157 1.788 1.309 4.549 1.04 7.059M174.464 164.593s-1.22 2.807-1.168 4.659c.053 1.852.713 5.912.713 5.912M165.485 164.459s-.443 2.912.585 4.962 2.027 6.407 2.027 6.407M167.361 197.423a2.78 2.78 0 0 0 2.027-2.382M196.727 206.299s1.116 4.118-1.022 6.768M161.279 152.398s3.143-3.058 5.521-.478M173.763 134.797s2.337-2.44 5.071.169" stroke="#263238" stroke-linecap="round" stroke-linejoin="round"/></svg>