<svg fill="none" xmlns="http://www.w3.org/2000/svg" viewBox="0 0 426 320"><path d="M366.837 151.846c-3.554-17.422-9.794-34.428-17.213-50.062-12.792-26.972-33.749-49.369-60.56-62.664-65.789-32.627-113.265-19.033-139.038 7.477-25.773 26.51-18.312 72.051-46.12 91.763-27.808 19.712-47.477 28.549-48.833 64.574-1.356 36.026 16.278 63.215 44.764 72.052 28.485 8.836 71.214 37.385 156.672 21.071 85.457-16.313 106.482-61.855 111.908-94.482 2.713-16.416 1.777-33.259-1.58-49.729Z" fill="#CBCBCB"/><path opacity=".7" d="M366.837 151.846c-3.554-17.422-9.794-34.428-17.213-50.062-12.792-26.972-33.749-49.369-60.56-62.664-65.789-32.627-113.265-19.033-139.038 7.477-25.773 26.51-18.312 72.051-46.12 91.763-27.808 19.712-47.477 28.549-48.833 64.574-1.356 36.026 16.278 63.215 44.764 72.052 28.485 8.836 71.214 37.385 156.672 21.071 85.457-16.313 106.482-61.855 111.908-94.482 2.713-16.416 1.777-33.259-1.58-49.729Z" fill="#fff"/><path d="M166.52 52.388h-6.145v27.291h6.145V52.388Z" fill="#C9C9C9" stroke="#263238" stroke-linecap="round" stroke-linejoin="round"/><path d="M166.52 56.494h-6.145v2.664h6.145v-2.664ZM166.52 73.425h-6.145v2.665h6.145v-2.665Z" fill="#fff" stroke="#263238" stroke-linecap="round" stroke-linejoin="round"/><path d="M173.689 52.388h-8.6v27.291h8.6V52.388Z" fill="#878787" stroke="#263238" stroke-linecap="round" stroke-linejoin="round"/><path d="M173.079 52.388h-6.145v27.291h6.145V52.388Z" fill="#C9C9C9" stroke="#263238" stroke-linecap="round" stroke-linejoin="round"/><path d="M173.079 56.494h-6.145v2.664h6.145v-2.664ZM173.079 73.425h-6.145v2.665h6.145v-2.665Z" fill="#fff" stroke="#263238" stroke-linecap="round" stroke-linejoin="round"/><path d="M180.241 52.388h-8.6v27.291h8.6V52.388Z" fill="#878787" stroke="#263238" stroke-linecap="round" stroke-linejoin="round"/><path d="M179.631 52.388h-6.145v27.291h6.145V52.388Z" fill="#C9C9C9" stroke="#263238" stroke-linecap="round" stroke-linejoin="round"/><path d="M179.631 56.494h-6.145v2.664h6.145v-2.664ZM179.631 73.425h-6.145v2.665h6.145v-2.665Z" fill="#fff" stroke="#263238" stroke-linecap="round" stroke-linejoin="round"/><path d="M186.793 52.388h-8.6v27.291h8.6V52.388Z" fill="#C9C9C9" stroke="#263238" stroke-linecap="round" stroke-linejoin="round"/><path d="M192.396 79.958h14.432l3.839-3.48h-18.271v3.48Z" fill="#fff" stroke="#263238" stroke-linecap="round" stroke-linejoin="round"/><path d="m209.032 80.134-.461-.795-16.474-.034.474.83h16.461Z" fill="#fff" stroke="#263238" stroke-linecap="round" stroke-linejoin="round"/><path d="m184.039 52.956-5.319 3.083 13.632 23.626 5.319-3.083-13.632-23.626Z" fill="#C9C9C9" stroke="#263238" stroke-linecap="round" stroke-linejoin="round"/><path d="m186.092 56.5-5.32 3.084 1.331 2.306 5.32-3.083-1.331-2.306ZM194.554 71.157l-5.319 3.083 1.331 2.306 5.319-3.083-1.331-2.306Z" fill="#fff" stroke="#263238" stroke-linecap="round" stroke-linejoin="round"/><path d="m210.572 76.715-13.043-.034-13.632-23.627 13.042.034 13.633 23.627Z" fill="#C9C9C9" stroke="#263238" stroke-linecap="round" stroke-linejoin="round"/><path d="M217.68 66.139s-2.374-.85-3.053-4.588c-.678-3.739-1.865-9.007-.508-10.196 1.356-1.19 3.9-1.87 4.239.51.339 2.378-.17 6.967.339 7.986.509 1.02 2.204.34 2.204-1.7 0-3.357-1.356-6.796-.875-10.195.678-4.697 5.426-5.214 5.935 0 .285 2.882.366 5.825.366 8.72 0 1.19 2.035 1.87 1.865-1.019-.122-2.039 1.357-4.418 3.391-3.738 2.035.68.339 9.686-.339 11.215-.678 1.53-4.917 1.815-4.917 1.815v3.909l-5.087.17-.169-3.909c-1.036.6-2.197.95-3.391 1.02Z" fill="#CBCBCB" stroke="#263238" stroke-linecap="round" stroke-linejoin="round"/><path d="M222.258 58.689c.061.85.102 1.36.102 1.36M222.597 45.51s-1.113.774-1.031 3.099c.054 1.414.325 5.329.536 8.19M224.509 53.523l.177 5.69M226.992 62.91c-.393.061-.79.095-1.187.102M230.532 53.353a5.255 5.255 0 0 0-.603 2.413c0 1.36.088 5.173-.773 6.206a2.247 2.247 0 0 1-.753.544M215.815 61a5.504 5.504 0 0 0 1.411 2.719 2.49 2.49 0 0 0 3.011.081M215.652 51.803s-1.716 0-1.119 3.012c.258 1.27.495 2.834.8 4.31M222.102 63.264l.345 3.704" stroke="#263238" stroke-linecap="round" stroke-linejoin="round"/><path d="m230.905 67.328-.617 5.07-.42 3.454-.489 4.017h-12.201l-.488-4.017-.421-3.453-.617-5.07h15.253Z" fill="#fff" stroke="#263238" stroke-linecap="round" stroke-linejoin="round"/><path d="m230.288 72.4-.42 3.452H216.69l-.421-3.453h14.019Z" fill="#CBCBCB" stroke="#263238" stroke-linecap="round" stroke-linejoin="round"/><path d="M237.606 79.87h-78.315v5.2h78.315v-5.2Z" fill="#fff" stroke="#263238" stroke-linecap="round" stroke-linejoin="round"/><path d="M237.606 79.87h-18.054v5.2h18.054v-5.2Z" fill="#fff" stroke="#263238" stroke-linecap="round" stroke-linejoin="round"/><path d="M217.795 85.09c8.39 3.1 6.877 8.959 6.877 8.959h7.942v-8.96h-14.819Z" fill="#919191" stroke="#263238" stroke-linecap="round" stroke-linejoin="round"/><path d="M220.474 85.09c8.383 3.1 6.871 8.959 6.871 8.959h7.949v-8.96h-14.82Z" fill="#fff" stroke="#263238" stroke-linecap="round" stroke-linejoin="round"/><path d="M164.045 85.09c8.39 3.1 6.877 8.959 6.877 8.959h7.942v-8.96h-14.819Z" fill="#919191" stroke="#263238" stroke-linecap="round" stroke-linejoin="round"/><path d="M166.724 85.09c8.383 3.1 6.87 8.959 6.87 8.959h7.949v-8.96h-14.819Z" fill="#fff" stroke="#263238" stroke-linecap="round" stroke-linejoin="round"/><path d="M346.741 53.36h-70.238v97.718h70.238V53.36Z" fill="#919191" stroke="#263238" stroke-linecap="round" stroke-linejoin="round"/><path d="M343.696 57.602h-64.141v89.234h64.141V57.602Z" fill="#CBCBCB"/><path opacity=".5" d="M343.696 57.602h-64.141v89.234h64.141V57.602Z" fill="#fff"/><path d="M293.655 140.06a26.48 26.48 0 0 1-6.416 6.797h56.456V57.602h-10.404l-1.356.428c-10.174 3.215-20.686 12.52-26.648 29.432" stroke="#263238" stroke-linecap="round" stroke-linejoin="round"/><path d="M304.297 90.426a96.862 96.862 0 0 0-3.893 24.81c-.373 10.087-2.516 17.34-5.379 22.553M337.422 80.25c-9.326 5.438-20.184 14.574-24.24 28.583-2.177 7.477-.136 14.22 3.9 19.991M319.266 131.638c5.595 6.566 13.564 11.732 20.014 15.205h4.416v-69.89a62.06 62.06 0 0 0-4.002 2.04M290.217 80.869c4.911-10.033 5.426-17.993 4.863-23.267h-15.511v40.824c2.292-3.27 5.1-7.64 8.491-13.5.211-.36.407-.68.604-1.06M296.294 119.511c-.753 4.942-3.018 8.531-5.69 8.531-3.29 0-5.962-5.438-5.962-12.167 0-6.73 2.672-12.167 5.962-12.167 3.289 0 5.961 5.437 5.961 12.167M299.122 90.902c0 2.59-1.139 4.697-2.557 4.697-1.417 0-2.55-2.108-2.55-4.697 0-2.59 1.14-4.697 2.55-4.697 1.411 0 2.557 2.1 2.557 4.697Z" stroke="#263238" stroke-linecap="round" stroke-linejoin="round"/><path d="M331.664 110.743c2.462 1.176 4.069 3.228 4.069 5.56 0 3.65-4.001 6.614-8.946 6.614-4.944 0-8.939-2.964-8.939-6.614s4.002-6.621 8.939-6.621c.788 0 1.574.077 2.347.231" stroke="#263238" stroke-linecap="round" stroke-linejoin="round"/><path d="M330.558 116.303c0 1.529-1.675 2.773-3.75 2.773-2.076 0-3.751-1.244-3.751-2.773 0-1.529 1.682-2.78 3.751-2.78 2.068 0 3.75 1.244 3.75 2.78ZM336.608 99.439c0 2.121-2.096 3.84-4.687 3.84-2.59 0-4.686-1.719-4.686-3.84 0-2.12 2.096-3.84 4.686-3.84 2.591 0 4.687 1.72 4.687 3.84ZM302.744 78.096c1.764 0 3.194-3.537 3.194-7.899s-1.43-7.898-3.194-7.898-3.195 3.536-3.195 7.898 1.431 7.898 3.195 7.898ZM311.48 138.075a4.49 4.49 0 0 1-2.764 4.145 4.472 4.472 0 0 1-6.103-3.27 4.492 4.492 0 0 1 1.903-4.605 4.47 4.47 0 0 1 5.652.558 4.488 4.488 0 0 1 1.312 3.172ZM332.349 71.475a2.79 2.79 0 0 1-.465 1.547 2.77 2.77 0 0 1-4.271.426 2.785 2.785 0 0 1 .425-4.28 2.768 2.768 0 0 1 3.498.348c.519.52.811 1.224.813 1.959ZM314.884 91.112a1.502 1.502 0 0 1-.916 1.387 1.491 1.491 0 0 1-2.039-1.085 1.498 1.498 0 0 1 1.463-1.79 1.475 1.475 0 0 1 1.055.433 1.495 1.495 0 0 1 .437 1.055v0Z" stroke="#263238" stroke-linecap="round" stroke-linejoin="round"/><path d="M343.696 57.602h-64.141v89.234h64.141V57.602Z" stroke="#263238" stroke-linecap="round" stroke-linejoin="round"/><path d="M238.867 184.847h-17.424v6.573h17.424v-6.573Z" fill="#263238" stroke="#263238" stroke-linecap="round" stroke-linejoin="round"/><path d="M262.246 185.839h-69.35l3.283-53.875h69.356l-3.289 53.875Z" fill="#919191" stroke="#263238" stroke-linecap="round" stroke-linejoin="round"/><path d="M260.259 185.839H190.91l3.282-53.875h69.35l-3.283 53.875Z" fill="#263238" stroke="#263238" stroke-linecap="round" stroke-linejoin="round"/><path d="M256.59 182.842h-61.645l2.916-47.887h61.645l-2.916 47.887Z" fill="#fff" stroke="#263238" stroke-linecap="round" stroke-linejoin="round"/><path d="M238.657 175.705h-41.874l2.245-36.903h41.881l-2.252 36.903Z" fill="#919191" stroke="#263238" stroke-linecap="round" stroke-linejoin="round"/><path d="M213.305 159.853s-8.722 3.46-8.776 4.391c-.055.932-1.764 11.461-1.764 11.461h25.936l-2.184-12.127-9.597-3.996-3.615.271Z" fill="#fff" stroke="#263238" stroke-linecap="round" stroke-linejoin="round"/><path d="M213.563 157.719a4.554 4.554 0 0 0-1.784.931c-.678.68-1.506 2.93-1.506 2.93l-.034 2.664 3.439-1.862 3.493-.231 3.269 3.065.42-4.662s-.501-2.665-1.56-2.801c-1.058-.136-5.737-.034-5.737-.034Z" fill="#fff" stroke="#263238" stroke-linecap="round" stroke-linejoin="round"/><path d="m213.454 155.19-.149 4.663 2.055 3.331 3.398-3.467.529-4.261-5.833-.266Z" fill="#fff" stroke="#263238" stroke-linecap="round" stroke-linejoin="round"/><path d="M221.837 149.739c-.244 3.908-2.835 8.646-5.677 8.646-2.842 0-4.856-4.758-4.619-8.646.238-3.888 2.713-7.076 5.576-7.076 2.862 0 4.957 3.174 4.72 7.076Z" fill="#fff" stroke="#263238" stroke-linecap="round" stroke-linejoin="round"/><path d="M211.494 150.256s-.916-2.393-1.296-.53c-.379 1.862 1.492 3.861 1.492 3.861l-.196-3.331ZM221.837 149.739s2.245-.945 1.587 1.054a3.944 3.944 0 0 1-2.278 2.528l.691-3.582ZM215.882 150.255a1.731 1.731 0 0 0-1.75-1.862 2.038 2.038 0 0 0-1.973 1.862 1.741 1.741 0 0 0 1.749 1.87 2.037 2.037 0 0 0 1.974-1.87Z" fill="#fff" stroke="#263238" stroke-linecap="round" stroke-linejoin="round"/><path d="m220.399 150.256 2.028-.531" stroke="#263238" stroke-linecap="round" stroke-linejoin="round"/><path d="M220.399 150.256a1.734 1.734 0 0 0-1.743-1.863 2.035 2.035 0 0 0-1.98 1.863 1.739 1.739 0 0 0 1.75 1.869 2.035 2.035 0 0 0 1.973-1.869Z" fill="#fff" stroke="#263238" stroke-linecap="round" stroke-linejoin="round"/><path d="M216.655 141.861s-2.035-1.061-3.561-.394c-1.526.666-2.651 4.262-2.577 5.193a26.03 26.03 0 0 0 .977 3.596l1.614-4.663 4.232-1.863-.685-1.869Z" fill="#263238" stroke="#263238" stroke-linecap="round" stroke-linejoin="round"/><path d="M214.607 142.799s3.351-2.665 6.064-1.36a4.077 4.077 0 0 1 2.394 4.398c-.041.68-.095 3.725-.095 3.725l-1.614.272-.794-2.508a23.112 23.112 0 0 1-2.672-1.264s-3.588-.469-3.283-3.263Z" fill="#263238" stroke="#263238" stroke-linecap="round" stroke-linejoin="round"/><path d="m215.882 150.256-.237 3.867h.929" fill="#fff"/><path d="m215.882 150.256-.237 3.867h.929M215.157 155.585h1.994M215.36 163.184l-.739 12.12M226.503 163.578s-2.774 6.267-2.855 7.6c-.082 1.332-.394 4.262-.394 4.262M204.528 164.245s2.761 4.799 3.12 5.437c.36.639-.081 5.731-.081 5.731" stroke="#263238" stroke-linecap="round" stroke-linejoin="round"/><path d="m228.354 168.112.916-4.133 1.56-1.597 1.472-2.4h.665l-.814 2.536 2.061-1.203 1.33-2.128.773.394-1.899 4.935-3.011 1.462-.523 1.998-2.53.136Z" fill="#fff" stroke="#263238" stroke-linecap="round" stroke-linejoin="round"/><path d="m230.932 175.705.251-8.259-3.025-.537-2.387 8.796h5.161ZM238.474 178.77h-41.881l.19-3.065h41.874l-.183 3.065Z" fill="#fff" stroke="#263238" stroke-linecap="round" stroke-linejoin="round"/><path d="M198.302 176.908h38.422" stroke="#263238" stroke-linecap="round" stroke-linejoin="round"/><path d="M256.658 148.651h-14.094l.597-9.726h14.094l-.597 9.726Z" fill="#CBCBCB" stroke="#263238" stroke-linecap="round" stroke-linejoin="round"/><path d="M256.658 148.651h-14.094l.102-1.597h14.093l-.101 1.597ZM252.107 143.221l-3.663-2.196-.264 4.391 3.927-2.195Z" fill="#fff" stroke="#263238" stroke-linecap="round" stroke-linejoin="round"/><path d="M255.742 163.707h-14.094l.59-9.72h14.094l-.59 9.72Z" fill="#CBCBCB" stroke="#263238" stroke-linecap="round" stroke-linejoin="round"/><path d="M255.742 163.707h-14.094l.102-1.597h14.087l-.095 1.597ZM251.191 158.283l-3.663-2.195-.264 4.391 3.927-2.196Z" fill="#fff" stroke="#263238" stroke-linecap="round" stroke-linejoin="round"/><path d="M254.819 178.77h-14.087l.59-9.727h14.094l-.597 9.727Z" fill="#CBCBCB" stroke="#263238" stroke-linecap="round" stroke-linejoin="round"/><path d="M254.819 178.77h-14.087l.095-1.597h14.094l-.102 1.597ZM250.268 173.339l-3.655-2.195-.272 4.391 3.927-2.196Z" fill="#fff" stroke="#263238" stroke-linecap="round" stroke-linejoin="round"/><path d="M242.604 150.256h13.687M242.503 151.86h13.693M241.675 165.448h13.694M241.581 167.045h13.693" stroke="#263238" stroke-linecap="round" stroke-linejoin="round"/><path d="M235.606 191.42H225.31c0-1.029.408-2.016 1.134-2.744a3.87 3.87 0 0 1 2.739-1.137h2.536a3.87 3.87 0 0 1 2.739 1.137 3.886 3.886 0 0 1 1.134 2.744h.014Z" fill="#fff" stroke="#263238" stroke-linecap="round" stroke-linejoin="round"/><path d="M220.406 189.306h-50.339v2.114h50.339v-2.114Z" fill="#919191" stroke="#263238" stroke-linecap="round" stroke-linejoin="round"/><path d="M220.392 189.306h-12.649v2.114h12.649v-2.114Z" fill="#fff" stroke="#263238" stroke-linecap="round" stroke-linejoin="round"/><path d="M149.436 87.809V47.644M149.436 288.825V91.805" stroke="#263238" stroke-linecap="round" stroke-linejoin="round"/><path d="m240.957 205.517 6.104 82.472a1.186 1.186 0 0 0 2.367-.102l-.916-82.37h-7.555Z" fill="#919191" stroke="#263238" stroke-linecap="round" stroke-linejoin="round"/><path d="m245.562 205.517 3.222 83.423a1.185 1.185 0 0 0 .624-1.053l-.896-82.37h-2.95Z" fill="#fff" stroke="#263238" stroke-linecap="round" stroke-linejoin="round"/><path d="m279.325 205.517 6.104 82.472a1.183 1.183 0 0 0 2.029.706 1.19 1.19 0 0 0 .338-.808l-.916-82.37h-7.555Z" fill="#919191" stroke="#263238" stroke-linecap="round" stroke-linejoin="round"/><path d="m283.57 205.517 3.758 83.301a1.17 1.17 0 0 0 .447-.931l-.895-82.37h-3.31Z" fill="#fff" stroke="#263238" stroke-linecap="round" stroke-linejoin="round"/><path d="m178.186 206.415-6.104 81.567a1.183 1.183 0 0 1-1.18 1.101 1.178 1.178 0 0 1-1.113-.724 1.185 1.185 0 0 1-.095-.458l.902-81.704 7.59.218ZM139.852 206.415l-6.104 81.567a1.183 1.183 0 0 1-1.18 1.101 1.183 1.183 0 0 1-1.18-1.203l.902-81.703 7.562.238Z" fill="#263238" stroke="#263238" stroke-linecap="round" stroke-linejoin="round"/><path d="M289.125 193.336H129.991v12.847h159.134v-12.847Z" fill="#919191" stroke="#263238" stroke-linecap="round" stroke-linejoin="round"/><path d="M289.125 193.336h-45.604v12.847h45.604v-12.847Z" fill="#fff" stroke="#263238" stroke-linecap="round" stroke-linejoin="round"/><path d="M289.125 195.376H129.991v3.541h159.134v-3.541Z" fill="#263238" stroke="#263238" stroke-linecap="round" stroke-linejoin="round"/><path d="M291.417 191.495H127.698v4.295h163.719v-4.295Z" fill="#919191" stroke="#263238" stroke-linecap="round" stroke-linejoin="round"/><path d="M291.41 191.495h-44.96v4.295h44.96v-4.295ZM243.141 111.851h-22.097a4.339 4.339 0 0 0-3.07 1.274 4.355 4.355 0 0 0-1.271 3.076v8.157a4.344 4.344 0 0 0 4.341 4.35h11.571l-4.334 12.133 8.301-12.133h6.559a4.33 4.33 0 0 0 4.012-2.685 4.343 4.343 0 0 0 .328-1.665v-8.157c0-1.154-.457-2.26-1.271-3.076a4.335 4.335 0 0 0-3.069-1.274Z" fill="#fff" stroke="#263238" stroke-linecap="round" stroke-linejoin="round"/><path d="M226.171 122.135c.873 0 1.58-.709 1.58-1.584 0-.875-.707-1.584-1.58-1.584-.873 0-1.58.709-1.58 1.584 0 .875.707 1.584 1.58 1.584ZM232.092 122.135c.873 0 1.58-.709 1.58-1.584 0-.875-.707-1.584-1.58-1.584-.873 0-1.58.709-1.58 1.584 0 .875.707 1.584 1.58 1.584ZM239.587 120.551a1.59 1.59 0 0 0-.977-1.464 1.573 1.573 0 0 0-1.723.347 1.581 1.581 0 0 0-.338 1.728 1.577 1.577 0 0 0 1.464.973 1.562 1.562 0 0 0 1.115-.464 1.581 1.581 0 0 0 .459-1.12Z" fill="#263238"/><path d="M348.07 289.26h18.313M59.142 289.26h279.433" stroke="#263238" stroke-linecap="round" stroke-linejoin="round"/><path d="M166.738 169.139c-1.988-3.399-7.834-16.484-7.834-16.484.176-1.398.462-2.78.855-4.133.481-1.359 1.695-5.478 1.451-6.335-.244-.856-3.764-2.433-4.124-2.555-.359-.123.482-2.189-.854-2.679-1.336-.489-1.818.245-1.818.245l-.509 3.399-1.56 2.447a19.786 19.786 0 0 0-2.034-1.36c-1.092-.611-3.642-.856-3.765.123-.122.978 2.035 1.821 2.788 2.433.753.612 1.702 3.528 2.557 4.384.776.85 1.506 1.742 2.184 2.672l.488 1.583s1.662 16.035 1.859 20.025c.196 3.99.793 14.546 1.987 16.137 1.194 1.591 1.397 2.597 4.747 1.4 3.351-1.196 3.975-2.793 4.748-6.382.773-3.589.821-11.535-1.166-14.92Z" fill="#fff" stroke="#263238" stroke-linecap="round" stroke-linejoin="round"/><path d="M167.931 184.079c.793-3.583.793-11.556-1.194-14.954a38.902 38.902 0 0 1-.78-1.428c-4.496-1.312-8.769.829-8.769.829l-1.085.476c.142 1.666.25 3.059.291 3.909.204 3.983.794 14.546 1.987 16.136 1.194 1.591 1.398 2.597 4.748 1.401 3.351-1.197 4.002-2.78 4.802-6.369Z" fill="#CBCBCB" stroke="#263238" stroke-linecap="round" stroke-linejoin="round"/><path d="M152.237 115.25c.49 1.803.763 3.658.814 5.526 0 2.657-.814 4.296.413 5.111 1.228.816 2.245.823 2.035 2.461a4.402 4.402 0 0 1-1.024 2.454s-.407 8.388-.814 9.21c-.407.823-5.717-.204-6.945-.415-1.228-.21-4.693 1.435-6.945-3.065-2.252-4.5-.407-11.256 3.676-14.737a99.909 99.909 0 0 1 8.79-6.545Z" fill="#fff" stroke="#263238" stroke-linecap="round" stroke-linejoin="round"/><path d="M153.051 120.742s-1.106-.83-1.689.625M152.06 124.127a5.003 5.003 0 0 0 .15 2.474M154.095 133.738a1.354 1.354 0 0 1-1.743-1.019" stroke="#263238" stroke-linecap="round" stroke-linejoin="round"/><path d="M156.408 172.211s-.678 3.113-1.282 4.758c-.603 1.645-11.428 4.663-16.142 5.288-3.105.389-6.23.595-9.359.619l.298 8.605s9.129.184 9.773 0c.645-.184 16.013-7.069 16.013-7.069l6.634-.87s2.787-.68 2.896-2.848c.108-2.169-2.354-8.334-3.473-9.292-1.119-.959-3.479-3.501-4.897-1.937-1.417 1.563-.461 2.746-.461 2.746Z" fill="#fff" stroke="#263238" stroke-linecap="round" stroke-linejoin="round"/><path d="M136.054 187.661c0-3.718.95-3.813 2.035-5.288a81.6 81.6 0 0 1-8.444.503l-.224 7.898s4.998.462 8.044.68c-.251.387-1.411-1.401-1.411-3.793Z" fill="#CBCBCB" stroke="#263238" stroke-linecap="round" stroke-linejoin="round"/><path d="M165.53 204.382a31.813 31.813 0 0 0-13.334-8.925l-11.91 5.091a27.316 27.316 0 0 0-3.649-6.362l-2.225-2.719 1.431-7.796s8.573-5.887 9.679-8.436l.041-.081c1.722 2.671 9.196 14.233 10.6 15.355 1.587 1.278 6.349 1.434 8.41-.476 2.062-1.91 3.019-3.181 2.544-6.043 0 0-3.174-6.845-4.924-9.869-1.75-3.025-5.555-13.84-7.461-17.184-1.356-2.393-1.919-4.078-2.882-5.207a18.926 18.926 0 0 0-2.354-3.222c-1.905-2.039-7.148-2.549-8.261-3.024-1.112-.476-1.268-.639-7.616-2.543-6.348-1.903-13.497-3.024-18.577.952 0 0-6.823 8.116-9.495 21.48-2.672 13.363-2.862 26.89-3.174 29.275-.312 2.386-3.019 14.003-3.812 20.685-.794 6.681 6.165 13.39 10.452 15.47 4.286 2.08 22.7 2.386 33.498 0 10.797-2.386 27.943-13.207 27.943-13.207s.631-6.688-4.924-13.214Z" fill="#CBCBCB" stroke="#263238" stroke-linecap="round" stroke-linejoin="round"/><path d="m137.458 174.984-2.177-.075M136.637 171.51a65.182 65.182 0 0 1 8.885 3.753l-5.589-.191" stroke="#263238" stroke-linecap="round" stroke-linejoin="round"/><path d="M166.134 175.528a7.457 7.457 0 0 1 1.126 3.269c0 1.502.251 3.514-.373 2.889s-.882-2.767-.882-2.767l.129-3.391Z" fill="#fff" stroke="#263238" stroke-linecap="round" stroke-linejoin="round"/><path d="M162.376 173.774s2.347-1.278 3.392.258c1.044 1.536.766 4.602 0 6.118-.767 1.516-1.642.068-1.533-1.278.108-1.346-1.859-5.098-1.859-5.098Z" fill="#fff" stroke="#263238" stroke-linecap="round" stroke-linejoin="round"/><path d="M161.495 172.143s2.353-1.278 3.391.258c1.038 1.536.759 4.595 0 6.118-.76 1.522-1.642.068-1.533-1.278.109-1.346-1.858-5.098-1.858-5.098Z" fill="#fff" stroke="#263238" stroke-linecap="round" stroke-linejoin="round"/><path d="M160.416 170.382s2.353-1.278 3.391.258c1.038 1.537.767 4.602 0 6.118-.766 1.516-1.641.068-1.533-1.278.109-1.346-1.858-5.098-1.858-5.098Z" fill="#fff" stroke="#263238" stroke-linecap="round" stroke-linejoin="round"/><path d="M154.461 108.867a13.412 13.412 0 0 1-1.817 6.96c-3.473 5.322-6.735 4.704-8.139 9.007-1.404 4.302-3.5 8.768-1.262 11.256 2.239 2.488 4.07 1.02 4.07 1.02s1.431 3.684-2.245 7.368-10.004 2.25-11.639 1.638a10.87 10.87 0 0 1-2.855-1.638s-1.024 2.868-6.104 2.868-10.852-3.48-10.852-9.829c0-6.348 3.466-10.637 4.287-13.098.82-2.461-1.431-10.026 2.034-14.73 3.466-4.704 8.817-8.157 12.887-8.157 4.069 0 12.011 2.237 12.045 2.25.536.293 3.968-1.108 4.897-1.046 3.412.19 4.653 2.997 4.693 6.131Z" fill="#263238" stroke="#263238" stroke-linecap="round" stroke-linejoin="round"/><path d="M141.208 137.98a8.51 8.51 0 0 0 2.232 0M151.518 112.436a14.383 14.383 0 0 1-1.974 5.132c-3.174 4.996-6.782 6.797-11.103 11.555-2.774 3.079-2.251 6.151 0 7.762M151.579 107.127c.132.749.198 1.509.196 2.27" stroke="#919191" stroke-linecap="round" stroke-linejoin="round"/><path d="M147.313 111.892s-.679 7.035-3.622 11.12c-2.944 4.085-8.817 6.118-8.607 10.441" stroke="#919191" stroke-linecap="round" stroke-linejoin="round"/><path d="M174.645 229.655s4.232 21.792 7.854 32.382c3.622 10.59 7.244 20.276 8.139 21.187.895.911 3.323 4.235 3.323 4.235a6.975 6.975 0 0 1-3.927 1.516c-2.116 0-4.829-2.719-7.25-4.242-2.421-1.522-2.713-2.42-7.549-4.235-4.836-1.814-.902-6.654.305-9.081a10.454 10.454 0 0 0 1.208-4.234 47.968 47.968 0 0 0-9.964-18.462c-7.535-8.469-9.047-28.113-9.047-28.113l14.494-5.438 2.414 14.485Z" fill="#fff" stroke="#263238" stroke-linecap="round" stroke-linejoin="round"/><path d="m190.042 282.136-.875.177s-5.135-6.96-9.055-9.38a8.52 8.52 0 0 0-4.53-1.509c-1.214 2.42-5.135 7.259-.306 9.074 4.829 1.815 5.135 2.719 7.549 4.235 2.415 1.516 5.134 4.241 7.25 4.241a6.966 6.966 0 0 0 3.927-1.515s-2.421-3.331-3.323-4.235a5.051 5.051 0 0 1-.637-1.088Z" fill="#CBCBCB" stroke="#263238" stroke-linecap="round" stroke-linejoin="round"/><path d="M187.607 288.112c-2.388-1.652-4.544-5.323-8.431-7.613-3.533-2.08-5.351-2.162-6.104-2.006a3.292 3.292 0 0 0 2.211 2.006c4.836 1.814 5.135 2.719 7.549 4.234 1.526.979 3.208 2.488 4.775 3.379ZM190.042 288.974a3.38 3.38 0 0 1 0 0Z" fill="#CBCBCB" stroke="#263238" stroke-linecap="round" stroke-linejoin="round"/><path d="M147.733 196.817s14.514-5.152 15.871-1.754c1.356 3.399 7.569 16.076 5.304 21.283-2.266 5.206-18.191-14.955-20.456-15.39-2.265-.435-.983-2.617-.719-4.139Z" fill="#fff" stroke="#263238" stroke-linecap="round" stroke-linejoin="round"/><path d="M161.956 203.458s16.501-1.359 19.668 1.591c3.168 2.95-7.684 38.289-13.564 49.389-9.218 17.36-6.43 21.907-6.43 21.907s.678 2.719 5.202 7.029c4.524 4.309 5.88 4.982 4.293 5.662-1.587.68-8.362 0-9.041-.456-.678-.455-5.649-4.527-10.173-5.886s-3.846-2.27-1.811-6.349c2.035-4.078 1.811-.679 4.069-7.701a207.815 207.815 0 0 0 6.403-26.407c1.2-7.28 3.032-15.274 2.516-22.676l-1.132-16.103Z" fill="#fff" stroke="#263238" stroke-linecap="round" stroke-linejoin="round"/><path d="M174.042 214.524a21.96 21.96 0 0 0-8.512-10.142c-7.216-4.615-13.334-8.925-13.334-8.925l-11.91 5.091s2.903 4.935-12.018 7.43c-11.489 1.917-22.036-.863-27.726-4.214-.794 3.949-1.621 8.34-2.035 11.555-.794 6.682 6.192 13.363 10.479 15.437 4.286 2.073 38.822 6.362 48.12.373 16.936-10.855 16.936-16.605 16.936-16.605Z" fill="#263238" stroke="#263238" stroke-linecap="round" stroke-linejoin="round"/><path d="M138.936 204.294c-1.593 1.312-4.7 2.719-10.668 3.691-11.49 1.917-22.036-.863-27.726-4.214a406.65 406.65 0 0 0-.61 3.092c3.899 2.352 12.092 6.335 21.33 5.2 11.021-1.352 15.918-4.37 17.674-7.769Z" fill="#CBCBCB" stroke="#263238" stroke-linecap="round" stroke-linejoin="round"/><path d="M130.133 218.854c-.529.679-1.078 1.359-1.634 2.039M138.441 205.953a103.454 103.454 0 0 1-6.972 11.106M133.47 210.255s-4.069 5.438-8.363 8.612" stroke="#fff" stroke-linecap="round" stroke-linejoin="round"/><path d="M166.832 283.36c-4.524-4.296-5.202-7.015-5.202-7.015a1.466 1.466 0 0 1-.353-.503c-.305.32-1.227.925-3.486.055-1.96-.755-3.818-2.039-5.778-2.903-.468.836-.923 1.36-1.913 3.351-2.035 4.079-2.713 4.99 1.811 6.349 4.524 1.36 9.495 5.438 10.173 5.887.679.448 7.461 1.135 9.041.455 1.581-.68.231-1.373-4.293-5.676Z" fill="#CBCBCB" stroke="#263238" stroke-linecap="round" stroke-linejoin="round"/><path d="m170.997 216.828 7.691-4.758" stroke="#263238" stroke-linecap="round" stroke-linejoin="round"/><path d="M79.116 173.747s24.498-3.073 40.152 1.359l2.38 59.687H84.915s2.367-32.063-5.799-61.046Z" fill="#919191" stroke="#263238" stroke-linecap="round" stroke-linejoin="round"/><path d="M119.268 175.106c-15.654-4.432-40.152-1.359-40.152-1.359a165.734 165.734 0 0 1 5.202 29.514 146.864 146.864 0 0 1 37.134 26.509l-2.184-54.664Z" fill="#757575" stroke="#263238" stroke-linecap="round" stroke-linejoin="round"/><path d="M165.462 290.62a1.355 1.355 0 0 1-1.275-.884c-5.426-14.655-6.782-52.699-6.863-54.31a1.358 1.358 0 1 1 2.713-.095c0 .394 1.41 39.213 6.694 53.453a1.36 1.36 0 0 1-.801 1.747c-.149.06-.307.09-.468.089ZM135.925 290.62a1.36 1.36 0 0 1-1.268-.884c-5.426-14.655-6.782-52.699-6.871-54.31a1.358 1.358 0 1 1 2.713-.095c0 .394 1.411 39.213 6.701 53.453a1.364 1.364 0 0 1-1.275 1.836Z" fill="#fff" stroke="#263238" stroke-linecap="round" stroke-linejoin="round"/><path d="M165.096 234.766H84.271v-2.719h78.126a2.72 2.72 0 0 1 2.713 2.719h-.014Z" fill="#919191" stroke="#263238" stroke-linecap="round" stroke-linejoin="round"/><path d="M165.089 234.107H84.271v2.698h80.818v-2.698Z" fill="#fff" stroke="#263238" stroke-linecap="round" stroke-linejoin="round"/><path d="M118.664 290.619a1.344 1.344 0 0 1-1.073-.49 1.367 1.367 0 0 1-.283-1.148c7.671-36.42.678-113.005.583-113.773a1.36 1.36 0 0 1 .721-1.333 1.363 1.363 0 0 1 1.992 1.082c.075.775 7.121 77.761-.631 114.582a1.357 1.357 0 0 1-1.309 1.08ZM76.614 289.627a1.21 1.21 0 0 1-.374-.054 1.36 1.36 0 0 1-.936-1.672c17.635-62.739 2.666-113.257 2.517-113.76a1.36 1.36 0 0 1 1.921-1.55c.312.157.551.427.67.755.156.51 15.382 51.748-2.496 115.289a1.359 1.359 0 0 1-1.302.992Z" fill="#fff" stroke="#263238" stroke-linecap="round" stroke-linejoin="round"/><path d="M324.589 177.547s-8.335-4.643-8.952 5.879c-.617 10.523-2.157 78.91-2.157 78.91" stroke="#263238" stroke-width="2" stroke-linecap="round" stroke-linejoin="round"/><path d="M311.31 184.351s6.782 15.164 3.71 77.06" stroke="#263238" stroke-width="2" stroke-linecap="round" stroke-linejoin="round"/><path d="M317.99 179.667s-3.194 2.039-5.005-.299 1.228-6.634-1.451-8.469c-2.679-1.836-7.312.965-7.312.965s3.561 1.047 3.446 2.998c-.116 1.95-1.831 2.684-2.035 1.835-.203-.85-1.933-5.146-4.822-3.358a7.163 7.163 0 0 0-3.337 4.554s6.735-.72 7.142 1.815c.407 2.535-2.761-.442-5.541-.605-2.781-.163-5.318.245-5.135 1.93a22.255 22.255 0 0 1-.264 4.459 8.279 8.279 0 0 1 5.426-1.916c3.058.183 2.943 2.134.162 1.971-2.78-.163-5.168 2.488-5.168 2.488s2.537 4.343 5.759 6.491c3.221 2.148 4.381 1.36 4.747-.279.366-1.638-.488-5.9 1.458-5.784 1.947.115-3.221 7.355-.739 7.783 2.482.428 4.483-.293 5.134-1.931l.679-1.638s-.869-4.248-.489-5.9c.38-1.652.834.048 1.275 2.039.441 1.992.719 6.75 1.567 6.519.848-.231 3.568-3.698 4.205-5.064.638-1.366-3.581-5.519-3.534-6.356.048-.836 3.303.755 3.812 1.625.37.661.702 1.342.997 2.039 0 0 2.035-1.278 1.981-5.193-.055-3.915-2.958-2.719-2.958-2.719Z" fill="#CBCBCB"/><path opacity=".3" d="M317.99 179.667s-3.194 2.039-5.005-.299 1.228-6.634-1.451-8.469c-2.679-1.836-7.312.965-7.312.965s3.561 1.047 3.446 2.998c-.116 1.95-1.831 2.684-2.035 1.835-.203-.85-1.933-5.146-4.822-3.358a7.163 7.163 0 0 0-3.337 4.554s6.735-.72 7.142 1.815c.407 2.535-2.761-.442-5.541-.605-2.781-.163-5.318.245-5.135 1.93a22.255 22.255 0 0 1-.264 4.459 8.279 8.279 0 0 1 5.426-1.916c3.058.183 2.943 2.134.162 1.971-2.78-.163-5.168 2.488-5.168 2.488s2.537 4.343 5.759 6.491c3.221 2.148 4.381 1.36 4.747-.279.366-1.638-.488-5.9 1.458-5.784 1.947.115-3.221 7.355-.739 7.783 2.482.428 4.483-.293 5.134-1.931l.679-1.638s-.869-4.248-.489-5.9c.38-1.652.834.048 1.275 2.039.441 1.992.719 6.75 1.567 6.519.848-.231 3.568-3.698 4.205-5.064.638-1.366-3.581-5.519-3.534-6.356.048-.836 3.303.755 3.812 1.625.37.661.702 1.342.997 2.039 0 0 2.035-1.278 1.981-5.193-.055-3.915-2.958-2.719-2.958-2.719Z" fill="#263238"/><path d="M301.821 188.85c2.082-2.576 5.141-6.063 7.712-7.728M299.414 191.984s.529-.741 1.397-1.856M310.889 181.761s3.093 4.377 3.663 8.884M307.376 184.351s.869-.51.543 5.064M309.648 179.144s1.77-1.57.834-4.704M307.261 181.829 306 179.518M304.609 184.187s-4.002-3.031-6.505-3.181" stroke="#263238" stroke-linecap="round" stroke-linejoin="round"/><path d="M329.358 171.409s-.129 4.595-3.71 4.819c-3.581.224-5.793-5.757-9.455-4.316-3.662 1.441-4.015 7.993-4.015 7.993s3.472-2.862 5.344-1.42c1.872 1.441 1.438 3.67.428 3.317-1.011-.354-6.45-1.571-6.64 2.549a8.731 8.731 0 0 0 2.272 6.457s3.873-7.253 6.694-5.934c2.821 1.319-2.326 2.474-4.388 5.152s-3.391 5.499-1.567 6.471a26.61 26.61 0 0 1 4.273 3.297s-.488-3.793 1.777-6.736c2.265-2.943 4.13-1.502 2.075 1.176-2.055 2.678-1.037 6.885-1.037 6.885s6.063.415 10.404-1.359c4.34-1.774 4.368-3.46 2.97-4.962-1.397-1.502-6.226-3.528-4.788-5.438 1.438-1.91 5.155 8.245 7.278 6.043 2.122-2.202 2.76-4.697 1.566-6.471l-1.193-1.767s-4.829-2.04-6.227-3.535c-1.397-1.495.618-.802 2.903.109 2.286.911 7.23 3.881 7.583 2.868.353-1.013-1.268-6.117-2.191-7.667-.922-1.55-7.962-.17-8.763-.789-.8-.618 3.005-2.8 4.219-2.718.91.075 1.816.2 2.713.373 0 0 .108-2.909-3.839-5.526s-4.686 1.129-4.686 1.129Z" fill="#CBCBCB"/><path opacity=".2" d="M329.358 171.409s-.129 4.595-3.71 4.819c-3.581.224-5.793-5.757-9.455-4.316-3.662 1.441-4.015 7.993-4.015 7.993s3.472-2.862 5.344-1.42c1.872 1.441 1.438 3.67.428 3.317-1.011-.354-6.45-1.571-6.64 2.549a8.731 8.731 0 0 0 2.272 6.457s3.873-7.253 6.694-5.934c2.821 1.319-2.326 2.474-4.388 5.152s-3.391 5.499-1.567 6.471a26.61 26.61 0 0 1 4.273 3.297s-.488-3.793 1.777-6.736c2.265-2.943 4.13-1.502 2.075 1.176-2.055 2.678-1.037 6.885-1.037 6.885s6.063.415 10.404-1.359c4.34-1.774 4.368-3.46 2.97-4.962-1.397-1.502-6.226-3.528-4.788-5.438 1.438-1.91 5.155 8.245 7.278 6.043 2.122-2.202 2.76-4.697 1.566-6.471l-1.193-1.767s-4.829-2.04-6.227-3.535c-1.397-1.495.618-.802 2.903.109 2.286.911 7.23 3.881 7.583 2.868.353-1.013-1.268-6.117-2.191-7.667-.922-1.55-7.962-.17-8.763-.789-.8-.618 3.005-2.8 4.219-2.718.91.075 1.816.2 2.713.373 0 0 .108-2.909-3.839-5.526s-4.686 1.129-4.686 1.129Z" fill="#263238"/><path d="M327.512 193.887c-1.146-3.867-2.557-9.305-2.462-13.003M328.998 198.448s-.38-1.047-.902-2.671M326.611 179.96s6.477-.123 11.367 2.379M326.814 185.262s.082-1.217 5.426 2.909M323.179 179.436s-.366-2.841-4.131-4.037M324.203 183.643l-3.167-.312M324.753 187.912s-5.758 1.951-7.61 4.364" stroke="#263238" stroke-linecap="round" stroke-linejoin="round"/><path d="M290.936 201.996s18.217 12.066 17.912 58.797" stroke="#263238" stroke-width="2" stroke-linecap="round" stroke-linejoin="round"/><path d="M313.399 198.808s-.583 5.289-4.748 5.207c-4.164-.081-6.104-7.191-10.499-5.873-4.395 1.319-5.392 8.837-5.392 8.837s4.287-2.977 6.308-1.129c2.021 1.849 1.309 4.371.176 3.868-1.132-.503-7.297-2.427-7.901 2.311a10.083 10.083 0 0 0 2.035 7.661s5.154-8.001 8.281-6.206c3.127 1.794-2.917 2.63-5.548 5.526-2.632 2.896-4.415 6.022-2.421 7.314a30.65 30.65 0 0 1 4.625 4.214s-.21-4.418 2.679-7.606c2.889-3.188 4.917-1.359 2.286 1.557-2.632 2.916-1.845 7.844-1.845 7.844s6.966 1.053 12.14-.578c5.175-1.631 5.359-3.575 3.887-5.438-1.472-1.862-6.85-4.663-5.012-6.688 1.838-2.026 5.168 10.005 7.826 7.66 2.659-2.345 3.622-5.152 2.415-7.314l-1.207-2.161s-5.379-2.794-6.851-4.663c-1.471-1.87.787-.864 3.337.401 2.551 1.264 7.983 5.159 8.478 4.031.495-1.129-.888-7.165-1.804-9.061-.915-1.897-9.169-.952-10.038-1.74-.868-.789 3.737-2.944 5.128-2.719 1.035.173 2.061.399 3.072.679 0 0 .394-3.344-3.913-6.742-4.307-3.399-5.494.808-5.494.808Z" fill="#CBCBCB"/><path opacity=".3" d="M313.399 198.808s-.583 5.289-4.748 5.207c-4.164-.081-6.104-7.191-10.499-5.873-4.395 1.319-5.392 8.837-5.392 8.837s4.287-2.977 6.308-1.129c2.021 1.849 1.309 4.371.176 3.868-1.132-.503-7.297-2.427-7.901 2.311a10.083 10.083 0 0 0 2.035 7.661s5.154-8.001 8.281-6.206c3.127 1.794-2.917 2.63-5.548 5.526-2.632 2.896-4.415 6.022-2.421 7.314a30.65 30.65 0 0 1 4.625 4.214s-.21-4.418 2.679-7.606c2.889-3.188 4.917-1.359 2.286 1.557-2.632 2.916-1.845 7.844-1.845 7.844s6.966 1.053 12.14-.578c5.175-1.631 5.359-3.575 3.887-5.438-1.472-1.862-6.85-4.663-5.012-6.688 1.838-2.026 5.168 10.005 7.826 7.66 2.659-2.345 3.622-5.152 2.415-7.314l-1.207-2.161s-5.379-2.794-6.851-4.663c-1.471-1.87.787-.864 3.337.401 2.551 1.264 7.983 5.159 8.478 4.031.495-1.129-.888-7.165-1.804-9.061-.915-1.897-9.169-.952-10.038-1.74-.868-.789 3.737-2.944 5.128-2.719 1.035.173 2.061.399 3.072.679 0 0 .394-3.344-3.913-6.742-4.307-3.399-5.494.808-5.494.808Z" fill="#263238"/><path d="M309.153 224.57c-.977-4.54-2.069-10.964-1.621-15.239M310.441 229.974s-.339-1.244-.793-3.167M309.411 208.413s7.46.476 12.886 3.82M309.16 214.49s.21-1.394 5.988 3.874M305.511 207.489s-.156-3.317-4.382-5.058M306.298 212.437l-3.622-.659M306.535 217.413s-6.83 1.713-9.197 4.316" stroke="#263238" stroke-linecap="round" stroke-linejoin="round"/><path d="M298.037 238.817s11.733 8.973 12.967 22.282l-2.468-44.57M326.441 232.319c-15.437-2.787-15.437 28.78-15.437 28.78" stroke="#263238" stroke-width="2" stroke-linecap="round" stroke-linejoin="round"/><path d="M312.856 260.793s-8.953-65.295 16.956-65.295" stroke="#263238" stroke-width="2" stroke-linecap="round" stroke-linejoin="round"/><path d="M320.561 230.443c-2.109-2.379-6.592-2.379-9.224 3.698-2.632 6.077-.264 5.023-.264 5.023s5.005-1.591 8.172-2.644c3.168-1.054 7.379-3.698 7.644-2.114.264 1.584-2.109 3.167-5.012 3.698-2.903.53-10.54 2.644-9.753 4.255.787 1.611 2.638 6.342 2.638 6.342a66.37 66.37 0 0 1 7.115-5.282c3.432-2.114 5.541-1.325 3.696 1.054-1.845 2.379-7.121 5.016-6.063 8.19 1.058 3.175 7.379 7.131 7.379 7.131s.794-6.6 2.638-8.714c1.845-2.114 1.845.265 1.316 3.962a42.94 42.94 0 0 0-.529 4.759l7.379 2.644a52.858 52.858 0 0 1 3.954-5.282l1.357-1.359s-5.799-5.017-6.064-8.157c-.264-3.14 3.955 0 5.27.53 1.316.53 3.425 4.228 3.425 4.228s1.323-6.077 1.587-8.191l.265-2.114s-5.541-2.114-7.651-2.114c-2.109 0-3.16 1.584-3.16-.523s2.109-3.439 4.483-3.174c2.148.36 4.264.889 6.328 1.583 0 0 1.58-1.318 1.051-5.281-.529-3.963-1.845-3.963-5.005-2.909-3.161 1.053-5.277 3.439-7.651 3.439-2.373 0-1.051-2.909.529-3.698 1.581-.788 5.535-2.379 6.328-2.644.794-.265-4.218-3.963-6.857-4.493-2.638-.53-6.049 1.36-5.799 3.963.496 5.513-7.413 6.593-9.522 4.194Z" fill="#CBCBCB"/><path d="M337.53 257.646c.082.793.136 1.588.163 2.386M332.233 238.682a70.06 70.06 0 0 1 4.985 16.368M331.284 236.561c-1.303-2.814-2.286-4.534-2.286-4.534a7.762 7.762 0 0 0 3.425-3.168 8.834 8.834 0 0 1 2.638-3.174M319.774 240.999s9.496-3.963 9.496-3.174M334.505 235.99s4.219-2.114 7.909-2.114M332.952 242.359a36.49 36.49 0 0 0-5.012 5.023 22.878 22.878 0 0 0-3.69 6.07M335.862 243.392s5.541-1.591 8.438 1.053" stroke="#263238" stroke-linecap="round" stroke-linejoin="round"/><path d="M345.879 207.693c-2.869-1.7-6.043-1.74-7.603-3.535-1.56-1.794 1.499-2.719 3.134-2.039 1.634.68 5.426 2.63 6.138 3.052.712.421.224-5.785-1.106-8.157-1.329-2.372-4.971-3.704-6.782-1.788-3.832 4.031-9.814-1.257-9.407-4.411.407-3.154-2.53-6.546-8.817-4.561-6.287 1.985-3.954 3.093-3.954 3.093s4.476 2.753 7.352 4.452c2.875 1.699 7.623 3.161 6.599 4.398-1.024 1.237-3.771.483-6.07-1.36-2.3-1.842-8.899-6.246-9.577-4.608-.678 1.638-3.052 6.151-3.052 6.151a66.71 66.71 0 0 1 8.647 1.924c3.839 1.21 4.626 3.324 1.628 3.487-2.998.163-8.451-2.093-10.173.782-1.723 2.875-.536 10.257-.536 10.257s5.494-3.725 8.295-3.718c2.801.007 1.01 1.57-2.123 3.596a42.332 42.332 0 0 0-3.927 2.718l2.848 7.321a52.747 52.747 0 0 1 6.573-.476l1.858.136s0-7.681 2.197-9.958c2.198-2.277 2.591 2.991 3.059 4.337.468 1.346-.936 5.363-.936 5.363s5.426-2.984 7.203-4.174l1.77-1.182s-2.034-5.581-3.425-7.171c-1.39-1.591-3.262-1.36-1.675-2.719 1.587-1.36 3.974-.68 5.331 1.318a40.815 40.815 0 0 1 2.95 5.826s2.035.333 4.673-2.665c2.639-2.998 1.777-3.99-1.092-5.689Zm-24.938 8.456c-2.11-1.061 2.896-3.175 2.896-3.175 1.851-.258-.794 4.235-2.896 3.175Zm3.547-9.863c-.895-.449 1.797-1.36 1.797-1.36 3.893.728-.902 1.808-1.804 1.36h.007Z" fill="#CBCBCB"/><path d="M320.873 221.532a38.896 38.896 0 0 1-1.689 1.685M331.69 205.089a69.704 69.704 0 0 1-9.081 14.485M332.667 202.982c1.269-2.834 1.913-4.704 1.913-4.704a7.809 7.809 0 0 0 4.639.517 8.738 8.738 0 0 1 4.117-.088M330.375 202.289c.597-.524-8.607-5.105-8.607-5.105M335.224 205.062s4.361 1.808 6.783 4.602M329.412 208.026a36.372 36.372 0 0 0-7.067-.503 22.869 22.869 0 0 0-7 1.189M330.517 210.915s4.822 3.147 4.748 7.076" stroke="#263238" stroke-linecap="round" stroke-linejoin="round"/><path d="M304.914 244.296c-2.306-1.359-4.863-1.393-6.104-2.841-1.241-1.448 1.2-2.175 2.516-1.632 1.316.544 4.368 2.121 4.944 2.461.577.34.177-4.663-.895-6.546s-4.002-2.977-5.46-1.441c-3.086 3.249-7.901-1.013-7.569-3.548.332-2.535-2.035-5.268-7.115-3.67-5.08 1.597-3.18 2.487-3.18 2.487s3.601 2.216 5.914 3.583c2.313 1.366 6.138 2.549 5.31 3.541-.827.992-3.031.394-4.883-1.094-1.852-1.489-7.162-5.03-7.705-3.712-.542 1.319-2.455 4.949-2.455 4.949 2.351.363 4.676.881 6.959 1.549 3.086.972 3.716 2.672 1.302 2.801-2.415.129-6.782-1.686-8.139.632-1.356 2.318-.434 8.259-.434 8.259s4.422-3.005 6.674-2.998c2.252.007.814 1.264-1.702 2.896-1.094.669-2.15 1.4-3.161 2.189l2.286 5.886a41.96 41.96 0 0 1 5.29-.374l1.499.102s0-6.179 1.77-8.014c1.77-1.835 2.082 2.406 2.455 3.494.373 1.087-.753 4.316-.753 4.316s4.382-2.406 5.799-3.358l1.425-.958s-1.642-4.486-2.754-5.771c-1.112-1.285-2.632-1.088-1.357-2.202 1.275-1.115 3.195-.53 4.287 1.053a33.252 33.252 0 0 1 2.38 4.69s1.635.266 3.758-2.141c2.123-2.406 1.411-3.215-.902-4.588Zm-20.076 6.797c-1.696-.849 2.333-2.549 2.333-2.549 1.486-.204-.637 3.413-2.333 2.556v-.007Zm2.869-7.925c-.726-.367 1.445-1.088 1.445-1.088 3.126.605-.733 1.448-1.445 1.088Z" fill="#CBCBCB"/><path d="M284.797 255.437c-.44.462-.895.917-1.356 1.359M293.499 242.202a56.079 56.079 0 0 1-7.304 11.658M294.286 240.503c1.017-2.277 1.54-3.779 1.54-3.779a6.29 6.29 0 0 0 3.73.414 7.004 7.004 0 0 1 3.31-.068M285.51 235.84s7.413 3.691 6.931 4.078M296.341 242.182s3.506 1.455 5.426 3.704M291.662 244.568a29.17 29.17 0 0 0-5.684-.401 18.034 18.034 0 0 0-5.629.958M292.557 246.893s3.879 2.535 3.805 5.689" stroke="#263238" stroke-linecap="round" stroke-linejoin="round"/><path d="M295.5 200.671s-2.903 2.114-4.747 0c-1.845-2.114.793-6.342-1.845-7.926-2.639-1.583-6.85 1.319-6.85 1.319s3.425.795 3.425 2.644c0 1.849-1.581 2.644-1.845 1.849-.265-.795-2.109-4.758-4.748-2.902a6.779 6.779 0 0 0-1.906 1.945 6.824 6.824 0 0 0-.99 2.541s6.321-1.054 6.85 1.325c.529 2.379-2.631-.265-5.27-.265-2.638 0-5.012.53-4.747 2.114a20.888 20.888 0 0 1 0 4.228 7.832 7.832 0 0 1 5.012-2.114c2.896 0 2.896 1.849.265 1.849-2.632 0-4.748 2.644-4.748 2.644s2.638 3.963 5.799 5.812c3.16 1.849 4.218 1.053 4.483-.53.264-1.584-.794-5.547 1.051-5.547s-2.631 7.13-.264 7.395c2.367.265 4.218-.53 4.747-2.114l.529-1.583s-1.058-3.963-.793-5.547c.264-1.584.793 0 1.316 1.849.522 1.849 1.058 6.335 1.851 6.077.794-.259 3.161-3.705 3.69-5.023.529-1.319-3.69-5.017-3.69-5.812 0-.795 3.161.53 3.69 1.319.529.788 1.051 1.848 1.051 1.848s1.845-1.318 1.58-5.016c-.264-3.698-2.896-2.379-2.896-2.379Z" fill="#CBCBCB"/><path d="M280.729 210.255c1.824-2.549 4.53-6.016 6.863-7.735M278.626 213.355s.468-.734 1.221-1.835M288.908 203.05s3.167 3.963 3.954 8.191M285.747 205.694s.787-.53.787 4.758M287.592 200.671s1.58-1.584.529-4.493M285.482 203.315l-1.315-2.114M283.109 205.694s-3.954-2.644-6.328-2.644" stroke="#263238" stroke-linecap="round" stroke-linejoin="round"/><path d="M322.121 259.862H301.74v29.398h20.381v-29.398Z" fill="#263238" stroke="#263238" stroke-width="2" stroke-linecap="round" stroke-linejoin="round"/></svg>